<?xml version="1.0" encoding="utf-8"?>
<!-- Generator: Adobe Illustrator 19.2.0, SVG Export Plug-In . SVG Version: 6.00 Build 0)  -->
<svg version="1.1" id="Layer_1" xmlns="http://www.w3.org/2000/svg" xmlns:xlink="http://www.w3.org/1999/xlink" x="0px" y="0px"
	 viewBox="0 0 106.565 90.942" style="enable-background:new 0 0 106.565 90.942;" xml:space="preserve">
<style type="text/css">
	.st0{fill:#0671FC;}
	.st1{fill:#FFFFFF;}
	.st2{fill:#FF435A;}
	.st3{fill-rule:evenodd;clip-rule:evenodd;fill:#FFFFFF;}
	.st4{fill:#147ED7;}
	.st5{fill:#1583DC;}
	.st6{fill-rule:evenodd;clip-rule:evenodd;fill:#147FD7;}
	.st7{fill:#147FD8;}
	.st8{fill:url(#SVGID_1_);}
	.st9{fill:none;}
	.st10{clip-path:url(#SVGID_3_);fill:url(#SVGID_4_);}
	.st11{clip-path:url(#SVGID_3_);fill:url(#SVGID_5_);}
	.st12{clip-path:url(#SVGID_3_);fill:url(#SVGID_6_);}
	.st13{fill-rule:evenodd;clip-rule:evenodd;fill:#BABABA;}
	.st14{fill-rule:evenodd;clip-rule:evenodd;fill:#B6B6B6;}
	.st15{fill-rule:evenodd;clip-rule:evenodd;fill:#BFBFBF;}
	.st16{fill-rule:evenodd;clip-rule:evenodd;fill:#B4B4B4;}
	.st17{fill-rule:evenodd;clip-rule:evenodd;fill:#BBBBBB;}
	.st18{fill-rule:evenodd;clip-rule:evenodd;fill:#C1C1C1;}
	.st19{fill-rule:evenodd;clip-rule:evenodd;fill:#C0C0C0;}
	.st20{fill-rule:evenodd;clip-rule:evenodd;fill:#FCFCFC;}
	.st21{fill-rule:evenodd;clip-rule:evenodd;fill:#C4C4C4;}
	.st22{fill-rule:evenodd;clip-rule:evenodd;fill:#BDBDBD;}
	.st23{fill-rule:evenodd;clip-rule:evenodd;fill:#FBFBFB;}
	.st24{fill-rule:evenodd;clip-rule:evenodd;fill:#E3E3E3;}
	.st25{fill-rule:evenodd;clip-rule:evenodd;fill:#DBDBDB;}
	.st26{fill-rule:evenodd;clip-rule:evenodd;fill:#C3C3C3;}
	.st27{fill-rule:evenodd;clip-rule:evenodd;fill:#D8D8D8;}
	.st28{fill-rule:evenodd;clip-rule:evenodd;fill:#E9E9E9;}
	.st29{fill-rule:evenodd;clip-rule:evenodd;fill:#E0E0E0;}
	.st30{fill-rule:evenodd;clip-rule:evenodd;fill:#C7C7C7;}
	.st31{fill-rule:evenodd;clip-rule:evenodd;fill:#CDCDCD;}
	.st32{fill-rule:evenodd;clip-rule:evenodd;fill:#D4D4D4;}
	.st33{fill-rule:evenodd;clip-rule:evenodd;fill:#DFDFDF;}
	.st34{fill-rule:evenodd;clip-rule:evenodd;fill:#F4F4F4;}
	.st35{fill-rule:evenodd;clip-rule:evenodd;fill:#D7D7D7;}
	.st36{fill-rule:evenodd;clip-rule:evenodd;fill:#CBCBCB;}
	.st37{fill-rule:evenodd;clip-rule:evenodd;fill:#B7B7B7;}
	.st38{fill-rule:evenodd;clip-rule:evenodd;fill:#BCBCBC;}
	.st39{fill-rule:evenodd;clip-rule:evenodd;fill:#CCCCCC;}
	.st40{fill-rule:evenodd;clip-rule:evenodd;fill:#A5A5A5;}
	.st41{fill-rule:evenodd;clip-rule:evenodd;fill:#C8C8C8;}
	.st42{fill-rule:evenodd;clip-rule:evenodd;fill:#A4A4A4;}
	.st43{fill-rule:evenodd;clip-rule:evenodd;fill:#D1D1D1;}
	.st44{fill-rule:evenodd;clip-rule:evenodd;fill:#D2D2D2;}
	.st45{fill-rule:evenodd;clip-rule:evenodd;fill:#A6A6A6;}
	.st46{fill-rule:evenodd;clip-rule:evenodd;fill:#B2B2B2;}
	.st47{fill-rule:evenodd;clip-rule:evenodd;fill:#F3F3F3;}
	.st48{fill-rule:evenodd;clip-rule:evenodd;fill:#C6C6C6;}
	.st49{fill-rule:evenodd;clip-rule:evenodd;fill:#EFEFEF;}
	.st50{fill-rule:evenodd;clip-rule:evenodd;fill:#CFCFCF;}
	.st51{fill-rule:evenodd;clip-rule:evenodd;fill:#D5D5D5;}
	.st52{fill-rule:evenodd;clip-rule:evenodd;fill:#BEBEBE;}
	.st53{fill-rule:evenodd;clip-rule:evenodd;fill:#C9C9C9;}
	.st54{fill-rule:evenodd;clip-rule:evenodd;fill:#B9B9B9;}
	.st55{fill-rule:evenodd;clip-rule:evenodd;fill:#F8F8F8;}
	.st56{fill-rule:evenodd;clip-rule:evenodd;fill:#CECECE;}
	.st57{fill-rule:evenodd;clip-rule:evenodd;fill:#E7E7E7;}
	.st58{fill-rule:evenodd;clip-rule:evenodd;fill:#F7F7F7;}
	.st59{fill-rule:evenodd;clip-rule:evenodd;fill:#F9F9F9;}
	.st60{fill-rule:evenodd;clip-rule:evenodd;fill:#C5C5C5;}
	.st61{fill-rule:evenodd;clip-rule:evenodd;fill:#ADADAD;}
	.st62{fill-rule:evenodd;clip-rule:evenodd;fill:#D0D0D0;}
	.st63{fill-rule:evenodd;clip-rule:evenodd;fill:#B8B8B8;}
	.st64{fill-rule:evenodd;clip-rule:evenodd;fill:#E5E5E5;}
	.st65{fill-rule:evenodd;clip-rule:evenodd;fill:#FAFAFA;}
	.st66{fill-rule:evenodd;clip-rule:evenodd;fill:#EAEAEA;}
	.st67{fill-rule:evenodd;clip-rule:evenodd;fill:#AFAFAF;}
	.st68{fill-rule:evenodd;clip-rule:evenodd;fill:#9A9A9A;}
	.st69{fill-rule:evenodd;clip-rule:evenodd;fill:#DDDDDD;}
	.st70{fill-rule:evenodd;clip-rule:evenodd;fill:#E6E6E6;}
	.st71{fill-rule:evenodd;clip-rule:evenodd;fill:#F2F2F2;}
	.st72{fill-rule:evenodd;clip-rule:evenodd;fill:#B3B3B3;}
	.st73{fill-rule:evenodd;clip-rule:evenodd;fill:#F1F1F1;}
	.st74{fill-rule:evenodd;clip-rule:evenodd;fill:#F5F5F5;}
	.st75{fill-rule:evenodd;clip-rule:evenodd;fill:#A7A7A7;}
	.st76{fill-rule:evenodd;clip-rule:evenodd;fill:#A8A8A8;}
	.st77{fill-rule:evenodd;clip-rule:evenodd;fill:#F6F6F6;}
	.st78{fill-rule:evenodd;clip-rule:evenodd;fill:#B5B5B5;}
	.st79{fill-rule:evenodd;clip-rule:evenodd;fill:#E8E8E8;}
	.st80{fill-rule:evenodd;clip-rule:evenodd;fill:#ABABAB;}
	.st81{fill-rule:evenodd;clip-rule:evenodd;fill:#E2E2E2;}
	.st82{fill-rule:evenodd;clip-rule:evenodd;fill:#B0B0B0;}
	.st83{fill-rule:evenodd;clip-rule:evenodd;fill:#D6D6D6;}
	.st84{fill-rule:evenodd;clip-rule:evenodd;fill:#989898;}
	.st85{fill-rule:evenodd;clip-rule:evenodd;fill:#E1E1E1;}
	.st86{fill-rule:evenodd;clip-rule:evenodd;fill:#C2C2C2;}
	.st87{fill-rule:evenodd;clip-rule:evenodd;fill:#959595;}
	.st88{fill-rule:evenodd;clip-rule:evenodd;fill:#A2A2A2;}
	.st89{fill-rule:evenodd;clip-rule:evenodd;fill:#ACACAC;}
	.st90{fill-rule:evenodd;clip-rule:evenodd;fill:#A3A3A3;}
	.st91{fill-rule:evenodd;clip-rule:evenodd;fill:#F0F0F0;}
	.st92{fill-rule:evenodd;clip-rule:evenodd;fill:#939393;}
	.st93{fill-rule:evenodd;clip-rule:evenodd;fill:#A9A9A9;}
	.st94{fill-rule:evenodd;clip-rule:evenodd;fill:#9E9E9E;}
	.st95{fill-rule:evenodd;clip-rule:evenodd;fill:#B1B1B1;}
	.st96{fill-rule:evenodd;clip-rule:evenodd;fill:#DADADA;}
	.st97{fill-rule:evenodd;clip-rule:evenodd;fill:#D9D9D9;}
	.st98{fill-rule:evenodd;clip-rule:evenodd;fill:#9D9D9D;}
	.st99{fill-rule:evenodd;clip-rule:evenodd;fill:#AAAAAA;}
	.st100{fill-rule:evenodd;clip-rule:evenodd;fill:#DEDEDE;}
	.st101{fill-rule:evenodd;clip-rule:evenodd;fill:#A0A0A0;}
	.st102{fill-rule:evenodd;clip-rule:evenodd;fill:#CACACA;}
	.st103{fill-rule:evenodd;clip-rule:evenodd;fill:#8F8F8F;}
	.st104{fill-rule:evenodd;clip-rule:evenodd;fill:#D3D3D3;}
	.st105{fill-rule:evenodd;clip-rule:evenodd;fill:#949494;}
	.st106{fill-rule:evenodd;clip-rule:evenodd;fill:#9B9B9B;}
	.st107{fill-rule:evenodd;clip-rule:evenodd;fill:#9F9F9F;}
	.st108{fill-rule:evenodd;clip-rule:evenodd;fill:#ECECEC;}
	.st109{fill-rule:evenodd;clip-rule:evenodd;fill:#919191;}
	.st110{fill-rule:evenodd;clip-rule:evenodd;fill:#DCDCDC;}
	.st111{fill-rule:evenodd;clip-rule:evenodd;fill:#FDFDFD;}
	.st112{fill-rule:evenodd;clip-rule:evenodd;fill:#999999;}
	.st113{fill-rule:evenodd;clip-rule:evenodd;fill:#A1A1A1;}
	.st114{fill-rule:evenodd;clip-rule:evenodd;fill:#969696;}
	.st115{fill-rule:evenodd;clip-rule:evenodd;fill:#AEAEAE;}
	.st116{fill-rule:evenodd;clip-rule:evenodd;fill:#E4E4E4;}
	.st117{fill-rule:evenodd;clip-rule:evenodd;fill:#EEEEEE;}
	.st118{fill-rule:evenodd;clip-rule:evenodd;fill:#858585;}
	.st119{fill-rule:evenodd;clip-rule:evenodd;fill:#9C9C9C;}
	.st120{fill-rule:evenodd;clip-rule:evenodd;fill:#7D7D7D;}
	.st121{fill-rule:evenodd;clip-rule:evenodd;fill:#818181;}
	.st122{fill-rule:evenodd;clip-rule:evenodd;fill:#8D8D8D;}
	.st123{fill-rule:evenodd;clip-rule:evenodd;fill:#848484;}
	.st124{fill-rule:evenodd;clip-rule:evenodd;fill:#929292;}
	.st125{fill-rule:evenodd;clip-rule:evenodd;fill:#898989;}
	.st126{fill-rule:evenodd;clip-rule:evenodd;fill:#909090;}
	.st127{fill-rule:evenodd;clip-rule:evenodd;fill:#878787;}
	.st128{fill-rule:evenodd;clip-rule:evenodd;fill:#828282;}
	.st129{fill-rule:evenodd;clip-rule:evenodd;fill:#979797;}
	.st130{fill-rule:evenodd;clip-rule:evenodd;fill:#8B8B8B;}
	.st131{fill-rule:evenodd;clip-rule:evenodd;fill:#8A8A8A;}
	.st132{fill-rule:evenodd;clip-rule:evenodd;fill:#7A7A7A;}
	.st133{fill-rule:evenodd;clip-rule:evenodd;fill:#7E7E7E;}
	.st134{fill-rule:evenodd;clip-rule:evenodd;fill:#808080;}
	.st135{fill-rule:evenodd;clip-rule:evenodd;fill:#868686;}
	.st136{fill-rule:evenodd;clip-rule:evenodd;fill:url(#SVGID_7_);}
	.st137{fill-rule:evenodd;clip-rule:evenodd;fill:url(#SVGID_8_);}
	.st138{fill-rule:evenodd;clip-rule:evenodd;fill:url(#SVGID_9_);}
	.st139{fill-rule:evenodd;clip-rule:evenodd;fill:url(#SVGID_10_);}
	.st140{fill-rule:evenodd;clip-rule:evenodd;fill:url(#SVGID_11_);}
	.st141{fill-rule:evenodd;clip-rule:evenodd;fill:url(#SVGID_12_);}
	.st142{fill-rule:evenodd;clip-rule:evenodd;fill:url(#SVGID_13_);}
	.st143{fill-rule:evenodd;clip-rule:evenodd;fill:url(#SVGID_14_);}
	.st144{fill-rule:evenodd;clip-rule:evenodd;fill:url(#SVGID_15_);}
	.st145{fill-rule:evenodd;clip-rule:evenodd;fill:url(#SVGID_16_);}
	.st146{fill-rule:evenodd;clip-rule:evenodd;fill:url(#SVGID_17_);}
	.st147{fill-rule:evenodd;clip-rule:evenodd;fill:url(#SVGID_18_);}
	.st148{fill-rule:evenodd;clip-rule:evenodd;fill:url(#SVGID_19_);}
	.st149{fill-rule:evenodd;clip-rule:evenodd;fill:url(#SVGID_20_);}
	.st150{fill-rule:evenodd;clip-rule:evenodd;fill:url(#SVGID_21_);}
	.st151{fill-rule:evenodd;clip-rule:evenodd;fill:url(#SVGID_22_);}
	.st152{fill-rule:evenodd;clip-rule:evenodd;fill:url(#SVGID_23_);}
	.st153{fill-rule:evenodd;clip-rule:evenodd;fill:url(#SVGID_24_);}
	.st154{fill-rule:evenodd;clip-rule:evenodd;fill:url(#SVGID_25_);}
	.st155{fill-rule:evenodd;clip-rule:evenodd;fill:url(#SVGID_26_);}
	.st156{fill-rule:evenodd;clip-rule:evenodd;fill:url(#SVGID_27_);}
	.st157{fill-rule:evenodd;clip-rule:evenodd;fill:url(#SVGID_28_);}
	.st158{fill-rule:evenodd;clip-rule:evenodd;fill:url(#SVGID_29_);}
	.st159{fill-rule:evenodd;clip-rule:evenodd;fill:url(#SVGID_30_);}
	.st160{fill-rule:evenodd;clip-rule:evenodd;fill:url(#SVGID_31_);}
	.st161{fill-rule:evenodd;clip-rule:evenodd;fill:url(#SVGID_32_);}
	.st162{fill-rule:evenodd;clip-rule:evenodd;fill:url(#SVGID_33_);}
	.st163{fill-rule:evenodd;clip-rule:evenodd;fill:url(#SVGID_34_);}
	.st164{fill-rule:evenodd;clip-rule:evenodd;fill:url(#SVGID_35_);}
	.st165{fill-rule:evenodd;clip-rule:evenodd;fill:url(#SVGID_36_);}
	.st166{fill-rule:evenodd;clip-rule:evenodd;fill:url(#SVGID_37_);}
	.st167{fill-rule:evenodd;clip-rule:evenodd;fill:url(#SVGID_38_);}
	.st168{fill-rule:evenodd;clip-rule:evenodd;fill:url(#SVGID_39_);}
	.st169{fill-rule:evenodd;clip-rule:evenodd;fill:url(#SVGID_40_);}
	.st170{fill-rule:evenodd;clip-rule:evenodd;fill:url(#SVGID_41_);}
	.st171{fill-rule:evenodd;clip-rule:evenodd;fill:url(#SVGID_42_);}
	.st172{fill-rule:evenodd;clip-rule:evenodd;fill:url(#SVGID_43_);}
	.st173{fill-rule:evenodd;clip-rule:evenodd;fill:url(#SVGID_44_);}
	.st174{fill-rule:evenodd;clip-rule:evenodd;fill:url(#SVGID_45_);}
	.st175{fill-rule:evenodd;clip-rule:evenodd;fill:url(#SVGID_46_);}
	.st176{fill-rule:evenodd;clip-rule:evenodd;fill:url(#SVGID_47_);}
	.st177{fill-rule:evenodd;clip-rule:evenodd;fill:url(#SVGID_48_);}
	.st178{fill-rule:evenodd;clip-rule:evenodd;fill:url(#SVGID_49_);}
	.st179{fill-rule:evenodd;clip-rule:evenodd;fill:url(#SVGID_50_);}
	.st180{fill-rule:evenodd;clip-rule:evenodd;fill:url(#SVGID_51_);}
	.st181{fill-rule:evenodd;clip-rule:evenodd;fill:url(#SVGID_52_);}
	.st182{fill-rule:evenodd;clip-rule:evenodd;fill:url(#SVGID_53_);}
	.st183{fill-rule:evenodd;clip-rule:evenodd;fill:url(#SVGID_54_);}
	.st184{fill-rule:evenodd;clip-rule:evenodd;fill:url(#SVGID_55_);}
	.st185{fill-rule:evenodd;clip-rule:evenodd;fill:url(#SVGID_56_);}
	.st186{fill-rule:evenodd;clip-rule:evenodd;fill:url(#SVGID_57_);}
	.st187{fill-rule:evenodd;clip-rule:evenodd;fill:url(#SVGID_58_);}
	.st188{fill-rule:evenodd;clip-rule:evenodd;fill:url(#SVGID_59_);}
	.st189{fill-rule:evenodd;clip-rule:evenodd;fill:url(#SVGID_60_);}
	.st190{fill-rule:evenodd;clip-rule:evenodd;fill:url(#SVGID_61_);}
	.st191{fill-rule:evenodd;clip-rule:evenodd;fill:url(#SVGID_62_);}
	.st192{fill-rule:evenodd;clip-rule:evenodd;fill:url(#SVGID_63_);}
	.st193{fill-rule:evenodd;clip-rule:evenodd;fill:url(#SVGID_64_);}
	.st194{fill-rule:evenodd;clip-rule:evenodd;fill:url(#SVGID_65_);}
	.st195{fill-rule:evenodd;clip-rule:evenodd;fill:url(#SVGID_66_);}
	.st196{fill-rule:evenodd;clip-rule:evenodd;fill:url(#SVGID_67_);}
	.st197{fill-rule:evenodd;clip-rule:evenodd;fill:url(#SVGID_68_);}
	.st198{fill-rule:evenodd;clip-rule:evenodd;fill:url(#SVGID_69_);}
	.st199{fill-rule:evenodd;clip-rule:evenodd;fill:url(#SVGID_70_);}
	.st200{fill-rule:evenodd;clip-rule:evenodd;fill:url(#SVGID_71_);}
	.st201{fill-rule:evenodd;clip-rule:evenodd;fill:url(#SVGID_72_);}
	.st202{fill-rule:evenodd;clip-rule:evenodd;fill:url(#SVGID_73_);}
	.st203{fill-rule:evenodd;clip-rule:evenodd;fill:url(#SVGID_74_);}
	.st204{fill-rule:evenodd;clip-rule:evenodd;fill:url(#SVGID_75_);}
	.st205{fill-rule:evenodd;clip-rule:evenodd;fill:url(#SVGID_76_);}
	.st206{fill-rule:evenodd;clip-rule:evenodd;fill:url(#SVGID_77_);}
	.st207{fill-rule:evenodd;clip-rule:evenodd;fill:url(#SVGID_78_);}
	.st208{fill-rule:evenodd;clip-rule:evenodd;fill:url(#SVGID_79_);}
	.st209{fill-rule:evenodd;clip-rule:evenodd;fill:url(#SVGID_80_);}
	.st210{fill-rule:evenodd;clip-rule:evenodd;fill:url(#SVGID_81_);}
	.st211{fill-rule:evenodd;clip-rule:evenodd;fill:url(#SVGID_82_);}
	.st212{fill-rule:evenodd;clip-rule:evenodd;fill:url(#SVGID_83_);}
	.st213{fill-rule:evenodd;clip-rule:evenodd;fill:url(#SVGID_84_);}
	.st214{fill-rule:evenodd;clip-rule:evenodd;fill:url(#SVGID_85_);}
	.st215{fill-rule:evenodd;clip-rule:evenodd;fill:url(#SVGID_86_);}
	.st216{fill-rule:evenodd;clip-rule:evenodd;fill:url(#SVGID_87_);}
	.st217{fill-rule:evenodd;clip-rule:evenodd;fill:url(#SVGID_88_);}
	.st218{fill-rule:evenodd;clip-rule:evenodd;fill:url(#SVGID_89_);}
	.st219{fill-rule:evenodd;clip-rule:evenodd;fill:url(#SVGID_90_);}
	.st220{fill-rule:evenodd;clip-rule:evenodd;fill:url(#SVGID_91_);}
	.st221{fill-rule:evenodd;clip-rule:evenodd;fill:url(#SVGID_92_);}
	.st222{fill-rule:evenodd;clip-rule:evenodd;fill:url(#SVGID_93_);}
	.st223{fill-rule:evenodd;clip-rule:evenodd;fill:url(#SVGID_94_);}
	.st224{fill-rule:evenodd;clip-rule:evenodd;fill:url(#SVGID_95_);}
	.st225{fill-rule:evenodd;clip-rule:evenodd;fill:url(#SVGID_96_);}
	.st226{fill-rule:evenodd;clip-rule:evenodd;fill:url(#SVGID_97_);}
	.st227{fill-rule:evenodd;clip-rule:evenodd;fill:url(#SVGID_98_);}
	.st228{fill-rule:evenodd;clip-rule:evenodd;fill:url(#SVGID_99_);}
	.st229{fill-rule:evenodd;clip-rule:evenodd;fill:url(#SVGID_100_);}
	.st230{fill-rule:evenodd;clip-rule:evenodd;fill:url(#SVGID_101_);}
	.st231{fill-rule:evenodd;clip-rule:evenodd;fill:url(#SVGID_102_);}
	.st232{fill-rule:evenodd;clip-rule:evenodd;fill:url(#SVGID_103_);}
	.st233{fill-rule:evenodd;clip-rule:evenodd;fill:url(#SVGID_104_);}
	.st234{fill-rule:evenodd;clip-rule:evenodd;fill:url(#SVGID_105_);}
	.st235{fill-rule:evenodd;clip-rule:evenodd;fill:url(#SVGID_106_);}
	.st236{fill-rule:evenodd;clip-rule:evenodd;fill:url(#SVGID_107_);}
	.st237{fill-rule:evenodd;clip-rule:evenodd;fill:url(#SVGID_108_);}
	.st238{fill-rule:evenodd;clip-rule:evenodd;fill:url(#SVGID_109_);}
	.st239{fill-rule:evenodd;clip-rule:evenodd;fill:url(#SVGID_110_);}
	.st240{fill-rule:evenodd;clip-rule:evenodd;fill:url(#SVGID_111_);}
	.st241{fill-rule:evenodd;clip-rule:evenodd;fill:url(#SVGID_112_);}
	.st242{fill-rule:evenodd;clip-rule:evenodd;fill:url(#SVGID_113_);}
	.st243{fill-rule:evenodd;clip-rule:evenodd;fill:url(#SVGID_114_);}
	.st244{fill-rule:evenodd;clip-rule:evenodd;fill:url(#SVGID_115_);}
	.st245{fill-rule:evenodd;clip-rule:evenodd;fill:url(#SVGID_116_);}
	.st246{fill-rule:evenodd;clip-rule:evenodd;fill:url(#SVGID_117_);}
	.st247{fill-rule:evenodd;clip-rule:evenodd;fill:url(#SVGID_118_);}
	.st248{fill-rule:evenodd;clip-rule:evenodd;fill:url(#SVGID_119_);}
	.st249{fill-rule:evenodd;clip-rule:evenodd;fill:url(#SVGID_120_);}
	.st250{fill-rule:evenodd;clip-rule:evenodd;fill:url(#SVGID_121_);}
	.st251{fill-rule:evenodd;clip-rule:evenodd;fill:url(#SVGID_122_);}
	.st252{fill-rule:evenodd;clip-rule:evenodd;fill:url(#SVGID_123_);}
	.st253{fill-rule:evenodd;clip-rule:evenodd;fill:url(#SVGID_124_);}
	.st254{fill-rule:evenodd;clip-rule:evenodd;fill:url(#SVGID_125_);}
	.st255{fill-rule:evenodd;clip-rule:evenodd;fill:url(#SVGID_126_);}
	.st256{fill-rule:evenodd;clip-rule:evenodd;fill:url(#SVGID_127_);}
	.st257{fill-rule:evenodd;clip-rule:evenodd;fill:url(#SVGID_128_);}
	.st258{fill-rule:evenodd;clip-rule:evenodd;fill:url(#SVGID_129_);}
	.st259{fill-rule:evenodd;clip-rule:evenodd;fill:url(#SVGID_130_);}
	.st260{fill-rule:evenodd;clip-rule:evenodd;fill:url(#SVGID_131_);}
	.st261{fill-rule:evenodd;clip-rule:evenodd;fill:url(#SVGID_132_);}
	.st262{fill-rule:evenodd;clip-rule:evenodd;fill:url(#SVGID_133_);}
	.st263{fill-rule:evenodd;clip-rule:evenodd;fill:url(#SVGID_134_);}
	.st264{fill-rule:evenodd;clip-rule:evenodd;fill:url(#SVGID_135_);}
	.st265{fill-rule:evenodd;clip-rule:evenodd;fill:url(#SVGID_136_);}
	.st266{fill-rule:evenodd;clip-rule:evenodd;fill:url(#SVGID_137_);}
	.st267{fill-rule:evenodd;clip-rule:evenodd;fill:url(#SVGID_138_);}
	.st268{fill-rule:evenodd;clip-rule:evenodd;fill:url(#SVGID_139_);}
	.st269{fill-rule:evenodd;clip-rule:evenodd;fill:url(#SVGID_140_);}
	.st270{fill-rule:evenodd;clip-rule:evenodd;fill:url(#SVGID_141_);}
	.st271{fill-rule:evenodd;clip-rule:evenodd;fill:url(#SVGID_142_);}
	.st272{fill-rule:evenodd;clip-rule:evenodd;fill:url(#SVGID_143_);}
	.st273{fill-rule:evenodd;clip-rule:evenodd;fill:url(#SVGID_144_);}
	.st274{fill-rule:evenodd;clip-rule:evenodd;fill:url(#SVGID_145_);}
	.st275{fill-rule:evenodd;clip-rule:evenodd;fill:url(#SVGID_146_);}
	.st276{fill-rule:evenodd;clip-rule:evenodd;fill:url(#SVGID_147_);}
	.st277{fill-rule:evenodd;clip-rule:evenodd;fill:url(#SVGID_148_);}
	.st278{fill-rule:evenodd;clip-rule:evenodd;fill:url(#SVGID_149_);}
	.st279{fill-rule:evenodd;clip-rule:evenodd;fill:url(#SVGID_150_);}
	.st280{fill-rule:evenodd;clip-rule:evenodd;fill:url(#SVGID_151_);}
	.st281{fill-rule:evenodd;clip-rule:evenodd;fill:url(#SVGID_152_);}
	.st282{fill-rule:evenodd;clip-rule:evenodd;fill:url(#SVGID_153_);}
	.st283{fill-rule:evenodd;clip-rule:evenodd;fill:url(#SVGID_154_);}
	.st284{fill-rule:evenodd;clip-rule:evenodd;fill:url(#SVGID_155_);}
	.st285{fill-rule:evenodd;clip-rule:evenodd;fill:url(#SVGID_156_);}
	.st286{fill-rule:evenodd;clip-rule:evenodd;fill:url(#SVGID_157_);}
	.st287{fill-rule:evenodd;clip-rule:evenodd;fill:url(#SVGID_158_);}
	.st288{fill-rule:evenodd;clip-rule:evenodd;fill:url(#SVGID_159_);}
	.st289{fill-rule:evenodd;clip-rule:evenodd;fill:url(#SVGID_160_);}
	.st290{fill-rule:evenodd;clip-rule:evenodd;fill:url(#SVGID_161_);}
	.st291{fill-rule:evenodd;clip-rule:evenodd;fill:url(#SVGID_162_);}
	.st292{fill-rule:evenodd;clip-rule:evenodd;fill:url(#SVGID_163_);}
	.st293{fill-rule:evenodd;clip-rule:evenodd;fill:url(#SVGID_164_);}
	.st294{fill-rule:evenodd;clip-rule:evenodd;fill:url(#SVGID_165_);}
	.st295{fill-rule:evenodd;clip-rule:evenodd;fill:url(#SVGID_166_);}
	.st296{fill-rule:evenodd;clip-rule:evenodd;fill:url(#SVGID_167_);}
	.st297{fill-rule:evenodd;clip-rule:evenodd;fill:url(#SVGID_168_);}
	.st298{fill-rule:evenodd;clip-rule:evenodd;fill:url(#SVGID_169_);}
	.st299{fill-rule:evenodd;clip-rule:evenodd;fill:url(#SVGID_170_);}
	.st300{fill-rule:evenodd;clip-rule:evenodd;fill:url(#SVGID_171_);}
	.st301{fill-rule:evenodd;clip-rule:evenodd;fill:url(#SVGID_172_);}
	.st302{fill-rule:evenodd;clip-rule:evenodd;fill:url(#SVGID_173_);}
	.st303{fill-rule:evenodd;clip-rule:evenodd;fill:url(#SVGID_174_);}
	.st304{fill-rule:evenodd;clip-rule:evenodd;fill:url(#SVGID_175_);}
	.st305{fill-rule:evenodd;clip-rule:evenodd;fill:url(#SVGID_176_);}
</style>
<g>
	<path class="st1" d="M102.74,7.653C99.155,2.718,93.93,0,88.024,0c-6.681,0-13.84,3.345-21.333,9.954
		c-0.461,0.159-0.924,0.325-1.383,0.502c-1.439-3.916-4.725-9.542-13.344-9.542c-1.899,0-3.997,0.283-6.236,0.842
		C31.373,5.335,19.429,23.629,16.013,40.35c-0.503,2.463-1.556,14.766,3.637,21.586c0.558,0.735,0.178,1.075,0.825,1.754
		c4.654,4.883,11.966,7.464,21.149,7.464c22.489,0,51.876-15.312,62.665-40.63C108.272,21.176,106.564,12.918,102.74,7.653z"/>
	<path class="st1" d="M44.837,75.142c-7.621-7.075-16.316-11.739-24.692-13.835c-0.011-0.005-0.024-0.008-0.035-0.01
		c-0.162-0.041-0.324-0.097-0.485-0.134c-0.002,0.007-0.005,0.012-0.005,0.02c-0.699-0.15-1.435-0.159-2.169,0.043
		c-2.45,0.674-3.891,3.205-3.217,5.653c0.089,0.328,0.218,0.635,0.371,0.924c0.031,0.061,0.075,0.113,0.11,0.171
		c2.112,0.372,4.273,0.886,6.456,1.52c10.922,3.177,22.406,9.525,31.427,17.902c1.411,1.31,1.474,1.283,2.756,2.653
		c0.492,0.528,2.004,1.336,1.603,0.593C54.009,85.189,49.945,79.884,44.837,75.142"/>
	<g>
		<linearGradient id="SVGID_1_" gradientUnits="userSpaceOnUse" x1="6.0185" y1="64.2987" x2="7.009" y2="55.5512">
			<stop  offset="0" style="stop-color:#1C2674"/>
			<stop  offset="0.1478" style="stop-color:#1C2674"/>
			<stop  offset="0.5414" style="stop-color:#E01350"/>
			<stop  offset="1" style="stop-color:#FAAF40"/>
		</linearGradient>
		<path class="st8" d="M8.14,65.483c-0.785,0-1.582-0.178-2.306-0.514C1.946,63.73-0.31,57.033,0.039,54.799
			c0.159-1.022,0.792-1.133,1.056-1.133c0.367,0,0.643,0.259,0.962,0.56c0.135,0.127,0.286,0.27,0.458,0.402
			c0.428,0.332,0.848,0.479,1.359,0.479c0.383,0,0.792-0.082,1.225-0.168c0.309-0.062,0.627-0.125,0.959-0.166
			c0.573-0.07,1.156-0.142,1.732-0.142c0.341,0,0.647,0.025,0.936,0.076c1.903,0.216,3.578,1.443,4.341,3.199
			c0.578,1.327,0.604,2.8,0.075,4.147c-0.529,1.348-1.552,2.408-2.879,2.985C9.588,65.334,8.874,65.483,8.14,65.483
			C8.14,65.483,8.14,65.483,8.14,65.483z M6.011,62.479c0.447,0.323,0.789,0.41,1.026,0.41c0.035,0,0.067-0.001,0.099-0.005
			C6.778,62.796,6.408,62.676,6.011,62.479z"/>
		<path class="st1" d="M1.094,54.166c0.267,0,0.608,0.466,1.114,0.857c0.575,0.445,1.118,0.584,1.666,0.584
			c0.716,0,1.438-0.238,2.246-0.338c0.558-0.068,1.122-0.138,1.67-0.138c0.289,0,0.573,0.019,0.849,0.068
			c1.691,0.193,3.242,1.232,3.969,2.906c1.084,2.491-0.054,5.391-2.544,6.475c-0.628,0.274-1.281,0.402-1.924,0.402
			c-0.727,0-1.443-0.164-2.095-0.468C1.779,63.151-0.71,54.166,1.094,54.166 M7.038,63.389c0.427,0,0.693-0.186,0.792-0.252
			c0.299-0.2,0.369-0.547,0.369-0.547c-1.481-0.287-2.916-0.383-5.605-4.198c-0.008-0.012-0.013-0.017-0.015-0.017
			c-0.046,0,1.121,2.384,2.099,3.522C5.71,63.095,6.501,63.389,7.038,63.389 M1.094,53.166c-0.632,0-1.371,0.409-1.55,1.556
			c-0.415,2.664,2.218,9.413,6.136,10.725c0.774,0.35,1.624,0.535,2.461,0.535c0.803,0,1.585-0.163,2.324-0.486
			c1.449-0.63,2.566-1.788,3.144-3.261c0.578-1.472,0.549-3.08-0.082-4.53c-0.83-1.909-2.645-3.247-4.743-3.497
			c-0.309-0.053-0.634-0.078-0.993-0.078c-0.607,0-1.205,0.073-1.784,0.144c-0.365,0.045-0.691,0.11-1.005,0.173
			c-0.426,0.085-0.793,0.158-1.127,0.158c-0.399,0-0.714-0.112-1.053-0.375c-0.159-0.123-0.298-0.255-0.422-0.372
			C2.052,53.535,1.659,53.166,1.094,53.166L1.094,53.166z"/>
	</g>
	<path class="st9" d="M98.282,35.307c-1.047,0.162-2.094-0.034-3.135-0.585c-1.046-0.554-1.631-1.232-1.755-2.04
		c-0.177-1.141,1.091-2.851,3.794-5.131c0.422-0.342,0.711-0.619,0.873-0.833c0.161-0.212,0.256-0.395,0.281-0.547
		c0.025-0.149,0.051-0.522,0.072-1.114c-0.1-0.655-0.301-1.057-0.601-1.208c-0.298-0.149-0.94-0.149-1.927,0.001
		c-0.57,0.089-1.012,0.16-1.318,0.215c-0.309,0.056-0.652,0.121-1.031,0.196c-1.159,0.178-1.765,0.101-1.816-0.233
		c-0.021-0.143,0.047-0.311,0.203-0.506c0.158-0.196,0.275-0.405,0.354-0.628l-0.081-0.523c-0.086-0.135-0.191-0.191-0.319-0.171
		c-0.683,0.105-1.28,0.451-1.79,1.035l-2.34,2.856c-0.768,0.935-1.125,1.576-1.07,1.928c0.018,0.127,0.167,0.292,0.441,0.495
		l-1.738,2.189c-1.539,1.61-6.693,7.477-7.324,8.011c2.291-4.985,3.268-8.566,2.934-10.742c-0.084-0.538-0.316-0.923-0.702-1.147
		c-0.384-0.225-0.759-0.31-1.124-0.254c-0.382,0.059-0.911,0.474-1.588,1.244c-0.68,0.772-1.674,2.12-2.988,4.044
		c-0.66,0.995-1.234,1.827-1.726,2.497c-0.49,0.668-0.954,1.239-1.393,1.713c-0.439,0.474-0.883,0.848-1.327,1.119
		c-0.446,0.272-0.923,0.448-1.431,0.525c-0.701,0.107-1.355-0.064-1.971-0.514c-0.612-0.45-0.966-0.978-1.059-1.581
		c-0.094-0.604,0.671-1.916,2.295-3.938c0.463-0.59,0.781-1.025,0.959-1.304c0.176-0.28,0.24-0.569,0.193-0.871
		c-0.07-0.46-0.268-0.817-0.59-1.068c-0.324-0.25-0.709-0.342-1.152-0.274c-0.682,0.106-1.371,0.594-2.066,1.464
		c-0.696,0.871-1.612,2.314-2.75,4.325c-0.589,1.131-1.028,2.158-1.317,3.082c-0.289,0.921-0.355,1.89-0.199,2.907
		c0.158,1.022,0.48,1.833,0.965,2.436c-0.606,0.659-1.14,1.177-2.066,2.114c-1.775,1.799-3.24,3.117-4.402,3.955
		c-1.158,0.841-2.033,1.296-2.628,1.365c-0.643,0.077-1.183-0.171-1.625-0.74c-0.44-0.57-0.702-1.205-0.784-1.904
		c-0.226-1.935-1.074-9.244,11.819-27.275c5.669-7.93,7.905-9.232,8.018-9.345c0.434-0.438,1.14-1.029,1.765-1.522
		c0.605-0.478,1.134-0.864,1.26-0.926c0.105-0.053-6.34,1.323-10.676,3.491c-0.419,0.209-0.824,0.423-1.197,0.647
		c-4.348,2.617-10.012,6.343-14.529,12.423c-7.99,10.754-12.723,20.226-14.918,23.095c-2.199,2.872-4.9,5.449-7.919,5.392
		c-2.586-0.047-4.03-1.971-4.831-4.182c-0.536-1.479-0.735-3.152-0.791-4.477c-0.051-1.233,0.111-3.106,0.084-3.043
		c-2.448,5.682-1.839,14.683-0.578,17.896c0.628,1.599,1.806,2.467,2.799,2.798c0.857,0.287,4.914-0.742,11.183-9.237
		c1.842-2.673,8.558-14.238,15.199-23.445c5.027-6.971,8.49-8.017,8.598-8.029c0,0-13.517,20.327-12.915,28.367
		c0.147,1.952,0.844,3.567,1.845,4.867c1.004,1.3,2.396,1.846,4.178,1.635c1.58-0.185,3.7-1.317,6.359-3.397
		c2.09-1.634,6.602-6.588,8.596-9.313c0.398,0.11,0.799,0.138,1.205,0.076c0.443-0.069,0.906-0.253,1.388-0.555
		c0.483-0.301,0.903-0.627,1.267-0.975c0.36-0.348,0.727-0.738,1.1-1.168c0.373-0.432,0.777-0.917,1.215-1.455
		c1.141-1.46,1.947-2.446,2.424-2.957c0.473-0.513,0.885-0.795,1.234-0.849c0.381-0.059,0.742,0.104,1.086,0.491
		c0.345,0.387,0.572,0.944,0.685,1.674c0.141,0.906,0.052,1.967-0.267,3.187c-1.689,1.479-3.433,3.173-5.227,5.083
		c-1.797,1.909-3.348,3.892-4.657,5.947c-1.31,2.054-1.857,3.78-1.642,5.179c0.119,0.777,0.441,1.284,0.965,1.521
		c0.523,0.235,1.073,0.31,1.643,0.222c1.095-0.169,2.384-1.28,3.864-3.336c1.479-2.057,3.342-5.939,5.584-11.651L86.38,31.191
		l2.6-2.476c3.182-0.342,4.807-0.293,4.874,0.152c0.025,0.157-0.056,0.373-0.241,0.646c-0.185,0.271-0.607,0.799-1.269,1.582
		c-0.904,1.079-1.598,2.049-2.075,2.91c-0.477,0.862-0.635,1.815-0.474,2.861c0.193,1.267,0.801,2.221,1.818,2.86
		c1.015,0.638,2.008,0.883,2.978,0.733c0.301-0.046,0.711-0.208,1.038-0.347c0.048-0.065,0.771-0.99,1.67-2.399
		c0.791-1.24,1.58-2.544,1.607-2.592C98.722,35.183,98.472,35.278,98.282,35.307z"/>
	<g>
		<defs>
			<path id="SVGID_2_" d="M32.054,47.75c2.195-2.87,6.928-12.341,14.918-23.095c4.518-6.08,10.182-9.807,14.529-12.423
				c0.373-0.224,0.778-0.438,1.197-0.647c0.002-0.001,0.003-0.002,0.005-0.003c-1.582-4.363-5.179-9.827-16.36-7.037
				c-11.708,2.92-21.924,17.012-26.321,31.181c-0.491,1.585-1.094,4.055-1.439,6.079c-0.035,0.592-0.107,1.795-0.07,2.679
				c0.056,1.325,0.255,2.997,0.791,4.477c0.801,2.21,2.246,4.135,4.831,4.182C27.154,53.199,29.855,50.623,32.054,47.75z
				 M91.612,39.726c-1.018-0.639-1.625-1.593-1.818-2.86c-0.161-1.046-0.003-1.999,0.474-2.861c0.478-0.861,1.171-1.831,2.075-2.91
				c0.662-0.783,1.084-1.311,1.269-1.582c0.186-0.272,0.267-0.488,0.241-0.646c-0.067-0.445-1.692-0.494-4.874-0.152l-2.6,2.476
				L75.728,44.02c-2.242,5.711-4.104,9.594-5.584,11.651c-1.48,2.057-2.77,3.167-3.864,3.336c-0.57,0.088-1.12,0.014-1.643-0.222
				c-0.524-0.237-0.846-0.745-0.965-1.521c-0.216-1.399,0.332-3.125,1.642-5.179c1.31-2.055,2.86-4.038,4.657-5.947
				c1.794-1.91,3.537-3.605,5.227-5.083c0.318-1.22,0.407-2.281,0.267-3.187c-0.112-0.73-0.34-1.288-0.685-1.674
				c-0.344-0.387-0.705-0.55-1.086-0.491c-0.35,0.053-0.762,0.336-1.234,0.849c-0.477,0.511-1.283,1.497-2.424,2.957
				c-0.438,0.538-0.842,1.023-1.215,1.455c-0.373,0.43-0.739,0.82-1.1,1.168c-0.363,0.348-0.783,0.674-1.267,0.975
				c-0.481,0.302-0.944,0.486-1.388,0.555c-0.406,0.062-0.807,0.034-1.205-0.076c-1.993,2.725-6.506,7.679-8.596,9.313
				c-2.659,2.079-4.779,3.212-6.359,3.397c-1.781,0.211-3.174-0.335-4.178-1.635c-1.001-1.3-1.697-2.915-1.845-4.867
				c-0.602-8.041,12.915-28.367,12.915-28.367c-0.108,0.012-3.57,1.058-8.598,8.029c-6.642,9.206-13.357,20.772-15.199,23.445
				c-4.948,6.705-8.509,8.751-10.216,9.178c1,1.234,2.208,2.316,3.705,3.144c16.499,9.134,52.376-1.2,70.066-25.08
				c-0.314,0.131-0.686,0.275-0.966,0.318C93.62,40.609,92.627,40.364,91.612,39.726z M102.034,11.855
				c-2.4-5.073-7.396-8.984-14.062-8.982c-4.605,0-9.754,1.54-15.86,6.149c-0.624,0.493-1.329,1.083-1.763,1.521
				c-0.112,0.112-2.349,1.415-8.018,9.345c-12.894,18.031-12.045,25.34-11.819,27.275c0.082,0.699,0.344,1.334,0.784,1.904
				c0.442,0.569,0.982,0.817,1.625,0.74c0.595-0.068,1.47-0.523,2.628-1.365c1.162-0.838,2.627-2.155,4.402-3.955
				c0.927-0.937,1.46-1.456,2.066-2.114c-0.484-0.603-0.807-1.413-0.965-2.436c-0.156-1.017-0.09-1.986,0.199-2.907
				c0.289-0.923,0.729-1.951,1.317-3.082c1.138-2.011,2.054-3.454,2.75-4.325c0.694-0.87,1.384-1.358,2.066-1.464
				c0.443-0.068,0.828,0.024,1.152,0.274c0.322,0.251,0.52,0.608,0.59,1.068c0.047,0.302-0.018,0.591-0.193,0.871
				c-0.178,0.279-0.496,0.714-0.959,1.304c-1.624,2.022-2.389,3.335-2.295,3.938c0.093,0.603,0.446,1.131,1.059,1.581
				c0.615,0.45,1.269,0.621,1.971,0.514c0.508-0.078,0.984-0.253,1.431-0.525c0.444-0.271,0.889-0.645,1.327-1.119
				c0.439-0.475,0.903-1.045,1.393-1.713c0.491-0.67,1.066-1.502,1.726-2.497c1.314-1.925,2.309-3.272,2.988-4.044
				c0.677-0.771,1.206-1.185,1.588-1.244c0.365-0.056,0.74,0.029,1.124,0.254c0.386,0.225,0.618,0.609,0.702,1.147
				c0.334,2.176-0.643,5.757-2.934,10.742c0.631-0.534,5.785-6.4,7.324-8.011l1.738-2.189c-0.274-0.203-0.423-0.368-0.441-0.495
				c-0.055-0.352,0.303-0.993,1.07-1.928l2.34-2.856c0.51-0.584,1.107-0.93,1.79-1.035c0.128-0.02,0.233,0.037,0.319,0.171
				l0.081,0.523c-0.079,0.223-0.196,0.432-0.354,0.628c-0.156,0.195-0.225,0.363-0.203,0.506c0.052,0.333,0.657,0.411,1.816,0.233
				c0.379-0.075,0.723-0.14,1.031-0.196c0.307-0.055,0.748-0.125,1.318-0.215c0.986-0.151,1.629-0.151,1.927-0.001
				c0.3,0.151,0.501,0.553,0.601,1.208c-0.021,0.592-0.048,0.965-0.072,1.114c-0.025,0.153-0.12,0.335-0.281,0.547
				c-0.162,0.214-0.451,0.491-0.873,0.833c-2.703,2.281-3.971,3.99-3.794,5.131c0.124,0.808,0.709,1.486,1.755,2.04
				c1.041,0.551,2.088,0.748,3.135,0.585c0.176-0.027,0.399-0.109,0.578-0.17c1.257-2.141,2.387-4.363,3.334-6.684
				C102.662,27.304,105.511,19.204,102.034,11.855z"/>
		</defs>
		<clipPath id="SVGID_3_">
			<use xlink:href="#SVGID_2_"  style="overflow:visible;"/>
		</clipPath>
		<linearGradient id="SVGID_4_" gradientUnits="userSpaceOnUse" x1="19.629" y1="35.6952" x2="101.8106" y2="35.6952">
			<stop  offset="0" style="stop-color:#1C2674"/>
			<stop  offset="0.1576" style="stop-color:#1C2674"/>
			<stop  offset="0.5123" style="stop-color:#E01350"/>
			<stop  offset="1" style="stop-color:#FAAF40"/>
		</linearGradient>
		<path class="st10" d="M65.376,15.006c9.2-9.35,16.39-12.133,22.597-12.133c6.665-0.001,11.661,3.91,14.062,8.982
			c3.477,7.349,0.628,15.448,0.16,16.598C89.13,60.476,44.475,75.731,25.49,65.221c-4.476-2.478-6.557-7.083-7.3-11.939
			c-0.395-2.581-0.342-7.027,0.359-11.284c0.339-2.057,0.966-4.637,1.473-6.271C24.419,21.558,34.635,7.466,46.343,4.546
			c13.204-3.295,15.832,4.92,17.055,9.242c0.281,0.991,0.597,2.526,0.666,2.589C64.099,16.409,65.376,15.006,65.376,15.006z"/>
		<linearGradient id="SVGID_5_" gradientUnits="userSpaceOnUse" x1="20.2577" y1="43.002" x2="82.6493" y2="43.002">
			<stop  offset="0" style="stop-color:#1C2674"/>
			<stop  offset="0.0824" style="stop-color:#1C2674"/>
			<stop  offset="0.1454" style="stop-color:#3F236E"/>
			<stop  offset="0.4433" style="stop-color:#E01350"/>
			<stop  offset="0.5123" style="stop-color:#E01350"/>
			<stop  offset="1" style="stop-color:#FAAF40"/>
		</linearGradient>
		<path class="st11" d="M54.448,27.862c-0.449,0.46-0.718-0.434-0.999-1.43c-0.923-3.261-2.905-9.456-12.863-6.972
			c-11.397,2.844-20.923,19.732-21.55,32.657c-0.307,6.345,1.954,10.735,6.352,13.19c14.806,8.26,49.832-4.491,58.29-30.468
			c2.056-6.313-2.384-16.643-11.694-16.64C67.302,18.199,61.387,20.811,54.448,27.862"/>
		<linearGradient id="SVGID_6_" gradientUnits="userSpaceOnUse" x1="21.4907" y1="50.2153" x2="63.5811" y2="50.2153">
			<stop  offset="0" style="stop-color:#1C2674"/>
			<stop  offset="0.4433" style="stop-color:#E01350"/>
			<stop  offset="1" style="stop-color:#FAAF40"/>
		</linearGradient>
		<path class="st12" d="M44.535,40.039c-0.306,0.309-0.485-0.293-0.677-0.965c-0.619-2.198-1.956-6.373-8.666-4.699
			c-7.686,1.917-14.105,13.3-14.528,22.011c-0.902,18.678,36.179,11.065,43.57-11.643c1.385-4.257-1.608-11.218-7.88-11.218
			C53.198,33.524,49.212,35.287,44.535,40.039"/>
	</g>
</g>
</svg>
