<svg id="Layer_1" data-name="Layer 1" xmlns="http://www.w3.org/2000/svg" xmlns:xlink="http://www.w3.org/1999/xlink" viewBox="0 0 99.161 100">
  <defs>
    <style>
      .cls-1, .cls-59 {
        fill: #fafafa;
      }

      .cls-2 {
        fill: #fff;
      }

      .cls-10, .cls-11, .cls-12, .cls-13, .cls-14, .cls-15, .cls-16, .cls-17, .cls-18, .cls-19, .cls-20, .cls-21, .cls-22, .cls-23, .cls-24, .cls-25, .cls-26, .cls-27, .cls-28, .cls-29, .cls-3, .cls-30, .cls-31, .cls-32, .cls-33, .cls-34, .cls-35, .cls-36, .cls-37, .cls-38, .cls-39, .cls-4, .cls-40, .cls-41, .cls-42, .cls-43, .cls-44, .cls-45, .cls-46, .cls-47, .cls-48, .cls-49, .cls-5, .cls-50, .cls-51, .cls-52, .cls-53, .cls-54, .cls-55, .cls-56, .cls-57, .cls-58, .cls-6, .cls-7, .cls-8, .cls-9 {
        fill-rule: evenodd;
      }

      .cls-3 {
        fill: url(#linear-gradient);
      }

      .cls-4 {
        fill: url(#linear-gradient-2);
      }

      .cls-5 {
        fill: url(#radial-gradient);
      }

      .cls-6 {
        fill: url(#linear-gradient-3);
      }

      .cls-7 {
        fill: url(#linear-gradient-4);
      }

      .cls-8 {
        fill: url(#linear-gradient-5);
      }

      .cls-9 {
        fill: url(#linear-gradient-6);
      }

      .cls-10 {
        fill: url(#linear-gradient-7);
      }

      .cls-11 {
        fill: url(#linear-gradient-8);
      }

      .cls-12 {
        fill: url(#linear-gradient-9);
      }

      .cls-13 {
        fill: url(#linear-gradient-10);
      }

      .cls-14 {
        fill: url(#linear-gradient-11);
      }

      .cls-15 {
        fill: url(#linear-gradient-12);
      }

      .cls-16 {
        fill: url(#linear-gradient-13);
      }

      .cls-17 {
        fill: url(#linear-gradient-14);
      }

      .cls-18 {
        fill: url(#linear-gradient-15);
      }

      .cls-19 {
        fill: url(#linear-gradient-16);
      }

      .cls-20 {
        fill: url(#linear-gradient-17);
      }

      .cls-21 {
        fill: url(#linear-gradient-18);
      }

      .cls-22 {
        fill: url(#linear-gradient-19);
      }

      .cls-23 {
        fill: url(#linear-gradient-20);
      }

      .cls-24 {
        fill: url(#linear-gradient-21);
      }

      .cls-25 {
        fill: url(#linear-gradient-22);
      }

      .cls-26 {
        fill: url(#linear-gradient-23);
      }

      .cls-27 {
        fill: url(#linear-gradient-24);
      }

      .cls-28 {
        fill: url(#linear-gradient-25);
      }

      .cls-29 {
        fill: url(#linear-gradient-26);
      }

      .cls-30 {
        fill: url(#linear-gradient-27);
      }

      .cls-31 {
        fill: url(#linear-gradient-28);
      }

      .cls-32 {
        fill: url(#linear-gradient-29);
      }

      .cls-33 {
        fill: url(#linear-gradient-30);
      }

      .cls-34 {
        fill: url(#linear-gradient-31);
      }

      .cls-35 {
        fill: url(#linear-gradient-32);
      }

      .cls-36 {
        fill: url(#linear-gradient-33);
      }

      .cls-37 {
        fill: url(#linear-gradient-34);
      }

      .cls-38 {
        fill: url(#linear-gradient-35);
      }

      .cls-39 {
        fill: url(#linear-gradient-36);
      }

      .cls-40 {
        fill: url(#linear-gradient-37);
      }

      .cls-41 {
        fill: url(#linear-gradient-38);
      }

      .cls-42 {
        fill: url(#linear-gradient-39);
      }

      .cls-43 {
        fill: url(#linear-gradient-40);
      }

      .cls-44 {
        fill: url(#linear-gradient-41);
      }

      .cls-45 {
        fill: url(#linear-gradient-42);
      }

      .cls-46 {
        fill: url(#linear-gradient-43);
      }

      .cls-47 {
        fill: url(#linear-gradient-44);
      }

      .cls-48 {
        fill: url(#linear-gradient-45);
      }

      .cls-49 {
        fill: url(#linear-gradient-46);
      }

      .cls-50 {
        fill: url(#linear-gradient-47);
      }

      .cls-51 {
        fill: url(#linear-gradient-48);
      }

      .cls-52 {
        fill: url(#linear-gradient-49);
      }

      .cls-53 {
        fill: url(#linear-gradient-50);
      }

      .cls-54 {
        fill: url(#linear-gradient-51);
      }

      .cls-55 {
        fill: url(#linear-gradient-52);
      }

      .cls-56 {
        fill: url(#linear-gradient-53);
      }

      .cls-57 {
        fill: url(#linear-gradient-54);
      }

      .cls-58 {
        fill: url(#linear-gradient-55);
      }

      .cls-59 {
        font-size: 18px;
        font-family: Exo 2;
        font-weight: 700;
      }
    </style>
    <linearGradient id="linear-gradient" x1="17.462" y1="64.317" x2="19.966" y2="64.317" gradientUnits="userSpaceOnUse">
      <stop offset="0" stop-color="#188eea"/>
      <stop offset="1" stop-color="#0a54a4"/>
    </linearGradient>
    <linearGradient id="linear-gradient-2" x1="8.874" y1="28.552" x2="11.911" y2="28.552" xlink:href="#linear-gradient"/>
    <radialGradient id="radial-gradient" cx="32.299" cy="41.657" r="61.072" gradientUnits="userSpaceOnUse">
      <stop offset="0" stop-color="#188eea"/>
      <stop offset="1" stop-color="#0a38a4"/>
    </radialGradient>
    <linearGradient id="linear-gradient-3" x1="91.722" y1="59.638" x2="93.605" y2="59.638" xlink:href="#linear-gradient"/>
    <linearGradient id="linear-gradient-4" x1="71.647" y1="18.383" x2="73.329" y2="18.383" xlink:href="#linear-gradient"/>
    <linearGradient id="linear-gradient-5" x1="92.12" y1="43.24" x2="93.669" y2="43.24" xlink:href="#linear-gradient"/>
    <linearGradient id="linear-gradient-6" x1="95.617" y1="52.405" x2="99.161" y2="52.405" xlink:href="#linear-gradient"/>
    <linearGradient id="linear-gradient-7" x1="74.552" y1="19.275" x2="76.515" y2="19.275" xlink:href="#linear-gradient"/>
    <linearGradient id="linear-gradient-8" x1="81.878" y1="12.875" x2="84.879" y2="12.875" xlink:href="#linear-gradient"/>
    <linearGradient id="linear-gradient-9" x1="69.386" y1="87.649" x2="70.079" y2="87.649" xlink:href="#linear-gradient"/>
    <linearGradient id="linear-gradient-10" x1="61.19" y1="7.601" x2="61.827" y2="7.601" xlink:href="#linear-gradient"/>
    <linearGradient id="linear-gradient-11" x1="89.803" y1="47.783" x2="93.11" y2="47.783" xlink:href="#linear-gradient"/>
    <linearGradient id="linear-gradient-12" x1="18.976" y1="8.854" x2="21.895" y2="8.854" xlink:href="#linear-gradient"/>
    <linearGradient id="linear-gradient-13" x1="90.185" y1="20.495" x2="91.934" y2="20.495" xlink:href="#linear-gradient"/>
    <linearGradient id="linear-gradient-14" x1="76.425" y1="11.903" x2="77.094" y2="11.903" xlink:href="#linear-gradient"/>
    <linearGradient id="linear-gradient-15" x1="78.986" y1="8.1" x2="79.619" y2="8.1" xlink:href="#linear-gradient"/>
    <linearGradient id="linear-gradient-16" x1="83.997" y1="41.254" x2="86.864" y2="41.254" xlink:href="#linear-gradient"/>
    <linearGradient id="linear-gradient-17" x1="70.658" y1="16.249" x2="71.727" y2="16.249" xlink:href="#linear-gradient"/>
    <linearGradient id="linear-gradient-18" x1="85.757" y1="32.259" x2="91.179" y2="32.259" xlink:href="#linear-gradient"/>
    <linearGradient id="linear-gradient-19" x1="76.492" y1="0.309" x2="76.987" y2="0.309" xlink:href="#linear-gradient"/>
    <linearGradient id="linear-gradient-20" x1="12.37" y1="30.12" x2="12.926" y2="30.12" xlink:href="#linear-gradient"/>
    <linearGradient id="linear-gradient-21" x1="88.975" y1="25.101" x2="89.791" y2="25.101" xlink:href="#linear-gradient"/>
    <linearGradient id="linear-gradient-22" x1="17.342" y1="62.529" x2="17.721" y2="62.529" xlink:href="#linear-gradient"/>
    <linearGradient id="linear-gradient-23" x1="72.332" y1="0.828" x2="72.678" y2="0.828" xlink:href="#linear-gradient"/>
    <linearGradient id="linear-gradient-24" x1="97.031" y1="11.102" x2="97.563" y2="11.102" xlink:href="#linear-gradient"/>
    <linearGradient id="linear-gradient-25" x1="56.979" y1="6.398" x2="57.315" y2="6.398" xlink:href="#linear-gradient"/>
    <linearGradient id="linear-gradient-26" x1="84.463" y1="49.505" x2="87.481" y2="49.505" xlink:href="#linear-gradient"/>
    <linearGradient id="linear-gradient-27" x1="92.056" y1="15.15" x2="92.303" y2="15.15" xlink:href="#linear-gradient"/>
    <linearGradient id="linear-gradient-28" x1="6.903" y1="57.73" x2="7.271" y2="57.73" xlink:href="#linear-gradient"/>
    <linearGradient id="linear-gradient-29" x1="9.359" y1="59.867" x2="10.512" y2="59.867" xlink:href="#linear-gradient"/>
    <linearGradient id="linear-gradient-30" x1="8.353" y1="58.258" x2="9.296" y2="58.258" xlink:href="#linear-gradient"/>
    <linearGradient id="linear-gradient-31" x1="6.754" y1="56.999" x2="7.135" y2="56.999" xlink:href="#linear-gradient"/>
    <linearGradient id="linear-gradient-32" x1="4.88" y1="25.885" x2="5.147" y2="25.885" xlink:href="#linear-gradient"/>
    <linearGradient id="linear-gradient-33" x1="17.967" y1="71.182" x2="20.309" y2="71.182" xlink:href="#linear-gradient"/>
    <linearGradient id="linear-gradient-34" x1="79.339" y1="81.57" x2="81.83" y2="81.57" xlink:href="#linear-gradient"/>
    <linearGradient id="linear-gradient-35" x1="14.425" y1="78.541" x2="18.872" y2="78.541" xlink:href="#linear-gradient"/>
    <linearGradient id="linear-gradient-36" x1="0" y1="80.327" x2="2.655" y2="80.327" xlink:href="#linear-gradient"/>
    <linearGradient id="linear-gradient-37" x1="29.058" y1="89.908" x2="30.425" y2="89.908" xlink:href="#linear-gradient"/>
    <linearGradient id="linear-gradient-38" x1="26.441" y1="89.173" x2="28.048" y2="89.173" xlink:href="#linear-gradient"/>
    <linearGradient id="linear-gradient-39" x1="38.471" y1="98.735" x2="38.99" y2="98.735" xlink:href="#linear-gradient"/>
    <linearGradient id="linear-gradient-40" x1="71.171" y1="97.707" x2="73.553" y2="97.707" xlink:href="#linear-gradient"/>
    <linearGradient id="linear-gradient-41" x1="19.593" y1="94.414" x2="22.048" y2="94.414" xlink:href="#linear-gradient"/>
    <linearGradient id="linear-gradient-42" x1="13.814" y1="88.173" x2="15.241" y2="88.173" xlink:href="#linear-gradient"/>
    <linearGradient id="linear-gradient-43" x1="12.383" y1="69.548" x2="13.66" y2="69.548" xlink:href="#linear-gradient"/>
    <linearGradient id="linear-gradient-44" x1="25.967" y1="95.214" x2="26.51" y2="95.214" xlink:href="#linear-gradient"/>
    <linearGradient id="linear-gradient-45" x1="12.849" y1="65.821" x2="15.559" y2="65.821" xlink:href="#linear-gradient"/>
    <linearGradient id="linear-gradient-46" x1="23.898" y1="98.321" x2="24.422" y2="98.321" xlink:href="#linear-gradient"/>
    <linearGradient id="linear-gradient-47" x1="30.357" y1="91.654" x2="31.232" y2="91.654" xlink:href="#linear-gradient"/>
    <linearGradient id="linear-gradient-48" x1="78.51" y1="80.288" x2="78.966" y2="80.288" xlink:href="#linear-gradient"/>
    <linearGradient id="linear-gradient-49" x1="15.571" y1="84.403" x2="16.242" y2="84.403" xlink:href="#linear-gradient"/>
    <linearGradient id="linear-gradient-50" x1="7.895" y1="62.042" x2="10.799" y2="62.042" xlink:href="#linear-gradient"/>
    <linearGradient id="linear-gradient-51" x1="9.207" y1="95.866" x2="9.635" y2="95.866" xlink:href="#linear-gradient"/>
    <linearGradient id="linear-gradient-52" x1="42.168" y1="99.712" x2="42.425" y2="99.712" xlink:href="#linear-gradient"/>
    <linearGradient id="linear-gradient-53" x1="13.517" y1="92.548" x2="13.715" y2="92.548" xlink:href="#linear-gradient"/>
    <linearGradient id="linear-gradient-54" x1="83.257" y1="58.276" x2="83.565" y2="58.276" xlink:href="#linear-gradient"/>
    <linearGradient id="linear-gradient-55" x1="84.886" y1="83.754" x2="85.101" y2="83.754" xlink:href="#linear-gradient"/>
  </defs>
  <title>luch_icon_history</title>
  <g>
    <image width="1228" height="1158" transform="translate(-283.851 -513.901)" xlink:href="luch_icon_history1.png"/>
    <rect class="cls-1" x="-3.744" y="-4.807" width="886.456" height="128.994"/>
  </g>
  <circle class="cls-2" cx="49.764" cy="49.769" r="12"/>
  <g>
    <path class="cls-3" d="M17.719,63.966c-0.484.465-.188,0.84,0.109,1.236,0.04,0.277.257,0.227,0.455,0.237a0.352,0.352,0,0,0,.593.109,0.988,0.988,0,0,0,.771-0.682,0.67,0.67,0,0,0,.162-0.228,0.553,0.553,0,0,0,.027-0.091,0.611,0.611,0,0,0,.021-0.134,0.846,0.846,0,0,0,0-.144V64.261a1.511,1.511,0,0,0-.028-0.169,0.29,0.29,0,0,0,.12-0.126,0.274,0.274,0,0,0-.031-0.285,0.1,0.1,0,0,0,.012-0.031,0.193,0.193,0,0,0-.317-0.1,0.8,0.8,0,0,1-.345-0.138,0.284,0.284,0,0,1-.079-0.119,0.319,0.319,0,0,1-.049-0.03,0.97,0.97,0,0,0-.821-0.277c-0.4.094-.267,0.244-0.057,0.4A2.062,2.062,0,0,1,17.719,63.966Z"/>
    <path class="cls-4" d="M11.55,29.007c0.287-.158.465-0.366,0.3-0.662a0.484,0.484,0,0,0-.662-0.04c-1.424.583-1.424,0.583-2.225-.524a0.246,0.246,0,0,0-.064.3A1.7,1.7,0,0,0,11.55,29.007Z"/>
    <path class="cls-5" d="M85.907,69.671a0.489,0.489,0,0,0-.33-0.192,1.251,1.251,0,0,0-.282-0.381,0.363,0.363,0,0,1-.08-0.257,1.084,1.084,0,0,0,0-.751,0.142,0.142,0,0,0-.063-0.057,1.434,1.434,0,0,1,.32-0.645,0.37,0.37,0,0,0,.079-0.346,3.975,3.975,0,0,1-.079-1.6,1.141,1.141,0,0,0,.129-1.028,0.744,0.744,0,0,0-.1-0.048c-0.015-.039-0.031-0.079-0.047-0.12a1.54,1.54,0,0,0-.979-0.969l-0.03,0c-0.035-.115-0.068-0.227-0.1-0.348a1.064,1.064,0,0,1-.1-0.119V62.464a1.144,1.144,0,0,0-.237-0.9,3.208,3.208,0,0,0-.455-0.9V59.873c-0.178.573-.316,0.257-0.455-0.02a1.443,1.443,0,0,1-.494-0.721,1.379,1.379,0,0,0-.3-0.732c0.04-.089.089-0.188,0.129-0.277a3.215,3.215,0,0,0,.731-0.405,0.215,0.215,0,0,0,.148.1,1.511,1.511,0,0,0,.129-0.119,0.53,0.53,0,0,0-.079-0.12,6.959,6.959,0,0,0,.742-0.71,1.111,1.111,0,0,0-.119-1.681,12.871,12.871,0,0,1-.84-1.384,1.231,1.231,0,0,0-.129-0.83A2.439,2.439,0,0,1,83,52.705c0.04-.682-0.652-0.959-0.83-1.523a0.773,0.773,0,0,0-.119-0.583,1.9,1.9,0,0,1,.534-0.949,1.7,1.7,0,0,0,.82-0.692l0.03,0.02a0.53,0.53,0,0,0,.386-0.465l0.148-.267a1.937,1.937,0,0,0,.764-1.718c-0.014-.068-0.033-0.139-0.052-0.21a1.514,1.514,0,0,0-.554-1.117A11.814,11.814,0,0,0,83,44.658a0.136,0.136,0,0,1-.03.039,0.03,0.03,0,0,0-.01-0.02l0.04-.02a0.906,0.906,0,0,0-.692-0.148,2,2,0,0,0-1.088-1.127v0.01a0.885,0.885,0,0,0-.712-0.425,2.739,2.739,0,0,1-.138-2.195c0.4,0.455.613,0.049,0.751-.227a3.876,3.876,0,0,1,.514-0.87l-0.04-.04h0.01c0.01,0.012.02,0.03,0.03,0.04,0.771-.593,1.76-0.791,2.412-1.671A3.324,3.324,0,0,0,85.1,36.343a1.157,1.157,0,0,0-.672-1.691c-0.86-.287-0.87-0.3-0.336-1.028a1.851,1.851,0,0,0-.8-2.8,13.649,13.649,0,0,0-1.394-.346,9.079,9.079,0,0,1-1.661-.85,1.778,1.778,0,0,0-1.137-1.078,2.228,2.228,0,0,1-1.513-1.107c-0.138-.484-0.811-0.4-0.919-0.83a0.956,0.956,0,0,0-1.018-.712c-0.059-.435-0.376-0.425-0.692-0.405a2.841,2.841,0,0,0-2.373-.376c-0.356-.04-0.722-0.089-1.078-0.109-0.751-.069-1.5-0.109-2.254-0.2a2.932,2.932,0,0,1-1.938-2.383c0-.326-0.01-0.643-0.01-0.969h0.02a2.617,2.617,0,0,0-.168-3.44c-0.415-.376-0.791-0.791-1.236-1.137-0.158-.385-0.633-0.277-0.86-0.563a2.689,2.689,0,0,0-.227-1.117,2.968,2.968,0,0,0-.564-0.969c-0.03-.237-0.109-0.445-0.385-0.336s-0.316-.119-0.445-0.217c-0.069-.415-0.613-0.178-0.722-0.534-0.158-.514-0.316-1.028-0.475-1.552-0.119.218,0.02,0.662-.465,0.544-0.1-.267-0.188-0.544-0.287-0.811a6.917,6.917,0,0,0-.158-1.967,6.948,6.948,0,0,0-.277,1.78c0,0.168.1,0.415-.1,0.5-0.277.138-.267-0.237-0.455-0.307a0.814,0.814,0,0,0-.672-0.425,1.411,1.411,0,0,1-.85-0.129c-0.02-.188.1-0.484-0.178-0.494-0.237-.01-0.218.277-0.237,0.475a0.519,0.519,0,0,0-.01.129,9.061,9.061,0,0,1-1.266.079,6.785,6.785,0,0,0-3.866.613,4.83,4.83,0,0,1-2.778.732,1.011,1.011,0,0,0-1.3-.119,1.5,1.5,0,0,1-1.5.356,0.765,0.765,0,0,0-.672.02,2.71,2.71,0,0,0-1.681.682,1.848,1.848,0,0,1-.138.138c-0.138.049-.267,0.109-0.4,0.158-0.138,0-.277.01-0.415,0.01a1.5,1.5,0,0,0-1.117.02c-0.089-.02-0.178-0.03-0.267-0.049a1.044,1.044,0,0,0-.672-0.119c-1.483-.119-2.966.2-4.469,0.148a1.1,1.1,0,0,0-.712.158,1.433,1.433,0,0,1-.959.386,6.84,6.84,0,0,0-1.809.554,7.158,7.158,0,0,0-1.028.277,12.085,12.085,0,0,0-1.74,1.107,7.322,7.322,0,0,0-1.1.059c0.03,0.643-.8.732-0.732,1.325a2.678,2.678,0,0,1-.346.405,0.388,0.388,0,0,0-.277.346,0.417,0.417,0,0,0,.494.247,0.654,0.654,0,0,1-.573.652,0.4,0.4,0,0,0-.376.524,0.872,0.872,0,0,1-.02.593c-0.257.03-.692-0.069-0.613,0.307,0.138,0.712-.356.771-0.771,0.959a2.042,2.042,0,0,0-1.117-.01,1.8,1.8,0,0,0-1.374.85,1.488,1.488,0,0,1-.415.237,0.847,0.847,0,0,0-.86.751,0.894,0.894,0,0,0,.85.534c0.128,0.237.208,0.494-.208,0.376a5.46,5.46,0,0,0-.89-0.109,0.8,0.8,0,0,0-.84-0.267,0.606,0.606,0,0,0-.84.564,0.958,0.958,0,0,1-.425.415,2.992,2.992,0,0,0-1.4.188,0.666,0.666,0,0,1-1-.277,0.3,0.3,0,0,0-.356-0.237,0.393,0.393,0,0,0-.217.237,0.338,0.338,0,0,0,.257.425,0.44,0.44,0,0,1,.376.484,0.25,0.25,0,0,0-.02.119c-0.662-.02-1.127.583-1.8,0.573a0.644,0.644,0,0,0-.83.148c-0.1.089-.178,0.178-0.277,0.267a2.077,2.077,0,0,0-1.384.445c-0.049-.049-0.109-0.1-0.158-0.148V26.892a0.375,0.375,0,0,0-.4-0.287c-0.1-.168-0.2-0.336-0.415-0.188a0.3,0.3,0,0,0-.059.474,0.7,0.7,0,0,1,.2.554c-0.089.129-.178,0.277-0.277,0.425-0.1.178-.188,0.356-0.277,0.534-0.257.257-.712,0.524-0.376,0.87,0.524,0.534.623,1.315,1.206,1.78,0.128,0.583-.662.385-0.692,0.82a1.612,1.612,0,0,0-.653,1.018c-0.1.484-.494,1.1,0.237,1.493a1.906,1.906,0,0,0,1.127.376,6.441,6.441,0,0,0,.959-0.227,3.246,3.246,0,0,0,.583-0.445,0.675,0.675,0,0,1,.929-0.247,1.53,1.53,0,0,1,.119.128,0.865,0.865,0,0,0,.573,1.107c0.593,0.138.633,0.287,0.138,0.83,0.554-.1,1.048-0.158,1.256.415-0.138.059-.277,0.119-0.445,0.208,0.791,0.208.217,0.415,0.03,0.623H18.154c-0.307-.237-0.386-0.84-1.1-0.593a0.625,0.625,0,0,1,.55.587,1.347,1.347,0,0,1-.016.274c-0.039.01-.1,0.01-0.138,0.02a0.911,0.911,0,0,0-.688-0.55l0,0a1.365,1.365,0,0,0-.136-0.213,1.576,1.576,0,0,0-1.03-.617,1.745,1.745,0,0,0,.514.633c-0.178.089-.465,0.02-0.455,0.336q-0.341.193-.682,0.415a3.919,3.919,0,0,1-2.472.445,0.757,0.757,0,0,0-.316.109c-0.326.089-.653,0.178-0.979,0.257a25.837,25.837,0,0,0-2.625-.119c-0.583.049-1.231-.218-1.7,0.376a0.476,0.476,0,0,0-.119.039,2.427,2.427,0,0,0-1.389,1.938c-0.044.089-.089,0.188-0.133,0.287a0.287,0.287,0,0,0-.143.267H4.965a4.056,4.056,0,0,1-.394.6,1.272,1.272,0,0,1-.174.193,1.6,1.6,0,0,0,.232,1.958,0.393,0.393,0,0,1,.109.306,1.364,1.364,0,0,0,.01.929,0.284,0.284,0,0,0,.094.049H4.827a1.62,1.62,0,0,1-.405.811,0.419,0.419,0,0,0-.084.425,4.684,4.684,0,0,1,.089,1.948c-0.069.4-.494,0.8-0.153,1.256,0.036,0.024.08,0.043,0.121,0.065,0.018,0.047.037,0.094,0.057,0.143a1.911,1.911,0,0,0,1.2,1.186h0.03c0.04,0.128.084,0.277,0.119,0.415,0.044,0.049.089,0.1,0.129,0.138,0,0.138,0,.267,0,0.415v0.01a1.379,1.379,0,0,0,.277,1.1A3.943,3.943,0,0,0,6.77,54.1v0.959c0.212-.692.385-0.326,0.554,0.01a1.778,1.778,0,0,1,.6.89c0.2,0.376.385,0.277,0.643,0.227l0-.01h0.01l-0.015.01c-0.252.643,0.227,0.524,0.568,0.544a1.448,1.448,0,0,0,.549.3v-0.02h0.01a0.02,0.02,0,0,0-.01.019,0.649,0.649,0,0,0,.554.128,1.015,1.015,0,0,0,.415.554,3.126,3.126,0,0,0,1.384.7,0.316,0.316,0,0,0,.3.119c0.455,0.326.929,0.653,1.384,0.989a0.888,0.888,0,0,0,.554.129c0.079,0,.178.01,0.267,0.01a0.32,0.32,0,0,0,.117.057,1.6,1.6,0,0,0,.842.23c0.85,0.386,1.78.534,2.65,0.84a8.336,8.336,0,0,0,3,1.1,4.637,4.637,0,0,0,.675,1.162,0.566,0.566,0,0,0,.079.475,1.436,1.436,0,0,1-.435.771,1.513,1.513,0,0,0-.672.573l-0.02-.01a0.4,0.4,0,0,0-.316.366c-0.04.079-.079,0.148-0.119,0.217a1.6,1.6,0,0,0-.628,1.38,1.268,1.268,0,0,0,.055.2h-0.02a1.26,1.26,0,0,0,.475.919,7.046,7.046,0,0,0,.91.445,0.741,0.741,0,0,0,.558.128h0a1.692,1.692,0,0,0,.91.919,0.7,0.7,0,0,0,.573.336,2.283,2.283,0,0,1,.119,1.8c-0.336-.376-0.494-0.04-0.613.188a3.993,3.993,0,0,1-.425.712l0.03,0.02-0.009.009c-0.007-.01-0.016-0.025-0.021-0.029a7.743,7.743,0,0,0-1.987,1.364,2.864,2.864,0,0,0-.85,1.364,0.931,0.931,0,0,0,.554,1.374c0.7,0.247.712,0.247,0.277,0.85a1.522,1.522,0,0,0,.653,2.293c0.4,0.079.751,0.228,1.147,0.277a6.667,6.667,0,0,1,1.345.7,1.517,1.517,0,0,0,.949.88,1.81,1.81,0,0,1,1.226.91c0.119,0.386.672,0.316,0.761,0.672a0.768,0.768,0,0,0,.831.593c0.049,0.345.306,0.336,0.563,0.326a2.294,2.294,0,0,0,1.938.316l0.89,0.089c0.613,0.05,1.226.089,1.839,0.149a2.39,2.39,0,0,1,1.592,1.948c0.01,0.276.01,0.534,0.01,0.81l-0.01-.009A2.145,2.145,0,0,0,34.1,90.2c0.346,0.316.653,0.643,1.018,0.929a2.577,2.577,0,0,0,.7.465,2.218,2.218,0,0,0,.188.919,2.45,2.45,0,0,0,.465.791c0.02,0.2.089,0.366,0.316,0.277s0.257,0.1.356,0.168c0.059,0.336.5,0.148,0.593,0.444,0.128,0.425.257,0.84,0.4,1.265,0.1-.168-0.02-0.534.376-0.444,0.079,0.218.158,0.444,0.237,0.672a4.87,4.87,0,0,0,.138,1.6,7.285,7.285,0,0,0,.217-1.444,0.386,0.386,0,0,1,.079-0.425c0.217-.108.217,0.2,0.366,0.267a0.679,0.679,0,0,0,.544.336,1.054,1.054,0,0,1,.712.108c0.02,0.139-.1.386,0.138,0.406,0.2,0,.188-0.228.2-0.406a0.273,0.273,0,0,0,.01-0.089,7.21,7.21,0,0,1,1.038-.069,5.625,5.625,0,0,0,3.164-.494,3.8,3.8,0,0,1,2.274-.614,0.8,0.8,0,0,0,1.048.109,1.207,1.207,0,0,1,1.246-.3,0.619,0.619,0,0,0,.544-0.02,2.18,2.18,0,0,0,1.384-.554,1.191,1.191,0,0,1,.109-0.118c0.109-.039.218-0.089,0.336-0.129h0.336a1.368,1.368,0,0,0,.91-0.01,1.418,1.418,0,0,1,.218.03,0.87,0.87,0,0,0,.544.1c1.226,0.1,2.442-.168,3.668-0.118a0.956,0.956,0,0,0,.573-0.139,1.364,1.364,0,0,1,.791-0.316,5.841,5.841,0,0,0,1.483-.445,5.162,5.162,0,0,0,.85-0.237,11.812,11.812,0,0,0,1.424-.9,5.126,5.126,0,0,0,.89-0.049c-0.02-.524.653-0.6,0.593-1.078a1.957,1.957,0,0,1,.3-0.336c0.079-.089.257-0.118,0.217-0.276-0.04-.218-0.237-0.2-0.4-0.218a0.521,0.521,0,0,1,.465-0.535,0.328,0.328,0,0,0,.306-0.415,0.738,0.738,0,0,1,.02-0.5c0.208,0,.554.06,0.494-0.237-0.119-.593.3-0.643,0.633-0.791a1.625,1.625,0,0,0,.919.009,1.468,1.468,0,0,0,1.117-.7A1.1,1.1,0,0,1,69,86.5a0.684,0.684,0,0,0,.692-0.614c0-.316-0.415-0.346-0.692-0.444-0.109-.188-0.178-0.4.168-0.3a6.539,6.539,0,0,0,.722.089,0.641,0.641,0,0,0,.692.208,0.488,0.488,0,0,0,.692-0.456,0.834,0.834,0,0,1,.346-0.345,2.235,2.235,0,0,0,1.157-.159,0.556,0.556,0,0,1,.811.218,0.244,0.244,0,0,0,.3.208,0.313,0.313,0,0,0,.178-0.208,0.28,0.28,0,0,0-.218-0.336,0.353,0.353,0,0,1-.3-0.395,0.344,0.344,0,0,0,.01-0.1c0.544,0.029.919-.485,1.473-0.465a0.53,0.53,0,0,0,.682-0.109c0.079-.079.148-0.158,0.227-0.227a1.781,1.781,0,0,0,1.127-.356,0.651,0.651,0,0,1,.129.109v0.118a0.317,0.317,0,0,0,.326.227c0.089,0.139.158,0.277,0.346,0.149a0.233,0.233,0,0,0,.049-0.376,0.661,0.661,0,0,1-.178-0.455c0.079-.12.158-0.238,0.237-0.336,0.079-.159.158-0.307,0.237-0.456,0.2-.208.574-0.425,0.3-0.721a16.233,16.233,0,0,0-.979-1.454c-0.109-.465.544-0.307,0.564-0.672a1.351,1.351,0,0,0,.534-0.821c0.079-.4.405-0.9-0.2-1.226a1.61,1.61,0,0,0-.929-0.306,3.4,3.4,0,0,0-.771.2,1.458,1.458,0,0,0-.475.356,0.557,0.557,0,0,1-.771.2c-0.03-.03-0.059-0.069-0.1-0.109a0.56,0.56,0,0,0,.035-0.393c0.44-.426,0-0.927-0.075-1.4a0.463,0.463,0,0,1,.311-0.224,1.476,1.476,0,0,0,.658.313,0.46,0.46,0,0,0-.182-0.3l-0.064-.054c-0.016-.013-0.031-0.028-0.047-0.042a0.449,0.449,0,0,0,.322-0.247l0.138-.109a0.62,0.62,0,0,0,.435-0.3,3.809,3.809,0,0,0,1.412-.454,1.267,1.267,0,0,1,.526,0,0.466,0.466,0,0,0,.257-0.1c0.267-.069.544-0.138,0.8-0.208,0.507,0.028,1.012.073,1.515,0.094a3.473,3.473,0,0,0,.444.745c0.015,0.019.031,0.037,0.048,0.055a1.11,1.11,0,0,0,.109.1,1.009,1.009,0,0,0,.276.164,1.622,1.622,0,0,0,2.1-.4,1.106,1.106,0,0,0,.109-1.394c0.017-.188,0-0.384.018-0.572a1.508,1.508,0,0,0,.106-0.315,0.568,0.568,0,0,1,.044-0.081,3.3,3.3,0,0,0,1.246,0c0.751,0.287.534-.385,0.691-0.692C87.152,70.462,86.292,70.136,85.907,69.671Zm-21.1-53.613h0v0Zm4.842,68.773a0.081,0.081,0,0,0,0-.023,0.621,0.621,0,0,1,.08.008ZM37.247,92.491l0,0a0.055,0.055,0,0,1-.017.017,0.18,0.18,0,0,1,.017-0.057C37.243,92.463,37.248,92.477,37.247,92.491ZM11.659,57.382L11.5,57.4c0-.025.009-0.053,0.01-0.075A0.258,0.258,0,0,1,11.659,57.382Zm5.832-23.546,0,0.006c-0.028.007-.056,0.012-0.083,0.02C17.427,33.786,17.46,33.8,17.491,33.835Zm-1.561,22.34c-0.01.009-.015,0.019-0.025,0.028,0-.009,0-0.021.005-0.028h0.02ZM5.688,42.722a1.317,1.317,0,0,0,.328.425l-0.028-.012c-0.153-.049-0.356-0.079-0.311-0.267A1.39,1.39,0,0,0,5.688,42.722ZM64.67,16.333H64.661l0.005-.01ZM24.533,77.574a0.486,0.486,0,0,0-.022-0.1l0.059,0.019A0.08,0.08,0,0,1,24.533,77.574ZM78.849,33.552L78.8,33.535a0.088,0.088,0,0,1,.029-0.058A0.577,0.577,0,0,0,78.849,33.552ZM21.943,75.176l-0.017,0a0.073,0.073,0,0,1,0-.031C21.934,75.159,21.939,75.166,21.943,75.176ZM82.009,36.366l0.013,0a0.062,0.062,0,0,1,0,.029C82.017,36.383,82.013,36.375,82.009,36.366Zm-3.036,1.909-0.006,0h0.008Zm5.47,31.6a0.231,0.231,0,0,1-.078-0.043l-0.013-.011a1.071,1.071,0,0,0-.086-0.107V69.7c0.1,0.03.2,0.04,0.178,0.158v0.014ZM39.4,89.909v-0.02c0.014,0,.026,0,0.04,0C39.43,89.9,39.41,89.9,39.4,89.909ZM20.092,29.393h0v0h0ZM59.818,15.215h0ZM76.345,51.452l0.011,0.007H76.336ZM38.063,85.559V85.551l0,0.008h0ZM10.927,46.18h0V46.17l0,0ZM32.6,78.4h0.005l0,0ZM62.321,23.688V23.7l0-.01h0Zm6.667,8.735L69,32.438a0.077,0.077,0,0,1-.017,0ZM33.143,23.956l0.009,0v0.012ZM80.156,67.12c0,0.007,0,.012,0,0.02a0.1,0.1,0,0,1-.035.024c0-.009.01-0.014,0.015-0.024Zm-55.48-34,0,0.007h-0.01Zm25.8,48.919,0,0H50.48ZM61.111,31.331a0.379,0.379,0,0,0-.017.055l-0.01.023c-0.012-.026-0.018-0.051-0.033-0.078h0.059Zm7.456,16.107v0h0ZM39.094,79.3H39.05c0.008-.019.015-0.038,0.023-0.057l0-.007C39.086,79.259,39.082,79.277,39.094,79.3Zm-4.329-5.675a0.016,0.016,0,0,1,.008-0.02v0.02H34.765ZM66.984,48.019l0-.06a0.1,0.1,0,0,0,.021.019C67,47.993,66.987,48,66.984,48.019Zm-10.5-8.908L56.478,39.1l0.006,0v0.009ZM40.111,76.569a0.024,0.024,0,0,0-.009-0.017,0.037,0.037,0,0,0,.02.02ZM54.59,34.841h0a0.024,0.024,0,0,0,.005-0.024,0.046,0.046,0,0,0-.025-0.016c-0.084-.017.023-0.023,0.025,0.016C54.6,34.823,54.593,34.833,54.59,34.841ZM32.161,69.858v0h0ZM69.538,42.853l0,0,0-.008Zm-16.391-9.3a0.534,0.534,0,0,0-.07.027V33.57c0.022-.008.045-0.015,0.066-0.024Zm13.193,4.713h0s0,0.007,0,.01v-0.01ZM35.455,74.3a0.258,0.258,0,0,1,.016.021H35.455C35.455,74.311,35.456,74.3,35.455,74.3ZM37.3,76.2a0.1,0.1,0,0,1,.041.005l-0.028.027ZM70.436,44.086l0.008,0,0,0H70.436ZM40.228,29.671v0c0.008-.007.015-0.011,0.022-0.018Zm25.282,7.74h0c0,0.01,0,.019,0,0.03a0.087,0.087,0,0,0-.03-0.03C65.491,37.409,65.5,37.413,65.51,37.411Zm-2.258-2.292a0.075,0.075,0,0,1-.045-0.022,0.059,0.059,0,0,1,.026-0.021C63.24,35.093,63.246,35.1,63.252,35.119ZM38.1,77.531c-0.009,0,0,0-.009.009l-0.01,0ZM69.333,47.5h0l0.023,0A0.059,0.059,0,0,1,69.333,47.5ZM47.16,27.978l0,0,0.008,0.006H47.16ZM34.674,25.913c0.007-.012.01-0.023,0.017-0.035L34.7,25.905ZM62.3,33.481s0.013,0.005.018,0.008a0.124,0.124,0,0,1-.024.006Zm-4.633-7.529a0.16,0.16,0,0,0,0-.047c0.02,0.015.042,0.028,0.062,0.041A0.066,0.066,0,0,1,57.671,25.952Zm-23.144-.744,0-.01,0.005,0.013ZM75.481,54.674c0.017,0.031.034,0.063,0.052,0.094a0.152,0.152,0,0,1-.066.033A1.091,1.091,0,0,0,75.481,54.674ZM29.651,34.127c0-.008,0-0.016,0-0.024v0h0.03C29.668,34.107,29.663,34.118,29.651,34.127ZM75.505,51.736l0,0,0-.005v0.009ZM28.979,31.056H28.973l0.007-.011v0.012Zm46.665,20.4V51.437l0.017,0C75.656,51.45,75.65,51.452,75.644,51.46ZM69.229,33.485a0.2,0.2,0,0,0,.036-0.008c-0.008.034-.021,0.06-0.027,0.1C69.231,33.542,69.233,33.516,69.229,33.485ZM53.8,19.968a0.136,0.136,0,0,0-.014.075c-0.032-.027-0.053-0.055-0.092-0.082C53.739,19.961,53.768,19.965,53.8,19.968ZM27.793,30.61h0ZM32.4,77.461a0.45,0.45,0,0,1,.006.082,0.175,0.175,0,0,0-.031.008A0.893,0.893,0,0,0,32.4,77.461Zm2.274,1.345c0.05,0.016.091,0.034,0.132,0.05a0.2,0.2,0,0,0-.05.042A0.8,0.8,0,0,0,34.674,78.806Zm10.358,9.8a0.116,0.116,0,0,0,.009-0.059c0.026,0.022.042,0.044,0.073,0.066C45.085,88.613,45.061,88.609,45.033,88.606Zm3.95-3.951,0,0,0,0.006ZM66.361,31.818a0.951,0.951,0,0,0,.1.106C66.4,31.9,66.352,31.886,66.3,31.866A0.256,0.256,0,0,0,66.361,31.818Zm-49.6,12.975a0.179,0.179,0,0,1,0-.046v0.046Zm-0.833.844h0ZM82.579,63.795c0.023,0.005.042,0.016,0.065,0.02v0.032C82.624,63.829,82.6,63.813,82.579,63.795ZM60.227,17.445l0,0,0.007,0Zm-12.334.836,0-.012,0.009,0.012a0.037,0.037,0,0,1-.012,0h0ZM23.218,30.767h0.067a0.606,0.606,0,0,1-.084.037C23.207,30.792,23.213,30.78,23.218,30.767Zm2.908,36.822,0-.006,0.008,0ZM36.021,84.3h0Zm3.767,6.363,0.006,0-0.018.008C39.776,90.668,39.783,90.669,39.788,90.668Zm10.092-.686V90a0.218,0.218,0,0,0-.018-0.025h0.007ZM60.646,18.409a0.232,0.232,0,0,1,.049-0.049,0.048,0.048,0,0,1-.01.04l0,0.009C60.675,18.409,60.662,18.408,60.646,18.409ZM31.218,23.272h0Zm52.1,42.193V65.43c0.017,0.019.038,0.034,0.056,0.052C83.351,65.477,83.338,65.469,83.316,65.465ZM49.385,15.788c0-.008-0.019,0-0.019-0.019H49.4C49.394,15.777,49.387,15.781,49.385,15.788ZM8.714,50.215h0Zm1.756,4.446h0v0Zm4.046-.383a0.028,0.028,0,0,1,.01-0.03c0-.01.01,0,0.02-0.01C14.536,54.258,14.526,54.258,14.516,54.277ZM48.658,92.026a0.016,0.016,0,0,1,.012.006v0H48.654ZM78.791,36.1L78.782,36.1a0.38,0.38,0,0,0,.037-0.062l0.01,0,0.028,0.011c-0.02.01-.048,0.029-0.068,0.039A0.071,0.071,0,0,1,78.791,36.1ZM58.974,13.7v0h0ZM8.289,44.08l0.006,0,0,0.016ZM7.056,48.218l-0.01.048c-0.023-.026-0.052-0.049-0.077-0.074C7,48.2,7.023,48.212,7.056,48.218Zm0.821,2c0.023,0.021.05,0.038,0.073,0.058C7.924,50.266,7.9,50.255,7.877,50.25V50.214Zm16.694,25.2a0.1,0.1,0,0,1,0-.023,0.143,0.143,0,0,0,.028.018,0.4,0.4,0,0,0-.035.038,0.248,0.248,0,0,1-.032-0.013ZM40.806,93.743h0ZM7.853,52.276l0.024-.008V52.29A0.249,0.249,0,0,1,7.853,52.276Zm3.384-13.013c-0.008,0-.015,0-0.023,0V39.25A0.142,0.142,0,0,0,11.236,39.264ZM36.15,91.579l-0.006.012a0.022,0.022,0,0,1-.006-0.012H36.15ZM76.455,28.562a0.053,0.053,0,0,1,.017-0.046c0.008,0.017.015,0.041,0.024,0.057A0.125,0.125,0,0,1,76.455,28.562Zm-0.388-1.539,0,0,0-.006Zm-12.743-11.8,0.012-.012a0.107,0.107,0,0,0-.01.049C63.327,15.252,63.323,15.24,63.323,15.228Zm-34.6,7.452a0.166,0.166,0,0,0,.044.075,0.871,0.871,0,0,0-.107.024C28.692,22.745,28.7,22.713,28.727,22.68ZM23.733,24.6a0.421,0.421,0,0,1-.092-0.014c0.044,0,.071-0.01.1-0.014A0.135,0.135,0,0,0,23.733,24.6ZM15.794,40.9h0l0,0ZM26.488,81.574a0.048,0.048,0,0,1-.012.025c-0.006-.012-0.011-0.028-0.016-0.039A0.131,0.131,0,0,1,26.488,81.574Zm0.323,1.245h0l0,0Zm18.2,11.015v0.013l-0.01.007C45.016,93.843,45.016,93.853,45.016,93.834Zm20.549-7.446a0.132,0.132,0,0,0-.035-0.068,0.715,0.715,0,0,0,.09-0.02C65.6,86.331,65.585,86.358,65.565,86.388ZM74.8,77.266l0.023-.01C74.812,77.264,74.806,77.271,74.8,77.266ZM81.684,38.98s-0.009,0-.009-0.007a0.085,0.085,0,0,1,.009-0.038C81.684,38.949,81.684,38.964,81.684,38.98ZM63.141,14.648l0.007,0.014H63.135ZM20.378,25.066l0.007,0.021-0.026-.014C20.359,25.066,20.369,25.067,20.378,25.066ZM9.4,39.8l0,0h0Zm12.8,33.239a0.014,0.014,0,0,1,.012.006c0,0.008-.007.008-0.012,0.011V73.036ZM37.383,92.953H37.4l-0.009.022v0A0.012,0.012,0,0,0,37.383,92.953Zm35.032-8.526,0.006,0h0v0ZM43.434,13.683h0l0,0v0Zm-19.556,10.7H23.86c0.017-.01.031-0.021,0.048-0.031C23.9,24.363,23.889,24.372,23.878,24.383Zm-1.118-.366,0,0-0.007-.006ZM20.22,65.884h0ZM53.528,93.745h0Zm16-8.76,0.01,0-0.026.018C69.524,85,69.522,84.993,69.53,84.985Zm0.926,0.3,0,0,0,0H70.457Zm5.336-2.521h0Z"/>
    <path class="cls-6" d="M93.421,59.231a0.433,0.433,0,0,0-.415-0.425c-0.564-.445-0.782-0.386-1.128.287a1.2,1.2,0,0,0-.029,1.127c0.188,0.376.4,0.732,0.9,0.415a2.243,2.243,0,0,0,.257-0.148c0.672-.158.731-0.563,0.415-1.1V59.231Zm-0.278.82h0v0.02C93.142,60.065,93.143,60.057,93.143,60.051Z"/>
    <path class="cls-7" d="M72.283,19.121a1.072,1.072,0,0,0,.274.052c0.695,0.1.858-.178,0.735-1.05-0.119-.741-0.742-0.336-1.107-0.514-0.326-.148-0.435.218-0.415,0.524C71.532,18.676,71.611,19.052,72.283,19.121Zm-0.136-.148H72.2v0.01C72.22,19.057,72.157,19,72.147,18.972Z"/>
    <path class="cls-8" d="M92.155,42.987c-0.118.583,0.05,0.8,0.7,0.84,0.7,0.247.861,0.079,0.8-.84C93.005,42.4,92.807,42.4,92.155,42.987Z"/>
    <path class="cls-9" d="M98.829,51.46c-0.03-.662-0.574-0.484-0.96-0.573-0.336-.722-0.8-0.445-1.266-0.148a0.37,0.37,0,0,0,.065.06,0.544,0.544,0,0,0-.065.009V50.738c-0.1.1-.187,0.188-0.286,0.277a1.362,1.362,0,0,0-.544,1.849,0.761,0.761,0,0,0,.4.564,1.741,1.741,0,0,0,1.266.781c0.218-.247.395-0.049,0.612,0.049,0.286,0.129.643,0.287,0.633-.277,0.039-.109.1-0.2,0.149-0.307a0.357,0.357,0,0,0,.019-0.405A1.43,1.43,0,0,0,98.829,51.46Z"/>
    <path class="cls-10" d="M75.644,20.455c0.336,0.049.376-.267,0.415-0.524,0-.03.01-0.079,0.01-0.109a0.778,0.778,0,0,0,.217-0.178,1.033,1.033,0,0,0-.128-1.424c-0.386-.405-0.455.247-0.722,0.3a1.354,1.354,0,0,0-.366.168c-0.3.128-.257,0.326-0.119,0.554-0.218.168-.514,0.306-0.356,0.652A1.171,1.171,0,0,0,75.644,20.455Z"/>
    <path class="cls-11" d="M82.9,14.4c0.623,0.178.692-.455,1.088-0.554a1.514,1.514,0,0,0,.831-1.552c-0.633-1.028-1.562-1.305-2.393-.573-0.257-.01-0.5.059-0.5,0.336a2.106,2.106,0,0,0,.247,1.631A1.646,1.646,0,0,0,82.9,14.4Z"/>
    <path class="cls-12" d="M69.752,87.131c-0.3-.02-0.316.365-0.366,0.652,0.05,0.139-.109.386,0.277,0.386,0.306,0,.425-0.1.415-0.376S70.009,87.131,69.752,87.131Z"/>
    <path class="cls-13" d="M61.764,7.474c0.158-.168-0.02-0.336-0.119-0.475a0.253,0.253,0,0,0-.287-0.148,0.4,0.4,0,0,0-.168.415,2.937,2.937,0,0,0,.138,1.1A2.856,2.856,0,0,1,61.764,7.474Z"/>
    <path class="cls-14" d="M92.294,48.8a0.912,0.912,0,0,1,.158-0.534c0.88-.623.88-1-0.01-1.641a1.684,1.684,0,0,0-.969-0.306,2.582,2.582,0,0,0-.276.01c-0.564-.227-0.91-0.129-0.92.554a0.825,0.825,0,0,1-.069.267c-0.089.188-.187,0.376-0.267,0.564a0.385,0.385,0,0,0,.168.672,0.212,0.212,0,0,0,.109.04c0.089,0.089.178,0.168,0.276,0.257,0.178,0.712.811,0.613,1.3,0.662A0.492,0.492,0,0,0,92.294,48.8Zm-0.416-.235-0.016-.026a0.264,0.264,0,0,1,.036.014c0-.007,0-0.012,0-0.018l0.016,0.01a0.027,0.027,0,0,1-.013.009Z"/>
    <path class="cls-15" d="M19.251,7.178a1.288,1.288,0,0,0,.435,1.1,2.2,2.2,0,0,1,.485.633,8.839,8.839,0,0,0,1.038,2.155c0.039,0.079.1,0.178,0.138,0.267,0.02,0.148.02,0.346,0.237,0.326a0.292,0.292,0,0,0,.178-0.326,2.59,2.59,0,0,1,.02-0.277c0.227-.2.059-0.356-0.059-0.524a12.669,12.669,0,0,0-.791-1.374c-0.692-.939-0.573-2.294-1.523-3.094-0.475-.069-0.455.217-0.415,0.534C19.083,6.792,19.172,6.99,19.251,7.178Z"/>
    <path class="cls-16" d="M90.653,21.306a0.591,0.591,0,0,0,.949-0.267c0.475-.316.4-0.643,0.02-0.959-0.139-.109-0.257-0.217-0.386-0.316a0.532,0.532,0,0,0-.6-0.178,0.658,0.658,0,0,0-.444.633A1.214,1.214,0,0,0,90.653,21.306Z"/>
    <path class="cls-17" d="M76.752,12.25a0.384,0.384,0,0,0,.336-0.376,0.34,0.34,0,0,0-.662-0.059A0.377,0.377,0,0,0,76.752,12.25Z"/>
    <path class="cls-18" d="M79.283,8.374a0.338,0.338,0,0,0,.336-0.287,0.436,0.436,0,0,0-.435-0.277,0.247,0.247,0,0,0-.2.306C78.986,8.325,79.085,8.433,79.283,8.374Z"/>
    <path class="cls-19" d="M84.523,40.486l-0.277.138c-0.425.158-.227,0.287,0.02,0.415a0.515,0.515,0,0,0,.109.02,1.208,1.208,0,0,1-.049.474,0.874,0.874,0,0,0,.455,1.1c0.237,0.218.534-.109,0.751-0.316a1.164,1.164,0,0,0,.929-0.336,0.475,0.475,0,0,0,.286-0.662,0.824,0.824,0,0,0-.386-1.127c-0.178-.554-0.652-0.178-0.949-0.3C84.78,39.655,84.572,39.922,84.523,40.486Z"/>
    <path class="cls-20" d="M71.037,17.42a3.58,3.58,0,0,0,.435-0.811c-0.059-.524.475-0.989,0.148-1.542a0.172,0.172,0,0,0-.3,0c-0.109.682-.643,1.216-0.573,1.948-0.188.188-.049,0.326,0.069,0.455A0.124,0.124,0,0,0,71.037,17.42Z"/>
    <path class="cls-21" d="M90.375,33.1c0.178,0.138.3,0.03,0.415-.1a0.545,0.545,0,0,0,.139-0.425,1.505,1.505,0,0,0,.218-0.633,0.207,0.207,0,0,0-.079-0.3c-0.178-.079-0.238.04-0.3,0.188-0.039.109-.1,0.208-0.139,0.316a0.792,0.792,0,0,0-.139.119,0.526,0.526,0,0,1-.395-0.138,1.051,1.051,0,0,0-1.108-.791c-0.633.385-1.127,0.435-1.444-.405-0.1-.267-0.791-0.01-0.949.346-0.139.069-.257,0.128-0.4,0.188a0.62,0.62,0,0,0-.418.276c0,0.008-.012.016-0.015,0.024a0.263,0.263,0,0,0-.007.056,0.289,0.289,0,0,0-.007.067c0,0.008,0,.016.006,0.024a1.238,1.238,0,0,0,.3.5,0.876,0.876,0,0,0,1.236.722,0.289,0.289,0,0,0,.5-0.049c0.1-.158.178-0.178,0.317-0.089a0.631,0.631,0,0,0,.573.544l0.06,0.02,0.059-.01a0.52,0.52,0,0,0,.712-0.01,1,1,0,0,0,.455-0.514C90.108,33.051,90.237,33.071,90.375,33.1Zm0.021-.083h0l0,0v0Z"/>
    <path class="cls-22" d="M76.791,0.618c0.138-.01.237-0.074,0.178-0.213S76.949,0,76.692,0a0.256,0.256,0,0,0-.2.307A0.318,0.318,0,0,0,76.791.618Z"/>
    <path class="cls-23" d="M12.657,30.411a0.262,0.262,0,0,0,.267-0.247,0.356,0.356,0,0,0-.316-0.336,0.265,0.265,0,0,0-.237.247A0.341,0.341,0,0,0,12.657,30.411Z"/>
    <path class="cls-24" d="M89.249,26c0.3,0.01.247-.306,0.3-0.5a4.149,4.149,0,0,0,.227-0.979c0.079-.188-0.1-0.3-0.266-0.316a0.216,0.216,0,0,0-.238.267,3.118,3.118,0,0,1-.276,1.028C88.952,25.735,88.962,25.992,89.249,26Z"/>
    <path class="cls-25" d="M17.551,62.315a0.19,0.19,0,0,0-.208.217,0.183,0.183,0,0,0,.208.208,0.26,0.26,0,0,0,.158-0.188A0.171,0.171,0,0,0,17.551,62.315Z"/>
    <path class="cls-26" d="M72.5,0.994A0.544,0.544,0,0,0,72.678.855,0.166,0.166,0,0,0,72.5.658a0.174,0.174,0,0,0-.168.173A0.143,0.143,0,0,0,72.5.994Z"/>
    <path class="cls-27" d="M97.563,11.063a0.3,0.3,0,0,0-.386-0.257c-0.2.059-.139,0.247-0.139,0.385C97.2,11.518,97.276,11.5,97.563,11.063Z"/>
    <path class="cls-28" d="M57.156,6.565c0.1,0.03.138-.069,0.158-0.168-0.02-.089-0.059-0.188-0.158-0.168a0.275,0.275,0,0,0-.178.168A0.237,0.237,0,0,0,57.156,6.565Z"/>
    <path class="cls-29" d="M86.48,48.247v0.009a0.442,0.442,0,0,0-.72-0.148,1.272,1.272,0,0,0-.96.85,1.084,1.084,0,0,0-.1,1.285,0.2,0.2,0,0,0-.238.188,0.229,0.229,0,0,0,.238.2c0.207,0.01.217-.157,0.257-0.305,0.045,0,.083.018,0.128,0.018,0.327,0.277.465,0.919,1.1,0.593,0.514-.1.554-0.7,0.979-0.89,0.6-.554.228-1.028-0.129-1.5C86.984,48.2,86.707,48.266,86.48,48.247Z"/>
    <path class="cls-30" d="M92.214,15.275a0.316,0.316,0,0,0,.089-0.168,0.27,0.27,0,0,0-.148-0.089,0.151,0.151,0,0,0-.1.129C92.056,15.245,92.105,15.314,92.214,15.275Z"/>
    <path class="cls-31" d="M7.046,57.56c-0.049.049-.094,0.1-0.143,0.148a0.235,0.235,0,0,0,.247.188,0.2,0.2,0,0,0,.119-0.138C7.289,57.6,7.16,57.579,7.046,57.56Z"/>
    <path class="cls-32" d="M9.731,60.328a1.813,1.813,0,0,0,.781-0.593c0-.218-0.079-0.4-0.217-0.326a1.135,1.135,0,0,0-.929.652C9.315,60.358,9.572,60.358,9.731,60.328Z"/>
    <path class="cls-33" d="M8.727,58.529A0.5,0.5,0,0,0,9.3,58.163c0.01-.208-0.282-0.168-0.455-0.178-0.2.01-.45-0.02-0.484,0.257C8.327,58.479,8.534,58.548,8.727,58.529Z"/>
    <path class="cls-34" d="M7.135,57.006a0.308,0.308,0,0,0-.3-0.138c-0.153,0-.039.109-0.03,0.129a0.156,0.156,0,0,0,.2.128A0.407,0.407,0,0,0,7.135,57.006Z"/>
    <path class="cls-35" d="M4.995,25.992a0.187,0.187,0,0,0,.143-0.1C5.173,25.814,5.1,25.794,5,25.774a0.619,0.619,0,0,0-.119.109A0.084,0.084,0,0,0,4.995,25.992Z"/>
    <path class="cls-36" d="M19.874,71.8a1.6,1.6,0,0,0,.227-0.109c0.356-.129.188-0.227-0.01-0.336A0.47,0.47,0,0,1,20,71.322a1.157,1.157,0,0,1,.04-0.376,0.7,0.7,0,0,0-.376-0.89c-0.2-.178-0.435.079-0.613,0.257a0.925,0.925,0,0,0-.761.267c-0.287.079-.267,0.307-0.227,0.544-0.257.425,0.039,0.672,0.316,0.919,0.138,0.465.524,0.148,0.771,0.257C19.677,72.488,19.845,72.271,19.874,71.8Z"/>
    <path class="cls-37" d="M79.639,81.2c-0.227.139-.4,0.307-0.237,0.544,0.119,0.208.356,0.109,0.534,0.03,1.167-.465,1.167-0.475,1.819.424a0.179,0.179,0,0,0,.059-0.237A1.389,1.389,0,0,0,79.639,81.2Z"/>
    <path class="cls-38" d="M17.61,77.807a0.1,0.1,0,0,1-.01.03H17.59l0.02-.03a0.243,0.243,0,0,0-.415.059,0.156,0.156,0,0,1-.267.049,0.48,0.48,0,0,0-.465-0.425l-0.04-.02-0.049.02a0.409,0.409,0,0,0-.583,0h-0.02a0.818,0.818,0,0,0-.356.415,2.932,2.932,0,0,0-.336-0.059,0.233,0.233,0,0,0-.336.069,0.472,0.472,0,0,0-.1.366,1.119,1.119,0,0,0-.2.514,0.162,0.162,0,0,0,.079.237c0.138,0.07.2-.029,0.237-0.138l0.119-.267A0.931,0.931,0,0,1,15,78.539a0.4,0.4,0,0,1,.316.089,0.894,0.894,0,0,0,.91.672c0.514-.336.919-0.365,1.186,0.326,0.079,0.208.633,0.02,0.771-.3a1.81,1.81,0,0,0,.316-0.148c0.593-.178.356-0.485,0.119-0.781A0.727,0.727,0,0,0,17.61,77.807Zm-2.532.114,0,0,0,0v0.005Z"/>
    <path class="cls-39" d="M1.93,79.508a0.9,0.9,0,0,0-1.513.118C0.254,80.032-.2,80.368.1,80.9c0.03,0.356.064,0.693,0.583,0.465a0.693,0.693,0,0,1,.539.05c0.153,0.108.262,0.139,0.356-.05,0.252-.069.5-0.148,0.756-0.237,0.232-.07.425-0.178,0.267-0.465A1.741,1.741,0,0,1,1.93,79.508ZM1.691,80.993h0Z"/>
    <path class="cls-40" d="M29.909,89.3a0.667,0.667,0,0,0-.248-0.029c-0.53-.058-0.676.162-0.573,0.84,0.089,0.623.6,0.286,0.9,0.415,0.267,0.139.356-.148,0.336-0.415C30.522,89.662,30.453,89.355,29.909,89.3Zm0.107,0.129H29.968v-0.01C29.953,89.359,30,89.4,30.016,89.424Z"/>
    <path class="cls-41" d="M27.151,88.208c-0.277-.039-0.306.218-0.336,0.425a0.3,0.3,0,0,0-.01.089,0.914,0.914,0,0,0-.178.148,0.845,0.845,0,0,0,.1,1.157c0.316,0.346.376-.2,0.593-0.238a1.19,1.19,0,0,0,.306-0.138c0.247-.109.208-0.267,0.109-0.455,0.168-.139.405-0.248,0.277-0.534A1,1,0,0,0,27.151,88.208Z"/>
    <path class="cls-42" d="M38.53,98.826c-0.138.149,0,.286,0.089,0.406a0.18,0.18,0,0,0,.227.108,0.314,0.314,0,0,0,.138-0.346,2.1,2.1,0,0,0-.1-0.88A2.79,2.79,0,0,1,38.53,98.826Z"/>
    <path class="cls-43" d="M73.331,99.073a1.035,1.035,0,0,0-.356-0.89,2.03,2.03,0,0,1-.4-0.513,6.6,6.6,0,0,0-.85-1.76c-0.04-.069-0.079-0.158-0.119-0.227-0.02-.139-0.02-0.286-0.2-0.267a0.233,0.233,0,0,0-.138.267,1.741,1.741,0,0,1-.01.227c-0.188.149-.049,0.287,0.04,0.425a12.782,12.782,0,0,0,.643,1.128c0.573,0.761.475,1.878,1.265,2.531,0.376,0.049.356-.178,0.326-0.435C73.469,99.39,73.4,99.241,73.331,99.073Z"/>
    <path class="cls-44" d="M21.209,93.162c-0.514-.149-0.564.376-0.89,0.444a1.239,1.239,0,0,0-.672,1.286,1.208,1.208,0,0,0,1.958.465,0.086,0.086,0,0,0-.029-0.03h0.009l0.02,0.03a0.324,0.324,0,0,0,.405-0.277,1.676,1.676,0,0,0-.208-1.334A1.3,1.3,0,0,0,21.209,93.162Z"/>
    <path class="cls-45" d="M14.872,87.516a0.48,0.48,0,0,0-.781.208c-0.4.267-.336,0.524-0.02,0.792,0.1,0.089.208,0.177,0.316,0.257a0.432,0.432,0,0,0,.494.148,0.522,0.522,0,0,0,.356-0.514A1,1,0,0,0,14.872,87.516Z"/>
    <path class="cls-46" d="M13.052,69.068c-0.573-.2-0.7-0.069-0.662.672,0.534,0.494.712,0.494,1.236,0C13.735,69.275,13.6,69.1,13.052,69.068Z"/>
    <path class="cls-47" d="M26.241,94.931a0.292,0.292,0,0,0-.267.3c-0.03.168,0.02,0.3,0.257,0.256a0.191,0.191,0,0,0,.277-0.208A0.3,0.3,0,0,0,26.241,94.931Z"/>
    <path class="cls-48" d="M13.4,66.774a1.436,1.436,0,0,0,.791.247,1.762,1.762,0,0,0,.227-0.01c0.465,0.188.741,0.109,0.741-.445a1.4,1.4,0,0,1,.069-0.217c0.069-.148.148-0.307,0.218-0.465a0.317,0.317,0,0,0-.129-0.554c-0.039-.01-0.059-0.02-0.1-0.03-0.079-.079-0.158-0.148-0.227-0.217a0.94,0.94,0,0,0-1.068-.544,0.409,0.409,0,0,0-.405.455,0.749,0.749,0,0,1-.129.435C12.667,65.934,12.667,66.24,13.4,66.774Zm0.467-1.586L13.872,65.2a0.042,0.042,0,0,1-.018,0v0.02L13.841,65.2a0.017,0.017,0,0,1,.013-0.013C13.857,65.185,13.861,65.187,13.865,65.188Z"/>
    <path class="cls-49" d="M24.175,98.1a0.277,0.277,0,0,0-.277.237,0.351,0.351,0,0,0,.356.228c0.138,0,.168-0.129.168-0.257C24.412,98.135,24.333,98.046,24.175,98.1Z"/>
    <path class="cls-50" d="M30.927,90.69a2.894,2.894,0,0,0-.366.662c0.059,0.435-.386.811-0.119,1.276a0.148,0.148,0,0,0,.247,0,6.171,6.171,0,0,0,.465-1.6c0.158-.158.039-0.267-0.059-0.376A0.1,0.1,0,0,0,30.927,90.69Z"/>
    <path class="cls-51" d="M78.729,80.051a0.205,0.205,0,0,0-.218.208,0.3,0.3,0,0,0,.257.267,0.212,0.212,0,0,0,.2-0.2A0.287,0.287,0,0,0,78.729,80.051Z"/>
    <path class="cls-52" d="M16.008,83.661c-0.237-.01-0.2.237-0.237,0.415a2.693,2.693,0,0,0-.178.8c-0.079.158,0.069,0.247,0.208,0.267a0.177,0.177,0,0,0,.188-0.228,2.732,2.732,0,0,1,.237-0.84C16.266,83.887,16.246,83.671,16.008,83.661Z"/>
    <path class="cls-53" d="M10.344,61.208a1.443,1.443,0,0,0-1.028-.652c-0.188.217-.336,0.049-0.509-0.03-0.237-.109-0.529-0.247-0.519.227C8.248,60.842,8.208,60.9,8.169,61a0.292,0.292,0,0,0-.02.326,1.175,1.175,0,0,0,.02,1.483c0.02,0.554.465,0.415,0.781,0.484C9.226,63.887,9.6,63.65,9.988,63.4c-0.01-.013-0.027-0.022-0.038-0.035l0.038,0V63.4c0.069-.069.148-0.138,0.227-0.217a1.118,1.118,0,0,0,.455-1.523A0.646,0.646,0,0,0,10.344,61.208Z"/>
    <path class="cls-54" d="M9.207,95.909a0.241,0.241,0,0,0,.316.2c0.158-.05.1-0.2,0.109-0.327C9.5,95.525,9.444,95.544,9.207,95.909Z"/>
    <path class="cls-55" d="M42.3,99.568a0.13,0.13,0,0,0-.128.148,0.119,0.119,0,0,0,.128.139,0.222,0.222,0,0,0,.129-0.139A0.234,0.234,0,0,0,42.3,99.568Z"/>
    <path class="cls-56" d="M13.586,92.449a0.191,0.191,0,0,0-.069.129,0.142,0.142,0,0,0,.119.079,0.13,0.13,0,0,0,.079-0.1C13.715,92.479,13.675,92.41,13.586,92.449Z"/>
    <path class="cls-57" d="M83.356,58.173a0.312,0.312,0,0,0-.1.1,0.256,0.256,0,0,0,.247.109c0.119,0,.03-0.079.02-0.109A0.142,0.142,0,0,0,83.356,58.173Z"/>
    <path class="cls-58" d="M85.007,83.661a0.17,0.17,0,0,0-.108.089c-0.039.069,0.019,0.079,0.1,0.1a0.781,0.781,0,0,0,.1-0.089A0.073,0.073,0,0,0,85.007,83.661Z"/>
  </g>

</svg>
