<?xml version="1.0" encoding="UTF-8"?>
<svg width="406px" height="161px" viewBox="0 0 406 161" version="1.1" xmlns="http://www.w3.org/2000/svg" xmlns:xlink="http://www.w3.org/1999/xlink">
    <!-- Generator: Sketch 51.3 (57544) - http://www.bohemiancoding.com/sketch -->
    <title>Group</title>
    <desc>Created with Sketch.</desc>
    <defs>
        <path d="M6.39902629,110.847612 C6.0857547,111.002663 5.25403363,110.691561 4.99580976,110.326441 C4.78662841,110.035346 4.1420696,110.144382 3.57257588,110.198399 C3.70168781,110.276425 3.83880669,110.376458 3.93789259,110.552515 C4.25016332,111.108697 2.69081142,111.17672 3.17623226,111.833935 C3.6616531,112.49115 2.06827171,112.524161 2.06827171,111.833935 C2.06827171,111.141708 0.403828705,111.486821 0.474890313,111.936968 C0.500912873,112.100022 0.448867752,112.298087 0.334768833,112.49115 C0.787161038,112.652203 1.31361745,112.842265 1.51879533,112.924292 C1.8330678,113.049333 5.98766966,113.482474 7.61107709,113.180376 C7.5240016,112.877276 7.69715171,111.97198 7.69715171,111.625867 C7.69615085,111.210731 6.70929528,110.691561 6.39902629,110.847612 Z M106.640932,4.20270059 C109.26821,3.92661021 109.204154,2.47113374 107.818953,2.19504336 C106.432751,1.91695233 106.226573,3.02631549 105.53197,2.95529224 C104.83937,2.88626964 102.222101,3.39343567 102.761569,3.99463248 C103.385109,4.68785941 105.324791,4.33974545 106.640932,4.20270059 Z M120.009522,42.7003032 C120.911304,42.8383484 123.335405,42.3531895 123.612646,41.869031 C123.890887,41.3838722 122.643806,40.8306911 121.048423,40.8306911 C119.457043,40.8306911 119.230847,42.5792635 120.009522,42.7003032 Z M171.205907,7.31772032 C172.523049,7.87090141 172.038629,8.21801504 170.652427,8.21801504 C169.267226,8.21801504 168.076194,8.68516797 168.990987,9.05028749 C169.682586,9.3273782 169.613526,10.0886274 171.068788,10.4337404 C172.523049,10.7798537 173.976309,9.60346858 173.840191,8.77119613 C173.699068,7.93992401 178.896574,7.18067546 180.283777,6.8325615 C181.666976,6.48744852 179.382996,5.03297239 180.905316,4.8949272 C182.430638,4.75688201 181.806097,4.0646554 179.935475,3.78656436 C178.064853,3.50947365 178.828515,1.91695233 178.204975,1.36377124 C177.580433,0.810590147 177.234133,2.05499752 174.80803,2.54015634 C172.383928,3.02531516 171.204906,3.64851917 172.175748,4.13167734 C173.14759,4.61683616 172.175748,5.79322126 171.137848,5.72619932 C170.098947,5.6561764 169.890767,6.76553956 171.205907,7.31772032 Z M174.880092,9.25735528 C174.880092,10.0186045 172.649158,10.777853 173.283708,11.3340351 C173.840191,11.8201943 174.32361,11.6801484 175.017211,11.8171933 C175.708811,11.9572391 176.056112,13.6878056 177.302192,13.4117153 C178.549273,13.1346245 181.943216,14.7951681 183.952958,14.7951681 C185.963701,14.7951681 186.16988,13.1336242 185.54634,13.0636013 C184.9238,12.9965794 185.479281,12.0262617 186.58524,10.4337404 C187.694202,8.84221938 183.122238,7.66383362 183.122238,8.91024165 C183.122238,10.1566497 181.806097,8.6351516 181.389736,7.87090141 C180.973375,7.11065254 174.880092,8.49410542 174.880092,9.25735528 Z M140.240061,43.7386431 C141.348021,44.2928245 142.179743,44.0847564 142.039621,42.9753932 C141.902502,41.869031 139.358296,43.298499 140.240061,43.7386431 Z M169.405346,2.40311147 C169.682586,1.36377124 165.083599,1.81591925 166.286642,2.81824737 C166.705005,3.16436068 169.127105,3.44145139 169.405346,2.40311147 Z M373.287103,52.5995438 C374.671303,53.2927707 375.503024,51.769272 376.610985,52.5305212 C377.720947,53.2927707 380.42329,52.1844079 381.530249,51.9763398 C382.637209,51.7682717 382.08473,50.3848188 378.968028,49.9696829 C375.849324,49.554547 371.79581,51.8553001 373.287103,52.5995438 Z M185.6164,19.019551 C186.587242,19.5727321 189.701942,18.3273244 191.780745,18.396347 C193.859547,18.4663699 199.677591,16.8038257 199.887773,15.6964632 C200.094953,14.5891007 197.739911,14.6571229 196.840131,13.6878056 C195.940351,12.7194886 193.929608,13.5497604 193.445188,14.3800322 C192.959767,15.2113044 192.405286,14.4500552 193.720426,13.1336242 C195.038569,11.8171933 192.405286,10.7788534 192.335225,11.6101255 C192.265165,12.4413976 189.842064,11.7501713 189.842064,12.5104202 C189.842064,13.2716694 188.941283,13.6177827 189.011344,14.3800322 C189.078402,15.1422818 187.346901,13.9648963 187.278842,15.6964632 C187.211783,17.42803 184.595515,18.4373604 185.6164,19.019551 Z M274.981876,33.2822201 C275.951717,33.7683792 276.300019,34.2515374 276.852498,34.8057188 C277.406979,35.3588999 279.48478,34.5286281 280.316501,34.2515374 C281.148222,33.975447 281.217282,35.4979454 282.533423,34.6666733 C283.850565,33.8354011 285.165705,34.2515374 286.690027,34.2515374 C288.214348,34.2515374 286.412787,32.3819253 286.483848,31.5506532 C286.552908,30.7193811 288.284409,31.2755632 287.729928,31.9667894 C287.176449,32.659016 288.560649,34.2515374 290.777571,34.1134922 C292.993492,33.975447 291.332051,32.5899935 292.441013,32.105835 C293.547972,31.6206761 293.408852,31.067495 291.81547,30.0961771 C290.224091,29.1278601 288.145289,29.7510641 286.758086,29.1278601 C285.279804,28.4626423 283.503264,28.4346332 283.433203,29.9591322 C283.365144,31.4826309 280.454621,28.2975883 278.929299,27.8124295 C277.406979,27.3292713 272.69089,32.1368451 274.981876,33.2822201 Z M289.46143,42.1451214 C290.70751,41.869031 288.56165,39.5842831 286.412787,39.2371695 C284.264924,38.8910562 282.269194,40.6566341 282.533423,41.0377589 C283.158966,41.939054 288.213348,42.4222121 289.46143,42.1451214 Z M283.919625,37.5756255 C283.919625,36.5362853 280.145353,37.95575 281.704705,38.4759203 C282.533423,38.7540113 283.919625,38.6139655 283.919625,37.5756255 Z M295.974076,33.2131975 C297.637518,33.3532433 298.468238,34.9447643 301.656002,35.1528324 C304.843765,35.3599002 307.196805,34.7366962 307.265865,34.0444696 C307.335926,33.3532433 304.357344,32.3139031 303.455562,32.8670842 C302.554781,33.4202653 301.862181,31.9667894 300.755221,32.3139031 C299.645259,32.659016 298.121938,32.5899935 297.566456,31.6206761 C297.012977,30.6533595 295.141354,33.1451752 295.974076,33.2131975 Z M64.5194143,5.10299531 C66.1147974,3.6495195 68.1925988,5.03297239 68.4668365,4.33974545 C68.7450777,3.6495195 65.4902559,3.44145139 64.3122346,4.0646554 C63.1342133,4.68785941 60.3758219,4.18769568 60.7111126,4.96294946 C60.9182922,5.44910861 62.9270337,6.55647112 64.5194143,5.10299531 Z M288.906949,122.1153 C288.145289,120.108644 290.014909,118.169009 288.628708,117.130669 C287.244508,116.091328 287.797987,113.945626 287.106388,114.360762 C286.412787,114.776898 287.106388,116.647511 285.998427,116.784555 C284.888465,116.922601 285.928367,117.96094 285.513007,119.348395 C285.097646,120.731848 285.720186,122.740505 286.275668,123.985913 C286.830148,125.23032 285.513007,131.879497 286.068488,132.98786 C286.621968,134.095222 285.164705,138.996827 285.653128,139.565013 C286.484849,140.536331 285.928367,138.249582 287.174447,138.041514 C288.422529,137.834446 288.422529,139.425967 289.18519,139.772081 C289.948852,140.119194 289.46243,137.557356 288.770831,137.695401 C288.07723,137.834446 287.52375,136.033857 287.174447,134.925494 C286.830148,133.818131 287.869049,132.501701 287.869049,131.116247 C287.869049,129.731794 289.60055,129.801817 290.640452,130.839156 C291.681354,131.878497 291.817472,131.18627 291.403113,130.425021 C290.988754,129.663772 289.668609,124.123958 288.906949,122.1153 Z M71.0320604,4.4797913 C72.0019013,5.17301823 68.3317194,4.96394979 67.8462985,5.6561764 C67.3618786,6.34940333 65.2280286,6.09732081 65.6283757,6.90358475 C66.0437358,7.73485687 69.5067381,7.80387947 69.5067381,7.11165286 C69.5067381,6.41942626 71.3082999,7.04162994 71.3773598,6.41842593 C71.4474205,5.79522192 72.2090809,5.10399564 74.1487625,4.96495012 C76.089445,4.82690493 76.089445,4.13367799 74.2878831,3.3034062 C72.4873221,2.47113374 70.0622196,3.78656436 71.0320604,4.4797913 Z M68.0524773,60.4241052 C69.923099,62.1546717 71.5184822,59.662856 72.4162605,59.5258112 C73.3180423,59.387766 71.8627806,58.416448 70.3384591,58.0013121 C68.8171402,57.5861762 66.6402529,59.1186779 68.0524773,60.4241052 Z M399.922195,72.22997 C399.231596,71.9878907 397.011671,70.5684261 396.458191,69.7721654 C395.906713,68.9759047 393.237399,68.59478 393.237399,69.0099159 C393.237399,69.4250518 392.371649,68.9068821 392.163468,68.4577351 C391.956288,68.0075878 389.150856,67.9365645 389.115826,68.420723 C389.079795,68.9058818 389.774397,68.939893 390.188756,69.496075 C390.605117,70.0492561 389.633274,70.3593576 389.840454,70.9825616 C390.049635,71.6057657 388.802554,70.6714598 388.352164,70.3263468 C387.903775,69.9812338 388.111956,68.6297914 388.249074,67.9375648 C388.389196,67.2463386 387.451383,67.3823831 387.347293,66.6921571 C387.243202,65.9989302 384.1265,64.5804659 382.812361,64.0262844 C381.495219,63.472103 379.797747,62.9869442 379.347357,62.2947176 C378.896967,61.6044916 376.540924,61.5344687 375.642145,60.5981622 C374.741364,59.6638564 370.79194,58.0023124 369.095469,57.8992787 C367.398998,57.7952446 367.778327,56.8599385 366.947607,56.9979837 C366.115886,57.1370292 362.548793,56.9639725 361.439832,56.7899155 C360.33087,56.6188595 360.088661,57.4491313 359.29197,57.1360288 C358.495279,56.824927 354.373706,55.3364397 353.888285,55.8916215 C353.404866,56.4458029 353.614047,57.2410632 353.127626,57.3791084 C352.643206,57.5171536 353.127626,58.2103805 354.270617,59.2487205 C355.414608,60.2880607 354.721007,61.0853217 353.682106,61.5344687 C352.642205,61.9826154 350.978763,61.1173322 350.459312,60.3220718 C349.940863,59.5268115 348.520632,59.8709241 348.174331,58.8325842 C347.828031,57.7952446 348.589691,57.622188 349.282292,58.2103805 C349.974892,58.7995734 350.911704,58.3144146 351.014794,57.5541657 C351.118884,56.7929165 349.143171,56.2717459 348.068239,56.3417688 C346.99631,56.4107914 346.406799,57.900279 345.298838,58.5244834 C344.190878,59.1466871 339.896154,58.2804035 339.443762,57.8662679 C338.994373,57.451132 333.000176,57.8662679 332.377636,58.2814038 C331.753095,58.6965397 332.204486,60.3240725 331.893216,60.463118 C331.580946,60.6001629 331.269676,58.593506 331.269676,58.2123812 C331.269676,57.8302561 330.542045,57.5561664 329.467113,57.5561664 C328.395184,57.5561664 327.771643,57.5191543 328.221033,57.0700072 C328.672424,56.6218605 327.804672,56.1697125 328.636393,55.5825203 C329.467113,54.9933274 327.114073,53.1587268 324.82709,52.2594324 C322.541108,51.3581374 317.345604,51.8773073 315.959402,52.2934436 C314.574201,52.7085795 311.801798,52.5705343 310.486658,52.6045454 C309.171517,52.6415575 310.243447,52.0853755 309.863117,51.4631718 C309.481786,50.8399678 307.229834,50.0787186 306.918564,50.5978885 C306.606294,51.1180588 306.018784,50.5978885 306.018784,50.2167638 C306.018784,49.8376396 303.904952,49.0743898 303.074231,49.2474464 C302.243511,49.4195028 301.863181,48.4841966 302.831021,48.4841966 C303.803864,48.4841966 305.464303,48.6922647 304.736673,47.5859025 C304.009042,46.4775397 297.774637,46.1314264 297.187127,46.3394945 C296.596616,46.5475626 297.151096,47.3418226 295.800926,48.6242424 C294.447753,49.9046616 293.133613,49.0403787 293.305763,48.4171746 C293.480914,47.7929703 295.141354,47.8970044 295.141354,47.2748007 C295.141354,46.6505963 292.856373,46.99771 292.511074,46.4775397 C292.161771,45.9583697 292.993492,45.6122564 293.825213,45.8543357 C294.655933,46.0974152 296.111195,46.2354604 296.181255,45.8543357 C296.251316,45.4742112 295.316506,45.4041883 293.929303,45.1611087 C292.543101,44.9190295 289.184189,44.1227688 287.417658,44.2968258 C285.652127,44.4688821 284.853435,43.6396107 283.886596,43.5695877 C282.916756,43.4995648 282.915755,44.0887577 283.365144,44.6419388 C283.815535,45.1971205 282.431335,45.5422335 281.286342,45.3691768 C280.144352,45.1971205 278.481911,45.9923809 279.140482,46.823653 C279.79605,47.6549251 280.454621,46.5815737 281.009102,46.8596648 C281.562582,47.1367555 279.554841,47.724948 280.38456,48.1060728 C281.217282,48.4861972 281.078162,49.2824579 281.114193,49.6975938 C281.148222,50.1127297 279.727991,50.3207978 279.209542,49.6975938 C278.68909,49.0743898 277.962461,49.6275709 276.990618,49.5595486 C276.021778,49.4895257 275.294147,49.9386727 276.334049,50.0787186 C277.37395,50.2167638 277.718249,50.8739789 276.334049,51.0130244 C274.948848,51.1510696 275.294147,49.7316049 274.464428,49.9046616 C273.633708,50.0787186 271.832146,49.2474464 270.860303,49.2814576 C269.890462,49.3154687 269.441073,50.0777182 268.158961,50.1817523 C266.877851,50.2857863 265.145349,49.5235368 264.624897,48.8323105 C264.106448,48.1390836 263.9353,47.9320158 263.310758,48.7282765 C262.686217,49.5255375 262.652187,51.0470355 262.028647,51.1510696 C261.404105,51.2551037 261.161895,52.6055457 260.540356,52.951659 C259.915815,53.2987727 259.879784,52.4314888 259.085095,52.5015117 C258.288404,52.5705343 255.726183,50.0787186 255.584059,49.3514805 C255.447941,48.6242424 253.85456,47.2387889 253.440201,46.9626985 C253.02384,46.6856078 253.85456,46.5475626 254.37401,46.99771 C254.895462,47.446857 255.551031,47.446857 256.070481,47.1707666 C256.590932,46.8936759 256.521872,45.6132567 255.622092,45.5782453 C254.720311,45.5432338 255.066611,44.782985 255.517001,44.6429391 C255.968393,44.5048939 254.478101,43.1554522 255.03158,43.017407 C255.58506,42.8803621 255.344852,42.2901689 254.584193,42.1871352 C253.821531,42.0831011 253.024841,41.4598971 252.987809,41.077772 C252.95478,40.6976476 249.733988,40.5586021 249.870106,41.1127835 C250.011228,41.6679652 248.833207,41.4939082 249.007358,41.0447612 C249.180508,40.5956142 247.862365,40.732659 246.339044,40.3185235 C244.815724,39.9023872 244.778692,38.8280355 244.260242,38.7600133 C243.739791,38.68899 243.913942,40.2475002 243.154283,39.9023872 C242.391622,39.5552736 241.557899,40.2144894 241.97426,41.1127835 C242.388619,42.0130782 242.009291,42.1511234 241.93923,42.8783615 C241.871171,43.6045992 241.45481,43.2944977 240.554029,42.9813952 C239.654249,42.6702933 239.654249,43.744645 237.713566,43.2594862 C235.774886,42.7753277 234.908134,43.2944977 234.562835,42.6712937 C234.216535,42.0470893 233.626023,41.9800674 233.556963,42.498237 C233.489905,43.0184073 230.510321,42.8103392 230.268111,42.0470893 C230.025901,41.2868405 230.787562,41.1487953 231.237952,40.9417275 C231.686341,40.7336594 230.752531,40.4215572 229.126121,40.5255912 C227.496709,40.628625 226.455806,39.6943191 224.795367,39.8663754 C223.131925,40.0404324 219.426712,40.3855454 218.906261,40.628625 C218.386811,40.8707042 219.391682,41.8050101 218.593991,41.8760333 C217.798301,41.9440556 218.351781,40.3525346 218.213661,39.5912854 C218.076542,38.8280355 216.86349,38.7250018 217.035639,39.315195 C217.207789,39.9033876 215.129987,40.1104554 214.610537,39.6593077 C214.090086,39.2091603 213.258365,38.6209678 211.909195,38.2758548 C210.558024,37.9297415 208.895582,39.3832173 209.276913,39.7993535 C209.660245,40.2154897 210.662114,39.9033876 210.695143,40.1784776 C210.767205,40.7476639 207.822652,40.5255912 207.822652,41.0097497 C207.822652,41.4949086 205.08628,42.1521237 204.254559,42.2561578 C201.976584,42.5422514 201.482155,42.5332485 200.409225,43.4345435 C199.336295,44.3338379 200.167015,42.6382829 200.997735,41.8060104 C201.828455,40.9757386 202.694206,41.3218519 203.180628,40.6646368 C203.666049,40.0074216 204.427709,40.0754439 205.744851,39.8673758 C207.061993,39.6593077 206.990931,38.8990588 207.616473,38.6209678 C208.238012,38.3458777 209.762334,37.7556845 210.038573,37.1324805 C210.316815,36.5092765 213.435518,35.4709366 214.059059,35.505948 C214.681599,35.5409595 214.819718,34.25954 215.165018,34.25954 C215.51332,34.25954 217.31288,33.4642797 218.006481,33.1531778 C218.700082,32.8410756 219.045382,32.1828602 219.080412,31.7337131 C219.115443,31.2835658 218.145602,31.3525884 218.040511,30.9374525 C217.93642,30.5213163 218.4899,30.7994073 219.218532,30.5213163 C219.946163,30.2452259 219.218532,29.2749082 218.632023,29.4479649 C218.040511,29.6210215 218.943293,28.9287949 218.422842,28.3055909 C217.902391,27.6823869 216.864491,28.6867157 216.89752,28.0285002 C216.933551,27.3712851 216.82846,26.5400129 216.4131,26.1258774 C215.99774,25.7087408 215.23708,26.8521151 214.370329,26.1938996 C213.504578,25.5376848 210.975385,25.1205483 210.975385,25.3986393 C210.975385,25.67573 209.762334,24.9825031 209.522126,25.2595938 C209.278915,25.5366845 207.269172,25.501673 206.64363,25.327616 C206.022091,25.1555597 205.156341,25.5696953 205.12131,26.1928993 C205.088282,26.818104 202.62915,26.5740241 202.177758,26.4689897 C201.728369,26.3649556 203.876231,24.5993776 203.876231,24.2872755 C203.876231,23.977174 200.239078,24.3572984 200.029896,24.0121854 C199.823717,23.6660721 198.056185,23.5600374 197.259494,23.5960492 C196.460802,23.6300603 197.225465,23.3879811 197.952095,23.3189585 C198.678725,23.2499359 199.337296,22.6257316 200.134987,22.4886867 C200.930677,22.3496412 200.756526,22.0725505 200.410226,21.5873916 C200.063926,21.1042335 199.231204,21.3453124 198.433512,21.1042335 C197.639824,20.8621542 196.668982,20.5150406 195.977383,20.4810295 C195.284782,20.446018 194.522121,20.8261424 192.893709,21.1382446 C191.264297,21.4493465 191.128179,22.6967548 190.296458,23.0768792 C189.463736,23.458004 188.010476,24.9805024 188.702075,25.1185476 C189.395677,25.2575931 189.048376,25.6737293 189.151465,26.1228764 C189.255555,26.5720234 188.630013,26.6760575 187.836325,26.5380123 C187.040635,26.4009674 184.233201,26.4339782 184.268232,27.0231711 C184.30126,27.612364 185.897644,27.887454 185.792553,28.1995562 C185.688463,28.5116584 184.580502,28.1655451 184.026022,27.8544432 C183.471541,27.5433414 182.223459,27.7143974 181.98225,28.3035903 C181.74004,28.8917828 180.769198,28.7537376 180.457928,28.6156924 C180.145657,28.4776472 179.453057,28.8927831 178.934607,28.7197265 C178.415157,28.5456695 179.974509,27.7844203 179.593178,27.4032955 C179.209846,27.0241714 177.548406,27.3702847 177.376256,27.9934887 C177.203106,28.6166928 176.197234,27.5443417 175.815904,27.7514095 C175.435574,27.9594776 175.020214,28.2005565 174.292583,28.5126587 C173.564952,28.8247609 172.317871,28.1665454 172.041632,28.7207268 C171.764391,29.2739079 173.426832,29.4479649 173.460862,29.6890438 C173.495892,29.9331237 169.68659,29.8971119 169.581499,30.2782367 C169.477408,30.6603618 168.195297,30.6603618 166.636946,30.6943729 C165.079596,30.7293844 165.702135,31.4906336 164.454053,31.7337131 C163.207973,31.9767927 162.653492,32.0108038 162.238132,32.6340079 C161.822772,33.2572119 160.85093,33.3612459 160.437571,32.8750868 C160.02121,32.3909283 158.877219,33.117166 159.499758,33.187189 C160.123299,33.2572119 159.53679,33.8804159 159.154459,33.74037 C158.773128,33.6023248 157.666169,34.3985855 158.289709,34.3295629 C158.912249,34.2615407 159.22452,34.7797103 158.912249,35.160835 C158.598977,35.5409595 157.250809,34.7106877 156.902507,35.056801 C156.556206,35.4039146 157.560077,35.8530617 158.184618,35.7840391 C158.808159,35.7150165 159.154459,36.1301524 159.223519,36.5802997 C159.292579,37.0294468 157.768257,36.303209 157.456987,36.6843338 C157.144717,37.0644582 157.699197,37.2375149 158.355766,37.3085381 C159.016339,37.3765604 158.529917,37.6206403 159.119429,38.1388099 C159.165468,38.1798233 159.2015,38.2178358 159.231526,38.2518469 C159.588835,38.6809874 158.916252,38.8320368 158.98231,39.2461724 C159.048367,39.6973201 158.321737,39.8693764 158.321737,39.4542405 C158.321737,39.0391046 156.487146,38.9010594 156.104815,39.3502065 C155.723484,39.8023545 155.448246,40.1474675 154.996854,39.7323316 C154.547465,39.3171957 153.230323,39.8353653 151.533852,39.9053882 C149.837381,39.9744108 146.339349,40.112456 145.472597,40.4245582 C144.605846,40.7366603 143.878215,41.9470566 144.673905,42.7433172 C145.472597,43.5405782 144.707934,43.8866915 144.707934,44.4058615 C144.707934,44.9240311 146.786737,45.9973825 147.896699,46.1014166 C149.00566,46.2054506 149.90544,47.5548924 149.246869,48.3861645 C148.589299,49.2174366 146.579557,48.1440852 145.264417,47.1057453 C143.947275,46.0664051 140.899633,45.6502689 139.895762,45.7212921 C138.88989,45.7893144 139.479401,44.8209974 138.199292,44.8540082 C136.916179,44.89002 135.843249,46.032394 136.707999,46.032394 C137.57475,46.032394 138.130232,45.9633714 137.67884,46.3785073 C137.229451,46.7936432 137.92105,46.6896091 138.959951,47.1387561 C139.998852,47.5899038 138.095201,48.2131078 137.020269,47.4858698 C135.947339,46.7586317 134.805349,47.449858 134.493079,48.00604 C134.181809,48.5592211 135.739159,50.1507421 137.609781,50.4288332 C139.480402,50.7059239 138.857863,51.2931161 139.723613,51.6052183 C140.587362,51.9173204 139.966824,52.2644341 139.377313,52.2984452 C138.7858,52.334457 137.60878,51.3981505 136.673969,50.913992 C135.738158,50.4288332 133.210967,51.1220601 132.692518,50.5668784 C132.171065,50.0126969 133.036816,49.4605162 132.550394,49.0453803 C132.066975,48.6292441 132.483336,47.6939379 133.107878,46.7246206 C133.730417,45.7553032 133.003787,44.0937593 132.101005,43.8166686 C131.201225,43.5415786 131.270284,44.4748841 131.478465,44.7509745 C131.686645,45.0290655 131.582555,46.3444961 130.888954,47.2097794 C130.196353,48.0750626 128.08152,48.0750626 128.08152,48.6642555 C128.08152,49.2534484 126.66329,49.7035958 127.14671,50.1187317 C127.63213,50.5338676 129.537782,52.6815706 129.815023,53.3387858 C130.092263,53.9950006 128.118552,56.0726807 128.42782,57.2850776 C128.740091,58.4974745 128.151581,59.0496553 128.53191,59.6398485 C128.913241,60.2300417 129.778992,59.7078708 130.334473,59.9519507 C130.888954,60.1940299 131.788734,59.6038367 133.069845,59.3627578 C134.350955,59.1216789 136.706998,60.4711206 137.573749,60.8852562 C138.438499,61.3003921 137.988109,61.9916184 138.438499,62.6848453 C138.888889,63.3790726 137.400599,63.3790726 137.364568,64.4164121 C137.330538,65.4557524 139.963821,65.9038991 140.06591,66.2160013 C140.17,66.5271031 138.196289,66.2860242 137.433628,66.0079331 C136.671968,65.7318428 136.602908,64.7265137 136.362699,64.5194459 C136.118488,64.3123781 136.881149,63.481106 136.948207,62.8228905 C137.018268,62.164675 136.085459,61.7845506 135.773188,61.3344032 C135.459917,60.8842559 134.907438,60.2270407 134.282896,60.3650859 C133.659356,60.5041314 131.373374,60.7101989 130.680773,61.3344032 C129.986171,61.9576072 130.784864,63.7221849 131.166194,64.5894688 C131.546524,65.4557524 129.155451,66.6651483 129.225512,67.3573749 C129.294572,68.0526025 128.497881,68.3617037 127.457979,68.9168854 C126.419079,69.4700665 125.277089,69.8852024 125.310117,70.7864975 C125.346149,71.6857919 123.925917,71.2016334 123.199287,70.7864975 C122.471656,70.3703612 121.535845,71.0285767 120.495944,70.9935652 C119.458044,70.9605544 119.458044,70.0942709 118.625322,70.4053727 C117.796603,70.7174749 117.242123,70.0272489 117.482331,69.4030446 C117.724541,68.7808409 118.660352,69.2639991 118.730413,69.7151467 C118.799473,70.1652941 119.387983,69.957226 120.081584,69.5761012 C120.773184,69.1959768 120.429886,70.06126 121.433757,70.1302826 C122.439629,70.2003056 121.883146,69.6111127 122.645807,69.6801353 C123.407468,69.7501582 123.441497,69.508079 123.200288,69.1259539 C122.958078,68.7448291 123.754769,68.469739 124.239189,68.2606706 C124.78266,68.026594 124.515428,67.2573422 124.96682,67.0152629 C125.415208,66.7721833 125.104939,66.2870245 125.588358,66.2510127 C126.075781,66.2170016 126.282961,65.4897635 126.734352,65.4897635 C127.18174,65.4897635 127.425952,64.7615251 127.148711,64.3814007 C126.87047,64.0012762 127.322862,62.9629363 127.773253,62.8238908 C128.221641,62.6858456 128.257673,62.2697094 127.843313,61.9586076 C127.425952,61.6475057 125.900629,60.6071652 126.006721,59.9519507 C126.109811,59.2947355 125.727479,58.0813383 125.93566,57.5631687 C126.142839,57.0429984 125.971691,55.969647 125.900629,55.346443 C125.834572,54.7222387 126.283962,54.0310124 126.493143,52.8886384 C126.699322,51.7462644 125.280091,50.5338676 124.587491,50.2227657 C123.89489,49.9106635 124.343279,49.2874595 125.349151,48.4561874 C126.354022,47.6259156 126.422081,45.0290655 126.354022,44.4748841 C126.284962,43.9207027 124.241191,43.4375445 123.445501,43.5045664 C122.647809,43.5745894 119.705258,43.4375445 118.977627,43.2974987 C118.248996,43.1594535 118.005785,43.9207027 117.659484,44.6129293 C117.314185,45.3061562 116.552525,46.3795076 116.100133,47.9370175 C115.650743,49.4945273 113.814151,49.9796861 112.983431,50.3257994 C112.15271,50.6729131 111.63326,51.8132864 112.011588,52.3684681 C112.393919,52.9226496 112.949401,52.4725022 113.329731,52.6805703 C113.71006,52.8886384 113.295701,54.3431146 113.05149,54.5501823 C112.80928,54.7572501 113.502881,55.2774204 112.915372,55.6565445 C112.323859,56.0376693 111.769378,56.8339299 112.116679,57.2500662 C112.46398,57.6652021 114.15945,57.8732702 114.887081,58.2884061 C115.614712,58.703542 115.337471,59.4647912 115.893954,60.1930296 C116.446433,60.9202677 117.037946,60.4701203 117.313184,60.9202677 C117.590425,61.370415 116.310315,63.1710045 115.857923,63.2380264 C115.407532,63.3080493 113.571941,61.4044261 113.018461,60.9892902 C112.46398,60.5741543 110.316118,59.9139382 109.243188,59.3617575 C108.170258,58.807576 107.303506,58.877599 106.124484,58.080338 C104.949465,57.2850776 103.944594,56.9019522 101.795731,56.9389643 C99.6478692,56.9719751 98.2636691,56.4548058 97.5350374,56.5578396 C96.8074066,56.6618736 97.0866487,55.8316018 95.8045372,55.2774204 C94.5214247,54.7222387 93.6907045,53.9619898 92.9630737,54.3431146 C92.2354429,54.7222387 92.5126833,56.1086925 93.6226455,56.2807489 C94.7276035,56.4548058 94.1761254,57.0429984 95.3531458,56.9729755 C96.5311671,56.9049532 96.8764665,57.3200891 96.8434378,58.0453265 C96.8074066,58.7735649 97.3969177,59.4988023 97.916368,59.9849615 C98.4348175,60.4701203 98.1235476,61.2643803 97.1877363,61.2643803 C96.251925,61.2643803 95.1799957,61.4034258 95.5953558,62.060641 C96.0107159,62.7188564 95.3181154,62.8919131 94.3823041,62.5457998 C93.4464928,62.1986862 93.9989718,61.5424713 94.3823041,61.1593459 C94.7636347,60.7802218 93.5505831,60.295063 92.9620729,60.0859945 C92.3715609,59.8779264 90.0185209,61.6114939 89.35995,61.8855837 C88.701379,62.1626744 87.0739681,61.4694474 85.410526,61.8855837 C83.7490856,62.3017199 83.8531758,63.6181508 83.2276335,63.4791053 C82.6050938,63.3420604 80.7705033,63.652162 80.0749002,63.2350254 C79.3812989,62.8198895 79.9377813,62.5788106 80.6644113,62.6128217 C81.393043,62.6488335 81.6342521,62.4047536 81.218892,61.9205951 C80.802531,61.4354363 81.7743736,60.6741871 81.7403441,60.3280738 C81.7063146,59.9819605 79.0029709,60.8822552 78.5525804,61.2623796 C78.1031908,61.6445047 78.5876108,62.338732 78.1031908,62.5788106 C77.61777,62.8198895 77.6197717,62.161674 77.0632893,61.9546063 C76.5098094,61.7465381 72.4572961,62.6818443 71.6956357,63.5471276 C70.9319737,64.4134112 69.4436834,64.446422 69.4436834,64.9315808 C69.4436834,65.4177399 67.608092,65.3817282 66.8804612,65.7288418 C66.1508286,66.0739548 66.6382512,67.4924191 66.36001,68.1866464 C66.0827696,68.8798733 63.2423071,68.6708049 62.3765565,68.7058163 C61.5118068,68.7418281 61.1985352,67.0432721 60.5059347,66.939238 C59.8143351,66.835204 60.2276935,65.866887 60.4388766,65.4527514 C60.6450553,65.0366152 61.1995361,65.3817282 62.0652866,64.8295474 C62.9310372,64.2733653 63.7957869,65.1036371 64.143088,64.724513 C64.4903891,64.3433882 62.826947,63.3400598 62.7228567,62.4737762 C62.6187665,61.6104936 60.7821742,61.367414 59.7432735,61.6435044 C58.7043729,61.9205951 57.5603811,61.6765152 56.8337511,61.3314022 C56.1051194,60.9862893 56.176181,61.9546063 57.2501121,62.231697 C58.3240431,62.506787 57.7695624,63.3390595 57.9427125,63.8582294 C58.1168635,64.3773994 57.6644713,65.5547848 57.0409307,66.4550795 C56.418391,67.3543739 56.8687815,67.3203628 57.8055936,67.2853513 C58.7404041,67.2523405 58.6713442,68.4647374 58.6713442,69.3620311 C58.6713442,70.2633262 57.9427125,70.5054054 57.9427125,71.1636209 C57.9427125,71.8218364 57.1790505,70.8525191 56.9358396,71.1286095 C56.6946305,71.4057002 56.3833606,70.9895639 56.2462418,70.4363828 C56.1061203,69.8832018 54.6868899,70.1923029 53.8901992,69.9852352 C53.0915067,69.7781674 52.7812377,70.1242807 52.4019089,70.7124732 C52.0195774,71.3026664 50.9116169,71.5437454 50.3231066,71.6127679 C49.66954,71.6917938 48.693694,72.8251648 48.0711543,73.2403007 C47.4476137,73.6574373 47.3435235,74.4526976 48.2082732,75.2829694 C49.0760255,76.1132412 49.2471739,76.6674226 49.1791149,77.1165697 C49.1120567,77.5677174 46.7540124,77.4296722 46.3746835,76.9445133 C45.9933529,76.4603549 44.4680305,76.2882985 43.9485802,76.3903319 C43.428129,76.494366 42.0088986,74.8328221 41.2822686,74.7988109 C40.5546378,74.7627991 40.1032465,75.6630939 39.8620373,76.1122409 C39.6198273,76.5643889 40.2073367,76.7034344 40.5546378,77.4636833 C40.900938,78.2269332 42.1820487,78.259944 42.8406196,78.259944 C43.4991906,78.259944 43.2549789,79.2632724 43.0488001,79.6794086 C42.8406196,80.0945445 41.627568,80.4056464 41.2812677,79.955499 C40.9349675,79.5053517 39.478705,79.955499 39.4446755,79.4013176 C39.4116469,78.8481365 38.3727462,78.018865 37.2968134,78.189921 C36.2238832,78.3629777 36.0157027,77.6697508 36.0847626,76.8384786 C36.1548233,76.0092072 35.4962524,75.5250487 35.529281,75.1439239 C35.5643114,74.7627991 35.044861,74.0005496 35.59734,73.6194248 C36.1518207,73.2393004 35.7374615,72.6521082 35.771491,72.1319379 C35.8075222,71.6107673 34.8366806,70.8165073 33.97093,70.8165073 C33.1041785,70.8165073 33.2803313,69.9502237 32.5516996,69.777167 C31.8240687,69.6041104 30.3688071,68.3907132 30.2657177,67.8735439 C30.1616275,67.3523733 29.0526661,67.2833507 29.4339967,67.1112943 C29.8163281,66.9372374 30.6810778,67.1813173 31.3036175,67.803521 C31.9271581,68.426725 32.9310284,68.9809064 34.5584393,69.1889745 C36.1898537,69.3970426 36.8454221,70.1582918 38.6459831,70.4693937 C40.4485458,70.7814958 41.5224769,70.9885636 44.1197286,71.3706887 C46.718982,71.7518135 50.1829852,69.1199519 50.9096151,68.3917135 C51.6372459,67.6654758 50.7014346,66.1779888 50.7014346,65.6228071 C50.7014346,65.069626 49.5224125,64.9996031 49.3532658,64.5854675 C49.1761122,64.1693313 48.4144519,63.4090824 47.4115825,63.4090824 C46.4057104,63.4090824 46.2675907,62.2647078 45.4719009,62.3367313 C44.6732084,62.4037533 44.1187277,61.9876171 42.0409263,60.6031638 C39.963125,59.2207113 37.0896338,58.2153822 36.5681817,58.4564611 C36.0487314,58.6995407 35.7024311,58.8375859 35.3561309,58.3194162 C35.0098307,57.8002463 34.21314,57.8692689 33.6596601,58.2844048 C33.1031777,58.6995407 32.5516996,57.9042803 31.511798,58.1453593 C30.4718965,58.3884388 29.9184166,57.6952119 30.1936552,57.3841101 C30.4718965,57.0720079 31.9972189,57.3500989 31.9261573,56.830929 C31.8590991,56.311759 31.3026167,56.830929 30.3678062,56.207725 C29.4319949,55.5845209 28.9135454,55.9996568 28.705365,56.5208275 C28.4981853,57.0389971 27.7705545,56.8979509 27.2841328,56.4508045 C27.2410955,56.4077904 27.1810434,56.372779 27.1259957,56.3377675 C26.9658569,57.2050514 26.4534126,57.2920799 25.9349631,57.1760419 C25.3104217,57.0379968 24.6868811,58.0753363 23.9962824,58.0753363 C23.3026811,58.0753363 22.5410207,58.8365855 22.3988975,59.4597895 C22.2627795,60.0829936 21.50212,59.7368803 21.50212,60.1520162 C21.50212,60.5691527 21.50212,60.9842886 21.1528172,61.3994245 C20.8085187,61.8155607 21.1528172,62.0236288 21.50212,62.7138548 C21.8484203,63.4080821 22.6080789,63.3380591 22.9563808,63.5461273 C23.3026811,63.753195 24.6178212,64.8615579 24.6178212,65.2766938 C24.6178212,65.69283 23.5799214,66.7311699 23.1645613,67.0092609 C22.7471995,67.2833507 22.1917179,67.9765776 22.47096,68.3907132 C22.7471995,68.8078497 23.9262216,70.5384162 24.6868811,71.9238698 C25.451544,73.308323 24.4126433,72.6861193 23.9262216,73.308323 C23.4418017,73.9305267 24.1324004,74.6937765 24.271521,75.1089124 C24.4126433,75.5240483 23.6489813,75.4540254 23.7180412,75.7991384 C23.7861002,76.1472524 24.8260017,76.2862979 24.8960625,76.5623883 C24.9651223,76.8374783 24.203462,77.1855923 24.5477605,77.7397737 C24.8980642,78.2949554 25.7267827,78.2919544 25.7958425,78.9851814 C25.8659033,79.6784083 24.271521,79.7454303 24.3405809,80.3016123 C24.4116425,80.8547934 26.4193831,81.54702 27.3211649,82.5853599 C28.220945,83.6247002 28.1518851,83.8997902 27.9457064,84.4569726 C27.5253419,85.5713374 25.0351831,86.5346528 24.4797015,87.7800605 C23.9262216,89.0264685 21.8484203,89.7166944 20.8775786,90.6880124 C20.481235,91.0841421 20.0888948,91.6163163 19.7596094,92.1094778 C20.1719669,92.0054437 20.4982497,91.8804028 20.738458,91.7603635 C21.2929387,91.4812721 21.6732684,92.8327145 22.22875,93.2828619 C22.7832307,93.7340096 23.8911913,93.316873 24.271521,93.7340096 C24.6538525,94.1491455 23.9582494,94.1821563 23.1655622,94.0451114 C22.3678706,93.9060659 22.1596901,94.3902244 20.9116081,94.8053603 C19.981802,95.1164621 20.0738818,95.4465702 19.7616111,95.708656 C20.3230979,96.5219222 19.5714462,96.6269566 19.2841972,97.2461593 C18.9719265,97.9213803 18.5555655,98.0264147 18.5055221,98.4415506 C18.4524761,98.8576868 18.6096124,99.169789 18.6616575,99.7909924 C18.7127017,100.416197 18.816792,100.519231 19.180107,101.038401 C19.5444228,101.557571 18.8688371,101.557571 18.5565664,101.816655 C18.2452965,102.076741 18.4524761,102.647928 18.869838,103.063064 C19.2851981,103.478199 19.2851981,103.997369 19.1310644,104.361489 C18.9739282,104.723607 19.4923777,105.348812 19.8576944,105.711931 C20.2200085,106.07605 20.170966,107.064373 20.4802341,107.320457 C20.7925048,107.581543 21.1558198,107.841628 21.7283161,107.683576 C22.2998116,107.529526 22.6631266,107.78761 22.9213505,108.256764 C23.1825769,108.722916 23.597937,108.515849 24.1704334,108.256764 C24.7399271,107.995678 26.0390534,108.722916 26.352325,108.878967 C26.6645957,109.034018 26.5074595,109.917307 26.5595046,110.487494 C26.6105488,111.059681 26.2482347,111.785919 26.8197302,112.150038 C27.3912257,112.513157 27.2350903,113.343429 27.9096751,113.604514 C28.5872626,113.8656 28.8474882,114.797905 29.2628483,114.901939 C29.6782084,115.005973 30.4568835,115.629177 30.5609737,116.09533 C30.6650639,116.561482 29.8333429,116.979619 29.3649368,117.186687 C28.8985324,117.393755 28.0147662,116.562483 27.7044973,116.926602 C27.3922265,117.290721 27.8085875,117.964942 28.0668114,119.108316 C28.3280378,120.25169 28.5362183,120.353724 29.0546678,120.353724 C29.575119,120.353724 29.7822986,119.992606 30.1456136,119.784537 C30.5089286,119.576469 31.3416505,119.887571 31.7059664,119.73152 C32.0702822,119.575469 33.3664059,119.524452 33.6276324,119.938588 C33.887858,120.353724 34.1460818,121.341047 33.9399031,121.706167 C33.7317226,122.067285 34.1991278,122.483421 34.4603543,123.004592 C34.719579,123.522761 35.8115257,123.262676 36.1748407,123.419727 C36.5391565,123.574778 37.3688759,124.716152 37.2137414,125.234321 C37.057606,125.755492 37.7331917,125.858526 38.0975076,125.703475 C38.4608225,125.548424 38.8251384,125.96356 39.2404985,126.224646 C39.6548577,126.483731 40.0191736,126.379696 40.4355345,126.119611 C40.8508946,125.859526 41.5264803,125.653459 41.73366,126.015577 C41.9428413,126.379696 42.7725606,127.055918 42.7725606,127.262986 C42.7725606,127.470053 44.0726878,127.262986 44.6952275,127.574087 C45.3177672,127.885189 45.9953547,127.727138 46.6709404,128.093257 C47.3465261,128.456376 47.9690658,128.510394 48.0211109,128.92453 C48.0741569,129.339665 47.3465261,129.703785 47.3465261,129.909852 C47.3465261,130.11792 47.9170207,130.273971 47.9170207,130.586073 C47.9170207,130.899176 47.1893898,130.899176 47.0863005,131.15726 C46.9822102,131.418346 47.5016606,131.780464 47.6047499,132.038549 C47.7108419,132.299634 47.1903907,133.182924 47.1903907,133.443009 C47.1903907,133.702094 45.6320397,133.388991 45.2687247,133.388991 C44.9044089,133.388991 43.8124622,134.584382 43.4501481,134.635399 C43.1388782,134.680414 43.2850049,135.256602 43.3971021,135.744762 C44.5170731,135.531692 45.6640675,135.443664 45.7871742,135.691745 C45.9963555,136.107881 43.3630726,137.215244 42.8786526,137.3873 C42.3922309,137.561357 43.8134631,138.286594 43.7794336,138.702731 C43.745404,139.118867 42.255112,139.222901 42.39123,140.053173 C42.5313515,140.882444 41.9088118,141.058502 41.1101194,141.058502 C40.3154304,141.058502 40.1062491,141.54166 40.4885805,141.610682 C40.870912,141.680705 40.8338799,142.719045 42.3251728,143.09917 C43.8124622,143.480295 45.4068444,144.866748 46.688956,146.249201 C46.8681113,146.443264 47.0772927,146.598315 47.2984844,146.728358 C47.6688055,146.505285 47.990084,146.345232 48.1772463,146.318224 C48.905878,146.214189 50.2550476,146.631326 50.9836793,147.148495 C51.712311,147.667665 54.3085619,147.044461 54.6208326,147.460597 C54.9331033,147.876734 55.555643,148.396904 56.0760942,148.396904 C56.5955446,148.396904 57.1149949,149.435244 57.530355,149.122141 C57.9457151,148.81204 59.5030653,148.81204 59.9204271,148.81204 C60.3357872,148.81204 60.3357872,149.122141 60.7511473,149.122141 C61.1675083,149.122141 61.1675083,150.681652 61.479779,150.578618 C61.7910489,150.474584 62.9340398,151.511924 63.6626715,151.615958 C64.3903023,151.719992 65.1169323,152.9654 65.4282021,152.862366 C65.739472,152.758332 66.2599232,153.381536 66.466102,152.862366 C66.6672764,152.371205 67.6921649,152.609283 67.9794139,151.756004 C66.662272,150.145476 65.2490468,148.359892 65.2910833,147.668666 C65.3591423,146.492281 65.845564,145.731031 64.3903023,144.484623 C62.9350407,143.240216 64.5284221,142.408944 65.5693245,141.091513 C66.4981297,139.916128 68.4718408,139.401959 69.7249272,138.563685 C69.4707068,138.386627 69.2094803,138.224574 68.962266,138.115538 C68.0254538,137.699402 67.714184,137.283266 68.4418148,137.076198 C69.1694456,136.86813 68.8571749,136.453994 68.130545,135.623723 C67.4029141,134.79045 67.0906434,133.959178 66.6742824,133.959178 C66.2589223,133.959178 65.6353818,133.856144 65.0108403,134.064212 C64.3893015,134.27128 64.4923908,133.543041 64.5964811,132.817804 C64.7005713,132.089566 63.4524893,132.1946 63.2453097,131.882498 C63.03813,131.570396 63.5575804,130.534056 63.7657609,130.429022 C63.9729405,130.324988 64.5964811,130.012886 64.5964811,129.701784 C64.5964811,129.388681 63.4524893,129.284647 63.8678494,128.557409 C64.2832095,127.831172 65.1159314,127.831172 65.1159314,127.104934 C65.1159314,126.378696 65.7374703,125.754492 66.4651011,126.271661 C67.1927319,126.792832 67.5060035,128.143274 68.3377246,127.832172 C69.1684448,127.52007 68.6479936,126.792832 68.5449042,126.378696 C68.4408139,125.96256 68.2326335,125.339356 69.1684448,125.132288 C70.1022543,124.92422 69.688896,123.988914 70.4145251,123.988914 C71.1421559,123.988914 72.4933273,123.054608 72.9086874,122.84554 C73.3250484,122.637471 74.2598588,122.118301 74.6752189,122.325369 C75.0915799,122.535438 75.6110302,123.054608 75.9243018,122.325369 C76.2345708,121.597131 77.481652,121.911234 77.5847413,122.325369 C77.6888316,122.742506 79.6625427,122.742506 80.2870842,123.156641 C80.9096239,123.572778 82.2617962,124.403049 82.2617962,124.818185 C82.2617962,125.232321 82.8853367,125.856525 82.8853367,125.131288 C82.8853367,124.403049 83.4037862,124.611117 84.2355073,125.131288 C85.0672284,125.651458 86.212221,125.44239 86.4194006,124.92322 C86.6255794,124.403049 88.1859321,123.780846 88.7053825,124.195982 C89.2248328,124.611117 89.4330133,124.92322 90.0565539,124.300016 C90.6790936,123.674811 92.1343553,123.779845 92.3425357,124.403049 C92.5487145,125.027254 93.2763453,125.131288 93.9018876,125.131288 C94.5244274,125.131288 94.6295185,126.065594 95.0428768,125.857526 C95.4602387,125.651458 95.3561484,124.612118 95.8755988,124.714151 C96.39605,124.818185 96.8114101,125.44239 97.6421303,125.44239 C98.4738513,125.44239 99.0963911,125.233321 99.0963911,124.612118 C99.0963911,123.988914 98.9923008,122.950574 98.4738513,122.950574 C97.9554019,122.950574 97.4349507,122.431404 96.8114101,122.431404 C96.1878695,122.431404 95.5643289,121.391063 96.1878695,121.183996 C96.8114101,120.977928 97.8503108,120.457758 97.6421303,119.937588 C97.4349507,119.419418 97.227771,118.380078 98.0574904,118.277044 C98.8892114,118.17301 100.656744,118.17301 100.550652,117.861908 C100.447562,117.548806 98.7851212,117.341738 98.4738513,116.823568 C98.1615806,116.303398 98.0574904,115.05699 98.3697611,114.849922 C98.6830327,114.640854 99.7209325,114.952956 100.345474,114.745888 C100.968014,114.53682 102.320186,115.05699 103.151907,114.432786 C103.981626,113.810582 105.749159,113.705547 106.682968,113.705547 C107.61978,113.705547 108.34641,113.081343 109.075042,112.978309 C109.802673,112.874275 111.881475,112.564174 112.398924,112.354105 C112.920376,112.148038 115.723806,111.733902 115.828897,111.212731 C115.932988,110.693561 118.166924,110.277425 118.73842,110.538511 C119.308914,110.796595 120.037546,111.005664 120.556997,110.796595 C121.075446,110.590528 122.167393,111.159714 122.063302,111.733902 C121.959212,112.304089 122.531709,112.926292 122.479663,113.393445 C122.425617,113.863599 121.907167,114.01865 122.218437,114.380768 C122.531709,114.744888 123.933924,114.484803 124.348283,114.01865 C124.765645,113.550497 125.23205,114.225718 125.23205,114.587836 C125.23205,114.950955 125.906634,115.212041 125.906634,114.744888 C125.906634,114.274734 126.740357,114.587836 126.999582,114.898938 C127.259808,115.212041 128.247664,114.535819 128.247664,115.054989 C128.247664,115.574159 126.792402,115.989295 127.415943,116.559482 C128.038483,117.131669 128.401798,115.884261 129.182474,116.145346 C129.963151,116.406432 131.00005,115.262057 131.728682,115.107006 C132.457314,114.950955 133.234988,114.274734 133.857528,113.911615 C134.482069,113.550497 135.83324,113.65353 135.41788,114.068666 C135.000518,114.483802 134.534114,115.262057 136.094467,115.833244 C137.652818,116.406432 139.419349,119.418418 140.405204,120.92291 C141.39206,122.430404 142.328872,125.130287 142.84632,125.130287 C143.367773,125.130287 143.522907,123.779845 144.199494,123.624795 C144.875079,123.468744 145.289439,124.766168 146.017069,124.922219 C146.7447,125.07727 147.731556,125.493406 148.303051,125.284338 C148.874547,125.07727 150.172672,124.350032 150.641078,124.610117 C151.109484,124.870202 151.732024,124.870202 152.149386,125.855525 C152.562744,126.841848 153.188286,127.051917 153.603647,127.051917 C154.017005,127.051917 154.106082,127.518069 154.106082,127.934205 C154.106082,128.349341 154.867742,128.903523 155.283103,128.903523 C155.698463,128.903523 156.807424,128.762476 157.153724,128.555409 C157.499024,128.349341 157.918387,128.143274 157.985445,128.626432 C158.054505,129.11059 158.678046,129.87184 159.093406,129.87184 C159.508766,129.87184 160.339486,130.220954 160.408546,129.87184 C160.478607,129.525726 161.586567,129.318659 162.001928,129.248636 C162.418289,129.179613 163.874551,128.902522 164.14979,128.279318 C164.42703,127.657115 165.60405,127.657115 165.953353,127.240978 C166.296651,126.826843 167.267493,126.618775 167.475673,126.202638 C167.684854,125.787503 168.929934,125.856525 169.071056,125.509412 C169.209176,125.163298 170.247076,125.095276 170.732497,125.231321 C171.215916,125.374367 173.644021,125.855525 173.987318,125.788503 C174.334619,125.71948 174.40468,127.034911 174.74998,127.102933 C175.099282,127.172956 176.345363,128.141273 176.690662,127.866183 C177.034961,127.588092 177.868683,127.309001 178.560283,127.723136 C179.253884,128.141273 179.947486,128.695455 180.221723,128.210296 C180.498964,127.723136 181.953224,127.518069 182.163407,127.240978 C182.370586,126.962887 182.578767,126.133616 182.230465,125.854525 C181.886166,125.580435 181.539866,124.470071 181.398744,123.91589 C181.260624,123.361708 182.230465,123.223663 182.370586,122.739505 C182.507705,122.256347 183.341428,122.185323 183.617667,121.908233 C183.893907,121.632142 183.962967,121.008938 184.449389,121.145983 C184.932808,121.286029 185.971708,121.631142 186.179889,121.83921 C186.388069,122.046278 187.150731,122.185323 187.63415,122.185323 C188.120571,122.185323 188.882232,122.599459 189.366652,122.87655 C189.852072,123.15264 191.377395,123.15264 191.652633,123.568776 C191.929874,123.983912 191.582573,125.161298 191.929874,125.578434 C192.275173,125.99257 193.107895,126.891864 193.384135,126.684796 C193.660374,126.476728 194.978517,127.378023 195.463938,127.306 C195.947357,127.238978 196.709017,126.476728 197.124377,126.476728 C197.540738,126.476728 198.856879,126.130615 199.272239,126.200638 C199.686599,126.266659 201.211921,126.824842 201.420101,126.684796 C201.627281,126.54475 203.011481,126.753819 203.221663,127.169955 C203.427842,127.584091 205.161345,127.584091 205.161345,128.06925 C205.161345,128.551407 206.130185,128.830499 206.407425,129.38268 C206.685666,129.938862 208.971648,129.592748 209.38901,129.938862 C209.803369,130.283975 212.436652,130.216953 212.505712,129.938862 C212.573771,129.661771 215.067934,129.522725 215.552354,129.175612 C216.038775,128.829498 217.353915,128.969544 217.424977,128.484385 C217.492035,127.998226 218.739116,127.654114 219.293597,127.237977 C219.848078,126.823842 222.065,126.889863 222.20412,127.378023 C222.340238,127.862182 223.658381,127.998226 224.212862,127.792159 C224.767343,127.584091 226.221603,127.862182 226.429784,128.34634 C226.637964,128.830499 228.299405,129.10859 228.716767,128.969544 C229.132127,128.830499 230.447267,127.863182 230.931687,127.792159 C231.417108,127.720135 232.108707,127.237977 231.971588,126.753819 C231.832468,126.266659 232.94243,124.885207 233.079549,124.331026 C233.217669,123.775844 234.18851,122.254346 234.534811,122.1133 C234.881111,121.975255 235.643772,121.352051 235.57271,120.936915 C235.50365,120.521779 235.296471,119.27437 234.881111,119.27437 C234.465751,119.27437 233.70409,119.345394 234.67293,118.026962 C235.642771,116.712532 237.376274,117.060646 237.653514,117.060646 C237.927752,117.060646 240.146676,116.504464 241.115516,116.782555 C242.086357,117.060646 242.708897,116.64551 243.747798,117.197691 C244.786698,117.750872 246.242961,117.543804 246.589261,118.026962 C246.936562,118.514122 248.320762,118.929257 248.113583,119.759529 C247.904401,120.590801 248.875243,120.106643 249.220542,121.906232 C249.568844,123.707822 250.397563,123.844867 250.604742,124.675138 C250.813924,125.506411 251.921884,127.03091 251.784766,127.515068 C251.644644,127.998226 251.508526,128.759475 252.683545,128.830499 C253.863568,128.899521 254.694288,129.799816 254.971528,129.661771 C255.248769,129.522725 256.631968,130.006884 257.325569,130.69911 C258.01917,131.391337 259.058071,131.047224 258.990012,131.809474 C258.918951,132.569723 259.545494,133.190926 259.473431,133.815131 C259.404371,134.438335 260.791574,134.854471 261.760414,134.716426 C262.729254,134.57638 263.421854,135.062539 263.838215,134.229266 C264.253575,133.398994 265.639777,133.745108 266.124197,133.398994 C266.607616,133.054882 268.065881,132.636745 267.994819,133.884153 C267.923757,135.130561 268.755478,135.406652 268.062878,135.822788 C267.370278,136.236923 267.023977,138.038513 266.815797,138.800763 C266.607616,139.563012 265.567715,139.77008 265.430596,140.600352 C265.290474,141.430624 264.320634,141.500646 264.320634,142.12385 C264.320634,142.747054 262.937434,142.609009 262.242832,142.12385 C261.553234,141.638692 260.859633,143.024145 260.305152,143.024145 C259.749671,143.024145 259.818731,144.20053 259.95585,144.686689 C260.097973,145.170848 259.750672,145.793052 260.097973,146.625324 C260.283133,147.07047 260.169034,147.917747 260.261114,148.863057 C261.106847,148.252857 261.869509,147.800709 262.209804,147.800709 C263.075554,147.800709 263.941305,149.290196 264.911146,149.322207 C265.881987,149.358219 270.2798,146.415255 270.312829,145.931097 C270.349861,145.446938 272.913083,142.988133 274.124133,141.706714 C275.335183,140.425294 276.931567,138.556683 277.554106,137.102207 C277.936438,136.205913 279.631908,134.469345 280.047268,133.779119 C280.462628,133.086892 280.738868,133.015869 281.50253,131.389336 C282.263189,129.763804 282.263189,125.50341 282.5064,125.225319 C282.750612,124.950228 282.61049,124.223991 282.95679,123.773843 C283.303091,123.323696 283.12894,122.702493 283.822541,122.111299 C284.515141,121.525107 284.377022,121.004937 284.204872,120.552789 C284.030721,120.104642 284.237901,119.099313 284.064751,118.788211 C283.892602,118.475109 283.92563,118.338064 284.34099,118.096985 C284.757351,117.856906 284.064751,117.230701 283.476241,116.95261 C282.88673,116.67652 282.125069,116.434441 282.056009,115.776225 C281.985949,115.11801 280.98408,114.322749 280.217415,114.389771 C279.456756,114.460795 278.036525,113.976636 278.208674,114.460795 C278.383826,114.944953 278.140615,115.357088 277.762287,115.255055 C277.379955,115.151021 277.203803,115.463123 276.755414,116.155349 C276.307025,116.849577 274.711642,116.916599 275.439273,116.259383 C276.166904,115.602168 275.198064,115.567157 275.335183,114.87493 C275.477306,114.182704 276.063814,113.488476 275.268125,113.938624 C274.471434,114.387771 274.471434,115.461122 273.813864,115.602168 C273.156294,115.739213 273.362473,113.731556 273.534622,113.211386 C273.710774,112.691215 272.322571,113.246397 270.86831,113.142363 C269.413049,113.039329 269.79538,112.035001 270.9724,111.410796 C272.151423,110.787592 271.944243,110.2014 272.530751,109.95732 C273.121263,109.715241 274.645585,108.710912 275.545365,108.190742 C276.445145,107.670572 276.620297,107.08538 276.827477,106.496187 C277.036658,105.906995 278.698098,105.178756 280.187389,103.96936 C281.67568,102.756963 282.403311,102.063736 282.752613,101.336498 C283.097913,100.60926 285.313834,99.7109662 285.348864,99.1557844 C285.382894,98.601603 287.981146,97.2171498 289.747678,96.8700362 C291.516211,96.5239229 294.319641,96.9740702 294.840093,97.4932402 C295.361545,98.0124101 295.740874,97.8053423 296.053144,97.459229 C296.366416,97.1121154 297.057015,97.2841717 298.235036,97.4232173 C299.414058,97.5622628 299.691299,96.8690358 300.486988,97.1121154 C301.282678,97.355195 301.941249,97.4922399 302.42667,96.557934 C302.91109,95.6226278 305.198073,95.7966848 305.717523,96.1778096 C306.237974,96.5599347 306.655336,97.077104 307.485055,96.5229225 C308.315776,95.9687411 308.315776,97.2501606 309.111465,97.355195 C309.910158,97.459229 309.388706,98.1504553 308.696105,98.0814327 C308.004506,98.0124101 307.136753,98.427546 307.934445,98.8786937 C308.732137,99.3268404 309.666947,98.4625575 310.291488,98.5305798 C310.913027,98.6006027 311.882868,98.6696253 312.747618,98.1154439 C313.616371,97.5612624 313.85758,98.5655912 314.41106,98.0804324 C314.965541,97.5962739 316.212622,97.4582287 316.837163,97.4922399 C317.459703,97.5272513 316.941253,96.7650018 315.901352,96.7650018 C314.86145,96.7650018 314.89548,96.2118207 315.727201,94.7913557 C316.557921,93.3738917 318.152303,92.6106418 319.156174,91.7463589 C320.162046,90.8830763 320.887675,91.2982122 320.887675,90.7420301 C320.887675,90.188849 321.372095,88.6303388 322.135757,88.597328 C322.896416,88.5603159 324.801068,88.9084299 325.981091,88.2492141 C327.15711,87.5909986 327.05302,88.7353732 327.540443,88.9084299 C328.022861,89.0804862 328.683433,87.9041011 329.235912,88.2492141 C329.792395,88.597328 328.405192,89.4265995 328.092922,90.4289276 C327.780651,91.4342567 328.820552,91.0551326 329.409063,91.3322233 C329.996572,91.609314 328.645401,92.0234496 328.786523,92.29954 C328.922641,92.577631 330.100662,92.577631 331.625985,91.0551326 C333.150306,89.5316339 334.535507,89.116498 335.505348,89.220532 C336.476189,89.3245661 335.919707,88.3542484 335.989768,86.9357841 C336.058828,85.5163194 339.03741,85.1001832 340.007251,85.5163194 C340.977092,85.9314553 340.908032,86.3125801 339.97222,86.0695005 C339.03741,85.8274213 338.171659,86.6576931 338.205689,87.8350785 C338.242721,89.0134642 337.373968,89.3925883 337.82636,89.8447364 C338.27575,90.2928831 337.165787,90.3969171 337.132759,90.8840766 C337.098729,91.3682351 337.132759,91.7473592 336.439157,91.9554273 C335.75056,92.1634954 333.425545,92.4055747 333.358487,93.3048691 C333.288426,94.2061641 332.042346,94.3091979 331.451834,95.4165604 C330.864324,96.5249232 328.611371,97.1831387 327.124082,99.398864 C325.63479,101.612589 323.279749,101.612589 323.279749,102.027725 C323.279749,102.444861 321.649335,102.41085 321.095855,102.478872 C320.542376,102.548895 321.615306,103.898337 320.299165,105.317802 C318.983024,106.736266 318.116272,108.709912 318.151303,110.684558 C318.185332,112.657204 318.842902,118.335063 319.433414,119.340392 C320.021924,120.344721 319.674623,122.802525 320.161045,123.320695 C320.645465,123.839865 320.473316,124.704148 320.783585,125.01725 C321.095855,125.328352 322.377967,123.631797 323.241716,122.905559 C324.109468,122.178321 323.832228,121.936242 324.420738,121.555117 C325.010249,121.172992 324.768039,119.581471 324.94219,119.165335 C325.11534,118.749199 326.18827,118.542131 326.534571,118.093984 C326.880871,117.643837 327.781652,117.919927 328.267073,117.74487 C328.749491,117.574814 328.231041,116.43144 328.057891,115.773224 C327.88374,115.115009 329.477122,114.214714 330.308843,113.626522 C331.140564,113.039329 332.179464,114.008647 333.115276,113.142363 C334.051087,112.27808 333.046216,111.272751 332.698915,110.824604 C332.353615,110.375457 333.635727,108.190742 334.363358,107.983674 C335.089988,107.775606 335.470317,108.503845 336.163919,107.87964 C336.854517,107.256436 335.539377,106.254108 335.055958,106.32213 C334.571538,106.391153 334.398388,104.555552 335.539377,103.692269 C336.68437,102.825986 336.231978,102.651929 335.471318,102.445861 C334.709658,102.238794 334.570537,102.515884 333.982027,102.549896 C333.393517,102.583907 332.804006,101.337499 333.704787,100.127102 C334.606569,98.9147055 335.472319,99.0527507 335.6805,98.0504226 C335.886678,97.0450935 337.13476,95.6256288 337.447031,95.1074592 C337.759302,94.5872889 339.006383,95.1074592 339.490803,95.0034251 C339.974222,94.8993911 339.804075,95.937731 340.389582,95.418561 C340.979093,94.8993911 341.947933,93.1698249 342.745625,93.1698249 C343.542316,93.1698249 343.022865,94.4492437 343.230045,95.2114932 C343.439226,95.9737428 343.887615,95.0044254 345.412937,93.9650852 C346.935257,92.9267453 350.26114,93.029779 351.266012,93.5149378 C352.271884,94.001097 352.444033,95.1424706 352.998514,95.0034251 C353.842245,94.7943567 353.137634,93.8600508 353.968354,93.6179716 C354.801076,93.3768927 356.255337,92.5106091 357.365299,91.7133481 C358.472259,90.9180877 358.159988,91.5072806 358.7495,90.7800425 C359.339011,90.0528045 359.927521,90.3649066 360.100671,89.8807482 C360.274822,89.3935887 361.867202,88.5993287 364.050095,88.1121692 C366.231987,87.6280107 369.071448,86.1745349 368.933328,85.7243875 C368.79621,85.2742402 369.764049,85.0661721 369.868139,85.5163194 C369.972229,85.9644661 370.804951,85.7934101 371.946941,86.034489 C373.089932,86.2775686 373.611384,86.7287163 374.512165,85.8274213 C375.411945,84.9261262 374.407074,84.6150244 374.441103,83.9247984 C374.475133,83.2315715 372.880751,82.5043334 373.089932,81.7780957 C373.299113,81.0498573 371.913913,79.1102223 371.497552,79.4923474 C371.081191,79.8734722 370.110349,79.1812456 370.110349,78.6270641 C370.110349,78.0728827 370.041289,77.4156676 369.382718,77.8298032 C368.726149,78.2459394 367.616187,78.0378713 367.410008,77.4146673 C367.198825,76.7914632 368.692119,76.3413159 369.729018,76.7584524 C370.76892,77.1735883 370.458651,77.5887242 370.976099,77.8988258 C371.496551,78.2119282 372.915781,78.0728827 373.643412,77.7267694 C374.371043,77.3796558 376.414815,76.7224407 376.760114,76.1352484 C377.107415,75.5460555 376.725084,75.2679645 377.419686,74.9228515 C378.111285,74.5777386 377.591835,73.8495002 377.003325,73.5383983 C376.413814,73.2252958 376.551933,72.3960244 377.175474,72.3960244 C377.798014,72.3960244 377.625865,71.667786 378.041225,71.6327745 C378.457586,71.597763 378.524644,71.9438763 379.288306,71.5647522 C380.048965,71.1836275 379.322335,72.1509441 378.978037,72.8111603 C378.630736,73.4673751 379.705668,74.0205562 379.807756,74.4036816 C379.911846,74.7848063 381.400137,74.9228515 382.231858,74.4717038 C383.06458,74.0235571 385.730891,75.0258853 385.90304,75.6831004 C386.077191,76.3413159 386.460524,77.1385769 387.566483,77.6927583 C388.675444,78.2459394 389.681316,78.0048605 389.887495,78.5230301 C390.094674,79.0422 390.511035,79.3182904 391.135577,79.1812456 C391.757116,79.0422 392.104417,79.732426 392.552806,79.3182904 C393.004197,78.9031545 393.246407,79.56137 393.835918,79.0422 C394.423427,78.5230301 392.552806,78.1759165 392.797017,77.7617809 C393.038226,77.3456447 393.420558,78.0738831 393.939007,78.0388716 C394.460459,78.0058608 393.799887,77.0005317 394.183219,76.8954973 C394.563549,76.7924636 394.251278,74.7157838 393.835918,74.5777386 C393.420558,74.438693 393.765857,73.7104546 394.563549,74.2996475 C395.359239,74.8878401 396.605319,74.8538289 397.196832,74.8538289 C397.786343,74.8538289 397.22986,74.2996475 396.643352,74.1956135 C396.050838,74.0935801 396.746441,73.6064206 397.160801,73.9875454 C397.577161,74.3696704 398.372851,74.5417268 398.442912,74.1265909 C398.511972,73.7104546 398.927332,72.8111603 399.654963,72.8451714 C400.372585,72.8881855 400.615796,72.4710489 399.922195,72.22997 Z M206.743717,117.649839 C204.771007,119.416417 200.820582,119.830553 200.820582,121.286029 C200.820582,122.739505 196.041438,123.466743 195.626078,122.842539 C195.262763,122.29736 199.15814,122.1153 200.094953,120.03762 C201.030764,117.96094 204.577839,116.89059 206.329358,114.117682 C207.576439,112.145037 208.615339,109.135051 209.343971,109.342119 C210.071602,109.550187 208.71943,115.88326 206.743717,117.649839 Z M215.542345,36.3292175 C215.266105,36.8843993 213.759799,36.9204111 214.158145,37.4375804 C214.851746,38.3388754 218.314748,37.8537166 218.383808,36.7453538 C218.451867,35.6369909 215.821587,35.7760364 215.542345,36.3292175 Z M89.3909769,2.12502044 C91.0534181,2.12502044 90.5679973,1.08668053 91.6759578,1.22472572 C92.7849193,1.36377124 94.2391801,1.29374831 93.6857002,0.601521706 C93.1332212,-0.0907049009 89.1137365,0.18538548 89.5280957,0.740567224 C89.9444567,1.29474864 86.2732739,1.08668053 86.3413329,1.29474864 C86.4804536,1.70988454 87.7285356,2.12502044 89.3909769,2.12502044 Z M80.7995284,6.76553956 C80.7995284,5.6561764 77.1934021,6.87857656 77.8910069,7.11065254 C78.5135466,7.31772032 80.7995284,7.87190174 80.7995284,6.76553956 Z M89.738278,5.86424451 C89.9444567,6.4174256 89.3909769,6.48744852 88.005776,6.48744852 C86.6185733,6.48744852 85.8959468,7.26870428 86.6185733,7.87090141 C87.4512952,8.56412835 91.1214771,8.28703764 91.7460186,7.45476518 C92.3685583,6.62449339 93.9629406,7.31671999 94.2391801,6.4864482 C94.5174213,5.6561764 89.5280957,5.31106342 89.738278,5.86424451 Z M101.583547,4.54781356 C102.067967,3.92460955 100.681766,3.92460955 100.542645,3.30140554 C100.405526,2.6772012 96.5261628,2.54015634 96.7333424,3.23338327 C96.940522,3.92661021 94.0500161,4.67885646 94.9327814,5.37808536 C96.5952226,6.69551664 101.098126,5.17101758 101.583547,4.54781356 Z M90.5679973,3.44145139 C90.7771786,1.98697525 88.3520762,3.16336035 86.5495134,2.40211115 C84.7489524,1.64086194 83.6870318,1.69788061 84.8870722,2.74822445 C85.4435546,3.23338327 81.801397,3.61150706 82.391909,4.20270059 C83.7100517,5.51813121 90.3588159,4.89592752 90.5679973,3.44145139 Z M80.2480503,41.869031 C80.3161093,42.5612576 79.8997484,43.0454161 78.5846082,43.0454161 C77.2674663,43.0454161 79.2081488,43.8776886 79.3452677,44.6379375 C79.4853891,45.4011873 78.0301275,44.8460056 77.9620685,46.023391 C77.8910069,47.1997761 75.3968445,46.023391 75.0515452,47.5458894 C74.7062458,49.0703885 76.2976255,48.8623204 77.4075878,48.9323433 C78.5145475,49.0013659 76.9902259,50.0387055 77.821947,50.6619095 C78.6516663,51.2851135 79.2762078,51.0770454 78.7227279,49.9006603 C78.1682472,48.7242752 81.6312495,50.3167965 80.5923488,51.2170912 C79.554449,52.1173859 82.255791,52.8086122 83.5729329,52.8786351 C84.8910756,52.9486581 89.5591226,53.9679918 89.6682172,52.8786351 C89.7392788,52.1864085 87.9377169,51.5632045 86.4814544,50.0387055 C85.0271936,48.5172074 83.9872921,46.023391 85.6517351,44.9850511 C87.3131755,43.9457109 85.8589147,43.4615524 87.5203551,42.2841669 C89.1837972,41.1067815 88.2149573,39.999419 89.5991573,39.8603735 C90.9853591,39.7223283 89.4610376,38.4759203 90.8462385,38.2688525 C92.2324403,38.0607844 92.5086798,36.5372856 92.3015002,35.9831042 C92.0933197,35.4309235 93.7547601,36.0531271 94.5174213,35.221855 C95.2790816,34.3905829 97.0826452,34.9447643 97.6341233,33.7683792 C98.188604,32.5899935 106.156512,29.8891093 110.660417,28.8497691 C115.16232,27.8124295 118.280022,25.9418171 116.686641,24.6964094 C115.092259,23.4500014 110.589355,25.1815682 109.480394,26.081863 C108.371432,26.980157 106.781053,26.3579533 105.672092,26.980157 C104.56213,27.6043614 102.206087,28.1585428 101.030067,27.3962932 C99.8510453,26.6360444 98.4648435,28.2975883 97.5660643,28.2285657 C96.6642825,28.1595431 95.6263827,29.1278601 94.6565419,29.0598378 C93.6857002,28.9918156 91.7460186,29.8220874 91.6078988,30.3752684 C91.4677774,30.9294499 89.806337,30.7914047 89.806337,31.4836313 C89.806337,32.1768582 88.4901959,32.7970612 87.7955937,32.1748576 C87.104995,31.5516535 86.2732739,32.8680845 87.2421139,33.7693795 C88.2119547,34.6696743 85.4425537,34.7376965 85.924972,35.2908776 C86.4113937,35.8460594 84.8870722,36.1921727 85.2333724,36.8143763 C85.5796726,37.4375804 84.2635316,37.6456485 83.22363,37.8537166 C82.1847293,38.0617847 81.6302486,39.4452376 82.9483914,39.5152605 C84.2645324,39.5842831 82.1847293,39.7923512 82.3258517,40.8306911 C82.4639714,41.869031 80.1759879,41.1768044 80.2480503,41.869031 Z" id="path-1"></path>
        <filter x="-1.8%" y="-3.4%" width="103.6%" height="109.3%" filterUnits="objectBoundingBox" id="filter-3">
            <feMorphology radius="0.125" operator="dilate" in="SourceAlpha" result="shadowSpreadOuter1"></feMorphology>
            <feOffset dx="0" dy="2" in="shadowSpreadOuter1" result="shadowOffsetOuter1"></feOffset>
            <feGaussianBlur stdDeviation="2" in="shadowOffsetOuter1" result="shadowBlurOuter1"></feGaussianBlur>
            <feComposite in="shadowBlurOuter1" in2="SourceAlpha" operator="out" result="shadowBlurOuter1"></feComposite>
            <feColorMatrix values="0 0 0 0 0   0 0 0 0 0   0 0 0 0 0  0 0 0 0.00993546196 0" type="matrix" in="shadowBlurOuter1"></feColorMatrix>
        </filter>
    </defs>
    <g id="Page-1" stroke="none" stroke-width="1" fill="none" fill-rule="evenodd">
        <g id="Group" transform="translate(3.000000, 2.000000)">
            <mask id="mask-2" fill="white">
                <use xlink:href="#path-1"></use>
            </mask>
            <g id="Shape-Copy">
                <use fill="black" fill-opacity="1" filter="url(#filter-3)" xlink:href="#path-1"></use>
                <use stroke="#D9D9D9" stroke-width="0.25" fill="#FFFFFF" fill-rule="evenodd" xlink:href="#path-1"></use>
            </g>
            <rect id="Rectangle" fill="#FFFFFF" fill-rule="nonzero" mask="url(#mask-2)" x="0" y="2" width="400" height="50"></rect>
            <rect id="Rectangle-Copy" fill="#0037A8" fill-rule="nonzero" mask="url(#mask-2)" x="0" y="52" width="400" height="50"></rect>
            <rect id="Rectangle-Copy-2" fill="#D62618" fill-rule="nonzero" mask="url(#mask-2)" x="0" y="102" width="400" height="50"></rect>
        </g>
    </g>
</svg>