<svg id="MAP" xmlns="http://www.w3.org/2000/svg" viewBox="0 0 579 321">
  <defs>
    <style>
      .cls-1 {
        fill: none;
      }

      .cls-1, .cls-10, .cls-11, .cls-12, .cls-13, .cls-14, .cls-15, .cls-16, .cls-17, .cls-18, .cls-19, .cls-2, .cls-3, .cls-4, .cls-5, .cls-6, .cls-7, .cls-8, .cls-9 {
        stroke: #888;
        stroke-miterlimit: 2;
        stroke-width: 0.25px;
      }

      .cls-2 {
        fill: #e6892c;
      }

      .cls-3 {
        fill: #db51b6;
      }

      .cls-4 {
        fill: #e8b09b;
      }

      .cls-5 {
        fill: #cd9be8;
      }

      .cls-6 {
        fill: #a19be8;
      }

      .cls-7 {
        fill: #9cf781;
      }

      .cls-8 {
        fill: #f2b1bc;
      }

      .cls-9 {
        fill: #58a676;
      }

      .cls-10 {
        fill: #fa9a4b;
      }

      .cls-11 {
        fill: #d428ce;
      }

      .cls-12 {
        fill: #dcf2b1;
      }

      .cls-13 {
        fill: #6a9179;
      }

      .cls-14 {
        fill: #f0e784;
      }

      .cls-15 {
        fill: #eb499a;
      }

      .cls-16 {
        fill: #e6e8a9;
      }

      .cls-17 {
        fill: #51e86d;
      }

      .cls-18 {
        fill: #91e3a0;
      }

      .cls-19 {
        fill: #a9e2e8;
      }
    </style>
  </defs>
  <title>map_luch</title>
  <g>
    <path id="MC" class="cls-1" d="M171.955,188.8l0.278-1.084,0.529,0.138,0.171,0.117-0.386.968Z"/>
    <path id="PS" class="cls-1" d="M216.526,210.319l0.219,0.164-0.355.711L216.226,211l0.3-.683h0Zm1.286-.438,0.3-.246,0.739,0.082-0.355,2-0.739-.109,0.054-1.724h0Z"/>
    <path id="VA" class="cls-1" d="M179.508,190.96l0.289-.12,0.289,0.12,0.12,0.289-0.12.289-0.289.12-0.289-.12-0.12-.289Z"/>
    <path id="Abkhazian" class="cls-2" d="M224.1,187.791l-1.347-.578,0.885-.539,1.578-.038-0.308,1.039-0.5.346Z"/>
    <path id="XO" class="cls-1" d="M227.7,187.252l1.155-.115,0.039,0.038,0.269,1.386-1.848-.309,0.155-1h0.23Z"/>
    <path id="Georgia" class="cls-3" d="M233.059,188.976l0.27,0.616-0.077.308,0.77,0.462-0.154.461-0.423.154-1.154-.154-0.771.192-1.116.039-1,.462-0.885-.116-0.424-.731-2.463-.115a2.125,2.125,0,0,0-.616-1.193l-0.615-.539,0.038-.039,0.039-.077,0.077-.269a0.47,0.47,0,0,0-.154-0.423l0.5-.346,0.309-1.039h0.269l0.424,0.423,1.578,0.192-0.154,1,1.848,0.308-0.27-1.386,0.423,0.308,1.116,0.539,0.615,0.423,0.963,0.077,1.037,0.463h0Z"/>
    <path id="NO" class="cls-1" d="M175.682,131.653l0.269-.231,0.115,0.192ZM179.375,133l0.231-.269,0.116,0.192Zm-2.77-2.116,0.308,0.385-0.424.077Zm13.662-8.783,0.506,0.1-0.837.915-1.636-.02,1.967-.993h0Zm6.036,0.175h0.72l-0.312.623-0.409-.02L196.5,123.5l0.214-.6,0.623-.214,1.733,0.136,0.623,0.312-0.623.7-0.409-.1-0.117.312-0.818.078-0.312.526,1.538-.292-0.623.6h0.818l0.409-.292,0.564,0.409-1.343.623,0.1,1.558-0.623.623-0.409-.526V125.9l-0.818-.312-0.72-1.149-1.655.312-0.721.409-0.117,1.343,0.078,1.343-1.129.506-0.837-.409-1.558.39-1.85-1.246-0.818-.214-0.487.6-0.351.312,0.078,1.655-0.623.1-1.032-.409-1.344.078v1.363l-0.74-.117h-0.506l-0.545,2.375-0.526.623-0.214,2.064h-0.837l-0.117,2.375-0.623,1.129,0.292,2.083-1.966.194-0.429.818L177.7,144.3l0.39,3.1,0.623,0.74-0.837.818v0.623L178.385,150l-0.428,1.752-0.721.72-0.117,1.558h-0.584V153.5l-0.506-.409-0.175-2.064-0.234,1.752-0.409-.331,0.409,1.032-0.74.721-0.1-.409-0.409.915a0.983,0.983,0,0,1-.233.448,3.3,3.3,0,0,1-1.013.818l-0.312.156a5.79,5.79,0,0,1-1.266.506l-0.175-.02-0.312-.312-0.506.1-0.8-.428-0.331-.195-0.721-.428-0.272-1.44,0.1-.506,0.721,0.525,0.409-1.032-0.818.195-0.6-.214,0.214-.6,0.506-.312-0.506-.194,0.312-.818-0.506-.272,0.312-.351-0.506.1v-0.72l-0.506-.409,0.214-.409,1.538-.253-1.635-.156,0.312-.214-0.506-.312,0.117-.818,0.721-.194,1.227,0.02-1.129-.428h-0.623l0.02-.526,0.915-.195,2.064,0.234-0.916-.623-1.129.078V145l0.721-.292,0.312-.506,0.506,0.1,0.818,0.526-0.39-.818,1.227,0.214-0.817-.311,0.72-.6,0.721,0.1-0.292-.915,0.721-.6,1.324,0.312,0.721-.1-0.506-.409-0.506-.623,0.837-.915,0.6-.1,0.409,0.623,0.409,0.312,0.312-.6,0.721-.292,0.214-.526,0.721-.39,0.818,0.818,0.312-.389-0.721-.526,0.214-.409-0.623.1-1.129.6-0.1.506-0.721.1-0.526-.214-0.292-.721,0.526-.72,0.623-.409,0.721-.292,0.409-.1-0.506-.525,0.409-.6,0.72-.195-0.292-.409,0.117-.72,1.3,0.935,0.214-.292-1.421-1.051,0.72-.1-0.292-.506,0.623-.915h0.916l-0.2-.506-0.2-.818,0.818,0.312,0.1-.506-0.915-.331,0.214-.818,0.623-.1,0.214-.506,0.6,0.312,0.02-.818,0.6-.195,0.623,0.429-0.2-.721-0.72-.117-0.2-.72,1.129-.409,0.214-.6,0.409-.409,1.032-.292-0.506-.214,0.409-.506,0.817,0.019,0.429-.817,0.506,0.506,0.1,0.935,0.526-.72,0.409-.292,0.506-.506H188.5l-0.214-.409-0.818-.214,0.117-.506,2.162,0.019,0.487,0.721,0.214,0.428,0.916,0.312-0.409-.526,0.409-.506-0.292-.195-0.409-.428,0.409-.292,0.409,0.312H192.3l0.312-.292-0.915-.117a2.375,2.375,0,0,1,.117-0.818q0.059-.194.39-0.117l0.331,0.117,1.012,0.117-0.506.409,0.506,0.72-0.117-.311,0.643-1.013,0.6-.1-0.214,1.44,0.409-.214,0.312-.292-0.409-.312,0.837-.721c0.2-.194.433-0.084,0.693,0.331h0Zm-9.561,2.337-0.312.409-0.292-.623Zm-2.259.487,0.526-.72,0.1,0.72h-0.623Zm-2.278,1.4v-0.409l0.818,0.214-0.818,1.129-0.624-.428Zm-2.59,2.94,0.214-1.013h0.409l0.1,0.312,0.526-.72,0.818,0.02-1.052,1.11-1.538.8-0.312-.1,0.838-.41h0Zm3.407-2.414,0.312-1.129,0.623-.506Zm-1.947.487-1.655.8,0.72-.915,0.837-.389Zm-2.9,2.433,0.506,0.312-0.623.292-0.935.6,0.428-1.013,0.624-.195h0Zm-6.114,12.169,0.526-.6,0.409,0.253-0.935.662v-0.311Zm-3,2.589,0.623-.817-0.272.662-0.351.155h0Zm-0.837.954,0.117-.467,0.292,0.37Zm-0.176,6.211-0.1-.72,0.409,0.194ZM167.97,153.6l0.312,0.37-0.409.1Z"/>
    <path id="DK" class="cls-1" d="M175.686,157.146a0.841,0.841,0,0,1,.214.7,1.392,1.392,0,0,1-.526.818l-0.7-.623-0.584.37a2.143,2.143,0,0,0-.759.74,1.023,1.023,0,0,1-.74.194,0.809,0.809,0,0,0-.8.7l0.214-1.013,0.311-.312,0.916,0.02,0.351-.623,0.272-.39,0.623-.72,1.129-.8-0.214.6,0.292,0.331h0Zm0.371,2.532,0.72,0.312L176.757,161l-0.818.1-0.312.6-0.915.195,0.506,1.032-0.117.506,0.059,0.525-0.857.72-1.46-.311-0.194-.448a3.931,3.931,0,0,0,.331-1.733,0.251,0.251,0,0,0-.39-0.195l-0.331.195-0.214-1.11,0.214-.74,0.623-.234c0.143,0.026.214-.065,0.214-0.272,0-.117.1-0.149,0.312-0.1l0.312,0.117,0.7,0.409V159.8a1.689,1.689,0,0,1,.214-0.837q0.2-.312.409-0.195l0.409,0.195a0.912,0.912,0,0,1,.6.719h0Zm-0.137-1.012,0.351,0.156-0.409.117,0.058-.273h0Zm2.96,4.107-0.525.409-0.818-.02-0.993-1.324h0.818l0.72-.7,0.292,0.312,0.409,0.916,0.1,0.408h0Zm-0.584,1.052-0.916.506-0.72-.312,0.818-.312Zm-2.629-1.967,1.013,0.817,0.078,1.032-1.013-.214-0.194-.72Zm2.59,1.655-0.662.039,0.039-.253Z"/>
    <path id="BA" class="cls-1" d="M190.714,186.653l0.353,0.489-0.272.461-0.841.542-0.136.842-0.352.678-0.028.679-1.194-.624-0.977-1.928-1.221-.759-0.57-.841-0.543-.543,0.136-.841,2.415,0.163,0.706-.435,0.841,0.3,1.357,0.081-0.352,1.031Z"/>
    <path id="MK" class="cls-1" d="M195.57,193.14H194.6l-0.409.545-0.623.058-0.078-.545-0.467-.623v-1.324l0.837-.194,0.351-.546,0.623-.136,0.9-.545,0.136,0.545,0.545,0.487v0.759l0.331,0.467-0.2.507Z"/>
    <path id="LU" class="cls-1" d="M169.845,175.243l0.623-.545,0.273,0.408-0.429,1.11L169.63,176Z"/>
    <path id="LI" class="cls-1" d="M175.746,181.023l-0.351-.136,0.136-.487,0.335,0.192Z"/>
    <path id="LB" class="cls-1" d="M219.081,204.686l0.837,0.623-0.233.876-0.623.526-0.721.409-1.363,1.032,0.74-2.823,0.39-.6Z"/>
    <path id="Latvia" class="cls-4" d="M193.789,159.418l2.687,0.02,0.409,0.682,1.169,0.213,0.545,0.643,0.623,0.273,0.214,0.973-0.779.273-0.136,1.09-0.273.214-0.156.623-0.759.118-0.564.836-1.228.059-0.9-1.324-0.759-.078L193.478,163l-1.111-.214-0.915-.526-0.6-1.032-0.2-.486,1.752-.721,0.818-.136Z"/>
    <path id="Lithuania" class="cls-5" d="M200.515,157.537l-0.214.954,0.6,0.35,0.623,0.974-0.7.409-0.078.565-1.519.467-0.623-.272-0.545-.643-1.168-.214-0.409-.682-2.688-.019-0.564.467-0.818.137-1.752.72a5.154,5.154,0,0,1-.487-1.655,0.326,0.326,0,0,1,.351-0.331c0.247-.026.37-0.084,0.37-0.175l0.156-.779,0.156-.545,1.032-1.012,1.324,1.032,0.2,1.032q1.11,0.312,1.324-.1a8.1,8.1,0,0,0,.1-2.414l0.915-.175,1.383-.059,0.682,1.051,1.519,0.156,0.272,0.545,0.562,0.214h0Z"/>
    <path id="KW" class="cls-1" d="M240.239,213.455l0.312,0.623-0.312.194-0.409-.292-0.2.6,1.13,1.227-0.02.584-1.733-.565-0.292-.72-1.246-.428,0.311-.312,0.331-1.032,0.721-.506Z"/>
    <path id="KP" class="cls-1" d="M363.2,173.247l0.954,0.545,1.109,0.156-0.253.253-0.312.7a1.334,1.334,0,0,1-.525.643v0.6l-0.1.721,0.506,0.564h0.137c0.078,0.026.1,0.11,0.078,0.253a3.621,3.621,0,0,1-.623,1.4l-0.429.467a0.741,0.741,0,0,1-.409.253,0.4,0.4,0,0,0-.116.389l0.02,0.331a3.245,3.245,0,0,1-.721.7,0.377,0.377,0,0,0-.059.487l0.156,0.331,0.058,0.448,0.468,0.214,0.448,0.039,0.564,1.09-1.889,1.266-0.39,1.168-0.2-.156-0.253.409q-0.137.214-.564-0.37l-0.117-.214v-0.078l-0.214.312a0.373,0.373,0,0,1-.156.312l-0.175-.156-0.078-.214-0.662-.1-0.253-.37,0.059-.564a0.285,0.285,0,0,0-.1-0.253l-0.155-.253,0.253-.175,0.253-.078-0.448-.1c-0.155-.026-0.214-0.1-0.175-0.214l0.117-.155a0.644,0.644,0,0,0,.155-0.409,0.779,0.779,0,0,0-.117-0.312l-0.136-.292,0.059-.312-0.2-.409a0.169,0.169,0,0,0-.233-0.059,1.982,1.982,0,0,1-.39.156l-0.351-.039-0.312-.331-0.117-.292,0.021-.058-0.1-.39-0.234-.6,1.383-1.227,0.429-1.792,0.837-.681,0.546,0.837,1.109-.409,0.156-1.382,1.109-.681,0.137-1.655,0.429-.273h0Z"/>
    <path id="CN" class="cls-1" d="M345.6,227.4H345.9l0.526,0.1,0.1,0.409,0.507,0.428-0.02.6-0.6.6,0.1,0.72-0.116.6-0.409.506-0.507-.2-1.129-.019-0.507-.721-0.389-.915,0.194-.6-0.1-.409,0.623-.506,0.6-.312,0.564-.059,0.274-.232h0Zm16.572-12.5,0.331,1.071,0.117,0.7a2.393,2.393,0,0,1-.312.915l0.351,0.9v0.428l-0.176.506a8.326,8.326,0,0,0-.155,1.207v0.506l-0.117.6H362l-0.8-1.012a3.187,3.187,0,0,1-.8-0.935l-0.292-.7L360,218.681l0.117-.662v-1.012l0.312-.993,0.623-.818,0.584-.6,0.545,0.312h0Zm-21.888-66.121,3.175-.389,0.408,0.564,2.221,0.156,0.954,0.974,1.363,1.792,3.29,2.939V156.2l1.655,0.837,2.2,0.02,1.246,0.565,1.363,1.791,1.246,0.02,0.545,0.974,2.064-.272,0.155-1.227,1.247-.272,0.136-.974,0.974-.545,0.409,0.02,0.545,2.336-0.564,1.11,0.117,2.063-0.137,1.519,0.662,1.675V166.8l-1.928.273-0.838.681,0.254,1.655,1.227,2.083-0.156,2.336-0.954-.545-0.428.272-0.137,1.655-1.11.682-0.155,1.382-1.11.409-0.545-.837-0.837.682-0.429,1.791-1.383,1.227,0.233,0.6-0.116.292a0.526,0.526,0,0,0-.1.351c0.026,0.143,0,.227-0.078.253a0.425,0.425,0,0,1-.331-0.1l-0.428-.059-0.487.039-0.76.565-0.194.195-0.233.37-0.059.312-0.137.292a2.6,2.6,0,0,1-.623.506l-0.312.409c-0.039.1-.194,0.136-0.467,0.1l-0.039-.409,0.155-.35,0.137-.059,0.233-.195q0.137-.214-0.721-0.72l-0.312-.214,0.117-.506,0.468-.876-0.156-1.013,0.312-.409-0.818-.37a2.393,2.393,0,0,0-.974.409l-0.486.564a2.233,2.233,0,0,0-.331.8,1.07,1.07,0,0,1-.721,1.129,0.431,0.431,0,0,0-.351.467l-0.02.448,0.059,0.351a1.553,1.553,0,0,1-.175.662l-0.117.117-0.039-.02-0.856.059-0.292-.1-0.117-.117-0.253.1-0.2.175-0.214.331a0.859,0.859,0,0,0,.233.818,1.285,1.285,0,0,0,.623.428l0.254,0.292v0.467l0.233-.039h0.37l0.331,0.078,0.272,0.234,0.253,0.564c0.039,0.1-.1.233-0.409,0.389l0.2,0.214a0.283,0.283,0,0,0,.37.059,0.24,0.24,0,0,1,.292-0.059l0.272,0.214a1.77,1.77,0,0,0,.7.214h0.525c0.272-.039.37-0.156,0.292-0.351l0.272-.312,0.156-.817a0.42,0.42,0,0,1,.312-0.292l0.351-.059q0.156-.059.253,0.253l0.1,0.1a0.209,0.209,0,0,0,.214.058l0.409-.156,0.194,0.37,0.234-.02,0.331-.175a0.478,0.478,0,0,1,.506-0.156l0.37,0.214h0.1l0.351-.1c0.246-.1.383-0.052,0.408,0.156l-0.253.6-0.155.253,0.136,0.136,0.117,0.272q0,0.137-.351.117l-0.468-.078-0.155.117-0.156.253-0.253-.019-0.155-.136-0.254.35-0.272.506-0.253.759a0.147,0.147,0,0,1-.253.1l-0.312-.155c-0.039.013-.026,0.078,0.038,0.194l0.021,0.331-0.624.759a0.284,0.284,0,0,0-.077.272l0.02,0.292a0.293,0.293,0,0,0,.155.292l0.2,0.272a1.191,1.191,0,0,1-.351.6l0.233,0.818a0.628,0.628,0,0,0,.428.331l0.644,0.292a4.473,4.473,0,0,1,.954,1.227l0.428,0.409a2.988,2.988,0,0,1,.585.779l0.623,0.915a1.264,1.264,0,0,0,.8.468v0.155l0.1,0.409,0.721,0.409,0.194,0.312,0.565,0.565-0.468.058-0.564-.058-0.351.1h-0.6l0.1,0.312,0.2-.059,0.564,0.156,0.194,0.214h0.565l0.1,0.467,0.312,0.351,0.351,0.467c0.1,0.168-.136.422-0.721,0.759l-0.312.156-0.312.253a0.4,0.4,0,0,1-.389,0l-0.468-.175c-0.13-.039-0.208.033-0.233,0.214l-0.02.292,0.194-.253,0.2,0.058,0.369,0.214a0.179,0.179,0,0,0,.2.078l0.214-.078,0.6-.2h0.468l0.175,0.078,0.429,0.078,0.292,0.078,0.117,0.233a0.334,0.334,0,0,1-.039.448l-0.117.876,0.039,0.214,0.215-.117c0.077-.039.148,0.045,0.214,0.253l0.039,0.312h-0.409l-0.059.467v0.253l-0.214.039,0.155,0.059a0.537,0.537,0,0,1,.254.156c0.1,0.1.038,0.292-.2,0.564a0.355,0.355,0,0,1-.059.448l-0.369.37-0.156.1c-0.13.376-.267,0.493-0.409,0.35-0.077-.091-0.116.02-0.116,0.331l0.019,0.487,0.039,0.312-0.351.409-0.02.155a0.641,0.641,0,0,0,.273.39c0.233,0.208.091,0.428-.429,0.662l0.253,0.117-0.039.409-0.408.039,0.136,0.506-0.344.158,0.448,0.312-0.156.564-0.351-.117,0.039,0.681-0.059.506-0.292.1-0.155.564-0.02.253-0.6.35-0.272.721-0.351-.214-0.156.1,0.409,0.662-0.1.37-0.623.39-0.564.1-0.312.721-0.2-.156-0.214.564-0.214.351-0.76.506-1.032.156-0.6.545-0.525-.214-0.448.467-0.156.312-0.564.545-0.253-.467-0.468-.487q-0.137-.215-0.116.272l0.059,0.526,0.1,0.351-0.506.059,0.1,0.194-0.663.409h-0.506l-0.253.292a3.389,3.389,0,0,1-1.13.506l-0.623.253-0.351.2-0.214.253-0.137.428a1.143,1.143,0,0,0-.078.6,0.535,0.535,0,0,0,.565.253l-0.117.35-0.856.059-0.156-.467-0.447-.156-0.156-.662,0.117-.662-0.409-.37-0.1-.253-0.37-.059v0.312l-0.447-.156-0.564.039-0.37.214-0.254-.409-0.194.2-1.227.759-0.6-.467-0.721-.1-0.312-1.363h-0.935l-0.293-.837-0.72-.837-2.182-.117,0.1,0.623v1.246l-1.869-.117-0.721-.312-0.429.409-1.129.292-0.429.409v1.246l-2.084.1-0.6-.623-0.935-.02,0.02-2.492-0.721-.1-0.739-.312-0.7-1.148-1.461.194-0.292-2.083,1.246-.915-0.078-1.869,0.215-.506-1.13-1.889-0.721-.818-0.408-.934-1.5.6-0.954-.428-0.136-1.247-0.818-.973-0.409.837-0.974.409-1.246-.429-1.11,1.09-1.538,1.928-1.246.117-0.856-.448-3.116.175-0.448.662-0.817-.428-0.429.272H304.5l-0.838-.429-0.817-.214-0.838-.74-2.259-.429-0.409-.409-1.558-.428-1.032-.74-0.409-.623-2.8.058-0.682-.564-1.655-.428L290.1,207.5l-0.682-2.083,1.11-.545,0.137-.409-0.954-.7-0.273-1.382-1.09-.565-0.409-.681-1.11-.292-0.662-1.168L285.2,198.9l-2.181-3.1-1.188.059-0.9-.1,0.02-.623-0.564-.428,0.02-1.032-0.623-.409-0.409-.564-1.109.136-0.409-.7-0.682-.35,0.272-.545,0.974-.136-0.272-1.168,0.623-.273,0.564-.623,0.838-.195,0.331,0.623,1.6-1.168,0.7-.682,1.382-.409,0.7-1.227,1.3-.681,0.37-.9,0.253-1.246,0.409-.506-0.915-2.609-1.753-1.771,0.838-1.032,1.363-.1,1.013,0.837,0.428-.72-1.129-1.032V175.2l0.428-.428,0.215-2.589,2.395,0.233,1.344-.6v-0.837l-0.506-.312,0.117-1.129,1.246-.409-0.1-1.051,0.1-.6,0.331-.428,0.817,0.02,0.818,1.655,1.09,0.974,2.084,0.292,0.409,0.7h0.817l1.247,1.129-0.021,1.227,0.546,0.7-0.272,1.11,0.682,1.11,4.264,1.4,2.064,0.019,1.11,0.292,0.545,0.545,0.546,1.811,2.336,0.7,2.629,0.312,3.6-1.227,1.363,0.7,1.928,0.7,3.6,0.175,2.221-1.636,1.654-.681,1.247-.273,1.519-.117,0.564-1.519,1.675-1.227V174.7l-0.545-1.246,0.155-.974,1.11,0.156,0.409,0.545,0.954,0.019,1.129-1.246,0.273-1.519,1.811-.117-0.136-1.655,0.564-.682,1.246-.136,0.137-1.382,1.246-.253,0.409,0.409h0.837V165.8l-0.682-1.11-1.928-1.129h-1.363l-1.4,1.09-0.817-.156-1.11.409-0.408-.545,0.447-4.556,1.655,0.292,1.246-1.11-0.116-1.519,0.974-1.091-0.117-2.9-0.409-1.519-1.246-.02,0.429-1.927,1.809-1.224h0Z"/>
    <path id="Kirghizia" class="cls-6" d="M271.737,187.484l0.157-1.11,0.213-.272-0.272-.545,0.214-.974,1.792,0.078,0.623,0.642,1.168-.077-0.408-1.032,0.564-.818h1.032l0.9,0.428,1.168-.058,1.87-.331,1.928,0.078,1.109,0.7,1.87,0.019,0.9,0.214-0.371.9-1.3.681-0.7,1.227-1.383.409-0.7.681-1.6,1.168-0.331-.622-0.837.194-0.564.623-0.624.273,0.273,1.168-0.974.136-0.272.546-1.52.272-0.837-.292-1.519.273-0.817-.487-1.111.117-0.623-.351v-0.486l1.675-.39,0.623-.409,2.766-.681,0.272-.545-0.6-.41-1.383-.5-1.383-.079Z"/>
    <path id="CY" class="cls-1" d="M215.43,204.035c0.272,0.272.312,0.441,0.117,0.506l-0.936.312c0.078,0.208-.058.376-0.408,0.506l-0.857.2a0.479,0.479,0,0,1-.564-0.292l-0.078-.6-0.02-.312,0.2-.2a0.434,0.434,0,0,1,.408-0.117l0.312,0.1,0.409-.506,0.468,0.02a1.9,1.9,0,0,0,.76-0.117l0.915-.506-0.312.6-0.409.409h0Z"/>
    <path id="QA" class="cls-1" d="M247.02,221.532l-0.292.72,0.2,0.409-0.487.72-0.662.156-0.467-.467,0.389-.506-0.408-1.032a0.929,0.929,0,0,0,.292-0.818,0.557,0.557,0,0,1,.312-0.545l0.312-.078,0.6,0.721,0.212,0.72h0Z"/>
    <path id="KZ" class="cls-7" d="M277.631,161.951l1.149,0.312-0.02.935,1.344,1.674h0.817l0.526-.72,0.837,0.214,1.538,0.117,0.526-.506,2.083,0.117,1.947,2.2,0.6,0.818,2.181-.389,1.46,0.311-0.331.429-0.1.6,0.1,1.051-1.246.409-0.116,1.129,0.506,0.312V171.8l-1.344.6-2.395-.234-0.215,2.59-0.428.428v1.032l1.129,1.032-0.429.72-1.013-.837-1.362.1-0.838,1.032,1.753,1.772,0.915,2.609-0.409.506-0.253,1.246-0.9-.214-1.869-.02-1.11-.7-1.928-.078-1.869.331-1.169.059-0.9-.429h-1.032l-0.564.818,0.408,1.032-1.168.078-0.623-.643-1.792-.078-0.214.973,0.272,0.545-0.214.272-0.7-.136-1.519,1.013-0.623.973-1.032.137-2.084-.02-1.3-1.46-0.818-1.811h-0.6l-0.954-1.733-1.188.331-1.577.195-0.974.409-1.947-.156-3.973-4.3-5.473,2.083,1.4,7.749-0.974.273-1.091-1.6-1.3-.429-1.109.331-0.7.623-0.176,1.168-0.369-.623-0.2-.623,0.078-.272a0.422,0.422,0,0,1,.194-0.292l0.117-.273a0.984,0.984,0,0,0-.059-0.35,1.369,1.369,0,0,0-.486-0.234,2.065,2.065,0,0,1-.7-0.37,1.147,1.147,0,0,0-.6-0.292l-0.37-.078-0.468-.02a0.633,0.633,0,0,1-.116-0.467l0.038-.37-0.486-1.305-0.662-.525-0.214.409a1.933,1.933,0,0,1-.721-0.584,0.37,0.37,0,0,1-.078-0.467l0.194-.156,0.662,0.234,0.312,0.156,0.624,0.214,0.214-.253-0.507-.584a0.694,0.694,0,0,1,.02-0.623l0.312-.7a0.241,0.241,0,0,1,.351-0.156l0.215,0.156,0.876-.078,0.721,0.272,0.584-.039-0.506-.37-0.682-.39,0.272-.253,0.155-.565a0.248,0.248,0,0,0-.1-0.214l-0.1-.1,0.214-.564,0.059-.37-0.02-.72-0.6-.993-0.525-.175-0.565.1-0.058.409-0.624-.058a1.171,1.171,0,0,0-1.266-.506l-0.759.525-0.643.7-0.409.564-0.487.156h-0.039l-1.3-.272,0.409-.818-0.39-.9-1.732-.292-1.441-1.266V174.78l0.487-.136,0.077-.623-0.682-.273,0.078-1.869,0.623-.954h0.487l0.331,1.168,0.837-.059-0.136-1.869,0.428-.194,0.429-.974,0.468-.136,0.915-.74,0.9-.409L237.7,168.2l0.76-.487,1.3-.195,1.109,0.214,0.76,0.837-0.02.623,0.7,0.623,1.928-.389,0.838-.818,1.382,0.078,0.623-.487,1.11,0.02,0.468,0.682,0.682,0.35,0.623,0.02,0.351-.487,1.324-.331,0.408-.837-0.682-.974-1.227-.564-0.272-.409,0.837-.759-0.408-.954,0.351-.487,0.136-1.3-0.272-.7,0.429-.681h1.519l0.564-.467,2.2-.6,0.915-1.247,2.142-.467,1.032-.545,0.915-1.032,1.285-.39,0.818,0.312,1.032-.194,1.752,2.395,1.344,0.312,0.721-.506,1.032,0.526v0.935l1.441,0.117,1.148-.818,0.331-1.148,0.721,0.02,0.214-.837,1.246,0.428-0.02.721,1.247,1.148,0.817-.1,2.266,2.607h0Z"/>
    <path id="SI" class="cls-1" d="M182.062,184.135l0.273-.546-1.09-.778,0.058-.955,1.11,0.351,0.428-.409,0.682-.058,0.76-.76,1.246-.058,0.681,0.759-1.441.954-0.019.623-0.545.137-0.351.409H182.88Z"/>
    <path id="SK" class="cls-1" d="M192.887,175.3h0.837l0.409,0.838,0.662,0.116L194.6,177.52l-1.247.545-0.623-.623-0.682.759-0.623.059-0.973.545-1.032.331-2.493-.234-0.76-.486-0.272-1.032,0.487-.409,0.973,0.078,0.76-.487v-0.759l0.838-.331,1.46,0.078,0.331,0.564,1.519-.195Z"/>
    <path id="SY" class="cls-1" d="M224.241,200.256l0.993-.6,1.3-.254,1.91-.038,0.1,1.031-1.557,1.344,0.409,0.837-0.233,2.784-3.019,1.948-0.526.505-1.772.507-1.149.934-1.772-.116-0.292-.935,0.428-1.5,0.624-.526,0.233-.876-0.838-.623-0.973.039-0.408-1.344,0.1-.7,1.246-.116,0.429-.779L219.216,201l0.682-.35,0.662,0.525,1.675-.934Z"/>
    <path id="SA" class="cls-1" d="M241.342,216.994l0.194,1.032,1.344,0.7,0.721,0.818-0.2.72,0.818,1.032h0.623l0.429,1.733,0.467,0.467,0.662-.156v0.253a0.7,0.7,0,0,0,.194.467l-0.136.9,1.13,1.363,5.491,0.662L254,228.131l-0.117,3-5.2,2.55-5.92,2.025-3.038,3.485L239,237.944l-2.883-1.266-1.362.409-0.507-.1-0.525.818-0.214,1.246-0.565-.9-0.564-.72-1.441-2.4-1.44-2.414a1.562,1.562,0,0,0-.877-0.409l-0.661-.1-1.247-1.324-0.272-1.285-0.136-1.071a5.271,5.271,0,0,0-1.149-2.453,1.99,1.99,0,0,0-1.032-.565l-0.506-.039-0.409-.409-0.721-1.538a6.067,6.067,0,0,0-1.44-1.538,3.475,3.475,0,0,1-.779-1.266l-0.564-1.188-1.344-.721a2.672,2.672,0,0,1-.409-1.733,9.409,9.409,0,0,0,.039-1.479l2.239-.078,0.935-1.343h1.246l0.526-1.441-0.292-1.032L222.028,211l0.837-.72,1.344-.409L227.324,210l6.485,4.809,3.622-.175,1.246,0.428,0.292,0.72,1.733,0.565,0.64,0.643h0Z"/>
    <path id="SM" class="cls-1" d="M178.245,185.526l0.384-.161,0.385,0.161,0.161,0.385-0.161.384-0.385.161-0.384-.161-0.161-.384Z"/>
    <path id="Russia" class="cls-8" d="M334.993,79.749l0.623-.195,0.721,0.1,1.013,0.312a0.93,0.93,0,0,1,.6.72L338.675,81l-1.227.6-1.636.506-1.227-.1-1.13.409,0.214-.72,0.409-.721v-0.6l0.214-.623h0.7Zm0.74-6.522,0.409,0.506-0.214.409a3.323,3.323,0,0,1-1.013.506l-0.818.1-0.623-.506-0.818-.409-0.194-.72-0.272.175a1.565,1.565,0,0,0-.448.642,0.472,0.472,0,0,0,.176.6l0.331,0.117,0.1,0.6,1.947,0.312v0.409l-1.227.312-0.6-.1-0.623.915-0.818.292-0.506.117-0.915-.624,0.1,0.506,1.012,0.935-0.817,1.11q-0.2.312-.682-0.214l-0.448-.6-1.109.1-1.324-.7a1.377,1.377,0,0,1-.468-0.448l-0.155-.272-0.7.194-0.117-1.012-0.194-.409,0.506-.506-0.312-.72,0.214-.721,2.24-.6,0.312,0.312,0.817-.214,0.915,0.311,0.312,0.721,0.72-.506-0.623-.818-1.013-.623,0.507-.72h1.324l0.817,0.312,2.979-.915V72l0.818-.1,0.8,0.506Zm2.863-1.733,2.337-.312,0.117,0.409,0.506-.1,0.409-.818,1.11,0.214H344.2l0.312,0.721-1.324.506v0.818l-0.935.409-1.227.2-1.227.039-1.013-.039-0.721-.312L337.251,71.9l0.312-.506,0.916,0.915L339,72.1l-0.408-.6h0Zm1.13,11.7,2.4-.272,1.343-.039c0.078,0.065.072,0.149-.02,0.253l-1.129.195-0.6.915,0.1,0.312,2.24-1.635,0.214,0.72-0.409.818,0.6,0.409-0.506.195-0.409-.195,0.2,0.818,0.915,0.409,0.623-.214,0.214-.915-0.214-.292-0.194-1.129,0.194-.915,0.312-.409,1.928-.272,0.682,0.1,1.422,0.7v0.525l-0.916-.214v0.915l2.143-.292v0.6l1.129-.6L353.3,84.5l1.344-.331,1.324,0.817-0.506-.72,0.915-1.129,1.6-.779,2.259-1.421,0.37,0.623,0.429-.7,1.519-.195,0.507,0.409,0.623-.312,0.467,0.1a3.021,3.021,0,0,1,.857.331,0.591,0.591,0,0,1,.408.623l0.1,0.818-0.116.6,0.817,0.409,0.194,0.409,0.721,0.02,0.312,0.6,0.6-.194,0.916,0.817-0.2-1.012,0.409-.6,2.161-.915,0.818-.7,0.564,0.039,0.857-.039,2.161-.487,0.506-.195-0.408-.623a0.163,0.163,0,0,1,.077-0.273l0.234-.039,1.227,0.429,0.409,0.72,0.292,0.1,0.915,0.019L380,81.855l0.623,0.37a1.881,1.881,0,0,0,1.032.214l0.312-.915a2.464,2.464,0,0,0-.409-1.324l-0.817-.525-0.6-.506-1.52-1.032,0.935-1.013,0.7-.1,1.227-.6,0.585,0.253,1.051-.039a1.83,1.83,0,0,1,1.013-.253l0.526,0.058,0.623-.292,0.915-.915,1.032,0.1-0.214-.292,0.915,0.1,0.935-.1,0.39,0.526,0.623-.214,0.915,0.02V74.964h0.623l0.818-.1,0.915,0.02,1.013,0.721,0.408,0.72,0.7,0.6-0.1-.506,0.525-.1,1.616,0.837,0.214,0.409,0.916,0.214V77.379l1.227,0.214,0.1,0.506,1.227,0.214-0.409-.409,1.83,0.312,0.2,0.506,0.525-.39,0.507-.214,0.721,0.72,0.506,0.312-0.02.312a1.087,1.087,0,0,0,.214.623,0.85,0.85,0,0,0,.7.409L405.977,81l-0.117.72,0.214-.039,0.6-.059a1.137,1.137,0,0,1,.915.72,0.651,0.651,0,0,0,.214-0.506,0.346,0.346,0,0,0-.351-0.273l-0.37-.039-0.6-.214,0.409-.195a1.427,1.427,0,0,0-.507-0.817l-0.564-.292-0.351-.136-0.214-.312,0.623-.292L407.2,79.48v-0.6l0.817,0.1,0.936-.292,1.012,0.409,1.324,0.312,0.585,0.214,1.051,0.428a0.734,0.734,0,0,0,.643.078l0.176-.175,0.409,0.312-0.429.915a2.432,2.432,0,0,0-.137.857l0.02,0.564,0.2,1.324-1.11-.214-0.409.1-0.525.312h-0.7l0.507,0.409,0.506,0.214,0.915,0.818a0.727,0.727,0,0,1,.272.759l-0.175.37,1.013,0.6h-0.526l0.292,0.156,0.429,0.467q0.2,0.41-.408.721l-0.916-.74,0.292,0.623-0.915.195-0.721-.1-0.8-.526-0.507-1.032-0.214.935-0.312.506-1.013-.312-0.623-.526-0.818-.312-0.6-.623-0.39-.818-0.817.195L405.1,87.228l-0.72.195-1.929-1.032a4.4,4.4,0,0,1-.194-1.324l-0.137-.935-0.155-.409-0.117,1.227-0.817-.623,0.312,1.032c0.064,0.208-.039.312-0.312,0.312l0.194,0.7,0.409,0.409,0.8,1.149a3.76,3.76,0,0,1,.194,2.434,5.139,5.139,0,0,1-.623,1.85v-0.72l-0.507.6-0.408.1a2.3,2.3,0,0,1-1.344.195,0.829,0.829,0,0,1-.585-0.39l-0.116-.331-0.156.1,0.546,0.837-1.013.6-0.272.448,0.467,0.058,0.623-.409,1.013-.39a0.431,0.431,0,0,1,.564.273l0.156,0.448,0.312-.312,0.1-.6,0.72,0.194,0.7,0.721-0.312.72,0.818-.195,0.7,1.032-0.312.6,1.031,0.117,0.818,0.6,0.74,0.117a2.829,2.829,0,0,1,1.129.409,0.672,0.672,0,0,1,.176.759l-0.2.467,0.292,0.72-0.6.039-1.227-.37a0.965,0.965,0,0,0-.974.487l-0.351.643-0.525.253a1.245,1.245,0,0,0-.624.643l-0.408,1.85a5.026,5.026,0,0,1-1.032,1.616l-0.02.818-0.623.915,0.1,0.818-0.721.817v1.421l-0.623.409-0.215.818,0.409,1.227-1.129-.312-0.1-.409-1.013-.623-0.818-.117-1.031.409-0.818,1.013,0.1,1.129-0.623.39-0.215.72h-0.292l-0.194-.915-0.409-.72,0.214-1.227-0.72.6,0.1,1.012-0.312,1.188a4.412,4.412,0,0,0-.116.856q0,0.506-.818-0.1a2.2,2.2,0,0,0-.6-0.72l-0.662.019a1.091,1.091,0,0,0-.564.468,1.321,1.321,0,0,0,.02.876l0.175,0.564,0.2,0.409,0.194,0.72a6.958,6.958,0,0,0,.39,1.635l0.214,0.916-0.39,1.927,0.623,1.032,0.1-.818,0.137,0.058a1.585,1.585,0,0,0,.682-0.253q0.447-.253.72,0.506l0.2,0.817,0.059,0.234a0.736,0.736,0,0,0,.351.39,0.756,0.756,0,0,1,.389.72l0.409,0.817,0.76,0.059q0.408,0,.76,1.188l0.1,0.506,0.312,0.6-0.721.1-0.6-.6-0.214-.721-0.2.409,0.1,0.72-0.525.195,0.721,0.623,0.1,1.012,0.292,1.227,0.507,0.72,0.292,0.72-0.409.915h-0.915l-0.525.506-0.2.7,0.39,0.623-0.312.506,0.623,0.506-0.429.623-0.389.078a0.54,0.54,0,0,0-.331.623,3.338,3.338,0,0,0,.72,1.538l0.292,0.545a2.155,2.155,0,0,1,.293.993,2.848,2.848,0,0,1-.215,1.129l-0.408,1.519-0.02,1.44-0.39-.525-0.818-.818-2.727-4.42-0.292-.817-1.635-1.344-0.9-1.947-0.915-1.324-0.506-.934-1.11-1.324-0.39-2.044-0.155-.584a1.527,1.527,0,0,1,.37-0.954,0.674,0.674,0,0,0,.233-0.72l-0.233-.1-0.293-.818-0.915-.817,0.351-.39,0.8,0.02-0.1-.526,0.117-.7,0.623-.312,0.214-1.324,0.74-1.246,0.312-.389-0.312-1.227,0.331-.818-0.1-1.441a1.35,1.35,0,0,0,.525-1.012l-0.253-.467-0.155-.253,0.312-1.109,0.817-.915,0.935-.195V111.1l-0.408-.935-0.507-.818,0.526-.195L388,108.526l-0.194-.915-0.39-.623,0.1-.331a0.824,0.824,0,0,1,.312-0.467l1.013-.1,0.117-.623-0.721.409a2.661,2.661,0,0,1-1.227-.526q-0.176-.194-0.526.292l-0.292.525,0.1,0.6-0.507.506,0.176,0.331a3.175,3.175,0,0,0,.623.7,1.217,1.217,0,0,1,.506,1.129l0.292,0.721-0.506-.312-0.7-.311-0.525.6-0.1,1.032,0.078,0.351a1.405,1.405,0,0,1,0,.662,1.156,1.156,0,0,1-.312.6l-0.409,1.032-0.507-.409-1.323-.837a0.96,0.96,0,0,1-.332-0.974l0.137-.759-0.506-.117a0.358,0.358,0,0,1-.215-0.37l0.02-.545-0.1-1.013-0.721,1.713-0.2-.915-0.817.195-0.02.818-0.6.506-0.818.195,0.2,0.935-0.526.409-0.214,1.324-0.214.7,0.623,0.818-0.623,1.032-0.429,1.324,0.409,0.72-0.312.7,0.6,0.214,0.312-.311,1.129,0.214,0.2,0.818a10.588,10.588,0,0,1-1.441.818l-0.6.194-0.623.292a1.988,1.988,0,0,1-.312.817,1.422,1.422,0,0,1-1.285.156l-0.117.721-0.721.506a0.771,0.771,0,0,1-.7-0.623l0.078-.467a0.765,0.765,0,0,1,.546-0.233,0.858,0.858,0,0,0,.72-0.818l-0.935.506c-0.169.078-.266,0.032-0.292-0.136v-0.273l-1.44-.019-0.916-.526-0.623.059a0.769,0.769,0,0,0-.7.448,0.748,0.748,0,0,0,.1.72l-0.409.6-0.02.72-0.817-.311-0.507.506-0.817.195-0.507-.312-0.623-.214-0.408.506,0.915,0.331-0.312.7-0.818-.312-0.7-.623-0.506.311-1.032-.117-1.422.409a2.381,2.381,0,0,0-.954.779l-0.486.623L361.19,128l-0.253.915,0.137,0.662-0.409,1.227L360.7,131l-0.312,1.032,0.039,0.506-0.312.817-0.039.565-0.526.8-0.116.876-0.254.857a3.668,3.668,0,0,0-.019,1.188l-0.1.448-0.156.253-0.351.6a0.651,0.651,0,0,1-.428.409,0.33,0.33,0,0,0-.254.253l-0.1.272-0.156.448-0.467.448-0.254.409,0.448-.1a0.525,0.525,0,0,1,.409.156l0.506,0.019,0.565-.409,0.467-.058,0.448,0.525,0.194,0.175,0.272,0.331c0.065,0.143-.038.3-0.312,0.467l0.117,0.272a0.926,0.926,0,0,0,.39.39q0.468,0.214.467-.662l-0.1-.292-0.254-.059a0.405,0.405,0,0,1-.155-0.351v-0.272l0.1-.194,0.1-.059h0.429q0.449,0.059.136,0.409l0.254,0.253,0.409,0.117-0.254.6v0.409l0.409-.1,0.7,0.409c0.169,0.1.155,0.039-.039-0.194l0.253-.253,0.156-.72,0.408,0.817-0.155-1.071-0.253-.195v-0.564c0.013-.1.116-0.117,0.312-0.039l0.312,0.137,0.467-.137,0.312-.525,0.506,0.467,0.915,0.272,0.137,0.409,0.37,0.506,1.168,0.721,0.507,0.156,0.253,0.37-0.779.818,0.584-.253,0.487,0.156,0.155,0.7v0.467l0.507,0.564,0.8,0.156,0.117,0.37,0.194,0.312-0.272.759,0.156,0.721,0.039,0.915,0.155,1.071,0.253,0.409,0.292,1.441,0.351,0.409,0.137,1.11,0.312,0.214,0.312,0.662a0.6,0.6,0,0,0,.351.311l0.233,1.227,0.312,0.721a1.108,1.108,0,0,1,.1.72l0.039,0.6-0.409.876-0.564.6-0.156.564-0.312,1.168a2.777,2.777,0,0,0-.194.817l-0.137.76a1.409,1.409,0,0,0,.254.779,1.1,1.1,0,0,1-.156,1.012l-0.117.915-0.1.662-0.176.564a0.714,0.714,0,0,0-.058.487l0.058,0.584v0.467l-0.116.351-0.351.351a0.4,0.4,0,0,0-.137.448,1.772,1.772,0,0,1-.233,1.013l-0.409.993a1.2,1.2,0,0,0,.02.565l0.059,0.545c-0.026.182-.228,0.234-0.6,0.156l-0.1.253-0.429.253-0.194-.059-0.623.1-0.253-.253-0.6.059-0.351.194-0.116-.506-0.7-.429L365.3,172l-0.429.6-0.155.156,0.214,0.856,0.292,0.351-1.11-.156,0.156-2.336-1.227-2.083-0.254-1.655,0.838-.682,1.928-.272v-0.954l-0.662-1.674,0.137-1.519-0.117-2.064,0.564-1.11-0.545-2.336-0.409-.019-0.974.545-0.136.974-1.247.272-0.155,1.227-2.064.273-0.545-.974-1.246-.02-1.363-1.792-1.246-.564-2.2-.02-1.655-.837v-1.382l-3.291-2.94-1.362-1.791-0.955-.974-2.22-.156-0.409-.564-3.174.389L338.468,150l-0.429,1.928,1.246,0.02,0.409,1.519,0.117,2.9-0.974,1.09,0.116,1.519-1.246,1.11-1.655-.292-0.272-.7-1.11-.136-0.974.681-0.545-.973-1.655-.02-0.7.837,0.272,0.954-2.22.954-1.246.136-0.954.682-3.33.1-1.091-.974-4.42-.448-0.974,1.382-1.383-.156-1.519-1.109-0.39-.974-2.629-1.266-2.882-.993-0.838.409-0.292.973-0.818.545-0.019.954,1.928,1.538-0.156,1.246-1.09.136-1.267.545-2.336-.155-0.818-1.266-3.875-.156-1.246,1.09-0.7,1.09-0.818.137-0.7.545v0.837l-1.538.817-0.817-.019-1.461-.312-2.181.389-0.6-.817-1.947-2.2-2.084-.117-0.526.506-1.538-.117-0.837-.214-0.526.721h-0.817l-1.344-1.675,0.02-.935-1.149-.311-2.259-2.609-0.817.1-1.246-1.149,0.02-.72-1.247-.429-0.214.837-0.721-.02-0.331,1.149-1.148.817-1.441-.117v-0.935l-1.032-.525-0.72.506-1.344-.312-1.753-2.395-1.032.194-0.817-.312-1.285.39-0.916,1.032L258.3,158l-2.142.467-0.915,1.246-2.2.6-0.565.467h-1.519l-0.429.682,0.272,0.7-0.136,1.305-0.351.487,0.409,0.954-0.838.759,0.272,0.409,1.228,0.564,0.682,0.974-0.409.837-1.324.331-0.351.487-0.623-.019-0.682-.351-0.468-.682-1.109-.02-0.623.487-1.383-.078-0.838.818-1.928.39-0.7-.623,0.02-.623-0.759-.837-1.11-.214-1.3.194-0.76.487-0.974-.487-0.9.409-0.915.74L234.46,169l-0.429.974-0.428.194,0.136,1.87-0.837.058-0.331-1.168h-0.487l-0.623.954-0.077,1.869,0.682,0.273-0.078.623-0.487.136v0.545l1.441,1.266,1.733,0.292,0.389,0.9-0.408.817,1.3,0.272H236l0.058,0.468-0.643.233a1.5,1.5,0,0,1-.253.564,1.374,1.374,0,0,1-.39.331l-0.447.117-0.585-.117-0.428,1.4,0.02,0.935a1.574,1.574,0,0,1-.117,1.188,0.252,0.252,0,0,0,.078.409,0.518,0.518,0,0,0,.272.117l0.935,0.059q0.35,0.02.292,0.8l-0.175,1.129a1.486,1.486,0,0,0,.486,1.09l1.577,1.539a3.541,3.541,0,0,1,.662.837l-0.915.312-0.214.487h-0.545l-0.487-.351-0.194-.487-0.624-.214-1.031-.136-0.273-.623-1.031-.428-0.974-.078-0.624-.428-1.09-.545-0.487-.35-1.168.117-1.792-.214-0.428-.409-1.851.039-0.856.526-0.721-.428a3.564,3.564,0,0,0-.856-0.467l-0.877-.234a2.5,2.5,0,0,1-.837-0.448l-0.292-.272-1.246-.292a0.665,0.665,0,0,1-.429-0.506,0.841,0.841,0,0,0-.292-0.525l-0.37-.137-0.059.02,0.059-1.188,0.331,0.117,0.506-.214v-0.448a2.681,2.681,0,0,1,.215-0.973,0.6,0.6,0,0,1,.467-0.467l0.234,0.058a0.627,0.627,0,0,0-.409-0.506l-0.564-.351-0.351-.273,0.915-.311L219,179.657l-0.1-.506,0.37-.078a3.17,3.17,0,0,0,.759-0.331,1.318,1.318,0,0,0,.6-0.6,2.059,2.059,0,0,1-1.109.195l-0.429.059-0.623.214,0.156-.817,0.486-.273,1.11-.117,0.759-.487-0.194-1.11,0.078-1.227,0.623-.7-0.409-.818-1.441.059-0.486-.487-1.577.331-1.52-.779-1.655.195-0.9-.7-0.078-.623-0.467-.545-1.52-.233,0.487-1.363-0.468-.428-3.115-.156-0.487.331-0.623.136,0.156-.9-0.623-.623,0.077-.837,1.441-.195,0.292-.818L207.957,165l-0.468-.759-0.9-.272-0.545-.916-0.272-.759,0.214-.759-0.9-1.168-0.974-.078-0.955.331-0.837-.623-0.818-.156-0.623-.974-0.6-.35,0.214-.954-0.565-.214-0.272-.545,0.37-1.324-0.487-1.246-0.117-1.032,0.623-.818-0.019-1.032,0.428-.292,0.37-.409,1.3,0.078,0.623-.292,0.1-.526-2.473-.6,0.214-.935-0.059.02,0.448-.8,0.935-.935,0.526-1.227h0.428l1.247-2.687-0.507-.74-0.623-.312-0.916-.623v-1.344l-0.818-.837-0.1-.623-0.818-.74-0.1-2.687L199.23,134l-0.1-1.655,0.721-.623,0.02-1.246-1.441-1.032-0.2-1.558,0.624-.623-0.1-1.558,1.344-.623,0.467,0.214L201.2,125l0.1-.623,0.779-.039c0.506,0.013.76,0.1,0.76,0.272a0.521,0.521,0,0,1-.526.506l0.623,0.409,1.012,1.246-0.194-.915,0.643-.1,1.811-.078,1.812,0.272,0.643,0.272,1.733,0.935,1.129,0.74,0.409,0.312,0.292-.019,0.818,0.136a1.233,1.233,0,0,1,.72.643l0.2,0.486,0.817,0.935-0.039,1.383a2,2,0,0,1-.72,1.693,7,7,0,0,1-2.883.468l-1.168-.214-0.468-.214-2.551-.331-1.733-.954-1.031-.02-0.721-.506-0.2-.312-1.441-.02,1.441,0.623,0.409,0.312-1.46.7,0.721,0.214,1.032-.292,0.507,0.214,0.194,0.817,1.13,0.234,0.292,0.1a1.388,1.388,0,0,1,.525.409l0.6,0.837-0.312.6,0.507,0.526-0.02,1.129-0.117.312,1.13,0.623,0.506,0.214,0.6,0.721,1.13,0.117,0.506,0.214,0.526-.6,0.915,0.214,0.117-.409-0.507-.721-0.915-.117-0.214-.525a0.272,0.272,0,0,0-.039-0.234,0.856,0.856,0,0,0-.565-0.39,2.516,2.516,0,0,1-.72-0.35l-0.2-.175,1.344-.487,1.13,0.526,0.564,0.428a0.8,0.8,0,0,0,.856.195l0.936-.6,1.109,0.331-0.6-.935,0.02-.506-0.818-.526-0.058-.428a0.425,0.425,0,0,1,.175-0.487l0.818-.37a1.54,1.54,0,0,0,.739-0.74l0.156-.779a0.4,0.4,0,0,1,.467-0.312l1.733,0.156,0.8,1.013,0.72,0.623-0.331-.7a1.4,1.4,0,0,1-.175-0.935,1.512,1.512,0,0,0,.02-1.129,4.357,4.357,0,0,1-1.207-1.032,1.523,1.523,0,0,1-.312-0.915,4.5,4.5,0,0,0-.078-0.915,4.606,4.606,0,0,0-.37-0.857l-0.233-.389-1.11-.818,0.409-.1,0.37,0.253a1.728,1.728,0,0,0,.739.272l0.935-.233,1.013-.156,1.422,0.409v0.312l0.1,0.039,0.312,0.272,0.486,0.682c0.156,0.3.124,0.448-.1,0.448l-0.7-.214a0.73,0.73,0,0,0-.721.1l-0.506.6-0.176.525a0.965,0.965,0,0,0,.448.6,10.774,10.774,0,0,0,1.538.935l0.409-.194,0.194-.039,0.507,0.039,0.817,0.02-0.292-.623,0.214-1.129,0.351-.584,0.272-.214L224,127.4a0.832,0.832,0,0,1,.564-0.545l0.565-.253,2.765-1.305,0.623,0.117V125l2.162-2.122,0.428-.1,0.8-.1c0.194,0,.149.065-0.137,0.195l-0.9.409a1,1,0,0,0-.448.565l-0.058.35,0.292,1.013-0.662.214-0.176.915,0.916,0.1,1.246-.8-0.6-.72,0.72-.916,0.8,0.059a4.577,4.577,0,0,1,1.344.272l0.623,0.078,0.1-.175-0.507-.312-0.312-.312,0.409-.175,1.032-.1a1.3,1.3,0,0,0,.974-0.312l0.351-.39,0.408,0.292,0.059,0.467a0.511,0.511,0,0,0,.448.467l0.6-.039a0.724,0.724,0,0,0,.214-0.662,1.915,1.915,0,0,0-.155-0.876l-0.233-.565a1.515,1.515,0,0,1,.077-0.72l0.137-.409,0.721,0.117-0.2-.6,0.76,0.156,1.266,0.37,0.584-.7,2.064,0.624,0.623,0.642,3,0.429,1.558,0.973q0.507,0.935.721,0.526a2.206,2.206,0,0,0-.292-1.538l-0.39-.935a3.181,3.181,0,0,1-1.013-.915,2.374,2.374,0,0,0-.974-0.74l-0.447-.1-0.526.487a1.509,1.509,0,0,1-.39-0.818l-0.077-1.227a0.392,0.392,0,0,1,.37-0.35l0.35-.039-0.7-1.246-0.312-.312c-0.22-.195-0.356-0.227-0.408-0.1-0.091.26-.13,0.084-0.117-0.525a0.937,0.937,0,0,1,.351-0.915l0.915-.292,0.429,0.078a0.5,0.5,0,0,0,.506-0.467,2.908,2.908,0,0,0-.059-0.993l-0.136-.448a3.066,3.066,0,0,1-.272-1.421l0.175-1.227,0.156-.6,0.643,0.253,0.194,0.273,0.565-.214,0.564,0.117,1.947,0.1,0.915,1.129-0.214,2.745,0.272,0.175,0.643,0.253q0.527,0.1,1.032,1.928l-0.526.312,0.624,0.312v0.7l0.292,0.935,0.817,1.013,0.915,1.538,0.818,0.214,0.116,0.409-0.292.39a0.876,0.876,0,0,0-.233.623l0.233,0.526a1.5,1.5,0,0,1,.176.6,1.166,1.166,0,0,1-.818.818l-0.312,1.11,0.1,0.817-0.7,1.129a5.511,5.511,0,0,1-1.636-.409c-0.13-.091-0.1,0,0.1.272l0.312,0.448a0.92,0.92,0,0,1-.623.292l-0.682-.156-0.448-.156,0.721,0.935,0.468-.078,0.759-.234a1.119,1.119,0,0,1,.915,0l0.721,0.506,0.312-.6h0.292a1.548,1.548,0,0,0,1.13-.409,6.846,6.846,0,0,0,.525-1.831l0.117-.312,0.584-.915a0.847,0.847,0,0,0,.253-0.818l-0.233-.214-0.409-.818-0.116-1.227,0.253-.526,0.468-.584a2.31,2.31,0,0,0,.817-0.623l1.538,0.721,1.324,1.44,0.2,1.519,0.72,0.272,1.637,0.292,1.636,0.058-0.721-.194-0.721-.526-1.519-.195-1.733-2.862-1.636-1.227-1.227-.214-1.948,1.129-1.227-.312-0.1-1.636-0.818-1.227,0.935-1.129-1.324-1.538-1.129-.817-0.1-1.421,1.032-1.324a1.5,1.5,0,0,0,.175-1.207l-0.584-.525,0.312-.935,1.013,0.526,0.507,0.6-0.215,1.733-0.194.409,0.1,1.032,2.766,0.818,1.11,0.506,0.817-.292,0.721,0.506,0.6-.1-0.915-1.538-0.506-.1-0.409.915-1.422-.623-0.506.078a2.362,2.362,0,0,1-1.032-.175,1.384,1.384,0,0,1-.682-0.623l-0.137-.409,0.215-.389,0.506-.623a1.016,1.016,0,0,1,.721-0.156l0.817,0.156a1.7,1.7,0,0,1,.643.389,1.04,1.04,0,0,0,.585.331q0.408,0-1.032-1.733l0.721,0.1-0.1-.6-1.032-.312,0.409-.487q0.681-.312,2.142.584a19.33,19.33,0,0,0,2.551,1.227l0.312,0.526,2.044-.818h0.623l-0.116.915-0.409.915-0.194,1.032,0.292,1.012,0.721,1.032,1.323,0.506,0.409,0.915,0.915,0.409,0.409-.6a3.219,3.219,0,0,1-1.324-.817l-0.506-.818v-0.623l0.312-.818a3.355,3.355,0,0,0-.916-1.635l-0.506-.409,0.194-.564a1.022,1.022,0,0,0-.194-0.954,0.859,0.859,0,0,0-.915-0.156l-0.526.253v-0.409l-1.635-.312-1.11-.506,0.1-.312-0.2-.623-0.623-.292-0.409-.624,0.409-.194-0.6-.409,0.312-.935,3.058-1.11,0.6-.312,0.817,0.312-0.1-.6,0.915-.817h0.935l0.292,0.817-0.818.916,0.526,0.506,0.1-.6,1.324-1.227-0.312-.915-1.013-.526L268,99.844l-1.227-.195-0.8-1.947,0.6-.409,0.312-.409,1.13-.506-0.409-.6,1.013-1.032-0.194-.409h1.227l1.928-.389-0.7-.428,1.83-.8,0.1-.721,1.344-.6,1.422-.915v1.207l1.129-.915,0.721,0.721,0.817-.721,0.2,0.623,0.506-.818,1.539,0.312-0.818-.818-0.817-.506-0.409-.818,1.13-.409,1.732-.409,0.312,0.506,0.915-.195,0.215-1.032-0.818.409-0.623-.506-0.408-.214V86.486l-0.507-.506,0.623-1.519,0.409-.312a2.309,2.309,0,0,1,.1-1.129,1.017,1.017,0,0,1,.662-0.564l0.506-.1a0.417,0.417,0,0,0,.233.428l0.39,0.078,0.117,0.1,0.077,0.117-0.214.564a0.628,0.628,0,0,0,.137.545,0.434,0.434,0,0,0,.486.117h0.1a0.293,0.293,0,0,1,0,.292,0.287,0.287,0,0,1-.272.136l-0.331-.02a0.188,0.188,0,0,1-.1.195l0.156,0.117,0.059,0.195a0.346,0.346,0,0,0,.389.1l0.117-.078c0.091-.013.123-0.052,0.1-0.117h0.194c-0.025.156-.007,0.234,0.059,0.234l0.175,0.02,0.487-.059,0.467-.058,0.234,0.233a0.287,0.287,0,0,1,.059.292l-0.2,1.129,0.7-.818,0.214-.623,2.648-1.109,0.935-.195,0.916,0.1,1.324-.506,0.915-.506,0.721,0.194,0.312,0.506,0.408,0.409,0.409-.506,0.623,0.194,1.013,0.429q0.507,0.312.39,1.733l-1.422.312-1.032-.117,0.936,0.818,0.6,0.312,0.214-.506,0.7,0.506-0.1.312,0.507,0.72v0.916c0,0.182-.2.311-0.6,0.389a0.68,0.68,0,0,0-.623.331,3.018,3.018,0,0,1-.408,1.207,2.574,2.574,0,0,1-1.13.623,0.66,0.66,0,0,0-.409.214l-0.194.195,0.7,0.1-0.507.506-1.227.623-0.506.7L291.2,95.811l-1.013.1,0.137,0.234,0.37,0.37q0.311,0.214-.409,1.227l-0.721,1.227,0.623-.409,0.507,0.214,0.506-.818,1.032,0.1L291.7,96.921l0.408-.409,1.851-.506,0.312-.506,1.07-.175a7.492,7.492,0,0,0,1.169-.331,1.439,1.439,0,0,0,.721-0.526,0.564,0.564,0,0,0,.1-0.292q-0.291-.408-0.6-0.1a2.985,2.985,0,0,1-.974.467l-0.76.234-0.077-.409a1.167,1.167,0,0,1,.077-0.7,1.309,1.309,0,0,1,1.324-.623l0.429-.1-0.02-.1,0.312-.175,0.7-.02a3.263,3.263,0,0,1,.915.506l0.02-.623,0.2-.7,1.324,0.915v0.721l0.312,0.6L300.8,95.4l0.428-.7a0.5,0.5,0,0,0-.02-0.487l-0.389-.643c-0.13-.247-0.1-0.376.1-0.389l0.312,0.078,1.11-.6,0.935-.1a0.816,0.816,0,0,0,.721-0.214l0.194-.292,0.6-.312,1.343-.409,0.916,0.506-0.078.41a0.752,0.752,0,0,0,.155.623q0.312,0.312,2.551-.6l1.032-.721,0.7,0.1a1.776,1.776,0,0,0,1.344-.7q0.1-.408-1.44-0.526l-0.2-.506a1.833,1.833,0,0,0,1.11-.721q0.215-.408-0.6-0.1v-0.72l0.72-.6,0.721,0.311,0.6,0.1h0.312l0.818,0.409,0.506-.409,0.721-.409,0.7,0.214,0.312-.1,0.623-.117,1.228,0.019,0.8,0.292L320,88.489l-1.013.935-0.214.6-0.2.312-1.343.915,0.116,0.409-0.116.6,1.538,1.129-0.623-.72-0.2-.6,0.818-.623,0.506,0.409,0.39,0.02,0.838,0.195a2.3,2.3,0,0,1,.817.409l0.506-.1-0.408-.506,1.636,0.6-0.6.1,0.194,0.526,0.721,0.292,0.351,0.059,0.564,0.059,0.429,0.35a2.77,2.77,0,0,0,.9.662,1.775,1.775,0,0,0,1.207.117,1.726,1.726,0,0,0,.74-0.409,0.276,0.276,0,0,0-.02-0.428l-0.486-.487a3.505,3.505,0,0,1-.429-0.974,3.27,3.27,0,0,1-.2-0.876l-0.038-.74a0.511,0.511,0,0,1,.253-0.584q0.408-.1.721,1.013l1.109,0.935,1.228-.623h0.506L331.142,92l0.507-.409-1.013-1.032,0.292-.6,1.129-.1,0.409,0.1,0.6,0.312,0.526-.214,0.506-.1,0.721,0.409,0.915,0.214-0.214-.72a2.283,2.283,0,0,0,.623-1.324,0.527,0.527,0,0,0-.331-0.312l-0.272-.1,0.194-.214a1.568,1.568,0,0,0,.1-0.915c-0.039-.376-0.272-0.39-0.7-0.039l-0.623.643L334,86.487l0.916-.721,0.525-.6,0.8,0.1a1.821,1.821,0,0,1-1.109-.721c-0.208-.259-0.214-0.409-0.02-0.448l0.837-.058a4.849,4.849,0,0,0,1.091-.409,5.241,5.241,0,0,1,1.149-.409l1.534-.019h0Zm-5.667,6.444,0.8-.389-0.39-.195,0.817-.409,0.623,0.409-1.012.195,0.6,0.389-1.032.214-0.409-.214h0Zm-1.617-8.975-0.312-.506,0.117-.6,0.817-.72,0.6,0.72-0.6,1.227-0.622-.117h0Zm-8.568-3.077-0.623-1.324,1.032,0.721,0.194,1.129-0.6-.526h0ZM321.09,88.316V87.81L321.6,88.1Zm-0.819,1.227,0.507,0.195,0.935-.1,0.915,0.1-0.1.409-0.817-.1,0.8,0.623-0.194.292-0.915-.1,0.292,0.506-0.6.1-0.818-.195-1.013-.506,0.409-1.032Zm0.214-.409,1.228-.409-0.117.506-0.506.214-0.605-.311h0Zm7.362-6.327-0.915-.409-0.915-.915,1.324,0.312Zm76.121,46.474v-0.623l1.655,0.331,0.409,0.623ZM393.725,116.7l0.078,0.721-0.643,1.6-0.176-.623-0.351-.623-0.155-.721,0.214-.7,0.76,0.136ZM375.751,79.749l-0.215-1.227,0.838-.312,0.662,0.195a1.85,1.85,0,0,1,.974.642,0.373,0.373,0,0,1-.117.6l-0.408.117-0.624.409-0.72-.117Zm12.365-8.45-0.525.1-0.1-.915-0.194-.818,0.935-1.129,0.915-.292,1.032,0.214,0.915-.506,1.013,0.312,0.409,1.032-1.344.7-0.818.817-1.519-.019-0.721.5h0Zm12.97,56.191,0.6,0.214,1.44,1.46-0.312.312-1.85-.935Zm-6.68,17.562L394,144.429l0.331-.506,0.292,0.623Zm-0.37.1,0.584,0.429-0.954,1.635-0.272-.312,0.214-.915Zm-25.179-4.984,0.1-.72,0.312-.214q0.332-.059.506,0.642l0.1,0.7,0.312,0.623,0.721,0.214,1.324,1.227-0.818.1,0.818,0.331-0.312.506,0.389,1.85,0.721,0.1,0.6,1.129,0.6,0.214,0.176,0.506,0.331,0.74,1.11,1.539,0.33,0.681,0.39,0.662a0.729,0.729,0,0,1,.1.818l0.233,0.214a0.939,0.939,0,0,0,.468.195,0.938,0.938,0,0,1,.525.292l0.507,0.448a4.162,4.162,0,0,1,.915,1.129l0.6,0.72a1.89,1.89,0,0,1-.721-0.525l-0.915-.818-1.227-.837a0.516,0.516,0,0,0-.6-0.1l-0.215.195-0.1.409,0.292,0.935,0.292,1.85,1.519,2.765,0.623,0.526,0.2,0.623,0.6,0.1,0.623,0.526,0.253,0.292,0.565,0.526a0.55,0.55,0,0,1,.1.817l-0.312-.506-1.227-.721-0.429.059a0.539,0.539,0,0,0-.194.448l0.1,1.733-1.323-2.064a2.541,2.541,0,0,1-.429-0.856l0.039-.467a0.732,0.732,0,0,0-.253-0.506L376.92,159l0.1-.72-0.39-1.032L376,156.621,375.4,156a4.241,4.241,0,0,1-.292-0.818l-0.117-.506-0.8-1.85-0.507-.428a1.124,1.124,0,0,1-.409-1.013l0.215-1.246a2.818,2.818,0,0,0-.39-1.324,1.442,1.442,0,0,0-.623-0.623l-0.312-.1-0.8-.623-0.409-1.129-0.408-.526-1.013-2.161-0.409-.214-0.194-.506,0.214-.506,0.721-.409-0.312-.409-1.11-1.148,0.408-.3h0Zm23.992,7.457,0.506,0.331,0.1,1.539-0.623-.1,0.019-1.772h0Zm-1.208,10.28,0.468-.72,0.059,0.351-0.272.37h-0.255Zm-3.291,4.654,0.351,0.117,0.059-.234c0.065-.143.149-0.188,0.253-0.136a0.4,0.4,0,0,1,.2.37,0.469,0.469,0,0,1-.253.409,3.067,3.067,0,0,0-.526.351l-0.253.195-0.253.759-0.779.876,0.059-.312,0.312-.351-0.175-.6-0.02-.02,0.447-.448,0.176-.506,0.292-.156,0.115-.31h0Zm-1.831,3.816-0.039-.506,0.156-.662,0.389,0.351-0.35,1.227-0.2.312Zm4.128-5.977-0.351,1.012-0.408.351,0.525-1.772,0.233-.37q0.254-.351.331-0.253l0.137,0.526-0.467.506h0Zm-31.273-20.444,0.721-.409-0.117.818Zm1.441-1.324,1.012,0.214,0.507,0.721-0.409.409-0.409-.214-0.408.409-0.409-.72ZM217.8,89.329l0.486,0.915-0.116.409-0.721.1-0.1.506,0.078,0.409,0.409,0.409q-0.332,1.012-.643.915l-0.468-.312-0.233-.214-0.214.6-1.208-.331,0.215-.7,0.915,0.02-0.7-.526,0.506-.312,0.624,0.234V90.925l0.116-.915,1.053-.681h0Zm-1.675,1.382L215,91.2l-0.02.721-0.624.8-0.584-1.129,0.7-.195-0.292-.506,0.429-.6,1.636-.389-0.117.818h0Zm5.881-2.336,0.915-.39,0.916,0.331,1.129,0.02q0.291,0.72-.116.915l-0.779.02-0.448-.136-0.837.292L221.68,89Zm-0.974,2.142,0.623-.7,0.409,0.195-1.032.506h0Zm1.3-3.973q1.52,0.546,1.733.253a1.984,1.984,0,0,1,.76-0.467l0.584-.234c0.064,0.48-.007.753-0.215,0.818a3.844,3.844,0,0,1-.7.448,4.724,4.724,0,0,1-1.986.409l0.02-.292,0.506-.506-0.915-.117,0.213-.312h0Zm7.3-2.3,0.817-.292,0.507,0.623-0.409.409-0.915-.74h0ZM223.7,85.26l1.013,0.117a2.218,2.218,0,0,1-.838.8,0.815,0.815,0,0,1-.564-0.136l-0.351-.195,0.74-.584h0ZM224,90.77l-0.409.409-1.227-.545,1.032-.272L224,90.77h0Zm1.773-1.383,1.44-.487-0.02.818-0.72.39,0.292,0.409-0.818.389-0.7-1.032,0.527-.487h0Zm-1.753.662,0.818,0.233,0.8,0.935-0.817-.02Zm6.387-2.414,0.486,0.721-0.721.6c0.26,0.337.253,0.578-.02,0.72a1.763,1.763,0,0,1-.72.117l-0.409-.039-0.312-.175c-0.221-.091-0.351-0.071-0.39.058a0.3,0.3,0,0,1-.39.195c-0.208-.052-0.279-0.259-0.214-0.623l0.253-.915,0.176-.312,1.227-.467,1.034,0.116h0Zm-2.551-.642a0.544,0.544,0,0,1,.117-0.643A2.393,2.393,0,0,1,229,85.961l-0.137.72a0.847,0.847,0,0,1-.817.7l-0.2-.389h0Zm5.238-1.4a0.618,0.618,0,0,1,.6.584l0.116,0.876a1.237,1.237,0,0,1-.662.935,1.635,1.635,0,0,1-1.4.253l-0.644-.292,0.215-1.012q0.818,0.02.837-.39L231.922,86q-0.156-.254.155-0.37Zm3.837,14.505a1.73,1.73,0,0,0,.467-0.214,0.718,0.718,0,0,1,.468-0.155,0.362,0.362,0,0,0,.409-0.409l0.817,0.039-0.175-.623,0.525-.9,1.032-.292,1.44,0.059,0.137,0.409a2.9,2.9,0,0,1,.117.915,2.866,2.866,0,0,1-.448,1.421l-0.915.175-1.772,1.071-1.032.272-0.954,1.09-1.246.9-1.129-.039-0.234,1.324-0.739.389v0.292l0.506,0.117-0.837.8-0.818-.019-0.837.487-0.312-.214,0.2,0.818,0.506,0.214-0.525.506-0.623.292,0.292,0.409-0.331.409,0.194,0.6a1.655,1.655,0,0,1-.233.915,1.263,1.263,0,0,1-.935.39l-0.1-.292a0.394,0.394,0,0,0-.506-0.136l-1.13.467-0.409-.312-0.622.292,0.116-.312,0.935-.584-0.7-.02-0.72-.117,0.214-.409,0.643-.584-0.312-.331,0.74-.39-0.1-.409,0.74-.682-0.2-.312,0.623-.389-0.8-.448-0.39-.721,0.623-.584,0.818,0.117,0.525-.292-0.409-.526,0.857-.993,0.72-.39,0.721-.078,0.137-.7,0.312-.409,0.837-.584,0.6,0.214,0.117-.389,0.525-.409,2.045-.233,0.117-.214,0.409-.29h0ZM220.1,91.724l0.312-.623,1.13,0.039,0.506-.312,0.1,0.72-1.13.487-0.916-.311h0Zm-1.734-.137,0.7,0.526-0.74,1.09Zm3.291,32.574,0.351-.156,0.662-.155,1.227,0.233q0.2,1.11-.116,1.11l-0.468-.156-0.233-.156-0.214.623-0.312.292-0.507-.1-0.506.1-0.312-.526,0.116-.506,0.312-.195-0.312-.117Zm9.62-6.445,0.6,0.526,0.818,0.117-0.215.409-0.428.506-1.013-.351,0.175,0.623-0.584-.428-0.623.39-1.227-.331-0.8-.545,1.13-.272-1.013-.136,0.214-.6-1.344.37-0.272-.72-0.312.292,0.078,0.506-0.721.1-0.292-.623-0.272-.935-0.273-.351a0.781,0.781,0,0,1-.214-0.584l0.312-.253,0.214-.039,0.721,0.02,0.215-.6,0.623-.175-0.1-.429-0.292-.506,0.233-.506-0.409-.331,0.117-.6,0.525-.078,0.507-.292,1.227,0.039,0.935-.078,0.7,0.019-0.117.721-0.6-.02,0.292,0.506-0.447.818,0.1,0.506-0.116.506,0.584,0.74-0.02.7,0.8,0.643-0.117.6,0.7,0.136h0Zm2.122,1.5-0.408.1-0.39-.429,1.032-.37,0.6,0.331-0.233.7H233.6Zm1.928-.506,1.812,0.857,0.506,0.331,0.585,0.74-0.623.272-0.176-.506-0.525-.117-0.215.389-0.389-.1-0.507-.74-1.11-.039-0.506-.312,0.623-.1-0.194-.506,0.312-.409,0.407,0.234h0Zm44.419-40.05,0.059,0.253a0.487,0.487,0,0,0,.467.253l1.013,0.1,0.272,0.175a0.925,0.925,0,0,1,.331.545,1.269,1.269,0,0,1-.038.759,0.682,0.682,0,0,1-.37.467l-1.228.312-0.292.409-0.408-.312-0.624.195-0.506.72-0.214,1.129-0.409-.526,0.02-1.421L277.2,80.682l0.409-.915-0.818-.721-0.39-.058c-0.233-.065-0.3-0.182-0.214-0.351l0.428-.409,0.293-.1,0.817,0.525,0.292,0.506,0.312-.818,1.421,0.315h0Zm-6.153,11,0.312,0.312-0.721.409-0.214-.409ZM270.42,76.887L270.966,77q0.311,0.214-.292.72l-0.721.292,0.1,0.312-1.83.915-1.032.312-0.506.506V79.555l-1.324.292-0.721-.1-0.194-.312,1.109-.292-0.6-.214,0.6-1.11,0.818-.117,0.351,0.1,0.584,0.019q0.291-.117,0-0.623l0.1-.506,1.013-.1,0.6,0.156,0.837,0.156,0.563-.019h0Zm2.395,0.429,1.013-.1,0.721,0.409,0.1,0.72,0.312,0.7,0.1,0.818-0.506.214q1.012,0.915.7,1.227a1.23,1.23,0,0,1-.662.253l-1.383.039-0.6.312-0.915-.623-0.721.214L270.245,81l-0.409-.117c0.078,0.752.013,1.1-.194,1.032l-0.721-.156-0.506-.058-0.409-.312-0.507.623-0.408-.409,0.408-.506a0.881,0.881,0,0,1,.721-0.409,1.661,1.661,0,0,0,.8,0l-0.6-.623,0.72-.818,0.6-.292,0.624,0.195-0.215-.409,1.441-.409,0.506,0.214,0.312,0.506,0.6-.1-0.1-.72-0.721-.312,0.622-.6h0Zm3.836,10.825-0.915.409-0.409.292-0.312-.1,1.13-2.044,0.817,0.214-0.311,1.227h0Zm-1.83,1.733,0.312,0.312-0.721.409-0.214-.409Zm2.357-1.83,0.6-.312,0.817,0.506-1.227.214Zm-1.636,1.83,1.733-.72c0.272,0.272.272,0.448,0,.525l-1.441.292ZM264.831,99.4l0.818-.409,0.818,0.623-1.032.1-0.6-.312h0Zm-0.019-1.266,0.817,0.1-0.6.312-0.213-.409h0ZM263.8,80.762l0.525-.39,1.947,0.1,0.2,0.311-2.045,1.11,0.214-.6-1.129-.214,0.293-.311h0Zm35.44,9.151,0.507,0.1,0.292,0.72-0.6.409-1.13.312-0.6-.409,0.409-.214-0.1-.506,1.228-.409h0Zm-38.108,8.45,0.409,0.818-1.13-.526Zm-0.117,2.551,0.312,0.6-0.1.623-0.506-.409-1.032-.214,0.525-.506L260.1,100.6l0.623-.506,0.292,0.817h0ZM259.4,98.655l0.507,0.818h-0.721l0.214-.818h0Zm-3.446,6.581-0.507.506-1.032-.117,0.623-.6,0.916,0.214h0Zm3.817,0.954-0.312.272a0.46,0.46,0,0,1-.721-0.175,0.926,0.926,0,0,1-.155-0.662q0.1-.506.682-0.331a0.858,0.858,0,0,1,.661.545A0.412,0.412,0,0,1,259.769,106.19Zm-10.477.993-0.214.624-1.636.272h-0.507l-0.39-.935,0.6-.292,0.117-.506,0.409-.195,0.6,0.214-0.1.817,0.6-.1,0.507,0.1h0Zm4.226-.195-0.409.6-0.525-.195-0.1-.623,1.032,0.214h0Zm13.417,4.732-0.1.6-0.506-.721Zm-0.41-.623L265.8,111l0.409-.312Zm-0.817.72-0.507-.72,0.6,0.1-0.1.623h0Zm0.311-.117,0.6,1.44-0.818-.915Zm-75.653,50.758q0.564-.681.564-0.487a2.156,2.156,0,0,1-.526,1.013V163.3l0.935-.6,2.123,0.331,0.409,1.032-0.409.409-3.466.195-0.974-.1a2.384,2.384,0,0,0,.759-0.351,0.941,0.941,0,0,0,.409-0.506c0.052-.169-0.033-0.2-0.253-0.1l-0.351.195,0.214-.623,0.566-.722h0Zm21.6,19.23q0.117,0.41.525,0.195l0.507-.1,0.721,0.312,0.506,0.409,0.1,0.37a0.475,0.475,0,0,0,.409.351,0.9,0.9,0,0,0,.72-0.409l0.6,0.1,0.215,1.012a0.778,0.778,0,0,1-1.032.214l-0.6-.059-0.214.156-0.916.409a0.678,0.678,0,0,1-.506.72,2.651,2.651,0,0,1-1.207.234q-0.741-.02-0.526-0.448a3.474,3.474,0,0,0,.292-1.519l-1.324-.02-0.506-.194,1.227-1.324,0.721,0.195-0.525-.7Z"/>
    <path id="Romania" class="cls-9" d="M202.294,186.418l-1.109.409-0.487.9-0.818.33-1.032-.272-1.811-.156-0.468-.7h-0.623l-0.818-.759-0.973-.293-0.468-1.3L193.006,184v-1.031l-0.624-.7,0.974-.623,0.02-1.032,0.7-1.091h0.681l0.351-.195,0.409-.759,0.078-.428,1.246-.117,0.409,0.136,0.545,0.429h0.837l0.624-.409,1.11,0.078,0.486-.35,0.76,0.077,0.408,0.974,0.741,0.487v0.895l0.35,0.7-0.506.623,0.623,0.818v0.759l0.682-.117,0.35,0.273,0.487,0.136,0.351-.331h0.545l0.234,0.37,0.116,0.974-0.311,1.012-0.818.506-0.409-.195-0.409.41,0.623,0.408v0.37l-0.915-.214L203,186.9Z"/>
    <path id="Korea" class="cls-10" d="M366.293,185.789l0.486,0.779a2.52,2.52,0,0,0,.409.643l0.6,0.72v1.539c-0.039.168,0.026,0.24,0.2,0.214l0.233-.078q0.232,0.02.233,0.525a0.626,0.626,0,0,0,.059.487l0.078,0.039,0.059,0.448-0.117.623-0.194.409-0.468-.312-0.351-.253-0.351-.039-0.272.078,0.468,0.214c0.207,0.078.188,0.228-.059,0.448l-0.312.35-0.078.175-0.078.292q-0.156.253-.506-0.409l-0.1.292-0.156.253a0.561,0.561,0,0,1-.272.565l-0.272-.02-0.116-.078-0.312.6-0.116-.35c-0.065.337-.162,0.435-0.292,0.292L364.346,194l-0.176-.078-0.194-.156,0.351-.136-0.137-.312-0.214.1,0.059-.195a0.871,0.871,0,0,0-.156-0.525,2.011,2.011,0,0,1-.39-0.857,0.4,0.4,0,0,1,.1-0.389,0.543,0.543,0,0,0,.214-0.39l-0.02-.35-0.194-.312-0.351-.467-0.292-.409-0.312-.6a1.209,1.209,0,0,1-.545-0.467c-0.091-.13-0.1-0.208-0.02-0.234l0.155-.019,0.565,0.253q0.115,0.059,0-.156l-0.2-.409a0.131,0.131,0,0,1,.078-0.175l0.136-.02,0.1-.312a0.616,0.616,0,0,0-.409-0.506l0.059-.214-0.409-.1h-0.253l-0.059-.253,0.39-1.168,1.889-1.266a0.886,0.886,0,0,0,.507.506l0.7,0.467,0.973,0.937h0Zm-0.974,10.9,0.447-.078,0.254,0.156a0.745,0.745,0,0,1-.507.6,0.24,0.24,0,0,1-.351-0.136l-0.116-.37c-0.038-.065.053-0.124,0.273-0.176h0Zm2.122-3.952a0.228,0.228,0,0,1-.059.312l-0.253.253q-0.1.193-.059-0.37l0.371-.195h0Zm-2.1,1.772-0.02.467-0.448-.117Z"/>
    <path id="PL" class="cls-1" d="M194.643,164.155l0.9,1.324-0.214.682,0.74,1.109v0.7l-0.565.818,0.078,0.759,0.6,0.759-0.078.759,0.409,0.837,0.409,0.351-0.35,1.032-0.76.409-0.214.818-0.487.9,0.059,0.9-0.37-.02-0.663-.117-0.409-.837h-0.837l-0.623.623-1.519.195-0.331-.565-1.46-.078-0.409-1.246-0.817-.078-0.9-.7-0.974.058-0.6-.409-0.623-.623-0.9.058-0.272-.272-0.078-.7-1.149-1.246v-1.168l-0.545-.974,0.35-2.278,0.526-.175a0.534,0.534,0,0,1,.526-0.681l0.564,0.117,0.253-.351,0.565-.662a3.571,3.571,0,0,1,1.46-.584,3.78,3.78,0,0,1,1.519-.194,0.584,0.584,0,0,1,.39.584V164.5l1.032-.292-0.292.234q-0.193.234,0.175,0.175l0.273-.039,0.974,0.1,3.466-.195,0.409-.409,0.758,0.079h0Z"/>
    <path id="PK" class="cls-1" d="M283.006,195.771l2.182,3.1,0.974,0.779,0.661,1.168-2.063.545-3.739-.175-0.564.818,0.974,1.109-0.02,1.383,2.2,1.674-0.428,2.492-0.993,1.5-0.974,3.038-1.4.409v1.519l-1.11.273-2.063.117-0.429.545v1.11l0.954,1.519,1.227,0.974,0.272,0.974,0.254,1.791-2.9-.156-0.623,1.168h-0.506a5.116,5.116,0,0,1-1.13-.487l-0.467-.74-0.312-.156-0.954-.117-0.623-.311-0.312-.506a4.369,4.369,0,0,0-.837-0.8l-0.623.078-0.39.234-1.344-.37a1.179,1.179,0,0,1-.817.409l-0.721.117-0.6-.1-1.13.429-0.817-.175-0.176.02-0.37-.37-0.058-.915,0.486-.74,1.6-.545,0.546-.35-0.331-.818-1.032-.156,0.058-.409,0.429-.974-0.759-.974-0.9-.214-0.682-.272-0.351-.37,1.267-.1,2.044-.428,1.032,0.136,0.526-.565h1.109l1.928-.7-0.272-.993,0.6-1.5,1.344-.35-0.059-.837,1.441-.759,0.817,0.389,0.117-2.22,1.188-1.285-0.974-.974,2.005-.915,0.2-2.667-0.877-1.382,0.936-.954,0.954-.2,0.778-.759,1.577-.74,0.974-.331,0.9,0.1,1.188-.062h0Z"/>
    <path id="OM" class="cls-1" d="M257.576,224.212a5.092,5.092,0,0,1,1.616.76,1.776,1.776,0,0,1,.545.759,1.941,1.941,0,0,0,1.285.876l-0.136,2.005-1.228,1.324v1.032l-0.409.214-0.72-.1-0.137.759-0.155,1.071q0,0.408-1.753,1.343l-0.1.817c-0.064.273-.643,0.584-1.732,0.935l-0.2,1.129-2.259.623-1.091.6-0.389-.681-1.013-.8,0.312-.526-1.324-2.687,5.2-2.55,0.117-3-0.916-1.148L252.9,225.2l0.623-1.227-0.292-.74,0.1-1.129,1.109-.117,0.156,0.389a2.133,2.133,0,0,0,1.051,1.246l1.93,0.586h0Zm-3.369-4.673,0.039,0.955-0.37.214-0.506-.39a1.278,1.278,0,0,1,.6-1.109c0.13-.039.207,0.071,0.233,0.33h0Z"/>
    <path id="AE" class="cls-1" d="M253.881,220.755l0.37-.214,0.2,1.5-1.11.117-0.1,1.129,0.293,0.74-0.624,1.227,0.2,1.771-5.491-.662L246.481,225l0.137-.9,0.409,0.2a2.185,2.185,0,0,0,1.635-.312l0.507,0.078,1.13,0.019a0.942,0.942,0,0,0,.72-0.448l0.1-.37,1.538-2.161,0.6-.117,0.116-.623,0.506,0.39h0Z"/>
    <path id="NL" class="cls-1" d="M170.193,167.22l0.524,0.195,0.291-.605,0.271,0.82-0.291.9,0.35,0.839-0.835.957-0.562,1.035,0.33,2.421-0.621-.488-0.465-1.171-1.592-.156-0.893.195-1.281-.234,0.311-.508,0.7-.1-0.5-.312,0.815-.723a11.718,11.718,0,0,0,.408-1.425,1.277,1.277,0,0,1,.562-0.684l0.252-.137-0.369.43-0.136.293,0.291,0.605-0.194.41,0.913,0.215,0.311-.625-0.718-.722,0.194-.43a1.443,1.443,0,0,1,.427-0.585A4.309,4.309,0,0,1,170.193,167.22Z"/>
    <path id="NP" class="cls-1" d="M299.711,211.736l2.259,0.429,0.838,0.739,0.817,0.215,0.838,0.428h1.714l0.116,2.356-1.791-.02-0.818-.272-1.247.389-0.973-.136-1.636-1.11-2.22.117-1.655-.7-1.363-1.129-1.52-.137-0.408-1.947,0.837-1.363,2.8-.058,0.408,0.623,1.032,0.74,1.558,0.428Z"/>
    <path id="Moldavia" class="cls-11" d="M205.35,179.727l0.331,0.837c-0.272.143-.552,0.279-0.837,0.409l-0.623.545-0.292,1.6-0.682.117v-0.759l-0.623-.818,0.506-.623-0.351-.7v-0.9l-0.74-.487-0.409-.974-0.759-.078,0.623-.545,1.3-.253,1.441,1.11,0.486,1.032,0.624,0.487h0Z"/>
    <path id="Mongolia" class="cls-12" d="M336.916,171.966l-1.129,1.246-0.954-.02-0.409-.545-1.111-.156-0.155.974,0.545,1.246v1.246l-1.675,1.227-0.564,1.518-1.519.117-1.247.273-1.655.681-2.22,1.636-3.6-.176-1.928-.7-1.363-.7-3.6,1.226-2.629-.311-2.337-.7-0.545-1.811-0.545-.545-1.11-.292-2.063-.02-4.265-1.4-0.682-1.11,0.273-1.11-0.546-.7,0.019-1.226-1.246-1.13h-0.817l-0.409-.7-2.084-.292-1.09-.974-0.818-1.654,1.538-.818v-0.837l0.7-.546,0.818-.136,0.7-1.09,1.246-1.091,3.875,0.156,0.818,1.266,2.337,0.156,1.265-.545,1.091-.137,0.156-1.246-1.927-1.538,0.019-.954,0.818-.545,0.292-.974,0.838-.409,2.881,0.994,2.629,1.265,0.39,0.973,1.518,1.11,1.383,0.156,0.974-1.382,4.42,0.447,1.091,0.974,3.33-.1,0.954-.681,1.246-.136,2.22-.954-0.273-.954,0.7-.838,1.656,0.02,0.545,0.974,0.973-.682,1.111,0.136,0.272,0.7-0.448,4.557L336,164.917l1.11-.408,0.818,0.156,1.4-1.091h1.363l1.928,1.13,0.682,1.109v0.818h-0.838l-0.408-.409-1.247.253-0.136,1.382-1.246.137-0.566.681L339,170.33l-1.811.117Z"/>
    <path id="Tajikistan" class="cls-13" d="M269.458,196.995l-0.059-.954,0.429-1.247-0.35-.973-1.578-1.246,0.292-.682,1.168-.623,0.7-.817-0.135-.76,0.486-.486,0.838-.273,0.408-.409,0.76,0.7,0.623,0.837-0.623.409-1.675.389v0.487l0.623,0.351,1.111-.117,0.817,0.486,1.519-.272,0.837,0.292,1.52-.273,0.681,0.351,0.409,0.7,1.11-.137,0.409,0.565L280.4,193.7l-0.019,1.032,0.564,0.429-0.019.622-0.974.331-0.545-.7h-1.441l-1.188.74-0.35.759-1.091-.136-0.136-1.81-0.9-.137-0.331-.7-1.247.623,0.2,1.11-1.032-.078-0.351.818Z"/>
    <path id="TM" class="cls-1" d="M258.853,190.418l0.078,0.7,0.876,0.974,1.109,0.7,1.714,0.351,1.383,1.4,2.2,0.214,0.954,1.732-1.031.818-1.11-.078-0.215,1.188-2.375,1.986,0.077,0.759-1.674.253-0.546-.623-1.44.058,0.078-1.246-0.273-.409-1.577-.643-0.623-.7h-0.623l-0.409-.545-1.032-.292-0.136-.273c-0.364-.208-0.733-0.421-1.11-0.642l-0.817.35-0.838-.564-1.246.059-0.76.623-1.168.272-1.616,1.85-1.052.292,0.059-.233,0.214-.351-0.312-.428,0.233-1.188-0.038-.194,0.369-.682-0.038-.623a1.539,1.539,0,0,0-.818-0.525,0.336,0.336,0,0,1-.272.155l-0.176-.331-0.058-.35v-0.117l0.1-.136,0.272-.059-0.058-.253a0.568,0.568,0,0,0,.37-0.409c0.025-.1-0.053-0.136-0.234-0.1l-0.272.078-0.409-.1,0.137,0.37-0.468.195a1.584,1.584,0,0,1-.39-0.8l-0.1-.817,0.059-.37,0.233-.662,0.137,0.37,0.311,0.058,0.059-.312,0.993-.194-0.077.623h0.214a3.931,3.931,0,0,0,.954-1.227,0.59,0.59,0,0,0-.214-0.331l-0.234-.195-0.662-.682-0.136-.467a0.793,0.793,0,0,0-.37-0.487l-0.448-.039-0.116.136-0.351.117a0.546,0.546,0,0,0-.39.331c-0.039.208-.02,0.3,0.059,0.272l-0.331.448,0.1,0.117a0.433,0.433,0,0,1,.1.312,2.48,2.48,0,0,0,.156.72l-0.312-.059-0.331-.623,0.175-1.168,0.7-.623,1.109-.331,1.306,0.428,1.09,1.6,0.974-.272,1.714,0.02-0.117-1.324,1.675-1.285,1.986,0.156,1.032,0.487-0.137.759L255,188.94l1.654,0.993,0.7-.545,1.5,1.03h0Z"/>
    <path id="TR" class="cls-1" d="M217.275,191.308l0.37,0.292,1.4,0.272,1.46,0.117,1.851-.312,0.974,0.1a3.272,3.272,0,0,0,1.908-.526,0.741,0.741,0,0,0,.39-0.72l2.453,0.136,0.409,0.721,0.9,0.117-0.071,1.286,1.59,1.109,0.038,1.46,0.565,0.564-0.215,1.655,1.091,0.623,0.292,0.993-1.753.2-4.4.02-1.3.253-0.993.6-2.006-.019-1.675.934-0.662-.525-0.682.351,0.253,0.779-0.428.779-1.246.117v-0.428a1.548,1.548,0,0,0,.72-1.013c0.078-.3.02-0.474-0.175-0.525h-0.331l-0.623.525a0.466,0.466,0,0,1-.507.1,0.451,0.451,0,0,0-.506.117,3.243,3.243,0,0,1-1.246.584l-1.636.351a1.915,1.915,0,0,1-1.228-.37,10.257,10.257,0,0,0-.935-0.662,2.164,2.164,0,0,0-1.051-.156l-0.682.078-0.1.409-0.525.721a3.267,3.267,0,0,1-1.324.312,2.757,2.757,0,0,1-1.149-.409l-0.7-.409-0.817.214a0.735,0.735,0,0,1-.526-0.117l-0.292-.194-0.408-.409,1.227-.214-1.227-.409-0.312-.506,0.2-.409-0.214-.72-0.818.117-0.506-.623,0.818-.818-0.935-.506,0.506-.837-0.916.117-0.214-.312,0.137-.448a3.646,3.646,0,0,1,.584-0.993,1.316,1.316,0,0,1,1.052-.428l0.8,0.02,1.636,0.1-0.1-.623,1.422-.214-0.818-.409,0.1-.6,1.538-.117,0.936,0.1,0.817-.506,1.636-.312,0.545-.429,0.779-.506q0.312-.1,1.636-0.721l1.344,0.1-0.214.312,1.032,0.195,0.915,0.311ZM202.982,191l0.8-.643a2.317,2.317,0,0,1,.39.935,0.772,0.772,0,0,0,.526.7l1.109,0.817-0.1.409-1.421-.195a0.532,0.532,0,0,0-.545.214l-0.39.6a1.113,1.113,0,0,1-1.11.312l-0.779-.059,0.526-.837,0.078-.817,0.429-.7-0.137-.9Z"/>
    <path id="UZ" class="cls-1" d="M268.179,191.843l-0.292.681,1.577,1.246,0.35,0.974-0.428,1.246,0.058,0.954h-1.11l-1.168-.428-0.954-1.733-2.2-.215-1.383-1.4-1.714-.35-1.11-.7-0.876-.973-0.078-.7-1.5-1.032-0.7.545-1.655-.993-0.331-.545,0.137-.759-1.032-.487-1.987-.156-1.675,1.285,0.118,1.324-1.714-.02-1.4-7.749,5.472-2.083,3.973,4.3,1.947,0.155,0.974-.408,1.578-.195,1.187-.331,0.954,1.733h0.6l0.818,1.811,1.3,1.46L268,188.318l1.032-.136,0.623-.974,1.52-1.012,0.7,0.136-0.156,1.11,0.973,0.35,1.383,0.079,1.383,0.506,0.6,0.409-0.272.545-2.766.681-0.623-.837-0.76-.7-0.409.409-0.837.273-0.486.487,0.136,0.759-0.7.818Z"/>
    <path id="Ukraine" class="cls-14" d="M211.147,181.592l-0.409.1-0.409-.311-0.817.1-0.7-.195,0.408-.623,1.324-.525-1.83.117-0.721.409-0.623.818-0.6-.1,0.194,0.72a3.155,3.155,0,0,1-.6,1.012l-0.429.467-0.233-.37h-0.545l-0.351.331-0.487-.137-0.351-.272,0.293-1.6,0.623-.545,0.837-.409-0.331-.837-0.623-.487-0.487-1.032-1.44-1.11-1.3.253-1.11.9-1.11-.078-0.623.409h-0.837l-0.545-.429-0.409-.136-1.246.117-0.351-.058-0.682-.564,0.2-1.266,0.37,0.019-0.059-.9,0.487-.9,0.214-.818,0.759-.409,0.351-1.032-0.409-.351-0.409-.837,0.078-.759,0.7-.467,1.441-.467,0.76,0.272,1.246-.058,0.974,0.486,1.519-.058,0.682,0.428,2.765,0.078,0.137-1.3,0.292-.487,0.546,0.078,0.622-.137,0.485-.33,3.115,0.156,0.468,0.428-0.486,1.363,1.519,0.233,0.468,0.545,0.077,0.623,0.9,0.7,1.655-.195,1.519,0.779,1.577-.331,0.486,0.487,1.441-.059,0.409,0.818-0.623.7-0.078,1.227L221,176.9l-0.759.487-1.11.117-0.486.273-0.156.818-0.584.136a0.769,0.769,0,0,0-.623.214l-0.1.195a3.625,3.625,0,0,0-1.13.6l-0.467.272-0.233.039-0.331.1a0.834,0.834,0,0,0-.487.311l-0.409.721c-0.168.272-.272,0.305-0.312,0.1a0.454,0.454,0,0,0-.351-0.389l-0.272-.02V181.1a0.31,0.31,0,0,1-.408.175l-0.643.02a0.286,0.286,0,0,0-.176.389Z"/>
    <path id="FI" class="cls-1" d="M192,151.118l-0.117.506-0.6-.214Zm5.823-25.214v1.46l0.409,0.525,0.2,1.558,1.441,1.032-0.02,1.246-0.72.623,0.1,1.655,1.013,0.837,0.1,2.687,0.818,0.74,0.1,0.623,0.818,0.837v1.343l0.915,0.623L203.612,142l0.507,0.74-1.247,2.687h-0.428l-0.526,1.227-0.935.935-0.448.8-0.662.292-1.129.292-1.032.487-1.441-.117-0.837.818a8.391,8.391,0,0,1-1.655.8,0.685,0.685,0,0,1-.818-0.195l-0.194-.428-0.916.078-0.818-.7-0.6-.643-0.078-2.57a6.986,6.986,0,0,0-.389-1.344,2.323,2.323,0,0,1-.117-1.051,3.039,3.039,0,0,1,.253-1.188,1.365,1.365,0,0,1,.526-0.584l0.292-.136,0.214-.506,0.525-.6,0.818-.506,0.214-.915,0.935-.818,0.02-.506,1.422,0.02-0.916-.526,0.214-.312-0.6-.817,0.02-1.441-0.429.818-0.818-.312-0.1-.02,0.058-2.22-0.409-.623,0.117-1.032-0.623-.74,0.117-.623-1.344-1.148-1.343.1-0.721-1.149-1.091-.837,0.487-.6,0.818,0.214,1.85,1.246,1.558-.389,0.837,0.409,1.129-.506-0.078-1.344,0.117-1.343,0.721-.409,1.655-.312,0.721,1.149,0.818,0.313h0Zm-7.711,23.909,0.117,0.214-0.214-.059Zm1.07,0.935L191.5,151.1l-0.409.1Zm0-.156-0.409.1-0.292-.409Z"/>
    <path id="HR" class="cls-1" d="M186.822,182.053l0.409,1.032,1.168,0.428,1.247-.117,0.272,0.681-0.214.837-0.682-.078-0.837-.292-0.7.409-2.415-.156-0.137.837,0.545,0.545,0.545,0.837,1.246,0.779,0.954,1.927,1.208,0.623v0.272L189,190.364l-0.526.195-0.7-.506-0.526-1.032-0.6.409-0.409-.409-1.324-.312L184,187.385a4.2,4.2,0,0,0-.117-1.11,1.6,1.6,0,0,0-.487-0.662l-0.429-.37-0.311.214-0.2.817-1.363-1.519,0.623,0.214-0.526-.915,0.506-.039,0.351,0.136,0.818-.331h0.974l0.351-.409,0.545-.136,0.02-.623,1.441-.954,0.625,0.355h0Zm-1.266,7.476-0.156-.448,0.564,0.759Zm0.7,0.273h0.72l0.623,0.7Zm-3.1-3.738,0.351,0.506-0.409-.292-0.156-.467Zm0.545,1.733,0.214,0.253,0.351,0.526-0.409-.312Zm-0.759-.292-0.312-.721,0.214-.506,0.506,1.519Z"/>
    <path id="ME" class="cls-1" d="M191.354,191.967l-0.409-.409-1.5-.974,0.019-.954,0.351-.681,0.117-.642,1.46,1.733-0.272.369,0.136,0.487Z"/>
    <path id="Chech" class="cls-10" d="M186.822,173.427l0.9,0.7,0.818,0.079,0.409,1.246-0.838.33v0.76l-0.759.487-0.974-.078-0.487.409-1.032-.078-0.818-.487-2.278.39-1.441-1.11-0.215-1.169-1.168-.506,0.02-.409,0.9-.272,0.545-.623,1.246,0.1,0.292-.837,1.519-.117,0.273,0.273,0.9-.059,0.623,0.623,0.6,0.409Z"/>
    <path id="CH" class="cls-1" d="M170.67,180.833l1.909-1.343,0.6,0.234,0.6,0.019,0.584-.1,0.214,0.273,0.175,0.292,0.76,0.195-0.137.487,0.351,0.136,1.188-.117,0.272,0.273-0.272.545H176.57l0.137,0.565-0.487.272-0.409-.428-0.916.214v1.168h-0.544l-0.7-.778-0.545.35-0.564.681-0.682.273-0.9-1.46-0.974.136-0.545.467,0.468-1.616Z"/>
    <path id="SE" class="cls-1" d="M190.383,129.342l1.344,1.148-0.117.623,0.623,0.74-0.117,1.032,0.409,0.623-0.058,2.219h-1.013l-0.526,1.013-1.207-.292,0.681,0.6-1.032.292,0.507,0.506-0.818.623,0.292,0.6,0.194,1.246-1.032.9-0.429,1.129-1.032-.02-0.818.6-0.837.818-0.117.409-0.6.292-0.351,2.161,0.312,0.623-0.136,1.732,0.935,0.02,0.817,0.409,0.39,0.837,0.721,0.623-0.02.818,0.1,0.312-0.818.7-0.935-.02-0.6-.409-1.247.39,1.753,0.331,0.72-.195,0.506,0.428-0.526.6-0.72.6-1.129.292,0.292,0.409-0.1.526,0.2,0.6-0.214.935L185.1,158l-0.526,1.539-0.292.331q-0.312.175-.526,0.273a1.327,1.327,0,0,0-.526.467l-0.214.331-0.6-.312-0.409.312-0.428.1,0.1,0.915-0.312.818-0.72-.117-0.506.214-0.935-.234,0.428-.389-0.214-.623-0.6-.623,0.117-.72h0.506l-0.8-1.129v-0.72l-0.409-.214-0.7-.818-0.292-.72,0.312-.623-0.506-.1-0.506-.72-0.292-.935,0.312-.292h0.584l0.117-1.558,0.72-.72,0.428-1.752-0.506-.428v-0.623l0.837-.818-0.623-.74-0.389-3.1,0.02-2.181,0.428-.818,1.967-.195L179.846,139l0.623-1.129,0.117-2.375h0.837l0.214-2.064,0.525-.623,0.545-2.375h0.506l0.74,0.117V129.19l1.343-.078,1.032,0.409,0.623-.1-0.078-1.655,0.35-.312,1.091,0.837,0.721,1.148,1.348-.1h0Zm-2.473,21.144,0.526-.409,0.6,0.117-0.1.409-0.74.6-0.292-.721h0Zm0.292,1.636-0.312.292-0.2-.915,0.507,0.623h0Zm-0.175,4.361-0.214,1.013v0.72l-0.72.506-0.2-.506-0.1-.72,1.032-1.636,0.2,0.623h0Zm-2.3,1.168-0.117,1.012-0.194.623-0.312.409,0.117-1.227Z"/>
    <path id="Estonian" class="cls-15" d="M196.562,151.526l1.13,0.117,0.506,0.506,1.519-.487,0.312-.311,0.02,1.032-0.623.818,0.117,1.032,0.487,1.246-0.37,1.324-1.519-.155-0.682-1.052-1.383.059-0.915.175L195.1,154.7q-0.059-.371-0.312-0.039a0.742,0.742,0,0,1-.623.409,0.589,0.589,0,0,1-.448-0.35l-0.059-.272,0.214-.292-0.409-.526,0.078-.39a1.179,1.179,0,0,1,.545-0.623l1.168-.662a2.645,2.645,0,0,1,1.306-.43h0Zm-3.252,1.947-0.623.7h-0.623q0.312-.195-0.292-0.72l1.538,0.019h0Zm-0.136,2.044-0.915.1-0.721.487,0.312-.8-0.6-.526,0.818-.37h0.623l0.7,0.195-0.214.915h0Z"/>
    <path id="JP" class="cls-1" d="M373.109,207.628l-0.408-.194,0.408-1.149,0.526,0.117Zm-1.012-2.8,0.507-.1-0.1.623H372.1v-0.526Zm-0.467,6.736,0.312-.935,0.409,0.117-0.838,1.85-0.408.1,0.525-1.13h0Zm12.579-44.528,0.624-.214,0.817-.8,0.409-.6v1.013l-0.214.6,0.72,0.428-0.116.6,0.817-.194-0.1.6-0.311.1a1,1,0,0,1-.507.409l-0.525.194-0.409.506H384.6l-0.506.312-0.215.6-0.038.409a0.97,0.97,0,0,0,.331.721,2.246,2.246,0,0,1,.72,1.012l-0.214.409a1.538,1.538,0,0,0-.506-0.818l-0.623-.351-0.39-.175-0.409-.292q-0.507-.623-0.818-0.428l-0.682.39-0.447.214v0.72l-0.2-.311-0.214.136-0.312.37a0.416,0.416,0,0,0,.312.506l2.337,0.837v0.817h-0.721l-0.194-.409-0.312.818,0.292,0.506a0.929,0.929,0,0,1-.818-0.312l-0.486-.915-0.1-.312-0.312-.214-0.409-.6-1.013-.935-0.915-.312-0.194-.506,0.194,0.156a0.7,0.7,0,0,0,.409.156q0.818,0,.818-0.312a1.981,1.981,0,0,0-.137-0.565l-0.156-.35,0.215-.409-0.1-.6,0.8,0.195,0.506-.059a0.43,0.43,0,0,0,.02-0.233l0.039-.312h-0.039l-0.506-1.83,0.525-.214-0.194-1.012-0.507-.409-0.623-.818,0.331-1.129,0.507,0.214,0.389,0.487,0.623,0.643,0.448,0.428a2.91,2.91,0,0,0,1.071.6l1.324,0.214Zm3.038,23.6-0.116.312h-0.312l0.116-.623Zm-4.635-15.362,0.059-.195,0.448,0.467,0.351,1.013,0.312,0.37,0.253,0.429,0.409,0.545a1.8,1.8,0,0,0,.76.253v0.72l0.35,0.156v0.351l0.254,0.312,0.136,0.506-0.447.312,0.194,0.565-0.214.6-0.2-.1-0.37.253,0.059,0.817L385.127,183l0.447,0.779a5.276,5.276,0,0,1,.429,2.492l0.02,0.487a5.353,5.353,0,0,0,.175.954q0.2,0.6.6,0.448l-0.02.214a0.888,0.888,0,0,0,.02.35l-0.1.175a2.529,2.529,0,0,0-.312.175,0.156,0.156,0,0,0-.02.234l0.175,0.331a0.39,0.39,0,0,1-.312.467l-0.408.409-0.37.1a0.9,0.9,0,0,0-.2-0.564,0.479,0.479,0,0,0-.37-0.175l-0.233.02-0.059.409,0.253,0.1-0.116,1.109c-0.039.208-.176,0.175-0.409-0.1l-0.253-.078a0.381,0.381,0,0,0-.409.175,0.653,0.653,0,0,1-.876.292l-0.292.02-0.059.1-0.194-.02-0.215-.6c-0.052-.143-0.143-0.168-0.272-0.078l-0.175.175-0.312-.253-0.1-.72c0-.1-0.085-0.156-0.253-0.156a0.846,0.846,0,0,0-.039.642l0.077,0.643,0.409,0.448,0.507,0.312,0.1,0.409a0.758,0.758,0,0,1-.564.506l-0.564.156,0.059,0.856a1.239,1.239,0,0,1-.272.72,0.687,0.687,0,0,1-.487-0.175l-0.37-.234-0.194-.623a1.279,1.279,0,0,0-.526-0.214l-0.272-.292-0.117-.312,0.1-.409-0.351-.312,0.1-.409A1.255,1.255,0,0,0,378,191.5a0.613,0.613,0,0,0-.6.137,0.827,0.827,0,0,0-.408.525l-0.779.565-0.37.506a0.647,0.647,0,0,1-.6.234l-0.194-.195-0.117.195-0.312.156-0.137-.1-0.272.506v0.351l-0.1.253-0.915-.253-0.409.02-0.214.117-0.351-.253-0.447-.564,0.253-.6,0.506-.1v-0.156l0.312-.253,0.059-.312,0.253-.759,0.156-.253-0.137-.351,0.351-.662,0.156-.1,0.721-.37,0.661,0.214,0.312-.194a3.749,3.749,0,0,1,1.324-.195l0.35-.312,0.312-.039h0.312c0.1-.039.155,0.078,0.155,0.351l0.233,0.409,0.779-.487q0.254-.059,0-0.312l-0.409-.525-0.1-.292,0.215-.721a1.089,1.089,0,0,0,0-.662,2.147,2.147,0,0,0,.623-0.915,0.9,0.9,0,0,0-.137-0.72l-0.312-.506,0.215-.564,0.194-.253,0.312,0.525-0.059.818,0.546,0.7q0.156,0.117.467-.506l0.117-.35,0.506-.565,0.429-.759,0.253-.915,0.156-2.181-0.137-.253a0.562,0.562,0,0,1-.059-0.409,1.318,1.318,0,0,0,.156-0.935l-0.137-.409-0.1-.195-0.156-.409a0.969,0.969,0,0,1-.409-0.37V177.2l0.565-.35a0.66,0.66,0,0,0-.1-0.506,0.136,0.136,0,0,1,.1-0.214l0.214-.039,0.351,0.058,0.409,0.312-0.039-.253,0.351-.214-0.258-.721h0Zm-13.241,18.068,0.039,0.818-0.351-.117,0.059-.759,0.1-.02a0.127,0.127,0,0,1,.156.078h0Zm1.4,2.414,0.467-.409,0.312-.059-0.059-.506a0.205,0.205,0,0,1,.215-0.1h0.155l0.292-.1,0.254,0.1,0.506,0.409a0.382,0.382,0,0,0,.468-0.137l0.253-.1,0.76,0.974,0.564,0.409-0.156.292,0.039,0.623a0.445,0.445,0,0,1,.156.409l-0.215.856,0.156,0.312-0.272.467,0.467,0.312-0.409.506v0.506l-0.312.817-0.233.039-0.175-.2a0.779,0.779,0,0,0-.117-0.35l-0.137-.175-0.058.506a1.215,1.215,0,0,1-.721-0.351l-0.117-.312,0.078-.253a0.843,0.843,0,0,0-.156-0.72l-0.389-.487-0.254-.272,0.292-.1,0.1,0.175,0.215,0.175c0.1,0,.175-0.168.214-0.506l-0.1-.253,0.156-.467-0.468-.506-0.194.02-0.215.234c-0.064.039-.045,0.11,0.059,0.214l0.351,0.292c0.078,0.091.1,0.143,0.059,0.156H372.39l-0.215-.1-0.1-.117-0.156.467q-0.039.156-.351-0.156l0.059-.506-0.059-.409-0.448.039-0.1-.1,0.194-.253-0.6-.253v-0.214l0.1-.312a0.386,0.386,0,0,0,.116-0.409l-0.057-.134h0Zm-0.916-.973a0.506,0.506,0,0,1-.059.409l-0.194-.312,0.1-.156C369.78,194.629,369.832,194.648,369.857,194.778Zm-0.993,2.337a0.368,0.368,0,0,1,.254-0.156q0.215,0.02.058,0.273l-0.155.2-0.253-.156,0.1-.156h0Zm1.285-.059,0.156-.02,0.059,0.175,0.039,0.428c-0.014.156-.071,0.156-0.176,0l-0.194-.409A0.143,0.143,0,0,1,370.149,197.056Zm7.693-4.926c0.078-.13.13-0.163,0.156-0.1a1.22,1.22,0,0,1-.059.6l-0.2-.312Zm-0.312.662,0.468,0.1a0.788,0.788,0,0,1,.545.467,1.441,1.441,0,0,1-.156,1.109,1.088,1.088,0,0,0-.059.526,2.549,2.549,0,0,1-.058.7q-0.039.137-.507-0.448a0.241,0.241,0,0,0-.272-0.1l-0.175.078-0.468.506a0.3,0.3,0,0,1-.253.117l-0.1-.059-0.02.2,0.253,0.973-0.194.312-0.721-.117c-0.064,0-.071-0.084-0.02-0.253l0.078-.253-0.253-.059a2.948,2.948,0,0,0-.253-0.7,0.243,0.243,0,0,0-.312-0.136l-0.194.078-0.1-.214,0.1-.175,0.194-.233a0.943,0.943,0,0,0,.312-0.643l0.116-.37-0.059-.409,0.818,0.02,0.194-.565,1.032-.428,0.062-.02h0Z"/>
    <path id="YE" class="cls-1" d="M249.7,236.88l1.013,0.8,0.39,0.681-0.643.331a1.014,1.014,0,0,0-.429.935l0.02,0.7-1.636.214a5.723,5.723,0,0,1-1.753.623,3.6,3.6,0,0,0-1.031.37l-0.8.35-0.721.545a2.644,2.644,0,0,1-1.032.6l-1.421.409a5.152,5.152,0,0,1-2.356.721,1.62,1.62,0,0,0-1.11.467l-0.331.467-0.312.312-1.538.214a1.151,1.151,0,0,1-.876-0.6l-0.351-.623-0.721-.623v-1.538l-0.838-1.11,0.409-1.538a0.909,0.909,0,0,0-.116-0.545l0.214-1.246,0.525-.818,0.507,0.1,1.363-.409,2.882,1.266,0.721,1.246,3.037-3.485,5.92-2.025,1.324,2.687-0.311.526h0Z"/>
    <path id="IT" class="cls-1" d="M179.9,180.677l-0.906.063-1.781.469-0.281.531h-0.344l0.125,0.563-0.5.281-0.406-.437-0.906.219v1.188h-0.531l-0.719-.781-0.531.344-0.562.688-0.687.25-0.437,1.031,0.344,1.813,1.281,0.781,0.125-.062a8.221,8.221,0,0,0,.875-0.344l0.844-.062,1.031,1,0.594,0.406,0.531,1.531,1.031,0.844,0.5,0.719,1.094,0.5,0.938,0.813,0.313,0.5,2.344,0.406,0.594,0.938,1.25,0.906,0.625,1.031,0.281,1.219-0.5.406-0.406,1.344,0.719,0.094,1.406-1.031-0.094-.687,0.813-.812-0.594-.937-0.719-.312,0.625-1.219h0.5l0.281,0.406,1.344,0.406-0.094-.719-0.812-.812-2.656-1.219,0.188-.812-2.125-.094-0.937-1.031-0.812-1.844-1.437-1.531-0.906-.187-0.406-.844,0.594-.187-0.594-1.344v-0.812l0.5,0.094,0.938-.406,0.406,0.125,0.5-.031,0.344,0.125,0.281-.562-1.094-.75,0.063-.969-1.094-.219Zm-1.281,4.688,0.406,0.156,0.156,0.375-0.156.406-0.406.156-0.375-.156-0.156-.406,0.156-.375Zm1.188,5.469,0.281,0.125,0.125,0.281-0.125.313-0.281.094-0.281-.094-0.125-.312,0.125-.281Z"/>
    <path id="Iran" class="cls-16" d="M250.238,195.959l1.246-.058,0.838,0.564,0.817-.351,1.11,0.643,0.137,0.272,1.032,0.292,0.408,0.545h0.623l0.623,0.7,1.578,0.642,0.272,0.409-0.156,2.142,0.39,2.142-0.214.759,0.486,0.623-0.1,2.278,0.565,0.623,0.116,0.7,1.032,0.351h0.974l-0.077,1.46-0.76.409-0.292.954,0.7,0.564,0.058,0.545,0.954,1.051,0.682,0.272,0.9,0.214,0.759,0.973-0.428.974-0.059.409,1.032,0.156,0.331,0.817-0.546.351-1.6.545-0.486.74,0.059,0.915,0.369,0.37-0.643.194-0.312.214-1.129-.1-0.818-.292-0.506.214-1.032-.194-0.721-.39-0.623.117-0.817-.1-0.487-.253a0.667,0.667,0,0,0-.564-0.136q-0.1.156-.468-0.409a3.323,3.323,0,0,0-.312-1.149,1.245,1.245,0,0,0-1.032-.7,1.655,1.655,0,0,0-1.207.389l-0.429.448a7.527,7.527,0,0,0-1.636.409,0.561,0.561,0,0,1-.623-0.175l-0.312-.331-2.668-1.519-0.6.02-0.623.175a1.537,1.537,0,0,1-.682-0.7l-0.448-.721-0.408-.1-0.02-.623-1.324-2.044h-0.838l-0.312-.721-0.6.02v1.11l-2.512-2.492-0.1-1.227-0.817-.837-0.312-.837-1.228-.019-1.129-1.967-1.227-1.46,0.72-.721,0.429-1.655-1.13-.623-1.227-1.46-0.506-2.142-1.091-.623L231.5,195.9l-0.565-.565,1.363,0.1,1.655,0.331,0.935-.954,0.215-.175,0.992-.643,0.7,0.272-0.02,1.11,0.682,0.7,0.7,0.136,0.507,1.188,0.272,0.2a1.565,1.565,0,0,0,.545.234l0.838,0.214a1.563,1.563,0,0,1,.6.272l0.682,0.6a3.152,3.152,0,0,0,.915.565l0.993,0.058,0.915,0.039,1.032-.136,0.175-.448,1.052-.292,1.616-1.85,1.169-.273,0.766-.62h0Zm2.688,23.461-0.409-.1,0.721-.72h0.312l-0.624.817h0Z"/>
    <path id="IQ" class="cls-1" d="M228.448,199.361l2.493,0.02,1.753-.2,0.214,1.149,1.227,1.46,1.13,0.623-0.429,1.655-0.721.72,1.227,1.461,1.13,1.966,1.226,0.02,0.312,0.837,0.818,0.837,0.1,1.227,2.511,2.492-1.226-.2-1.4-.623-0.721.507-0.331,1.031-0.312.312-3.622.175-6.484-4.809-2.61-.117-0.8-1.265-0.312-.838,0.526-.506,3.018-1.947,0.234-2.784-0.409-.837,1.558-1.343Z"/>
    <path id="JO" class="cls-1" d="M222.671,211.665l0.292,1.032-0.526,1.44h-1.246l-0.935,1.344-2.239.078-0.059-.994,0.117-1.5,0.409-.915V211.8l0.448-2.648,1.772,0.117,1.148-.935,1.773-.506,0.311,0.837,0.8,1.266-0.507-.019-1.343.408-0.837.72Z"/>
    <path id="IN" class="cls-1" d="M306.87,216.99l1.091,1.811-0.682.954,1.889,3.6-0.059,1.071-0.233.9-0.487-1.051-0.233.9-0.214.292-0.6.623-0.6.526c-0.168.182-.13,0.37,0.117,0.564l0.409,0.253-0.2.506-2.024,2.4q-0.156.156-.292-0.156a0.34,0.34,0,0,0-.429-0.253c-0.117.052-.117,0.168,0,0.351l0.214,0.272-0.721.409-0.7.526-0.506.72-0.7,1.343-0.6.623a0.788,0.788,0,0,0-.6.584l-0.312.662a0.824,0.824,0,0,1-.39.935l-0.76.272-0.37.039q-0.506.739-.817,0.526-0.176-.117-0.292.428a6.57,6.57,0,0,1-.292,1.013,3.472,3.472,0,0,0-.156,1.479l0.078,0.993-0.194.506,0.116,0.253,0.292,0.779a3.394,3.394,0,0,1,.059,1.343,1.138,1.138,0,0,1-.331.915,1.082,1.082,0,0,0-.331.876,2.49,2.49,0,0,0,.059,1.168l0.272,0.467a1.67,1.67,0,0,1,.253.448,0.464,0.464,0,0,1-.116.565l-1.11.682-0.136.311-0.156.526c0,0.208.175,0.272,0.525,0.2l-0.525.409-1.11.331a0.372,0.372,0,0,0-.253.428l-0.039.6-0.214.506-1.324.643a7.745,7.745,0,0,1-1.246-1.636l-0.564-1.148-0.176-.467,0.74,0.8-0.215-.6a5.134,5.134,0,0,0-.643-1.441l-0.447-.837a5.661,5.661,0,0,0-.7-1.09,7.6,7.6,0,0,1-1.169-2.336l-0.35-1.46-0.2-.993-0.817-.818-0.429-1.129-1.052-1.109-0.233-.721-0.078-.506-0.643-1.227-0.74-2.024a14.4,14.4,0,0,0-.837-1.733,3,3,0,0,1-.37-1.149l-0.059-.6,0.39-.72-0.02-1.227-0.1-.525-0.116-.292a0.727,0.727,0,0,1-.623-0.292,0.824,0.824,0,0,1-.078-0.526l0.078-.292,0.389-.74a1.028,1.028,0,0,0,.137-0.779l-0.233.233-0.312.448a0.731,0.731,0,0,1-.6.429l-0.1.506,0.312,0.721L280.913,229l-1.013.312a1.818,1.818,0,0,1-1.129-.487l-0.623-.721-0.643-.8-0.779-.7-0.467-.312,0.1-.2a0.256,0.256,0,0,1,.312-0.117q0.312,0.1.507-.526l1.032-.428,0.077-.818-0.39.623-1.227.02a2.412,2.412,0,0,1-1.032-.194,0.873,0.873,0,0,1-.408-0.429l-0.117-.292,0.915-1.674,2.9,0.156-0.253-1.791-0.272-.974-1.227-.974-0.954-1.519v-1.11l0.428-.545,2.064-.117,1.11-.272V213.6l1.4-.409,0.974-3.037,0.993-1.5,0.429-2.492-2.2-1.675,0.02-1.382L280.465,202l0.564-.818,3.738,0.176,2.064-.545,1.11,0.292,0.409,0.682,1.09,0.564,0.272,1.382,0.955,0.7-0.137.409-1.11.545,0.682,2.083,1.091,1.11,1.655,0.428,0.682,0.565-0.838,1.363,0.409,1.947,1.519,0.136,1.363,1.129,1.655,0.7,2.22-.117,1.636,1.109,0.974,0.136,1.247-.389,0.817,0.272,1.792,0.02-0.117-2.356,0.429-.272,0.817,0.428v0.682l1.636,1.129,2.766-.253,0.292-.837-0.272-1.11,1.246-.117,1.538-1.928,1.11-1.09,1.246,0.428,0.974-.409,0.409-.837,0.817,0.974,0.137,1.246,0.954,0.428-0.137,1.792-1.538.817-0.564,1.246V217.5l-0.7.682-0.292,2.628-1.246-.02-0.156,1.11-0.02,2.609h-0.545l-0.525-2.765h-0.7l-0.7.682-0.546-.136,0.156-1.655,0.974-.409v-1.246l-0.682-.272-1.655-.02-0.974.272-0.545-1.811-0.954-.136-0.682-.837h-0.838l-0.564.818h0Z"/>
    <path id="IL" class="cls-1" d="M218.1,209.673l-0.312.234-0.039,1.713,0.74,0.1v0.428l-0.409.915-0.117,1.5-0.428-1.149-1.149-2.22,0.331-.72-0.292-.2,0.564-2.122,1.364-1.032,0.72-.409-0.428,1.5,0.292,0.935-0.117.6Z"/>
    <path id="GR" class="cls-1" d="M192.026,196.136l0.117,0.682-0.409-.351-0.2-.409,0.487,0.078h0Zm6.855-4.167,1.188,0.351,0.9,0.156,0.624-.351,0.078-.9,0.682-.409,0.136,0.9-0.428.7-0.078.818-0.526.837-0.253-.059-0.7-.233-0.409-.175-0.526.409-1.013-.409-0.915.506,0.662,0.525,0.058,0.506-1.032.214-0.525-.935-0.623-.194-0.117.993,0.974,1.11,0.506,0.993-0.136.331,0.876,0.7,0.6,0.643-0.136.643h-0.818l-0.506.1,0.2,0.506-0.292.72,0.1,0.6,0.312,0.817-0.818-.506,0.292,0.721-0.409-.214-0.7-.72-0.526-.1v0.409l-0.915-.6,0.117-.721-0.409-.409-0.409-.312,0.292-.818,0.818-.2,1.032,0.312,1.11,0.1-0.194-.721-0.6.214-0.72-.117-0.916-.292-0.526.292-0.272-.935-1.11-.818-0.37-.467-0.253-.564,0.467-.331,0.623-.565,0.292-.681-0.058-.623,0.623-.059,0.409-.545h0.974l0.974-.545,0.2-.506,0.214,0.233,1.032,0.078,0.891-.407h0Zm-1.032,5.219,0.7,0.564,0.954,0.312,0.487,0.292-0.078.487-0.9-.272-1.149-.916Zm2.453,7.281,1.032,0.1,0.506,0.117,0.409-.409,0.624,0.1,0.292,0.312-0.409.506-1.421.1-0.409.312a0.756,0.756,0,0,1-.681-0.175l-0.448-.331-1.421-.409,0.409-.624H199.7l0.6,0.41h0Zm5.609-2.18-0.137.467-0.1.292a0.494,0.494,0,0,1-.623.058c-0.3-.129-0.383-0.253-0.253-0.37l0.292-.136,0.819-.311h0Zm-2.24,1.654,0.117-.312,0.487-.1v0.6l-0.448.2-0.156-.39h0Z"/>
    <path id="RS" class="cls-1" d="M189.927,184.077l-0.273-.681,0.215-.623,0.759-.078,0.351-.409,1.44,0.02,0.624,0.7v1.033l0.681,0.564,0.468,1.305,0.974,0.292,0.272,0.272-0.214.682,1.032,0.915-0.02.973-0.486.818-0.9.545-0.624.136-0.35.545-0.837.195-0.2-.408-0.545-.76-0.9-.078-0.019.02-1.442-1.714,0.02-.195,0.837-.544,0.273-.468-0.351-.487-0.681-.7,0.351-1.031h-0.682Z"/>
    <path id="DE" class="cls-1" d="M182.065,165.878l-0.35,2.278,0.545,0.973V170.3l1.149,1.246,0.078,0.7-1.519.117-0.292.837-1.247-.1-0.545.623-0.9.272-0.02.409,1.168,0.506,0.214,1.168,1.441,1.11-0.7.681-0.078,1.382-0.76.214-0.837-.351-0.682.331-1.188.136-0.9.272-0.779.059-0.351.467-0.759-.195-0.175-.292-0.189-.247-0.559.1-0.668,0-0.591-.271-0.61.46,0.182-2.03,0.409-.856-1.889-.662-0.351-.175,0.429-1.11-0.273-.409-0.526-3.329,0.565-1.032,0.837-.954L171,168.544l0.292-.9-0.272-.818,0.993-.487,0.818,0.409,0.6-.292,0.214-.915-0.6-.856-0.194-.351,1.46,0.312,0.856-.72,0.448,0.7,0.7,0.02,0.312,0.409v0.351c0.052,0.208.188,0.227,0.409,0.059a1.414,1.414,0,0,1,.916-0.389l1.129-.506-0.117.506,0.818-.1,1.889,1.032Zm-1.713-1.946,0.506,0.409-0.429.818-0.8-1.032Z"/>
    <path id="HU" class="cls-1" d="M192.039,178.221l0.682-.76,0.623,0.623,1.246-.545q0.351,0.292.682,0.564l0.351,0.059-0.078.428-0.409.759-0.351.195H194.1l-0.7,1.09-0.019,1.032-0.974.623-1.441-.019-0.35.409-0.76.078-0.214.623-1.247.117-1.168-.429-0.409-1.032-0.624-.351-0.681-.759,0.837-.759,0.564-1.246,2.493,0.234,1.032-.331,0.974-.545Z"/>
    <path id="BT" class="cls-1" d="M307.9,213.038l3.115-.175,0.858,0.448,0.272,1.109-0.292.837-2.765.253-1.636-1.129V213.7Z"/>
    <path id="Bulgaria" class="cls-17" d="M203.863,188.713v0.409l-0.215,1.012,0.117,0.195-0.8.643-0.623-.156-0.681.409-0.078.9-0.623.35-0.9-.156-1.188-.35-0.9.409-1.032-.078-0.214-.234L196.4,191.6v-0.759l-0.545-.487-0.136-.545,0.487-.818,0.02-.974L195.2,187.1l0.214-.682,0.545,0.487h0.623l0.468,0.7,1.811,0.156,1.032,0.272,0.818-.331,0.487-.9,1.11-.409,0.7,0.487,0.76-.059,0.915,0.214v0.74a1.545,1.545,0,0,1-.819.936h0Z"/>
    <path id="BE" class="cls-1" d="M168.263,175.249l0.117-.487-0.8.1-0.857-.662-0.584-.175-1.48-1.636,0.136-.116,0.623-.312,1.285,0.233,0.9-.194,1.6,0.156,0.467,1.168,0.623,0.487,0.2,0.915-0.623.545-0.215.759Z"/>
    <path id="Belarusian" class="cls-18" d="M196.05,167.253l-0.74-1.11,0.214-.682,1.227-.058,0.565-.837,0.76-.117,0.155-.623,0.273-.214,0.136-1.091,0.779-.272-0.214-.974,1.519-.467,0.078-.564,0.7-.41,0.818,0.156,0.837,0.623,0.954-.33,0.974,0.077,0.895,1.168-0.213.76,0.272,0.759,0.545,0.915,0.9,0.273,0.467,0.759,0.623,0.428-0.292.818-1.44.195-0.078.837,0.623,0.623-0.156.9-0.545-.078-0.292.487-0.137,1.3-2.765-.078L202.808,170l-1.519.058-0.974-.486-1.247.058-0.759-.273-1.441.468-0.7.467-0.6-.759-0.077-.76,0.564-.817v-0.7Z"/>
    <path id="BH" class="cls-1" d="M244.979,220.42l-0.505-.2,0.1-.428,0.408,0.214v0.409Z"/>
    <path id="BD" class="cls-1" d="M313.725,219v1.246l-0.974.409-0.156,1.655,0.546,0.137,0.7-.682h0.7l0.682,3.972-0.448,1.285-0.564-.292,0.156-1.09-1.149-1.577-0.408-.312L312.966,224l0.37,0.467a0.4,0.4,0,0,1,.059.6l-0.409.117a0.444,0.444,0,0,1-.409.214,0.264,0.264,0,0,1-.253-0.156l-0.02-.156-0.37-.078-0.1.584-0.6.117a1.559,1.559,0,0,0-.408-0.856c-0.13-.117-0.183-0.026-0.156.272l0.059,0.487-0.214.409-0.215-.506-0.409-.292,0.117,0.7-0.409.117-0.351-.6,0.1-.409-0.272-.584,0.059-1.071-1.89-3.6,0.682-.954-1.09-1.811,0.564-.818h0.838l0.681,0.837,0.954,0.137,0.546,1.811,0.974-.272,1.655,0.02L313.725,219h0Z"/>
    <path id="AF" class="cls-1" d="M267.115,212.9l-0.526.565-1.032-.137-2.044.429-1.266.1-0.6-.681-0.058-.546-0.7-.564,0.292-.954,0.76-.409,0.077-1.46h-0.974l-1.032-.351-0.116-.7-0.566-.623,0.1-2.278-0.487-.623,0.214-.759-0.389-2.142,0.078-.9,1.441-.059,0.545,0.623,1.675-.253-0.078-.759,2.376-1.987,0.214-1.187,1.11,0.078,1.032-.818,1.168,0.428h1.111l2.083-.389,0.35-.818L272.9,195.8l-0.194-1.109,1.246-.623,0.331,0.7,0.9,0.137,0.136,1.811,1.09,0.136,0.351-.76,1.188-.74h1.441l0.546,0.7-1.578.74-0.779.759-0.954.2-0.934.954,0.876,1.383-0.2,2.667-2.005.915,0.974,0.974-1.189,1.285-0.116,2.219-0.818-.389-1.441.759,0.058,0.837-1.343.351-0.6,1.5,0.273,0.993-1.928.7h-1.11Z"/>
    <path id="AM" class="cls-1" d="M234.895,194.8l-0.935.954-1.07-.234-0.584-.682-1.383-.311,0.005-.637-1.615-1.1,0.071-1.324,1.012-.448,1.111-.058,1.636,1.4,0.058,1.109,0.565,0.487,0.409,0.682Z"/>
    <path id="AL" class="cls-1" d="M191.033,193.81l0.312-1.83-0.1-1.071-0.137-.487,0.292-.409,0.9,0.078,0.545,0.759,0.2,0.409v1.324l0.467,0.624,0.137,1.167-0.292.682-0.623.565-0.468.331-0.6-.818Z"/>
    <path id="Azerbaijan" class="cls-19" d="M230.907,194.531l1.459,0.324,0.584,0.682-0.584-.1-1.439-.122Zm8.862-1.739-0.993-.059-0.214.195,0.292,0.935q-0.215,1.032-.272.876l-0.39-1.09c-0.1-.156-0.162-0.143-0.176.039l0.02,0.331-0.175.817-0.176.409,0.448,0.837,0.039,0.136-0.7-.136-0.682-.7,0.02-1.11-0.7-.272-0.993.643-0.214.175-0.721-.156-0.409-.681-0.564-.487-0.059-1.11-1.636-1.4,0.76-.194,1.168,0.156,0.409-.137,0.156-.487-0.76-.428,0.078-.331,1.032,0.136,0.623,0.214,0.194,0.487,0.487,0.351H236.2l0.214-.487,0.916-.312,0.9,1.324,0.37,0.214,0.817,0.331,0.818,0.74-0.059.467Z"/>
    <path id="AT" class="cls-1" d="M180.272,179.479l0.76-.215,0.077-1.382,0.7-.681,2.278-.39,0.818,0.487,1.032,0.078,0.272,1.032,0.76,0.487-0.565,1.246-0.837.759-1.246.059-0.76.759-0.681.058-0.429.409-2.2-.564-0.351-.974-0.9.058-1.791.467-0.273-.272-1.188.117,0.133-.429-0.353-.213,0.357-.455,0.779-.052,0.895-.273,1.188-.136,0.682-.331Z"/>
  </g>
</svg>
