<?xml version="1.0" standalone="no"?>
<!DOCTYPE svg PUBLIC "-//W3C//DTD SVG 20010904//EN"
 "http://www.w3.org/TR/2001/REC-SVG-20010904/DTD/svg10.dtd">
<svg version="1.0" xmlns="http://www.w3.org/2000/svg"
 width="529.000000pt" height="529.000000pt" viewBox="0 0 529.000000 529.000000"
 preserveAspectRatio="xMidYMid meet">
<metadata>
Created by potrace 1.14, written by Peter Selinger 2001-2017
</metadata>
<g transform="translate(0.000000,529.000000) scale(0.100000,-0.100000)"
fill="#000000" stroke="none">
<path d="M4244 4865 c-214 -49 -436 -167 -644 -342 -100 -85 -138 -123 -233
-238 -240 -288 -484 -662 -633 -970 -125 -259 -177 -433 -178 -605 0 -113 23
-179 73 -204 45 -24 71 -20 136 19 74 45 142 102 278 236 l109 106 -23 44
c-15 29 -24 69 -27 116 -6 92 23 178 108 326 99 172 168 247 228 247 31 0 72
-43 72 -76 0 -22 -29 -77 -50 -94 -21 -17 -93 -123 -110 -163 -21 -47 -21 -48
-3 -80 27 -45 78 -77 125 -77 81 0 156 62 266 220 186 269 254 350 291 350 33
0 68 -21 80 -47 33 -72 -13 -285 -108 -495 -28 -64 -28 -91 1 -49 7 10 54 63
104 117 118 129 240 267 288 327 31 38 36 50 26 62 -18 22 -5 47 80 153 89
113 132 152 164 152 34 0 37 -8 19 -52 -8 -21 -13 -41 -11 -44 13 -12 50 -11
143 5 55 9 107 16 115 15 8 0 24 -2 36 -2 41 -3 59 -96 27 -142 -9 -13 -33
-38 -53 -55 -128 -110 -197 -209 -185 -264 14 -64 103 -119 201 -126 73 -5 82
5 168 180 123 250 158 395 152 635 -4 165 -23 251 -80 375 -100 216 -272 367
-496 436 -111 34 -316 36 -456 4z"/>
<path d="M2608 4845 c-2 -1 -37 -5 -78 -8 -275 -23 -558 -164 -798 -399 -115
-113 -161 -165 -254 -290 -243 -323 -423 -708 -519 -1103 -39 -162 -43 -322
-10 -447 45 -173 122 -261 240 -275 103 -12 212 39 323 152 89 89 130 148 282
400 267 442 369 601 535 830 207 287 419 480 741 675 58 35 107 65 109 67 8 6
-32 94 -69 151 -99 153 -239 233 -432 245 -37 2 -69 3 -70 2z"/>
<path d="M2770 3914 c-110 -63 -233 -184 -363 -359 -121 -163 -376 -549 -597
-905 -101 -162 -211 -331 -245 -375 -130 -168 -287 -318 -389 -371 l-54 -28
-74 19 c-98 25 -124 27 -185 10 -103 -30 -172 -133 -160 -242 11 -98 1 -91
167 -127 109 -24 370 -101 425 -125 11 -5 49 -20 85 -34 232 -89 566 -262 770
-400 76 -52 205 -143 227 -162 7 -5 18 -14 25 -20 127 -99 192 -155 353 -306
95 -89 135 -115 135 -89 0 22 -161 276 -244 385 -104 137 -288 336 -411 445
-107 94 -122 107 -180 150 -33 25 -62 47 -65 50 -3 3 -36 28 -75 54 -93 65
-94 66 -54 61 84 -12 390 -6 489 10 14 2 50 7 80 10 149 18 446 89 630 152
168 57 494 195 550 233 8 5 26 15 38 20 13 6 56 29 95 51 324 187 562 365 803
604 112 110 282 304 306 348 8 16 7 17 -11 8 -46 -25 -139 -6 -196 41 -51 43
-77 98 -76 168 0 74 28 131 116 240 35 44 71 90 80 103 26 41 3 49 -124 45
l-110 -3 -73 -70 c-40 -39 -91 -93 -113 -120 -22 -27 -54 -66 -71 -85 -17 -19
-87 -102 -155 -185 -68 -82 -126 -152 -129 -155 -3 -3 -36 -42 -72 -86 -57
-69 -77 -104 -129 -229 -73 -174 -155 -345 -205 -422 -73 -115 -177 -203 -238
-203 -86 0 -126 66 -105 174 19 101 102 238 254 416 16 19 96 102 178 184 82
82 152 158 156 170 5 12 9 49 10 83 3 94 -39 175 -86 167 -7 -1 -17 -2 -21 -3
-16 -2 -80 -71 -176 -189 -131 -162 -195 -212 -274 -212 -37 0 -43 -5 -133
-112 -216 -258 -398 -420 -559 -497 -63 -30 -85 -35 -145 -35 -107 -1 -166 41
-224 159 -41 84 -55 173 -42 268 30 217 193 587 445 1012 39 66 73 124 75 130
2 5 33 53 67 107 35 54 60 98 56 98 -4 0 -27 -12 -52 -26z"/>
<path d="M11 2248 c-8 -22 -7 -42 4 -113 3 -16 5 -33 5 -37 1 -8 23 -63 58
-139 21 -45 90 -141 121 -167 9 -7 43 -26 76 -43 176 -86 369 30 367 221 -1
177 -168 286 -368 240 -97 -23 -164 -10 -208 39 -25 27 -45 27 -55 -1z m189
-302 c47 -50 111 -88 168 -101 32 -7 33 -8 16 -26 -22 -25 -61 -24 -103 2 -41
25 -75 64 -123 143 -38 61 -53 102 -21 56 9 -14 38 -47 63 -74z"/>
</g>
</svg>
