<?xml version="1.0" standalone="no"?>
<!DOCTYPE svg PUBLIC "-//W3C//DTD SVG 20010904//EN"
 "http://www.w3.org/TR/2001/REC-SVG-20010904/DTD/svg10.dtd">
<svg version="1.0" xmlns="http://www.w3.org/2000/svg"
 width="750.000000pt" height="750.000000pt" viewBox="0 0 750.000000 750.000000"
 preserveAspectRatio="xMidYMid meet">
<metadata>
Created by potrace 1.11, written by Peter Selinger 2001-2013
</metadata>
<g transform="translate(0.000000,750.000000) scale(0.100000,-0.100000)"
fill="#000000" stroke="none">
<path d="M6005 6948 c-235 -29 -516 -131 -764 -277 -159 -94 -414 -280 -526
-383 -37 -34 -128 -71 -134 -54 -1 6 -12 31 -23 56 -143 323 -354 507 -659
576 -158 36 -357 37 -532 3 -29 -5 -65 -12 -82 -15 -475 -83 -979 -445 -1407
-1009 -60 -79 -222 -328 -281 -432 -127 -222 -325 -666 -361 -808 -2 -5 -6
-17 -9 -25 -9 -25 -31 -94 -33 -107 -1 -7 -11 -41 -22 -75 -11 -35 -29 -103
-40 -153 -19 -83 -24 -108 -37 -175 -30 -157 -27 -589 6 -805 33 -215 133
-515 197 -588 19 -22 17 -24 -43 -31 -200 -25 -331 -221 -277 -411 15 -53 34
-81 55 -82 6 0 23 -3 37 -7 26 -6 111 -24 145 -30 60 -11 354 -93 405 -113 8
-4 17 -7 20 -8 54 -13 373 -135 384 -146 6 -5 16 -9 22 -9 15 0 141 -58 319
-147 155 -78 257 -134 433 -238 87 -52 436 -287 452 -305 3 -3 46 -37 95 -75
159 -123 348 -290 495 -435 68 -68 144 -118 155 -101 7 12 6 12 -82 160 -37
62 -76 127 -86 145 -36 60 -260 363 -286 386 -3 3 -31 34 -61 70 -121 145
-308 329 -506 500 -16 15 -60 50 -97 79 -37 29 -67 54 -67 54 0 1 69 2 153 3
171 1 290 9 437 29 19 3 55 8 80 11 25 3 54 7 66 9 11 2 45 8 75 14 30 6 65
13 79 15 208 36 657 167 859 250 72 30 95 39 101 41 87 30 452 206 601 290
160 91 441 269 477 303 8 6 23 17 35 24 12 6 38 23 57 38 74 57 225 175 230
180 3 3 32 28 65 55 148 124 360 332 496 486 240 271 426 542 600 875 149 283
240 561 267 810 9 82 8 332 -2 397 -66 431 -287 788 -621 1002 -127 81 -300
150 -425 170 -19 3 -60 9 -90 14 -69 11 -253 11 -345 -1z"/>
<path d="M28 3127 c-32 -25 -24 -158 19 -280 53 -152 133 -283 221 -365 195
-177 487 -135 591 87 22 48 26 69 26 151 0 114 -21 167 -93 239 -76 75 -167
109 -287 105 -65 -1 -140 -10 -175 -19 -91 -24 -152 -10 -226 51 -30 24 -56
44 -57 44 -1 0 -9 -6 -19 -13z"/>
</g>
</svg>
