<svg width="21" height="24" viewBox="0 0 21 24" fill="none" xmlns="http://www.w3.org/2000/svg">
<path fill-rule="evenodd" clip-rule="evenodd" d="M20.6524 14.04C20.1214 13.404 19.1764 13.317 18.5404 13.848L12.0004 19.2975V1.5C12.0004 0.672 11.3284 0 10.5004 0C9.67235 0 9.00035 0.672 9.00035 1.5V19.2975L2.46035 13.848C1.82285 13.317 0.877852 13.404 0.348352 14.04C-0.182648 14.676 -0.0971477 15.6225 0.540352 16.152L9.54035 23.652C9.61085 23.712 9.69485 23.7405 9.77285 23.7855C9.83435 23.8215 9.88835 23.8635 9.95585 23.8905C10.1314 23.9595 10.3144 24 10.5004 24C10.6864 24 10.8694 23.9595 11.0449 23.8905C11.1124 23.8635 11.1664 23.8215 11.2279 23.7855C11.3059 23.7405 11.3899 23.712 11.4604 23.652L20.4604 16.152C21.0964 15.6225 21.1834 14.676 20.6524 14.04" fill="#424FB4"/>
</svg>
