<svg width="120" height="120" viewBox="0 0 120 120" fill="none" xmlns="http://www.w3.org/2000/svg">
<mask id="mask0" mask-type="alpha" maskUnits="userSpaceOnUse" x="0" y="0" width="120" height="120">
<path fill-rule="evenodd" clip-rule="evenodd" d="M0 60C0 26.8629 26.8629 0 60 0C93.1371 0 120 26.8629 120 60C120 93.1371 93.1371 120 60 120C26.8629 120 0 93.1371 0 60Z" fill="white"/>
</mask>
<g mask="url(#mask0)">
<path fill-rule="evenodd" clip-rule="evenodd" d="M0 60C0 26.8629 26.8629 0 60 0C93.1371 0 120 26.8629 120 60C120 93.1371 93.1371 120 60 120C26.8629 120 0 93.1371 0 60Z" fill="url(#paint0_linear)"/>
<path fill-rule="evenodd" clip-rule="evenodd" d="M60.003 28C51.3122 28 50.2216 28.038 46.8082 28.1933C43.4015 28.3493 41.0761 28.8887 39.0414 29.68C36.9368 30.4974 35.1514 31.5907 33.3727 33.3701C31.5927 35.1487 30.4994 36.9341 29.6794 39.0381C28.886 41.0735 28.346 43.3995 28.1927 46.8049C28.04 50.2182 28 51.3096 28 60.0003C28 68.6911 28.0387 69.7784 28.1933 73.1918C28.35 76.5985 28.8893 78.9239 29.68 80.9586C30.498 83.0632 31.5914 84.8486 33.3707 86.6273C35.1487 88.4073 36.9341 89.5033 39.0374 90.3206C41.0735 91.112 43.3995 91.6513 46.8055 91.8073C50.2189 91.9627 51.3089 92.0007 59.999 92.0007C68.6904 92.0007 69.7778 91.9627 73.1911 91.8073C76.5978 91.6513 78.9259 91.112 80.9619 90.3206C83.0659 89.5033 84.8486 88.4073 86.6266 86.6273C88.4066 84.8486 89.5 83.0632 90.32 80.9592C91.1067 78.9239 91.6467 76.5978 91.8067 73.1925C91.96 69.7791 92 68.6911 92 60.0003C92 51.3096 91.96 50.2189 91.8067 46.8055C91.6467 43.3988 91.1067 41.0735 90.32 39.0388C89.5 36.9341 88.4066 35.1487 86.6266 33.3701C84.8466 31.59 83.0666 30.4967 80.9599 29.68C78.9199 28.8887 76.5932 28.3493 73.1865 28.1933C69.7731 28.038 68.6864 28 59.993 28H60.003ZM57.1324 33.7658C57.9844 33.7645 58.9351 33.7658 60.0031 33.7658C68.5472 33.7658 69.5599 33.7965 72.9339 33.9498C76.054 34.0925 77.7473 34.6138 78.8753 35.0518C80.3687 35.6318 81.4334 36.3252 82.5527 37.4452C83.6727 38.5652 84.3661 39.6319 84.9474 41.1252C85.3854 42.2519 85.9074 43.9453 86.0494 47.0653C86.2027 50.4387 86.2361 51.452 86.2361 59.9921C86.2361 68.5322 86.2027 69.5455 86.0494 72.9189C85.9067 76.0389 85.3854 77.7323 84.9474 78.8589C84.3674 80.3523 83.6727 81.4156 82.5527 82.535C81.4327 83.655 80.3694 84.3483 78.8753 84.9283C77.7487 85.3684 76.054 85.8884 72.9339 86.031C69.5606 86.1844 68.5472 86.2177 60.0031 86.2177C51.4584 86.2177 50.4457 86.1844 47.0723 86.031C43.9523 85.887 42.259 85.3657 41.1303 84.9277C39.6369 84.3477 38.5702 83.6543 37.4502 82.5343C36.3302 81.4143 35.6369 80.3503 35.0555 78.8563C34.6175 77.7296 34.0955 76.0363 33.9535 72.9162C33.8002 69.5429 33.7695 68.5295 33.7695 59.9841C33.7695 51.4387 33.8002 50.4307 33.9535 47.0573C34.0962 43.9373 34.6175 42.2439 35.0555 41.1159C35.6356 39.6225 36.3302 38.5559 37.4502 37.4359C38.5702 36.3158 39.6369 35.6225 41.1303 35.0412C42.2583 34.6012 43.9523 34.0811 47.0723 33.9378C50.0244 33.8045 51.1684 33.7645 57.1324 33.7578V33.7658ZM77.0847 39.0795C74.9646 39.0795 73.2446 40.7975 73.2446 42.9182C73.2446 45.0382 74.9646 46.7582 77.0847 46.7582C79.2047 46.7582 80.9247 45.0382 80.9247 42.9182C80.9247 40.7981 79.2047 39.0781 77.0847 39.0781V39.0795ZM60.0028 43.5664C50.9274 43.5664 43.5693 50.9245 43.5693 59.9999C43.5693 69.0753 50.9274 76.4301 60.0028 76.4301C69.0783 76.4301 76.4337 69.0753 76.4337 59.9999C76.4337 50.9245 69.0776 43.5664 60.0022 43.5664H60.0028ZM60.0032 49.334C65.8939 49.334 70.67 54.1094 70.67 60.0008C70.67 65.8915 65.8939 70.6675 60.0032 70.6675C54.1118 70.6675 49.3364 65.8915 49.3364 60.0008C49.3364 54.1094 54.1118 49.334 60.0032 49.334Z" fill="white"/>
</g>
<defs>
<linearGradient id="paint0_linear" x1="60" y1="0" x2="60" y2="120" gradientUnits="userSpaceOnUse">
<stop stop-color="#FEDA75"/>
<stop offset="0.244792" stop-color="#FA7E1E"/>
<stop offset="0.453125" stop-color="#D62976"/>
<stop offset="0.65625" stop-color="#962FBF"/>
<stop offset="1" stop-color="#4F5BD5"/>
</linearGradient>
</defs>
</svg>
