<svg width="197" height="220" viewBox="0 0 197 220" fill="none" xmlns="http://www.w3.org/2000/svg">
<g clip-path="url(#clip0)">
<g opacity="0.18">
<path opacity="0.18" d="M74.1964 219.153C74.0061 219.142 73.8168 219.118 73.6296 219.081C73.2395 219.016 72.6902 218.904 71.9514 218.737C70.5906 218.429 68.7652 217.978 67.0005 217.542L66.5663 217.435C66.8055 217.541 66.8349 217.6 66.8791 217.686C66.9031 217.733 66.9161 217.785 66.917 217.838C66.918 217.89 66.9069 217.943 66.8846 217.991C66.8517 218.049 66.8058 218.099 66.7505 218.137C66.6952 218.175 66.6319 218.2 66.5656 218.21C66.4992 218.22 66.4315 218.214 66.3677 218.193C66.3038 218.173 66.2455 218.138 66.1973 218.091C65.8504 217.931 64.2357 217.446 63.0424 217.081C59.5986 216.04 59.5756 215.995 59.4661 215.779C59.4418 215.732 59.4287 215.68 59.4278 215.628C59.4268 215.575 59.438 215.523 59.4605 215.475C59.6225 215.13 60.0908 215.209 60.5867 215.29C60.9768 215.356 61.5261 215.469 62.2649 215.636C63.6257 215.944 65.4502 216.394 67.2149 216.83L68.653 217.185L67.1707 216.738C60.7118 214.802 60.0172 214.525 59.8516 214.199C59.8257 214.15 59.8116 214.096 59.8103 214.04C59.8091 213.985 59.8207 213.93 59.8442 213.88C60.0098 213.53 60.4699 213.588 61.2078 213.727C61.7285 213.825 62.4618 213.99 63.4491 214.234C65.2726 214.682 67.7182 215.336 70.0837 215.967C71.4767 216.336 72.9902 216.744 74.3933 217.109C73.0997 216.711 71.7113 216.294 70.4287 215.91C62.3514 213.477 61.228 213.058 61.0348 212.682C61.0085 212.633 60.9941 212.578 60.9928 212.521C60.9915 212.465 61.0034 212.41 61.0274 212.359C61.2041 211.983 61.7175 212.068 62.5409 212.253C63.0718 212.373 63.795 212.562 64.7445 212.828C63.8769 212.493 63.818 212.378 63.7536 212.252C63.7274 212.202 63.7132 212.147 63.7121 212.091C63.711 212.035 63.723 211.979 63.7472 211.928C63.9238 211.551 64.4345 211.639 65.2552 211.829C65.7069 211.934 66.3013 212.09 67.0576 212.305C67.0026 212.262 66.959 212.207 66.9306 212.143C66.9038 212.093 66.8892 212.038 66.888 211.982C66.8867 211.925 66.8988 211.869 66.9232 211.818C67.099 211.444 67.6271 211.522 68.4772 211.695C69.102 211.822 69.9825 212.034 71.1694 212.346C73.3619 212.92 76.3052 213.756 79.151 214.559C80.82 215.032 82.6325 215.547 84.3144 216.012C83.3943 215.735 82.4595 215.452 81.5754 215.186C79.3902 214.531 77.1314 213.853 75.4422 213.31C72.4667 212.356 72.382 212.188 72.2827 211.994C72.2567 211.944 72.2425 211.889 72.2412 211.833C72.2399 211.776 72.2516 211.72 72.2753 211.669C72.4501 211.3 72.9782 211.372 73.8274 211.54C74.4531 211.663 75.3336 211.871 76.5205 212.176C78.7149 212.739 81.6591 213.559 84.5067 214.348C86.4131 214.877 88.5062 215.455 90.3786 215.962C89.3214 215.638 88.2219 215.306 87.1942 214.996C79.2549 212.599 78.3441 212.247 78.1601 211.887C78.1342 211.837 78.1201 211.783 78.1188 211.727C78.1175 211.671 78.1291 211.616 78.1527 211.566C78.3312 211.187 78.874 211.268 79.7463 211.448C80.3903 211.58 81.3039 211.804 82.5313 212.128C84.8002 212.73 87.8456 213.604 90.7908 214.446L92.3972 214.907C89.2368 213.931 88.797 213.713 88.6682 213.461C88.6423 213.412 88.6282 213.358 88.6271 213.302C88.626 213.247 88.6378 213.192 88.6617 213.143C88.8347 212.774 89.3426 212.848 90.1578 213.015C90.7494 213.136 91.583 213.339 92.7054 213.634C94.7802 214.181 97.5643 214.975 100.257 215.741L100.323 215.761C97.3371 214.833 96.9111 214.618 96.786 214.372C96.7601 214.323 96.746 214.269 96.7447 214.214C96.7434 214.158 96.755 214.104 96.7786 214.054C96.9497 213.685 97.4447 213.76 98.2397 213.922C98.812 214.038 99.6198 214.234 100.703 214.518C102.708 215.044 105.395 215.809 108.001 216.546L109.178 216.88C102.997 215.008 102.244 214.7 102.08 214.377C102.054 214.328 102.04 214.273 102.038 214.218C102.037 214.162 102.049 214.107 102.073 214.057C102.244 213.694 102.731 213.766 103.511 213.927C104.069 214.043 104.856 214.235 105.915 214.518C107.634 214.979 109.871 215.613 112.107 216.257C106.674 214.602 105.966 214.297 105.805 213.981C105.779 213.932 105.765 213.877 105.764 213.821C105.763 213.765 105.774 213.71 105.798 213.659C105.973 213.29 106.506 213.359 107.362 213.523C107.996 213.644 108.889 213.849 110.093 214.15C112.319 214.703 115.304 215.514 118.19 216.295C120.521 216.926 123.127 217.632 125.285 218.185C123.928 217.767 122.433 217.318 121.058 216.907C118.942 216.272 116.747 215.616 115.107 215.088C112.216 214.161 112.132 213.996 112.034 213.804C112.008 213.754 111.993 213.699 111.992 213.643C111.99 213.586 112.002 213.53 112.026 213.479C112.201 213.11 112.725 213.182 113.568 213.349C114.187 213.472 115.059 213.678 116.236 213.981C118.409 214.54 121.324 215.351 124.149 216.137C126.081 216.674 128.197 217.265 130.085 217.771C128.839 217.389 127.517 216.99 126.292 216.62C124.063 215.949 121.759 215.254 120.035 214.7C117.005 213.726 116.921 213.56 116.823 213.368C116.797 213.318 116.783 213.263 116.781 213.207C116.78 213.151 116.792 213.095 116.816 213.045C117 212.649 117.578 212.782 118.245 212.936C118.673 213.036 119.238 213.184 119.96 213.39C119.934 213.362 119.912 213.331 119.895 213.298C119.869 213.248 119.855 213.193 119.853 213.138C119.852 213.082 119.864 213.026 119.888 212.976C120.064 212.607 120.596 212.706 121.215 212.825C121.713 212.918 122.411 213.085 123.357 213.322C124.995 213.736 127.16 214.327 129.292 214.91C126.513 214.049 126.144 213.859 126.024 213.618C125.999 213.57 125.985 213.516 125.983 213.462C125.982 213.407 125.993 213.353 126.017 213.303C126.173 212.971 126.614 213.042 127.039 213.111C127.372 213.166 127.839 213.259 128.468 213.396C129.623 213.65 131.174 214.022 132.672 214.382L133.18 214.505C133.168 214.485 133.158 214.466 133.147 214.445C133.124 214.398 133.111 214.346 133.11 214.294C133.109 214.242 133.12 214.19 133.142 214.142C133.192 214.049 133.275 213.978 133.375 213.942C133.474 213.906 133.584 213.908 133.682 213.948C133.732 213.966 133.777 213.994 133.817 214.03C134.109 214.159 135.345 214.532 136.261 214.809C138.992 215.639 139.009 215.667 139.113 215.871C139.136 215.918 139.149 215.97 139.15 216.022C139.151 216.074 139.14 216.126 139.118 216.174C138.962 216.506 138.522 216.435 138.096 216.366C137.763 216.311 137.296 216.218 136.668 216.081C135.521 215.829 133.986 215.46 132.498 215.103L132.775 215.185C138.53 216.913 139.107 217.142 139.264 217.449C139.289 217.498 139.303 217.552 139.304 217.607C139.305 217.661 139.293 217.716 139.27 217.766C139.094 218.134 138.562 218.036 137.944 217.916C137.446 217.819 136.748 217.657 135.802 217.419C134.059 216.979 131.722 216.339 129.462 215.72L127.295 215.129L129.103 215.674C136.962 218.042 137.865 218.392 138.049 218.754C138.075 218.804 138.089 218.858 138.091 218.914C138.092 218.97 138.08 219.025 138.057 219.076C137.873 219.472 137.294 219.339 136.627 219.185C136.412 219.135 136.161 219.072 135.874 219C135.937 219.044 135.987 219.104 136.019 219.174C136.045 219.223 136.059 219.278 136.06 219.334C136.062 219.39 136.05 219.446 136.026 219.496C135.851 219.865 135.327 219.793 134.484 219.627C133.865 219.504 132.992 219.297 131.816 218.995C129.643 218.436 126.727 217.624 123.908 216.839C122.049 216.321 120.012 215.754 118.18 215.261C119.225 215.578 120.308 215.906 121.322 216.207C123.439 216.843 125.634 217.498 127.274 218.027C130.166 218.949 130.25 219.119 130.347 219.311C130.374 219.361 130.389 219.416 130.39 219.472C130.392 219.529 130.38 219.585 130.356 219.636C130.18 220.005 129.647 219.935 128.792 219.771C128.158 219.65 127.264 219.445 126.061 219.145C123.835 218.592 120.849 217.781 117.964 216.999C115.704 216.388 113.185 215.708 111.064 215.155C112.312 215.539 113.661 215.946 114.904 216.32C122.666 218.657 123.553 219.003 123.737 219.364C123.763 219.413 123.777 219.468 123.779 219.524C123.78 219.58 123.768 219.635 123.744 219.686C123.573 220.049 123.087 219.978 122.306 219.816C121.747 219.7 120.962 219.508 119.903 219.225C118.353 218.813 116.385 218.254 114.373 217.677C118.271 218.876 118.83 219.143 118.973 219.416C118.999 219.465 119.013 219.52 119.015 219.575C119.016 219.63 119.004 219.685 118.981 219.735C118.809 220.104 118.314 220.029 117.52 219.867C116.947 219.751 116.14 219.556 115.057 219.271C113.116 218.762 110.534 218.031 108.011 217.316C111.047 218.257 111.477 218.474 111.599 218.721C111.625 218.77 111.639 218.824 111.64 218.879C111.642 218.934 111.63 218.989 111.606 219.039C111.433 219.408 110.926 219.333 110.11 219.166C109.519 219.046 108.685 218.844 107.562 218.548C105.518 218.009 102.788 217.232 100.133 216.475C102.673 217.27 103.055 217.474 103.169 217.707C103.195 217.755 103.209 217.809 103.211 217.865C103.212 217.92 103.2 217.975 103.177 218.025C102.998 218.404 102.455 218.323 101.583 218.143C100.939 218.01 100.026 217.787 98.7981 217.462C96.5293 216.861 93.4838 215.987 90.5387 215.145C88.9939 214.702 87.3313 214.222 85.7543 213.783L87.4528 214.295C95.3921 216.693 96.3038 217.044 96.4869 217.405C96.5132 217.454 96.5276 217.509 96.5289 217.565C96.5302 217.621 96.5183 217.676 96.4943 217.727C96.3186 218.096 95.7914 218.024 94.9421 217.856C94.3174 217.732 93.436 217.525 92.2491 217.22C90.0547 216.657 87.1114 215.836 84.2638 215.049C82.2396 214.487 80.0112 213.867 78.0552 213.345C79.2936 213.724 80.6111 214.119 81.8275 214.485C84.0117 215.141 86.2705 215.82 87.9606 216.362C90.9352 217.316 91.0208 217.483 91.1202 217.678C91.1465 217.728 91.1609 217.783 91.1621 217.839C91.1634 217.896 91.1516 217.952 91.1275 218.003C90.9509 218.377 90.4227 218.299 89.5735 218.126C88.9479 218 88.0674 217.787 86.8814 217.475C84.688 216.901 81.7456 216.066 78.8989 215.262C77.0964 214.751 75.1266 214.193 73.3361 213.694C74.5249 214.057 75.7679 214.432 76.9244 214.781C79.2181 215.471 81.591 216.186 83.3649 216.756C86.4802 217.756 86.5677 217.927 86.6679 218.124C86.6943 218.174 86.7086 218.229 86.7099 218.286C86.7112 218.342 86.6993 218.398 86.6753 218.449C86.4977 218.826 85.9871 218.738 85.1673 218.548C84.8342 218.471 84.4257 218.364 83.9317 218.23C84.0253 218.28 84.1005 218.358 84.146 218.453C84.1723 218.503 84.1867 218.558 84.188 218.614C84.1893 218.671 84.1774 218.726 84.1534 218.777C83.9758 219.153 83.4633 219.068 82.639 218.882C82.0418 218.749 81.2018 218.526 80.0692 218.204L79.53 218.049C79.8861 218.212 80.0186 218.325 80.0738 218.432C80.1001 218.482 80.1145 218.537 80.1158 218.593C80.117 218.649 80.1052 218.705 80.0812 218.756C79.9165 219.106 79.4555 219.047 78.7176 218.909C78.1969 218.811 77.4636 218.645 76.4763 218.403C74.6537 217.955 72.2072 217.296 69.8426 216.669C68.9538 216.431 68.0172 216.181 67.0916 215.936L67.421 216.036C73.879 217.972 74.5745 218.249 74.7402 218.575C74.7658 218.624 74.7798 218.678 74.7809 218.733C74.782 218.788 74.7703 218.843 74.7466 218.892C74.6592 219.105 74.4522 219.16 74.1964 219.153ZM133.924 214.374C133.918 214.399 133.91 214.424 133.899 214.448C133.913 214.42 133.923 214.391 133.929 214.36L133.924 214.374Z" fill="#EFD5B9"/>
</g>
<path d="M84.2702 206.767C84.3162 206.428 84.3548 206.105 84.3843 205.808C84.4827 204.829 84.5794 203.823 84.6668 202.8C85.2372 198.246 85.5528 193.535 84.5674 189.11C84.2419 187.624 83.7525 186.179 83.1082 184.802C78.0073 174.263 77.6981 161.713 69.7819 152.729C68.8271 151.737 67.7474 150.874 66.5699 150.162C65.5178 149.813 64.4191 149.625 63.311 149.604C58.2212 166.362 63.1675 184.024 67.8249 200.226C68.2113 201.523 68.5947 202.816 68.975 204.107C69.3485 205.383 69.7125 206.658 70.0671 207.929C74.6674 205.839 79.3855 204.889 84.2702 206.767Z" fill="#F47160"/>
<path d="M70.0664 207.929C70.0664 207.942 70.0747 207.955 70.0784 207.969C70.2881 208.588 70.5139 209.196 70.7555 209.793C70.9972 210.39 71.2585 210.978 71.5394 211.556C72.9048 215.165 76.6155 218.419 80.4798 215.94C82.1801 214.855 83.1075 213.151 83.4139 211.2C83.5776 210.52 83.7212 209.825 83.8739 209.128C84.0432 208.287 84.1738 207.486 84.2695 206.767C79.3849 204.888 74.6668 205.839 70.0664 207.929Z" fill="#FFE1DC"/>
<path d="M115.26 206.46C115.359 207.254 115.503 208.167 115.696 209.129C115.849 209.825 115.992 210.52 116.156 211.203C116.497 213.616 118.043 216.405 120.825 216.714C124.23 217.176 126.699 214.391 128.03 211.556C128.311 210.98 128.572 210.392 128.814 209.794C129.057 209.196 129.282 208.588 129.492 207.969C129.637 207.446 129.786 206.921 129.935 206.396C125.113 205.257 119.844 204.726 115.26 206.46Z" fill="#FFE1DC"/>
<path d="M133.636 194.081C140.483 175.068 142.108 153.078 132.716 134.617C131.271 136.427 129.826 138.327 129.285 140.681C125.673 154.345 123.055 167.648 118.271 180.586C117.728 182.036 117.096 183.484 116.46 184.802C115.815 186.179 115.326 187.624 115.002 189.11C114.015 193.537 114.332 198.246 114.901 202.8C114.993 203.823 115.085 204.829 115.184 205.808C115.205 206.014 115.23 206.232 115.257 206.46C119.842 204.726 125.109 205.261 129.932 206.396C130.152 205.635 133.004 196.156 133.636 194.081Z" fill="#F47160"/>
<path d="M68.2104 165.294C60.8195 170.137 53.0384 176.47 43.6528 175.93C42.2363 175.718 40.8574 175.303 39.5585 174.698C35.6887 172.902 32.6248 169.519 31.6459 165.32C31.1485 163.494 31.0197 161.586 31.2668 159.709C31.2567 158.212 31.2263 156.702 31.1408 155.195C30.7967 149.184 29.5527 143.244 25.6958 138.805C25.2707 139.455 24.8343 140.096 24.3865 140.729C23.794 141.569 23.1904 142.403 22.6053 143.248C22.2986 143.687 21.9999 144.13 21.7091 144.577C21.565 144.799 21.4224 145.023 21.2813 145.249C21.181 145.412 20.7651 146.119 21.1893 145.388C20.7007 146.235 20.1883 146.848 19.2921 147.259C19.0799 147.357 18.856 147.426 18.626 147.466L20.0521 150.996C21.791 152.492 22.5105 154.738 22.8381 157.209C23.0037 158.447 23.0708 159.742 23.1214 161.026C22.9967 162.857 23.1374 164.697 23.5392 166.488C25.0425 173.048 29.8324 178.695 35.8598 181.453C37.3653 182.146 38.9507 182.648 40.5798 182.95C51.2323 184.39 60.4459 177.475 68.0531 170.709C69.1682 169.755 69.5638 168.257 69.7644 166.836C69.3095 166.262 68.7878 165.744 68.2104 165.294V165.294Z" fill="#F47160"/>
<path d="M25.8458 138.975C25.7879 138.906 25.7299 138.838 25.6701 138.77C24.732 138.105 23.7332 137.531 22.6872 137.055C18.5386 135.145 13.965 134.658 9.84121 136.838C6.51884 138.52 5.27398 142.87 6.66697 146.317C7.18865 147.608 8.57059 148.552 9.74736 148.576C10.8717 148.607 12.0337 148.659 13.1866 148.777C14.3287 148.884 15.4601 149.084 16.5697 149.376C17.8504 149.639 18.8699 150.099 19.6979 150.708C23.4665 148.333 27.0079 143.505 25.8458 138.975Z" fill="#FFE1DC"/>
<path d="M76.0496 114.521C75.3219 117.43 74.3935 120.346 73.1109 123.145C72.1071 125.333 71.0592 127.576 70.0195 129.863C68.9798 132.15 67.9484 134.48 66.975 136.839C62.52 147.992 58.6796 160.473 62.52 172.604C69.7352 195.351 97.5508 200.133 117.594 193.476C119.721 192.772 121.778 191.869 123.736 190.777C127.634 188.593 131.097 185.613 133.857 181.703C141.309 171.205 139.908 158.023 136.515 146.4C134.901 140.908 132.569 135.61 129.785 130.421C127.002 125.232 123.77 120.152 120.357 115.097C118.902 112.939 116.865 111.685 114.588 111.031C113.438 110.694 112.244 110.531 111.046 110.547C107.826 110.509 104.645 110.807 101.478 111.223C99.8933 111.432 98.3126 111.67 96.7328 111.908C91.9595 112.531 87.188 113.464 82.4285 113.384C80.4025 113.646 78.2817 114.013 76.0496 114.521Z" fill="#F47160"/>
<path d="M87.192 128.241C80.8702 142.259 75.6148 162.553 89.99 173.554C99.1106 180.68 112.404 177.427 119.515 168.75C126.784 159.764 124.307 147.834 121.37 137.919C118.278 127.228 116.578 115.918 109.467 107.241C106.375 103.368 100.965 102.907 96.3283 104.298C92.464 105.692 88.5997 108.326 88.2897 112.665C88.1351 116.999 90.4537 121.65 88.1664 125.624C87.8695 126.479 87.5447 127.351 87.192 128.241Z" fill="#FFE1DC"/>
<path d="M43.2378 105.05C42.7226 104.343 41.9497 105.022 41.7712 105.578C41.5973 106.111 41.8734 106.869 42.0408 107.379C42.1742 107.783 42.3592 108.403 42.6701 108.719C43.1302 109.18 43.3988 109.031 43.5414 108.594C43.8395 107.68 43.5709 105.506 43.2378 105.05Z" fill="#FFE1DC"/>
<path d="M75.6458 189.43C75.5391 189.283 75.5382 189.176 75.701 189.138C75.885 189.096 76.1785 189.179 76.4573 189.309C77.7537 189.909 79.1384 190.589 80.5581 191.218C81.9777 191.847 83.4287 192.425 84.806 192.878C85.1391 192.983 85.4666 193.103 85.8025 193.199L86.8063 193.505C87.4807 193.689 88.1542 193.886 88.8369 194.044C90.196 194.382 91.5739 194.64 92.9634 194.815C95.6849 195.161 98.504 195.471 101.273 195.477C102.837 195.477 104.401 195.22 105.959 195.088L106.918 195.004C107.396 194.953 107.875 194.912 108.353 194.854C108.832 194.796 109.31 194.745 109.787 194.679C110.236 194.602 110.685 194.538 111.13 194.45C113.362 194.038 115.57 193.515 117.755 192.882L118.341 192.713C118.741 192.609 119.141 192.492 119.537 192.373C119.932 192.254 120.335 192.14 120.726 192.01C121.512 191.761 122.295 191.549 123.084 191.464C123.452 191.418 123.736 191.618 123.421 191.818C122.672 192.294 121.749 192.67 120.788 193C119.821 193.309 118.814 193.554 117.903 193.821C115.654 194.46 113.373 194.979 111.069 195.374C109.213 195.693 107.342 195.939 105.457 196.112C103.464 196.287 101.457 196.288 99.4563 196.256C98.7423 196.25 98.0284 196.218 97.3144 196.195C96.6013 196.156 95.8874 196.125 95.1752 196.067C94.8376 196.045 94.5036 196.017 94.1714 195.974C93.8393 195.932 93.509 195.902 93.1787 195.859C92.5199 195.767 91.8593 195.67 91.1932 195.546C88.3458 195.061 85.5496 194.312 82.8408 193.307C81.1328 192.668 79.4748 191.901 77.8807 191.014C77.6792 190.909 77.209 190.629 76.7389 190.33C76.2687 190.03 75.8206 189.668 75.6458 189.43Z" fill="#FFE1DC"/>
<path d="M63.1637 182.155C63.1337 182.195 63.0925 182.225 63.0453 182.242C62.998 182.258 62.947 182.26 62.8987 182.247C62.8352 182.235 62.7755 182.208 62.7242 182.168C62.673 182.129 62.6316 182.078 62.6034 182.019C62.0881 181.005 61.9262 179.714 61.7229 178.607C61.5269 177.544 61.4266 176.456 61.2159 175.394C61.0071 174.35 60.9969 173.245 60.9104 172.18C60.8626 171.579 60.6234 170.99 60.5801 170.383C60.5719 170.26 60.5636 170.136 60.5553 170.014C60.5387 169.646 60.524 169.268 60.5231 168.894C60.5102 168.719 60.4979 168.543 60.4863 168.366C60.4513 167.928 60.4311 167.489 60.4072 167.049C60.3832 166.609 60.3786 166.174 60.374 165.735C60.374 165.656 60.374 165.578 60.374 165.498C60.4228 164.861 60.2544 164.201 60.5737 163.609C60.6418 163.472 60.9196 163.397 61.0135 163.537C61.4607 164.197 61.3153 165.04 61.3171 165.759C61.3217 166.645 61.3364 167.525 61.3861 168.403C61.4018 168.757 61.4275 169.112 61.4597 169.466C61.4919 169.82 61.5251 170.174 61.5655 170.527C61.6474 171.275 61.6704 172.032 61.7707 172.78C61.8443 173.314 61.9345 173.845 62.0467 174.372C62.1507 174.871 62.2188 175.358 62.2988 175.862C62.4727 176.932 62.6834 177.996 62.8776 179.064C63.0018 179.738 63.1177 180.413 63.2134 181.093C63.2373 181.265 63.3496 181.905 63.1637 182.155Z" fill="#FFE1DC"/>
<path d="M177.694 86.0606C180.336 68.7033 177.293 49.3217 163.51 36.9082C161.139 34.9716 158.326 33.663 155.959 31.8786C145.694 23.6859 134.868 17.3634 122.733 13.8748C118.583 12.6752 114.353 11.7759 110.074 11.1839C105.198 10.5088 100.12 10.3963 94.9852 10.8021C89.7563 11.2279 84.579 12.1458 79.5216 13.5437C61.4707 18.4977 44.4881 29.6589 33.6727 45.0824C21.3695 62.6288 19.9241 84.2587 29.7283 103.439C30.1368 104.238 30.5638 105.028 31.0091 105.809C33.9995 110.633 37.6126 115.04 41.7546 118.916C75.4926 146.628 131.959 142.625 162.744 112.215C166.297 108.454 169.454 104.336 172.165 99.9257C175.133 95.8127 176.859 91.045 177.694 86.0606Z" fill="#F47160"/>
<path d="M72.614 35.8071C76.3862 35.37 76.6402 29.5141 76.7543 25.9397C76.8475 22.0543 76.8043 18.1749 76.6245 14.3018C72.8734 15.3624 69.233 16.7829 65.7539 18.5438C66.1449 23.4314 67.9372 28.0248 69.8151 32.5334C70.3966 33.924 71.4289 35.951 72.614 35.8071Z" fill="#FFE1DC"/>
<path d="M118.73 28.3431C118.866 29.3049 119.543 30.4641 120.623 30.7555C123.107 31.4334 124.093 28.6124 124.895 26.7634C126.497 23.0276 127.115 19.0576 127.355 15.036C125.965 14.5103 124.55 14.0391 123.109 13.6223C121.413 13.1304 119.693 12.7121 117.946 12.3672C118.082 17.6614 117.802 22.9769 118.73 28.3431Z" fill="#FFE1DC"/>
<path d="M91.8421 26.4181C92.43 29.9925 93.1854 33.5392 94.0742 37.0499C94.4082 38.3696 94.7734 39.7123 95.538 40.8374C96.4581 42.1884 98.2274 43.1428 99.8623 42.6209C102.005 41.9412 102.347 39.4236 102.899 37.5488C104.5 32.0969 105.236 26.5527 105.777 20.9135C105.869 20.0006 107.114 10.9392 106.053 10.7557C105.944 10.7372 105.685 10.74 105.575 10.7216C102.532 10.219 99.3959 10.3942 96.1977 10.6727C94.4164 10.8276 92.5837 10.8627 90.7923 11.2463C89.5787 11.5063 91.2063 22.0442 91.36 23.1886C91.5047 24.2675 91.6654 25.344 91.8421 26.4181Z" fill="#FFE1DC"/>
<path d="M164.804 46.1851C165.809 45.949 166.532 45.3772 167.197 44.6091C176.269 34.1782 183.605 19.095 178.566 6.1595C175.076 -2.78569 161.413 0.0389611 152.903 2.17382C145.647 4.09565 139.088 9.01366 135.177 15.6847C132.673 20.1398 133.124 26.3719 137.687 29.3561C145.372 33.9744 152.949 37.9647 160.014 43.2618C161.589 44.2651 163.186 45.2395 164.804 46.1851Z" fill="#F47160"/>
<path d="M163.068 36.4139C165.322 35.8809 166.902 33.8549 168.103 31.5264C169.493 28.8391 170.481 25.8595 171.252 22.9436C171.974 20.2121 173.526 14.5932 170.933 12.3763C170.013 11.5897 168.689 11.5353 167.48 11.586C160.243 11.8894 146.541 15.1032 147.011 24.6524C147.299 30.5092 155.259 34.9809 160.234 36.318C161.284 36.603 162.223 36.6177 163.068 36.4139Z" fill="#FFE1DC"/>
<path d="M34.2605 50.9714C33.2355 50.8404 32.4581 50.347 31.7211 49.6517C21.6206 40.2178 12.7676 25.9765 16.4415 12.5873C18.9892 3.32946 32.8702 4.72104 41.5594 5.96138C48.9761 7.11964 56.0045 11.3312 60.5855 17.5606C63.5371 21.7316 63.7321 27.9813 59.5017 31.4183C52.3352 36.8094 45.2102 41.5623 38.7311 47.5657C37.2639 48.7264 35.7737 49.8617 34.2605 50.9714Z" fill="#F47160"/>
<path d="M34.9764 41.072C32.6762 40.776 30.8986 38.9243 29.4633 36.7378C27.8072 34.2101 26.5136 31.3485 25.4454 28.5303C24.4453 25.8892 22.3172 20.4612 24.6716 17.987C25.5061 17.1091 26.8172 16.9182 28.0243 16.8435C35.2533 16.3944 49.2145 18.1677 49.738 27.7151C50.0554 33.571 42.6001 38.8422 37.79 40.6903C36.7705 41.0757 35.8376 41.1827 34.9764 41.072Z" fill="#FFE1DC"/>
<path d="M143.688 95.4724C145.288 96.9202 146.229 99.2081 145.588 101.257C145.015 103.09 143.335 104.379 141.557 105.093C137.722 106.634 133.065 105.884 129.906 103.215C128.858 102.33 127.953 101.222 127.543 99.9118C125.841 94.4709 133.012 92.7695 136.886 93.0581C139.176 93.2287 141.526 93.759 143.336 95.1791C143.457 95.2686 143.574 95.3691 143.688 95.4724Z" fill="#FFC3BB"/>
<path d="M62.8032 95.7373C61.3311 96.867 60.4 98.4421 60.757 100.563C62.0129 108.023 71.7325 107.489 76.5123 103.951C78.6643 102.359 79.5227 99.3357 78.277 96.9112C76.7662 93.9713 72.7464 93.0999 69.7323 93.3627C67.5673 93.5517 64.7216 94.2692 62.8032 95.7373Z" fill="#FFC3BB"/>
<path d="M58.0758 83.8164C63.254 83.5711 68.3033 85.6349 72.1179 89.1116C72.2835 88.4857 72.4485 87.8592 72.6129 87.2322C67.8405 88.8349 62.5197 89.5819 58.8487 93.3647C57.8366 94.4031 59.4255 95.9947 60.4349 94.9545C63.7968 91.4917 68.8397 90.8693 73.2101 89.4011C73.9682 89.1466 74.3638 88.1221 73.7051 87.5208C69.4672 83.6587 63.8437 81.2933 58.0758 81.5663C56.6377 81.6345 56.6294 83.8846 58.0758 83.8164V83.8164Z" fill="#020010"/>
<path d="M142.825 78.0695C137.035 78.1516 131.62 81.0205 127.728 85.2266C127.195 85.802 127.353 86.9381 128.223 87.106C132.959 88.0281 138.062 88.3528 142.092 91.2881C142.583 91.645 143.343 91.372 143.627 90.8842C143.959 90.3161 143.719 89.7038 143.225 89.346C139.026 86.2889 133.748 85.8924 128.819 84.937L129.315 86.8173C132.811 83.0437 137.611 80.3925 142.825 80.3187C144.268 80.2975 144.273 78.0483 142.825 78.0695V78.0695Z" fill="#020010"/>
<path d="M39.7499 76.5875C39.7959 76.3367 39.6579 76.0232 39.5512 75.8221C38.7608 74.3974 37.5473 73.3027 36.3806 72.1961C35.102 71.0004 33.7338 69.9047 32.2881 68.9187C31.7668 68.5578 31.2362 68.2132 30.6964 67.8849C25.8394 64.9422 20.1524 63.5193 15.2392 66.651C14.7305 67.046 14.2703 67.5001 13.8683 68.0038C13.4576 68.5209 13.1121 69.0868 12.8397 69.6887C12.553 70.3271 12.3463 70.9986 12.2242 71.688C11.3041 76.0103 14.2327 80.9504 18.5239 81.0408C23.2163 80.991 27.5507 78.9308 32.1998 77.9478C34.466 77.4692 36.7873 77.2773 39.0856 77.0025C39.2457 76.9937 39.4023 76.952 39.5457 76.8799C39.5993 76.8494 39.6454 76.8074 39.6807 76.7568C39.7161 76.7063 39.7397 76.6484 39.7499 76.5875V76.5875Z" fill="#52B0F7"/>
<path d="M15.8081 68.5256C16.9848 67.1995 18.7523 66.625 20.5924 66.9892C20.8756 67.0445 21.1529 67.1267 21.4205 67.2346C21.6858 67.3418 21.939 67.4768 22.1759 67.6375C22.4177 67.7847 22.6451 67.9545 22.8549 68.1448C23.5064 68.7385 23.9753 69.5064 24.2065 70.358C24.9637 73.1246 21.1169 74.2699 19.1387 74.4912C18.3962 74.5742 17.6381 74.6148 16.9057 74.4636C14.4961 73.9647 14.0737 71.5227 15.0987 69.5668C15.2919 69.192 15.5302 68.8424 15.8081 68.5256V68.5256Z" fill="white"/>
<path d="M39.8638 89.266C39.7368 88.9276 38.9897 88.7597 38.6916 88.7127C38.5389 88.6924 38.3853 88.674 38.2316 88.6564C36.813 88.4864 35.3857 88.3989 33.957 88.3945C33.3994 88.3945 32.8412 88.4176 32.2824 88.4637C31.724 88.5098 31.1664 88.5799 30.6079 88.6786C30.0559 88.7597 29.5038 88.8648 28.9518 88.994C28.3997 89.1231 27.8554 89.2783 27.3187 89.4597C26.8611 89.6023 26.405 89.7504 25.9505 89.9041C25.4804 90.0812 25.0249 90.273 24.5796 90.4907C22.3714 91.5641 20.4246 93.1576 19.2368 95.3626C17.554 98.4832 19.3104 102.776 22.6999 103.761C23.2687 103.927 23.856 104.021 24.448 104.042C25.0227 104.061 25.5974 104.009 26.1594 103.887C27.1061 103.727 28.0164 103.397 28.8469 102.914C31.0928 101.502 32.6468 99.304 34.0784 97.1202C34.8016 96.0136 35.5054 94.8978 36.2866 93.8354C37.0677 92.7731 37.9841 91.8066 38.8333 90.7867C39.091 90.4768 39.9439 89.7511 39.8703 89.3112C39.8695 89.296 39.8673 89.2808 39.8638 89.266V89.266Z" fill="#52B0F7"/>
<path d="M20.6583 96.0631C20.9767 94.6799 21.998 93.6027 23.4186 93.1555C23.6373 93.0862 23.8623 93.038 24.0902 93.0116C24.3168 92.9849 24.5457 92.9821 24.7729 93.0033C25.7061 93.0496 26.5861 93.4529 27.2313 94.1302C28.8157 95.7754 26.5588 98.0541 25.2578 98.9671C24.7692 99.3092 24.2531 99.6283 23.6826 99.8026C21.8048 100.376 20.5774 98.8269 20.5544 97.0646C20.5483 96.7278 20.5833 96.3915 20.6583 96.0631V96.0631Z" fill="white"/>
<path d="M158.889 74.817C158.811 74.7464 158.745 74.6639 158.692 74.5726C158.423 74.1115 158.566 73.4928 158.834 73.0603C159.746 71.5848 160.658 70.1213 161.699 68.7343C162.103 68.1988 162.528 67.6784 162.973 67.173C163.418 66.6677 163.89 66.1823 164.387 65.7169C164.867 65.2411 165.366 64.7855 165.885 64.3502C166.404 63.9149 166.946 63.5036 167.51 63.1163C167.976 62.78 168.447 62.4481 168.923 62.1204C169.431 61.7958 169.946 61.4979 170.474 61.2249C173.097 59.8712 176.026 59.15 178.996 59.5973C183.199 60.2308 186.044 65.0179 184.541 68.9916C184.29 69.6599 183.955 70.294 183.547 70.8793C183.151 71.4458 182.688 71.9614 182.167 72.4147C181.33 73.2107 180.358 73.8489 179.295 74.2988C174.2 76.2575 168.802 74.569 163.55 74.9563C162.335 75.0485 161.117 75.1241 159.898 75.1241C159.524 75.1241 159.156 75.0577 158.889 74.817Z" fill="#52B0F7"/>
<path d="M178.181 61.6099C176.63 60.921 174.857 61.1239 173.397 62.1715C173.172 62.3321 172.964 62.5137 172.774 62.7137C172.585 62.913 172.418 63.1311 172.274 63.3648C172.122 63.5897 171.991 63.8284 171.883 64.0776C171.55 64.8542 171.445 65.71 171.58 66.5445C172.012 69.2548 175.824 68.7282 177.636 68.1343C178.317 67.9111 178.995 67.6456 179.574 67.2223C181.479 65.8289 180.88 63.5335 179.212 62.2323C178.895 61.9836 178.549 61.7745 178.181 61.6099Z" fill="white"/>
<path d="M161.456 88.0675C161.47 88.0055 161.494 87.9459 161.525 87.8904C161.949 87.1472 163.274 86.8567 164.01 86.5994C165.063 86.2375 166.142 85.96 167.239 85.7694C169.955 85.3021 172.734 85.3612 175.428 85.9437C176.079 86.0863 176.72 86.2711 177.347 86.497C180.466 87.6276 183.097 89.8307 183.866 93.2659C183.894 93.394 183.924 93.5241 183.944 93.6532C184.305 95.9042 183.269 98.0713 181.552 99.4786C180.974 99.9519 180.327 100.332 179.632 100.606C172.792 102.891 167.807 96.2574 163.962 91.7074C163.425 91.0741 162.889 90.4403 162.354 89.8058C161.958 89.3281 161.279 88.7757 161.456 88.0675Z" fill="#52B0F7"/>
<path d="M181.446 91.9713C180.894 90.3114 179.447 89.3818 177.96 88.8359C176.429 88.432 174.667 88.5104 173.689 89.8641C172.76 91.3138 173.459 93.1167 174.241 94.393C174.977 95.5743 176.228 96.3655 177.616 96.7233C179.916 97.4491 182.168 95.3087 181.696 93.0576C181.657 92.6867 181.573 92.3218 181.446 91.9713V91.9713Z" fill="white"/>
<path d="M57.9718 79.6111C56.0396 79.5263 54.3531 78.8337 54.6908 76.6657C54.953 74.9817 56.0221 74.3602 57.428 73.4869C60.3189 71.6932 63.3413 70.167 66.7391 69.6552C67.7309 69.5049 68.7798 69.4376 69.7082 69.8203C71.7268 70.6502 71.6182 72.8506 70.4166 74.3058C68.4136 76.7311 65.0802 78.2924 62.1084 79.1076C61.1534 79.3695 59.4871 79.6775 57.9718 79.6111Z" fill="#FFE1DC"/>
<path d="M143.277 75.8477C148.594 74.5326 145.038 70.3441 141.642 69.29C138.797 68.4075 135.714 67.6725 132.727 67.8145C131.725 67.8625 130.683 67.999 129.849 68.5606C128.032 69.7751 128.57 71.909 130.033 73.0986C132.474 75.0813 136.052 75.9574 139.121 76.1677C140.11 76.2387 141.802 76.2119 143.277 75.8477Z" fill="#FFE1DC"/>
<path d="M105.647 97.3944C103.622 96.9395 101.514 97.0266 99.5338 97.647C98.1537 98.027 96.7938 98.9446 95.5508 100.072C94.2001 101.342 93.2792 102.931 92.5771 104.637C93.4843 105.012 94.5682 105.113 95.721 104.848C99.1409 104.064 102.714 102.623 106.275 102.877C108.746 103.053 111.175 104.378 113.685 103.944C113.729 103.936 113.77 103.927 113.811 103.919C112.174 100.702 109.321 98.0353 105.647 97.3944Z" fill="#FFC3BB"/>
<path d="M117.201 98.8553C116.273 94.6557 111.554 93.8312 107.957 93.4587C107.017 93.3609 105.982 93.2742 104.894 93.229C99.9965 93.0197 92.9929 93.4531 90.5612 98.6026C89.2731 101.33 90.4278 103.75 92.5761 104.637C93.2781 102.936 94.1991 101.342 95.5498 100.073C96.7928 98.9448 98.1518 98.0272 99.5328 97.6472C101.513 97.0268 103.621 96.9397 105.646 97.3946C109.321 98.0336 112.173 100.702 113.81 103.919C116.156 103.447 117.735 101.263 117.201 98.8553Z" fill="#020010"/>
<path d="M99.7801 88.8492L99.6264 88.7726C98.2789 88.0687 97.069 87.1272 96.0547 85.9932C95.7272 85.6253 95.4291 85.2322 95.1632 84.8174C94.3875 83.6923 93.8751 81.8065 95.0472 80.7478C95.5257 80.3144 96.1761 80.1318 96.8073 79.999C100.082 79.311 103.821 79.2373 107.112 79.8588C107.848 79.999 108.607 80.1973 109.185 80.6777C110.92 82.12 109.246 84.6864 108.254 86.0384C106.371 88.6039 102.84 90.3284 99.7801 88.8492Z" fill="#020010"/>
<path d="M37.0127 116.019C37.4203 115.212 37.8408 114.376 38.2603 113.519C37.2133 112.261 36.2083 110.97 35.2453 109.646C33.1512 106.766 27.9675 105.951 26.1301 109.211C23.795 113.408 25.314 117.658 28.1543 121.405C31.829 120.851 35.3603 119.225 37.0127 116.019Z" fill="#FFE1DC"/>
<path d="M28.1553 121.403C30.5594 124.575 33.9103 127.386 36.6733 129.497C37.6989 130.283 38.7526 131.033 39.8346 131.746C40.9166 132.459 42.0229 133.129 43.1533 133.757C51.0374 138.074 60.1571 140.708 69.2769 140.553C71.4418 140.553 73.915 139.778 74.5332 137.609C75.1515 135.44 73.6058 133.116 71.5964 132.496C65.258 130.327 58.3023 130.482 52.7285 126.454C51.6391 125.761 50.5746 125.032 49.5349 124.265C45.3762 121.199 41.6049 117.543 38.2604 113.521C37.8418 114.378 37.4204 115.214 37.0128 116.022C35.3603 119.223 31.8291 120.849 28.1553 121.403Z" fill="#F47160"/>
<path d="M159.814 116.019C159.406 115.212 158.986 114.376 158.566 113.519C159.613 112.261 160.618 110.97 161.581 109.646C163.676 106.766 168.859 105.951 170.697 109.211C173.032 113.408 171.512 117.658 168.672 121.405C164.997 120.851 161.466 119.225 159.814 116.019Z" fill="#FFE1DC"/>
<path d="M168.673 121.403C166.268 124.575 162.918 127.386 160.154 129.497C159.129 130.283 158.075 131.033 156.993 131.746C155.911 132.459 154.805 133.129 153.674 133.756C146.412 137.609 138.529 140.088 130.323 140.448C129.147 140.519 127.967 140.553 126.781 140.553C126.088 140.549 125.402 140.402 124.768 140.123C124.133 139.843 123.562 139.436 123.091 138.926C122.182 137.919 121.757 136.528 122.297 134.975C122.762 133.736 123.689 132.651 124.926 132.187C136.059 128.467 147.958 125.369 155.962 116.459C156.868 115.51 157.731 114.522 158.568 113.521C158.986 114.378 159.408 115.214 159.815 116.022C161.467 119.223 164.998 120.849 168.673 121.403Z" fill="#F47160"/>
<path d="M67.6779 131.477C67.7956 131.578 67.8223 131.677 67.7018 131.77C67.5813 131.862 67.3117 131.896 67.0577 131.87C65.8736 131.759 64.6103 131.479 63.3554 131.145L62.4197 130.869L61.9596 130.729L61.4996 130.578L60.5952 130.28L59.7211 129.971C58.617 129.589 57.535 129.13 56.4594 128.663C55.9276 128.413 55.3903 128.178 54.8631 127.925C54.3359 127.672 53.8041 127.423 53.2843 127.154C51.2206 126.128 49.2691 124.752 47.4657 123.312C46.9652 122.898 46.4086 122.53 45.8961 122.12C45.3728 121.723 44.8718 121.297 44.3955 120.844C44.2032 120.659 44.0146 120.466 43.8269 120.275C43.2601 119.704 42.7145 119.114 42.1809 118.516L41.4043 117.691C40.1162 116.313 38.8649 114.91 37.6127 113.52L37.2769 113.146C36.4019 112.102 35.3346 111.203 34.6667 110.08C34.5075 109.821 34.582 109.501 34.8571 109.646C36.1783 110.331 37.3413 111.793 38.3709 112.952C39.6479 114.376 40.8974 115.811 42.1836 117.215C43.2187 118.344 44.2943 119.435 45.4122 120.474C46.5954 121.58 47.7961 122.64 49.1274 123.564C49.3602 123.734 49.6058 123.885 49.8451 124.045C50.0843 124.206 50.3244 124.364 50.571 124.512L51.3144 124.951L51.6824 125.169L52.0624 125.372C52.5436 125.627 53.0073 125.892 53.4858 126.132L54.197 126.501L54.9266 126.857C55.9654 127.37 57.0363 127.817 58.111 128.251C58.6529 128.455 59.1939 128.666 59.7404 128.86C60.2869 129.055 60.8325 129.251 61.3864 129.425C62.7757 129.886 64.1825 130.302 65.593 130.704C65.7696 130.752 66.1929 130.871 66.6216 131.008C67.0504 131.145 67.4865 131.313 67.6779 131.477Z" fill="#FFE1DC"/>
<path d="M129.401 132.042C129.247 131.997 129.183 131.916 129.266 131.783C129.358 131.636 129.598 131.506 129.854 131.432C131.043 131.067 132.338 130.726 133.626 130.333C134.914 129.941 136.202 129.527 137.375 129.058C138.493 128.597 139.612 128.122 140.702 127.583C141.79 127.044 142.845 126.441 143.862 125.776C144.852 125.111 145.859 124.454 146.844 123.736L148.325 122.671L149.061 122.137C149.182 122.045 149.309 121.961 149.423 121.867L149.763 121.58C150.794 120.698 151.655 119.615 152.604 118.643L153.188 118.043C153.77 117.439 154.35 116.83 154.927 116.218C155.193 115.921 155.455 115.625 155.711 115.326C156.999 113.829 158.234 112.247 159.704 110.836C159.834 110.71 159.971 110.589 160.105 110.467C160.671 109.99 161.233 109.484 161.853 109.068C162.473 108.652 163.133 108.301 163.833 108.159C164.157 108.083 164.425 108.264 164.181 108.482C163.595 108.979 162.923 109.463 162.239 109.972C161.556 110.469 160.904 111.008 160.287 111.585C158.857 112.964 157.598 114.536 156.255 116.064C155.167 117.286 154.078 118.505 152.937 119.69C152.334 120.316 151.703 120.918 151.053 121.501C150.728 121.793 150.402 122.077 150.064 122.364C149.897 122.513 149.722 122.641 149.549 122.771L149.032 123.169C148.048 123.926 147.091 124.712 146.088 125.455C145.149 126.15 144.172 126.79 143.16 127.372C140.996 128.652 138.716 129.725 136.351 130.576C134.858 131.109 133.328 131.535 131.774 131.851C131.58 131.887 131.114 131.979 130.633 132.044C130.152 132.11 129.654 132.114 129.401 132.042Z" fill="#FFE1DC"/>
<path d="M56.2182 24.5233C56.17 24.5118 56.1257 24.4875 56.0901 24.4529C56.0545 24.4184 56.0288 24.3748 56.0158 24.3269C55.9956 24.2701 55.9894 24.2092 55.9977 24.1495C56.0061 24.0898 56.0287 24.0329 56.0636 23.9838C56.3806 23.56 56.7557 23.1831 57.1778 22.8643C57.6195 22.548 58.085 22.2612 58.5055 21.9772C59.3529 21.4829 60.2407 21.114 61.0706 20.6298C61.8868 20.1558 62.8188 19.858 63.6873 19.49C64.1759 19.2816 64.5936 18.8971 65.0849 18.6868L65.3885 18.5595C65.694 18.436 66.0004 18.3161 66.3086 18.2073L66.7318 18.0164C67.4375 17.6991 68.1441 17.381 68.8609 17.0942L69.0541 17.0167C69.5942 16.8563 70.0662 16.4902 70.6771 16.599C70.816 16.6193 70.9835 16.8526 70.9044 16.9844C70.5271 17.6088 69.7727 17.7462 69.182 17.9823C68.4564 18.2706 67.7338 18.5675 67.0143 18.8731C66.4356 19.1184 65.8624 19.3812 65.2947 19.6551C64.693 19.9419 64.0627 20.1688 63.4628 20.462C63.0368 20.6741 62.6173 20.901 62.2088 21.1453C61.8223 21.3759 61.4313 21.5659 61.0338 21.7752C60.6097 21.9956 60.192 22.2298 59.7761 22.4613L59.1633 22.8108C58.9628 22.9335 58.7732 23.0718 58.5763 23.2C58.3297 23.3632 58.0823 23.5255 57.8311 23.6832C57.5799 23.8409 57.3416 24.0226 57.095 24.1849C56.969 24.266 56.5089 24.5943 56.2182 24.5233Z" fill="#FFE1DC"/>
<path d="M120.186 14.209C120.151 14.1712 120.13 14.1235 120.124 14.0728C120.119 14.0221 120.13 13.971 120.155 13.9268C120.187 13.867 120.233 13.8157 120.289 13.7771C120.344 13.7385 120.408 13.7136 120.475 13.7045C120.791 13.6513 121.109 13.6205 121.429 13.6123C121.754 13.6123 122.086 13.6446 122.419 13.6796C122.749 13.7147 123.077 13.768 123.402 13.8392C123.724 13.9065 124.046 13.959 124.344 14.0374C124.642 14.1158 124.926 14.1813 125.215 14.2578C125.504 14.3344 125.787 14.4358 126.073 14.5243C126.647 14.694 127.203 14.9089 127.777 15.0693C128.892 15.4244 129.959 15.9915 131.003 16.5089C131.306 16.6428 131.616 16.7592 131.932 16.8575C132.251 16.9521 132.562 17.0715 132.862 17.2144L133.223 17.3988C133.584 17.5832 133.94 17.7815 134.289 17.9881L134.803 18.2426C135.656 18.6686 136.507 19.0965 137.343 19.5484L137.568 19.6701C138.15 20.0445 138.856 20.2345 139.268 20.8238C139.368 20.9566 139.314 21.2434 139.138 21.2554C138.299 21.3098 137.549 20.7362 136.859 20.3599C136.012 19.8988 135.163 19.4377 134.31 18.9979C133.965 18.8208 133.619 18.6437 133.271 18.4741L132.22 17.9761C131.846 17.8092 131.484 17.6238 131.116 17.4384C130.748 17.2531 130.38 17.0816 130.001 16.9193C129.732 16.8058 129.458 16.7053 129.185 16.6029C128.911 16.5006 128.633 16.4028 128.357 16.3208C128.094 16.2405 127.838 16.152 127.584 16.0589C127.33 15.9657 127.071 15.8873 126.812 15.7988C126.26 15.6042 125.694 15.465 125.134 15.3045L124.284 15.1062L123.86 15.0057L123.432 14.9255L122.894 14.8194L122.625 14.7641L122.354 14.7226L121.27 14.5456C121.086 14.5188 120.399 14.4524 120.186 14.209Z" fill="#FFE1DC"/>
<path d="M28.3873 82.9121C27.9015 82.1845 27.1047 82.8328 26.9014 83.3797C26.7063 83.9062 26.952 84.6781 27.0992 85.1909C27.216 85.5994 27.3752 86.2274 27.6742 86.5548C28.1122 87.0352 28.39 86.896 28.5492 86.4626C28.8841 85.5607 28.7019 83.3797 28.3873 82.9121Z" fill="#FFE1DC"/>
<path d="M45.8764 91.4732C45.2324 90.8784 44.6104 91.6927 44.5387 92.2728C44.4706 92.8261 44.8874 93.5242 45.1487 93.989C45.3566 94.3578 45.6565 94.9333 46.0227 95.1823C46.5591 95.5512 46.7974 95.3492 46.8508 94.8927C46.9713 93.9383 46.2914 91.8569 45.8764 91.4732Z" fill="#FFE1DC"/>
<path d="M31.7263 60.4532C31.4393 59.6232 30.5054 60.0511 30.1705 60.5288C29.8485 60.9899 29.8945 61.7986 29.9046 62.3317C29.9147 62.7568 29.911 63.4042 30.1171 63.797C30.4198 64.3725 30.7234 64.3088 30.9866 63.9326C31.5423 63.145 31.9149 60.989 31.7263 60.4532Z" fill="#FFE1DC"/>
<path d="M41.8892 67.4191C41.4807 66.6454 40.6241 67.2089 40.3665 67.7327C40.119 68.2362 40.2837 69.0292 40.3775 69.554C40.453 69.9726 40.5468 70.6135 40.8099 70.9695C41.1955 71.4915 41.4853 71.3826 41.6886 70.9695C42.1119 70.1063 42.1542 67.9189 41.8892 67.4191Z" fill="#FFE1DC"/>
<path d="M38.8628 101.164C38.1029 100.73 37.6796 101.666 37.7413 102.247C37.8011 102.801 38.3651 103.386 38.7257 103.779C39.0128 104.092 39.4351 104.582 39.8482 104.742C40.4536 104.974 40.6404 104.726 40.5916 104.27C40.4886 103.313 39.3542 101.448 38.8628 101.164Z" fill="#FFE1DC"/>
<path d="M186.783 38.8667C187.635 39.0714 188.601 38.6186 189.151 37.7813C189.904 36.6332 190.112 35.2075 190.482 33.9081C190.533 33.7237 190.587 33.5466 190.649 33.3695C190.689 33.1989 190.729 33.0283 190.769 32.8577C190.81 32.6871 190.85 32.5165 190.89 32.3459C190.988 31.9374 191.35 30.7266 190.591 30.7266C189.894 30.7266 189.626 31.397 189.477 32.0259C189.426 32.2362 189.389 32.4409 189.354 32.6152C189.056 33.8943 188.966 35.1613 188.244 36.3371C188.145 36.4784 188.012 36.5921 187.858 36.6676C187.703 36.7431 187.532 36.7779 187.36 36.7687C187.189 36.7594 187.022 36.7065 186.876 36.6149C186.731 36.5232 186.611 36.3959 186.528 36.2449C186.167 35.4306 185.896 34.7067 185.529 33.9321C185.444 33.7891 185.356 33.649 185.265 33.5097C185.056 33.1925 184.604 33.0154 184.258 33.2451C183.08 34.0298 182.51 35.4657 182.005 36.73C181.384 38.2879 180.823 39.8679 180.321 41.47C180.249 41.6534 180.22 41.8509 180.236 42.0473C180.31 42.5139 180.954 42.7463 181.34 42.478C181.63 42.2769 181.748 41.9108 181.849 41.5715C182.377 39.8244 182.994 38.1059 183.699 36.4229C183.801 36.175 183.934 35.9408 184.094 35.7257C184.278 35.4924 184.502 35.3569 184.692 35.616C185.195 36.2966 185.169 37.24 185.613 37.9629C185.922 38.472 186.337 38.7588 186.783 38.8667Z" fill="#F47160"/>
<path d="M188.005 54.7258C188.133 55.5945 188.914 56.3231 189.894 56.5204C191.238 56.7915 192.635 56.4513 193.974 56.3092C194.158 56.289 194.347 56.2724 194.535 56.2631L195.053 56.1838L195.572 56.1045C195.987 56.0427 197.242 55.9265 196.959 55.2211C196.697 54.5755 195.977 54.5755 195.339 54.6677C195.127 54.7 194.923 54.7424 194.749 54.7756C193.454 54.9767 192.248 55.3668 190.889 55.1353C190.721 55.0967 190.566 55.0159 190.439 54.9007C190.311 54.7854 190.214 54.6394 190.159 54.4764C190.103 54.3135 190.089 54.1389 190.119 53.9693C190.149 53.7996 190.222 53.6404 190.33 53.5067C190.95 52.8667 191.518 52.3438 192.097 51.7131C192.197 51.5803 192.294 51.4456 192.389 51.3091C192.605 50.9956 192.599 50.5105 192.257 50.2744C191.09 49.4731 189.548 49.4795 188.19 49.4841C186.516 49.489 184.845 49.5585 183.175 49.6925C182.978 49.6936 182.784 49.7403 182.608 49.829C182.203 50.0725 182.23 50.7586 182.624 51.0187C182.918 51.2142 183.301 51.1856 183.653 51.1542C185.466 50.9901 187.288 50.9209 189.109 50.9467C189.376 50.9493 189.643 50.9849 189.902 51.0528C190.187 51.1395 190.395 51.2935 190.226 51.5673C189.785 52.2894 188.903 52.6177 188.399 53.2992C188.046 53.7778 187.936 54.2703 188.005 54.7258Z" fill="#020010"/>
<path d="M11.4015 111.291C10.5357 111.149 9.6055 111.671 9.11878 112.547C8.45173 113.745 8.34868 115.184 8.0745 116.506C8.03678 116.69 7.9963 116.874 7.94661 117.059C7.91901 117.231 7.89141 117.405 7.86473 117.577C7.83804 117.75 7.80952 117.924 7.781 118.097C7.71292 118.512 7.4415 119.746 8.1978 119.69C8.89337 119.638 9.11142 118.952 9.21447 118.312C9.24943 118.099 9.27059 117.893 9.29268 117.715C9.49693 116.418 9.49417 115.148 10.129 113.922C10.2169 113.774 10.3409 113.651 10.4893 113.564C10.6378 113.477 10.8058 113.43 10.9775 113.426C11.1492 113.423 11.3191 113.463 11.471 113.543C11.6229 113.624 11.7519 113.742 11.8459 113.886C12.2654 114.672 12.5893 115.374 13.0116 116.119C13.1036 116.256 13.2048 116.389 13.306 116.521C13.5379 116.823 14.0016 116.966 14.3291 116.711C15.447 115.843 15.9117 114.368 16.322 113.07C16.8281 111.472 17.2721 109.855 17.6543 108.22C17.7133 108.031 17.7281 107.832 17.6975 107.637C17.5889 107.176 16.9293 106.991 16.5621 107.289C16.2861 107.511 16.1941 107.885 16.1196 108.23C15.7203 110.011 15.2289 111.771 14.6475 113.501C14.5632 113.756 14.4479 113.999 14.3043 114.225C14.135 114.471 13.9252 114.622 13.7164 114.379C13.1643 113.733 13.122 112.795 12.6288 112.106C12.2893 111.62 11.8523 111.364 11.4015 111.291Z" fill="#F47160"/>
<path d="M9.02434 95.5643C8.83112 94.7076 8.0003 94.0381 7.00755 93.9136C5.64768 93.7421 4.27862 94.1838 2.95464 94.4236C2.77062 94.4577 2.58661 94.4881 2.39799 94.5158L1.88735 94.6329L1.3758 94.75C0.966365 94.8422 -0.280332 95.0506 0.0573342 95.7331C0.365558 96.3602 1.08413 96.3057 1.71346 96.1628C1.92324 96.1149 2.12289 96.0577 2.29495 96.0125C3.57108 95.7165 4.74601 95.2388 6.11784 95.367C6.28735 95.3935 6.44735 95.4629 6.58278 95.5684C6.71822 95.674 6.82466 95.8124 6.89209 95.9705C6.95953 96.1286 6.98574 96.3014 6.96828 96.4724C6.95081 96.6435 6.89024 96.8073 6.79225 96.9485C6.22272 97.6318 5.69368 98.1953 5.1628 98.8666C5.07141 99.0068 4.984 99.1482 4.90058 99.2908C4.70829 99.6191 4.74877 100.103 5.1076 100.314C6.33037 101.027 7.86781 100.907 9.22215 100.803C10.8905 100.675 12.5525 100.483 14.208 100.227C14.4031 100.21 14.5919 100.15 14.7601 100.049C15.1446 99.7722 15.0683 99.0944 14.657 98.863C14.3488 98.6905 13.9688 98.7468 13.621 98.8039C11.8233 99.1008 10.0114 99.304 8.19259 99.4126C7.92539 99.4293 7.65716 99.4129 7.39397 99.3637C7.10323 99.2982 6.88517 99.1599 7.03239 98.8749C7.42065 98.1224 8.2754 97.7296 8.72899 97.014C9.05102 96.5132 9.12463 96.0134 9.02434 95.5643Z" fill="#020010"/>
</g>
<defs>
<clipPath id="clip0">
<rect width="197" height="220" fill="white"/>
</clipPath>
</defs>
</svg>
