<svg width="120" height="120" viewBox="0 0 120 120" fill="none" xmlns="http://www.w3.org/2000/svg">
<path fill-rule="evenodd" clip-rule="evenodd" d="M0 60C0 26.8629 26.8629 0 60 0C93.1371 0 120 26.8629 120 60C120 93.1371 93.1371 120 60 120C26.8629 120 0 93.1371 0 60Z" fill="#F68634"/>
<path fill-rule="evenodd" clip-rule="evenodd" d="M66.6004 45.484C66.6004 41.9489 63.6214 39.0742 59.9591 39.0742C56.2997 39.0742 53.3179 41.9489 53.3179 45.484C53.3179 49.0164 56.2997 51.8929 59.9591 51.8929C63.6214 51.8929 66.6004 49.0164 66.6004 45.484ZM75.9991 45.484C75.9991 54.0199 68.8069 60.9633 59.9592 60.9633C51.1135 60.9633 43.9194 54.0199 43.9194 45.484C43.9194 36.9453 51.1135 30 59.9592 30C68.8069 30 75.9991 36.9453 75.9991 45.484ZM75.804 69.8778C72.9037 71.6361 69.7549 72.883 66.4899 73.601L75.4566 82.2573C77.2935 84.0268 77.2935 86.9005 75.4566 88.6718C73.6216 90.4431 70.6474 90.4431 68.8143 88.6718L59.9984 80.1655L51.19 88.6718C50.2716 89.5565 49.0681 89.9993 47.8646 89.9993C46.663 89.9993 45.4615 89.5565 44.543 88.6718C42.708 86.9005 42.708 84.0286 44.5411 82.2573L53.5087 73.601C50.2438 72.883 47.0949 71.6342 44.1946 69.8778C41.9998 68.5419 41.3404 65.7432 42.7234 63.6227C44.1025 61.4993 47.0028 60.8601 49.2015 62.196C55.7679 66.1833 64.2269 66.1842 70.7971 62.196C72.9958 60.8601 75.8952 61.4993 77.2772 63.6227C78.6601 65.7414 77.9989 68.5419 75.804 69.8778Z" fill="white"/>
</svg>
