<svg width="384" height="515" viewBox="0 0 384 515" fill="none" xmlns="http://www.w3.org/2000/svg">
<g opacity="0.3">
<mask id="mask0" mask-type="alpha" maskUnits="userSpaceOnUse" x="0" y="0" width="384" height="515">
<rect width="384" height="515" rx="16" fill="white"/>
</mask>
<g mask="url(#mask0)">
<path d="M231.603 438.353C231.602 438.059 231.666 437.769 231.79 437.504C231.915 437.238 232.096 437.003 232.321 436.815C232.619 436.564 232.984 436.406 233.371 436.36C233.758 436.314 234.149 436.382 234.498 436.555L255.246 446.939C255.569 447.102 255.842 447.35 256.036 447.656C256.229 447.962 256.336 448.315 256.344 448.677C256.353 449.035 256.264 449.389 256.089 449.702C255.913 450.015 255.656 450.275 255.346 450.454L240.049 459.2C239.785 459.353 239.489 459.444 239.185 459.464C238.88 459.485 238.575 459.436 238.292 459.32C238.014 459.205 237.765 459.029 237.564 458.804C237.364 458.579 237.217 458.312 237.134 458.022L231.682 438.892C231.636 438.715 231.61 438.535 231.603 438.353V438.353ZM250.114 448.836L236.775 442.167L240.269 454.507L250.114 448.836Z" fill="white"/>
<path d="M335.342 35.6771C335.341 35.3837 335.405 35.0939 335.53 34.8281C335.654 34.5624 335.835 34.3272 336.061 34.1395C336.359 33.8959 336.721 33.7437 337.103 33.7012C337.486 33.6587 337.873 33.7277 338.217 33.8999L358.965 44.2638C359.288 44.4266 359.561 44.6743 359.755 44.9803C359.948 45.2863 360.055 45.6392 360.063 46.0011C360.076 46.363 359.989 46.7215 359.813 47.0381C359.637 47.3547 359.379 47.6174 359.065 47.7983L343.769 56.5447C343.505 56.6957 343.21 56.7845 342.906 56.8042C342.603 56.8239 342.299 56.774 342.018 56.6585C341.737 56.5429 341.486 56.3647 341.284 56.1373C341.082 55.91 340.935 55.6395 340.853 55.3466L335.402 36.2362C335.362 36.0525 335.342 35.8651 335.342 35.6771V35.6771ZM353.853 46.1808L340.494 39.4912L344.008 51.8121L353.853 46.1808Z" fill="white"/>
<path d="M23.8055 344.239C23.805 343.946 23.8692 343.656 23.9935 343.39C24.1177 343.124 24.299 342.889 24.5244 342.701C24.8205 342.454 25.1817 342.299 25.5643 342.253C25.947 342.207 26.3349 342.272 26.6811 342.442L47.4289 352.826C47.7493 352.987 48.0204 353.231 48.2137 353.534C48.4069 353.836 48.5152 354.184 48.5272 354.543C48.5394 354.905 48.4529 355.263 48.277 355.58C48.1011 355.896 47.8425 356.159 47.5287 356.34L32.2324 365.087C31.9699 365.238 31.6763 365.327 31.374 365.348C31.0718 365.369 30.7687 365.321 30.4878 365.208C30.2068 365.094 29.9554 364.918 29.7526 364.693C29.5497 364.468 29.4008 364.2 29.317 363.908L23.8654 344.778C23.8258 344.601 23.8057 344.42 23.8055 344.239V344.239ZM42.3168 354.663L28.9575 347.993L32.4721 360.294L42.3168 354.663Z" fill="white"/>
<path d="M27.997 30.7042C27.9981 30.3638 28.0861 30.0294 28.2528 29.7325C28.4194 29.4357 28.6592 29.1865 28.9493 29.0084C29.2394 28.8303 29.5702 28.7294 29.9103 28.7151C30.2505 28.7009 30.5886 28.7738 30.8926 28.927L51.6404 39.2909C51.9637 39.4537 52.2368 39.7014 52.4302 40.0074C52.6237 40.3134 52.7303 40.6663 52.7387 41.0282C52.7472 41.3868 52.659 41.7411 52.4833 42.0539C52.3076 42.3666 52.0509 42.6262 51.7402 42.8055L36.4439 51.5519C36.1814 51.7031 35.8878 51.7926 35.5855 51.8135C35.2833 51.8345 34.9802 51.7864 34.6993 51.6729C34.4184 51.5593 34.1669 51.3834 33.9641 51.1583C33.7612 50.9332 33.6123 50.6649 33.5285 50.3737L28.1368 31.1635C28.0757 31.0152 28.0289 30.8614 27.997 30.7042V30.7042ZM46.5083 41.148L33.169 34.4784L36.6636 46.7793L46.5083 41.148Z" fill="white"/>
<path d="M293.626 334.254C293.625 333.788 293.787 333.336 294.085 332.976C294.366 332.637 294.752 332.4 295.181 332.302C295.611 332.205 296.061 332.252 296.461 332.437L317.688 342.302C317.983 342.439 318.24 342.646 318.437 342.904C318.634 343.163 318.765 343.466 318.818 343.787C318.871 344.108 318.845 344.437 318.742 344.745C318.639 345.054 318.463 345.332 318.228 345.557L309.821 353.644C309.612 353.843 309.363 353.993 309.091 354.086C308.818 354.18 308.529 354.213 308.243 354.184C307.959 354.158 307.683 354.071 307.435 353.93C307.187 353.789 306.972 353.596 306.805 353.365L293.945 335.393C293.726 335.054 293.615 334.657 293.626 334.254V334.254ZM313.415 344.678L301.713 339.247L308.802 349.231L313.415 344.678Z" fill="white"/>
<path d="M54.7563 480.966C54.7574 480.623 54.8468 480.286 55.0159 479.988C55.1559 479.738 55.3477 479.522 55.5786 479.353C55.8094 479.184 56.0738 479.067 56.3539 479.009L78.0602 474.596C78.4894 474.515 78.9333 474.577 79.324 474.772C79.7146 474.968 80.0305 475.286 80.2231 475.678C80.4157 476.07 80.4745 476.514 80.3904 476.943C80.3063 477.371 80.084 477.761 79.7576 478.051L62.085 493.447C61.8408 493.662 61.548 493.813 61.2319 493.889C60.9159 493.965 60.5861 493.962 60.2713 493.881C59.9565 493.801 59.6661 493.644 59.4253 493.426C59.1846 493.208 59.0008 492.934 58.8899 492.628L54.8961 481.625C54.8093 481.416 54.7619 481.193 54.7563 480.966ZM71.3506 480.028L59.3692 482.464L61.5458 488.455L71.3506 480.028Z" fill="white"/>
<path d="M104.619 338.847C104.62 338.616 104.66 338.386 104.739 338.168C104.842 337.883 105.009 337.625 105.227 337.414C105.445 337.203 105.709 337.044 105.997 336.95L124.888 330.76C125.257 330.638 125.655 330.627 126.03 330.728C126.406 330.829 126.744 331.038 127.003 331.329C127.262 331.619 127.43 331.979 127.487 332.364C127.544 332.749 127.488 333.142 127.324 333.495L117.739 354.623C117.589 354.949 117.354 355.228 117.059 355.432C116.764 355.636 116.419 355.756 116.062 355.781C115.702 355.803 115.344 355.727 115.024 355.562C114.704 355.397 114.434 355.148 114.244 354.842L104.919 339.906C104.722 339.588 104.618 339.221 104.619 338.847V338.847ZM121.813 335.972L109.651 339.965L115.642 349.591L121.813 335.972Z" fill="white"/>
<path d="M286.758 482.804C286.754 480.892 287.317 479.021 288.377 477.429C289.437 475.837 290.945 474.595 292.71 473.861C294.476 473.126 296.42 472.932 298.296 473.302C300.172 473.673 301.896 474.592 303.25 475.943C304.604 477.294 305.526 479.016 305.901 480.891C306.275 482.767 306.085 484.711 305.354 486.478C304.623 488.245 303.384 489.756 301.795 490.819C300.205 491.882 298.335 492.449 296.423 492.449C293.863 492.449 291.408 491.434 289.596 489.625C287.784 487.817 286.763 485.364 286.758 482.804V482.804ZM302.074 482.804C302.078 481.681 301.748 480.582 301.127 479.646C300.505 478.71 299.62 477.98 298.582 477.549C297.545 477.117 296.403 477.003 295.301 477.221C294.199 477.439 293.187 477.98 292.393 478.774C291.598 479.568 291.058 480.581 290.84 481.683C290.622 482.785 290.736 483.927 291.167 484.964C291.599 486.001 292.329 486.886 293.265 487.508C294.2 488.13 295.3 488.459 296.423 488.455C297.92 488.45 299.354 487.853 300.413 486.794C301.472 485.736 302.069 484.301 302.074 482.804V482.804Z" fill="white"/>
<path d="M239.013 368.122C239.013 366.214 239.578 364.349 240.638 362.763C241.698 361.177 243.204 359.941 244.967 359.211C246.729 358.481 248.668 358.29 250.539 358.662C252.41 359.034 254.129 359.953 255.478 361.302C256.827 362.65 257.745 364.369 258.117 366.24C258.49 368.111 258.299 370.05 257.569 371.813C256.839 373.575 255.602 375.081 254.016 376.141C252.43 377.201 250.565 377.767 248.658 377.767C246.101 377.761 243.651 376.744 241.843 374.936C240.036 373.128 239.018 370.678 239.013 368.122V368.122ZM254.309 368.122C254.309 367.004 253.977 365.911 253.357 364.982C252.736 364.053 251.853 363.328 250.82 362.901C249.788 362.473 248.651 362.361 247.555 362.579C246.459 362.797 245.452 363.335 244.662 364.126C243.871 364.916 243.333 365.923 243.115 367.019C242.897 368.115 243.009 369.252 243.437 370.284C243.864 371.317 244.589 372.199 245.518 372.82C246.447 373.441 247.54 373.773 248.658 373.773C250.155 373.768 251.589 373.171 252.648 372.112C253.707 371.053 254.304 369.619 254.309 368.122V368.122Z" fill="white"/>
<path d="M338.059 299.528C338.063 297.618 338.633 295.753 339.698 294.169C340.763 292.584 342.274 291.351 344.04 290.626C345.807 289.9 347.748 289.716 349.62 290.095C351.491 290.474 353.207 291.4 354.552 292.756C355.896 294.112 356.808 295.836 357.172 297.71C357.536 299.585 357.335 301.525 356.595 303.285C355.855 305.045 354.61 306.546 353.016 307.598C351.423 308.65 349.553 309.205 347.644 309.193C345.094 309.172 342.656 308.144 340.861 306.334C339.066 304.524 338.058 302.077 338.059 299.528ZM353.355 299.528C353.351 298.413 353.018 297.325 352.397 296.4C351.776 295.474 350.896 294.753 349.866 294.327C348.837 293.9 347.704 293.788 346.611 294.003C345.517 294.219 344.512 294.753 343.722 295.538C342.931 296.323 342.39 297.325 342.167 298.416C341.944 299.508 342.048 300.641 342.467 301.674C342.887 302.706 343.602 303.592 344.523 304.219C345.444 304.846 346.529 305.187 347.644 305.199C348.393 305.207 349.135 305.066 349.829 304.784C350.523 304.503 351.154 304.086 351.686 303.558C352.217 303.03 352.638 302.402 352.925 301.71C353.211 301.019 353.358 300.277 353.355 299.528V299.528Z" fill="white"/>
<path d="M72.7491 415.567C72.7451 413.655 73.3086 411.784 74.3682 410.192C75.4278 408.6 76.9359 407.358 78.7016 406.624C80.4673 405.889 82.4112 405.695 84.2874 406.066C86.1635 406.436 87.8875 407.355 89.2412 408.706C90.5949 410.057 91.5174 411.779 91.8919 413.654C92.2665 415.53 92.0762 417.474 91.3453 419.241C90.6144 421.009 89.3756 422.519 87.7858 423.582C86.1959 424.645 84.3265 425.212 82.4141 425.212C79.8542 425.212 77.3989 424.197 75.587 422.389C73.775 420.58 72.7544 418.127 72.7491 415.567ZM88.0653 415.567C88.0693 414.444 87.7395 413.345 87.1179 412.409C86.4962 411.473 85.6107 410.743 84.5736 410.312C83.5366 409.88 82.3946 409.766 81.2927 409.984C80.1907 410.202 79.1784 410.743 78.384 411.537C77.5897 412.332 77.0491 413.344 76.8309 414.446C76.6128 415.548 76.7268 416.69 77.1585 417.727C77.5902 418.764 78.3202 419.649 79.2559 420.271C80.1915 420.893 81.2907 421.223 82.4141 421.219C83.9094 421.213 85.3417 420.616 86.3972 419.556C87.4527 418.497 88.0454 417.063 88.0454 415.567L88.0653 415.567Z" fill="white"/>
<path d="M40.7188 148.682C40.7188 146.77 41.2857 144.901 42.3477 143.312C43.4097 141.723 44.9191 140.484 46.6852 139.752C48.4512 139.021 50.3946 138.829 52.2694 139.202C54.1442 139.575 55.8663 140.496 57.218 141.847C58.5697 143.199 59.4902 144.921 59.8631 146.796C60.236 148.671 60.0446 150.614 59.3131 152.38C58.5816 154.146 57.3428 155.656 55.7534 156.718C54.164 157.78 52.2954 158.347 50.3838 158.347C47.8205 158.347 45.3622 157.328 43.5496 155.516C41.7371 153.703 40.7188 151.245 40.7188 148.682V148.682ZM56.0351 148.682C56.0351 147.559 55.7019 146.462 55.0779 145.529C54.4539 144.596 53.5669 143.869 52.5295 143.44C51.492 143.012 50.3507 142.9 49.2501 143.121C48.1494 143.341 47.139 143.883 46.3466 144.679C45.5543 145.474 45.0158 146.486 44.7992 147.588C44.5826 148.689 44.6978 149.83 45.1301 150.866C45.5624 151.902 46.2924 152.786 47.2276 153.407C48.1629 154.028 49.2613 154.357 50.3838 154.353C51.1327 154.361 51.8756 154.22 52.5695 153.938C53.2634 153.656 53.8943 153.24 54.4257 152.712C54.9571 152.184 55.3784 151.556 55.6649 150.864C55.9515 150.172 56.0977 149.43 56.095 148.682L56.0351 148.682Z" fill="white"/>
<path d="M302.173 109.622C302.169 107.71 302.732 105.839 303.792 104.247C304.852 102.655 306.36 101.413 308.125 100.678C309.891 99.9439 311.835 99.7496 313.711 100.12C315.587 100.491 317.311 101.41 318.665 102.761C320.019 104.112 320.941 105.834 321.316 107.709C321.69 109.584 321.5 111.529 320.769 113.296C320.038 115.063 318.799 116.574 317.21 117.637C315.62 118.7 313.75 119.267 311.838 119.267C309.278 119.267 306.823 118.252 305.011 116.443C303.199 114.635 302.178 112.182 302.173 109.622ZM317.489 109.622C317.493 108.499 317.163 107.399 316.542 106.464C315.92 105.528 315.035 104.798 313.997 104.366C312.96 103.935 311.818 103.821 310.716 104.039C309.615 104.257 308.602 104.798 307.808 105.592C307.014 106.386 306.473 107.399 306.255 108.501C306.037 109.603 306.151 110.744 306.582 111.782C307.014 112.819 307.744 113.704 308.68 114.326C309.615 114.947 310.715 115.277 311.838 115.273C313.335 115.268 314.769 114.671 315.828 113.612C316.887 112.554 317.484 111.119 317.489 109.622V109.622Z" fill="white"/>
<path d="M112.328 47.9179C112.324 46.0055 112.888 44.1349 113.947 42.5429C115.007 40.9508 116.515 39.709 118.281 38.9744C120.046 38.2398 121.99 38.0455 123.866 38.4162C125.743 38.7869 127.467 39.7058 128.82 41.0567C130.174 42.4075 131.096 44.1297 131.471 46.005C131.846 47.8804 131.655 49.8247 130.924 51.5919C130.193 53.3592 128.955 54.8698 127.365 55.9327C125.775 56.9956 123.906 57.5629 121.993 57.5629C119.433 57.563 116.978 56.5474 115.166 54.7392C113.354 52.931 112.333 50.4778 112.328 47.9179V47.9179ZM127.644 47.9179C127.648 46.7945 127.319 45.6953 126.697 44.7597C126.075 43.824 125.19 43.094 124.153 42.6623C123.116 42.2306 121.974 42.1166 120.872 42.3348C119.77 42.5529 118.757 43.0935 117.963 43.8878C117.169 44.6821 116.628 45.6945 116.41 46.7965C116.192 47.8984 116.306 49.0404 116.738 50.0774C117.169 51.1145 117.899 52 118.835 52.6217C119.771 53.2433 120.87 53.5731 121.993 53.5691C123.49 53.5639 124.925 52.9668 125.983 51.9081C127.042 50.8494 127.639 49.4151 127.644 47.9179V47.9179Z" fill="white"/>
<path d="M163.708 371.476L163.708 371.236L165.066 359.414C165.096 359.152 165.177 358.898 165.305 358.668C165.434 358.437 165.606 358.234 165.813 358.069C166.02 357.905 166.257 357.784 166.51 357.711C166.764 357.639 167.03 357.617 167.292 357.647C167.554 357.677 167.808 357.759 168.039 357.887C168.27 358.015 168.473 358.187 168.637 358.394C168.801 358.601 168.923 358.838 168.995 359.092C169.068 359.346 169.09 359.611 169.059 359.874L167.981 369.199L177.307 368.121C177.609 368.085 177.915 368.118 178.202 368.218C178.49 368.319 178.75 368.483 178.964 368.7C179.174 368.913 179.333 369.171 179.43 369.455C179.527 369.738 179.559 370.04 179.523 370.337L178.445 379.663L187.77 378.584C188.069 378.551 188.372 378.586 188.655 378.687C188.939 378.787 189.196 378.95 189.408 379.164C189.621 379.375 189.784 379.633 189.885 379.916C189.985 380.2 190.02 380.502 189.987 380.801L188.909 390.127L198.254 389.068C198.55 389.037 198.85 389.072 199.131 389.171C199.411 389.271 199.666 389.431 199.877 389.642C200.088 389.853 200.248 390.108 200.348 390.388C200.447 390.669 200.482 390.969 200.451 391.265L199.392 400.61L208.738 399.552C209 399.522 209.266 399.544 209.519 399.616C209.773 399.689 210.01 399.81 210.217 399.974C210.424 400.139 210.596 400.342 210.724 400.573C210.853 400.803 210.934 401.057 210.964 401.319C210.995 401.581 210.973 401.847 210.9 402.101C210.828 402.355 210.706 402.592 210.542 402.799C210.378 403.005 210.175 403.178 209.944 403.306C209.713 403.434 209.459 403.516 209.197 403.546L197.355 404.884C197.056 404.919 196.752 404.886 196.467 404.787C196.182 404.688 195.923 404.526 195.71 404.313C195.497 404.099 195.335 403.84 195.236 403.555C195.137 403.27 195.104 402.967 195.139 402.667L196.197 393.342L186.872 394.4C186.573 394.433 186.27 394.398 185.987 394.298C185.703 394.197 185.446 394.034 185.234 393.821C185.021 393.609 184.858 393.352 184.757 393.068C184.657 392.785 184.622 392.482 184.655 392.183L185.733 382.858L176.408 383.936C176.108 383.971 175.805 383.938 175.52 383.839C175.235 383.741 174.976 383.578 174.763 383.365C174.549 383.152 174.387 382.893 174.288 382.608C174.189 382.323 174.156 382.019 174.191 381.72L175.27 372.394L165.944 373.472C165.645 373.505 165.343 373.47 165.059 373.37C164.776 373.27 164.518 373.107 164.307 372.893C164.118 372.708 163.968 372.488 163.865 372.244C163.762 372.001 163.709 371.74 163.708 371.476V371.476Z" fill="white"/>
<path d="M155.22 379.943L155.22 379.703L156.578 367.882C156.608 367.621 156.689 367.368 156.816 367.138C156.944 366.908 157.116 366.706 157.322 366.543C157.527 366.38 157.764 366.259 158.016 366.187C158.269 366.115 158.534 366.094 158.795 366.124C159.056 366.154 159.308 366.235 159.538 366.363C159.768 366.49 159.97 366.662 160.133 366.868C160.297 367.074 160.418 367.31 160.489 367.563C160.561 367.816 160.582 368.08 160.552 368.341L159.474 377.667L168.799 376.608C169.097 376.573 169.398 376.604 169.682 376.701C169.965 376.798 170.223 376.957 170.437 377.167C170.65 377.379 170.813 377.636 170.913 377.92C171.014 378.203 171.049 378.506 171.016 378.805L169.937 388.13L179.263 387.052C179.562 387.019 179.864 387.054 180.148 387.154C180.431 387.254 180.689 387.417 180.9 387.631C181.114 387.843 181.277 388.1 181.377 388.384C181.478 388.667 181.512 388.97 181.479 389.269L180.401 398.594L189.727 397.536C190.024 397.501 190.326 397.534 190.609 397.632C190.893 397.729 191.15 397.89 191.363 398.101C191.576 398.312 191.739 398.568 191.839 398.85C191.94 399.133 191.975 399.434 191.943 399.732L190.885 409.078L200.23 408.019C200.76 407.961 201.291 408.116 201.707 408.449C202.122 408.782 202.389 409.267 202.447 409.797C202.505 410.326 202.351 410.857 202.017 411.273C201.684 411.689 201.199 411.955 200.67 412.013L188.848 413.351C188.551 413.387 188.249 413.355 187.966 413.258C187.682 413.161 187.424 413.002 187.211 412.792C186.997 412.58 186.834 412.323 186.734 412.04C186.633 411.756 186.598 411.454 186.631 411.155L187.69 401.809L178.364 402.867C178.067 402.903 177.765 402.871 177.482 402.774C177.198 402.678 176.94 402.518 176.727 402.308C176.513 402.097 176.35 401.839 176.25 401.556C176.15 401.272 176.115 400.97 176.148 400.671L177.226 391.325L167.9 392.404C167.602 392.437 167.299 392.402 167.016 392.301C166.732 392.201 166.475 392.038 166.263 391.825C166.049 391.613 165.886 391.356 165.786 391.072C165.686 390.789 165.651 390.486 165.684 390.187L166.762 380.882L157.437 381.94C157.155 381.974 156.869 381.948 156.599 381.863C156.328 381.778 156.079 381.636 155.867 381.447C155.655 381.258 155.487 381.026 155.372 380.767C155.257 380.508 155.198 380.227 155.2 379.943L155.22 379.943Z" fill="white"/>
<path d="M146.755 388.41L146.755 388.19L148.113 376.368C148.142 376.106 148.222 375.852 148.349 375.621C148.476 375.39 148.648 375.186 148.854 375.021C149.059 374.856 149.296 374.733 149.549 374.659C149.802 374.585 150.068 374.562 150.33 374.591C150.592 374.62 150.846 374.7 151.077 374.827C151.309 374.954 151.513 375.126 151.678 375.331C151.843 375.537 151.966 375.774 152.039 376.027C152.113 376.28 152.136 376.545 152.107 376.808L151.049 386.133L160.374 385.075C160.672 385.039 160.973 385.071 161.257 385.168C161.54 385.265 161.798 385.424 162.012 385.634C162.228 385.848 162.393 386.108 162.493 386.396C162.594 386.683 162.627 386.989 162.591 387.291L161.513 396.597L170.838 395.539C171.136 395.503 171.437 395.535 171.721 395.632C172.004 395.728 172.262 395.888 172.476 396.098C172.689 396.31 172.852 396.567 172.953 396.85C173.053 397.134 173.088 397.436 173.055 397.735L171.976 407.081L181.302 406.002C181.602 405.967 181.905 406 182.19 406.099C182.475 406.198 182.734 406.36 182.947 406.574C183.161 406.787 183.323 407.046 183.422 407.331C183.521 407.616 183.554 407.919 183.518 408.219L182.46 417.565L191.786 416.486C192.315 416.425 192.847 416.577 193.265 416.909C193.683 417.24 193.951 417.724 194.012 418.253C194.073 418.783 193.921 419.315 193.59 419.733C193.258 420.15 192.775 420.419 192.245 420.48L180.403 421.818C180.107 421.849 179.808 421.814 179.527 421.715C179.246 421.616 178.991 421.455 178.78 421.244C178.57 421.034 178.409 420.779 178.31 420.498C178.21 420.217 178.175 419.918 178.207 419.621L179.265 410.276L169.94 411.354C169.64 411.389 169.336 411.356 169.051 411.257C168.766 411.158 168.507 410.996 168.294 410.783C168.081 410.57 167.919 410.311 167.82 410.026C167.721 409.741 167.688 409.437 167.723 409.138L168.781 399.812L159.456 400.87C159.16 400.902 158.86 400.867 158.579 400.767C158.299 400.668 158.044 400.507 157.833 400.297C157.622 400.086 157.461 399.831 157.362 399.55C157.263 399.269 157.228 398.97 157.259 398.674L158.318 389.348L149.012 390.407C148.711 390.445 148.406 390.415 148.119 390.318C147.832 390.221 147.57 390.06 147.355 389.847C146.978 389.463 146.763 388.948 146.755 388.41V388.41Z" fill="white"/>
<path d="M17.9341 216.397L17.9341 216.177L19.292 204.336C19.3522 203.812 19.6169 203.334 20.0284 203.004C20.4398 202.675 20.9647 202.522 21.4886 202.578C21.7497 202.608 22.0023 202.689 22.2321 202.817C22.4618 202.944 22.6641 203.116 22.8274 203.322C22.9906 203.528 23.1116 203.764 23.1834 204.017C23.2553 204.269 23.2765 204.534 23.2459 204.795L22.1875 214.12L31.5131 213.062C31.8104 213.026 32.112 213.058 32.3955 213.155C32.6789 213.252 32.937 213.411 33.1505 213.621C33.3611 213.839 33.5219 214.1 33.6219 214.386C33.7219 214.672 33.7586 214.977 33.7296 215.279L32.6513 224.584L41.9768 223.526C42.273 223.494 42.5725 223.53 42.8533 223.629C43.1341 223.728 43.3891 223.889 43.5997 224.1C43.8103 224.31 43.9711 224.565 44.0704 224.846C44.1697 225.127 44.2049 225.426 44.1734 225.722L43.1151 235.048L52.4406 233.99C52.7395 233.957 53.042 233.992 53.3256 234.092C53.6091 234.192 53.8664 234.355 54.0781 234.569C54.2917 234.78 54.4547 235.038 54.555 235.321C54.6552 235.605 54.6902 235.907 54.6572 236.206L53.5988 245.532L62.9243 244.473C63.1866 244.443 63.4522 244.465 63.706 244.537C63.9598 244.61 64.1969 244.732 64.4036 244.896C64.6104 245.06 64.7828 245.263 64.911 245.494C65.0392 245.725 65.1207 245.978 65.1509 246.241C65.1811 246.503 65.1593 246.768 65.0868 247.022C65.0143 247.276 64.8925 247.513 64.7284 247.72C64.5643 247.927 64.3611 248.099 64.1303 248.227C63.8996 248.355 63.6459 248.437 63.3836 248.467L51.542 249.805C51.2458 249.837 50.9464 249.801 50.6656 249.702C50.3848 249.603 50.1297 249.442 49.9191 249.231C49.7085 249.021 49.5477 248.766 49.4484 248.485C49.3491 248.204 49.3139 247.905 49.3454 247.608L50.4037 238.263L41.0782 239.321C40.7805 239.356 40.4788 239.323 40.1955 239.225C39.9121 239.128 39.6544 238.967 39.4415 238.756C39.2286 238.545 39.066 238.289 38.9656 238.007C38.8652 237.724 38.8297 237.423 38.8616 237.125L39.92 227.799L30.5945 228.858C30.2964 228.89 29.995 228.854 29.7126 228.754C29.4302 228.653 29.1739 228.491 28.963 228.278C28.752 228.065 28.5916 227.807 28.4938 227.524C28.396 227.24 28.3632 226.939 28.3979 226.641L29.4562 217.335L20.1307 218.394C19.8333 218.429 19.5317 218.398 19.2483 218.301C18.9648 218.204 18.7068 218.045 18.4932 217.835C18.1309 217.444 17.931 216.93 17.9341 216.397V216.397Z" fill="white"/>
<path d="M9.46739 224.864L9.46739 224.644L10.8253 212.822C10.8836 212.293 11.1498 211.808 11.5655 211.475C11.9812 211.141 12.5123 210.987 13.0419 211.045C13.5715 211.104 14.0562 211.37 14.3895 211.785C14.7228 212.201 14.8774 212.732 14.8191 213.262L13.7607 222.607L23.0863 221.529C23.3852 221.496 23.6877 221.531 23.9713 221.631C24.2548 221.731 24.512 221.894 24.7237 222.108C24.9338 222.322 25.0931 222.58 25.1899 222.863C25.2867 223.147 25.3185 223.448 25.2829 223.746L24.2245 233.051L33.5301 231.993C33.8297 231.958 34.1334 231.991 34.4183 232.09C34.7033 232.188 34.9622 232.351 35.1755 232.564C35.3888 232.777 35.5509 233.036 35.6499 233.321C35.7488 233.606 35.7819 233.91 35.7466 234.209L34.6883 243.535L44.0138 242.457C44.3128 242.424 44.6153 242.458 44.8988 242.559C45.1823 242.659 45.4396 242.822 45.6513 243.036C45.8649 243.247 46.0279 243.505 46.1282 243.788C46.2285 244.072 46.2634 244.374 46.2304 244.673L45.1521 254.019L54.4976 252.94C55.0272 252.879 55.5593 253.031 55.9769 253.363C56.3944 253.694 56.6632 254.178 56.7241 254.708C56.785 255.237 56.6331 255.769 56.3016 256.187C55.9702 256.604 55.4865 256.873 54.9569 256.934L43.1152 258.292C42.8156 258.327 42.512 258.294 42.227 258.195C41.942 258.096 41.6832 257.934 41.4699 257.721C41.2566 257.508 41.0944 257.249 40.9954 256.964C40.8965 256.679 40.8634 256.375 40.8987 256.075L41.977 246.73L32.6315 247.808C32.3326 247.841 32.03 247.806 31.7465 247.706C31.463 247.606 31.2057 247.443 30.994 247.229C30.784 247.016 30.6247 246.758 30.5279 246.474C30.4311 246.191 30.3993 245.889 30.4349 245.592L31.4932 236.266L22.1677 237.325C21.87 237.359 21.5683 237.326 21.2849 237.229C21.0016 237.131 20.7439 236.97 20.531 236.759C20.3181 236.548 20.1555 236.292 20.0551 236.01C19.9547 235.727 19.9191 235.426 19.9511 235.128L21.0295 225.802L11.7039 226.881C11.405 226.914 11.1025 226.879 10.8189 226.778C10.5354 226.678 10.2782 226.515 10.0665 226.302C9.87538 226.114 9.7239 225.891 9.62099 225.644C9.51808 225.397 9.46582 225.131 9.46739 224.864V224.864Z" fill="white"/>
<path d="M0.999989 233.33L0.999989 233.11L2.35787 221.289C2.41877 220.759 2.6876 220.275 3.10515 219.944C3.52271 219.613 4.05482 219.461 4.58443 219.521C5.11404 219.582 5.59775 219.851 5.92918 220.269C6.2606 220.686 6.41258 221.218 6.35168 221.748L5.27336 231.074L14.5989 229.995C14.8978 229.962 15.2003 229.997 15.4839 230.097C15.7674 230.198 16.0246 230.361 16.2363 230.574C16.4499 230.786 16.613 231.043 16.7133 231.327C16.8135 231.61 16.8485 231.913 16.8155 232.212L15.7371 241.537L25.0627 240.459C25.3616 240.426 25.6641 240.461 25.9477 240.561C26.2312 240.661 26.4884 240.825 26.7001 241.038C26.9137 241.25 27.0767 241.507 27.177 241.791C27.2773 242.074 27.3123 242.377 27.2793 242.676L26.2009 252.001L35.5464 250.943C35.8426 250.911 36.142 250.947 36.4229 251.046C36.7037 251.145 36.9587 251.306 37.1693 251.516C37.3799 251.727 37.5407 251.982 37.64 252.263C37.7393 252.544 37.7745 252.843 37.743 253.139L36.6847 262.485L46.0302 261.426C46.2924 261.398 46.5578 261.421 46.8111 261.494C47.0644 261.568 47.3007 261.691 47.5065 261.856C47.7124 262.021 47.8837 262.225 48.0107 262.456C48.1377 262.688 48.2179 262.942 48.2467 263.204C48.2756 263.466 48.2525 263.731 48.1788 263.985C48.1051 264.238 47.9822 264.474 47.8172 264.68C47.6521 264.886 47.4482 265.057 47.2169 265.184C46.9857 265.311 46.7317 265.391 46.4695 265.42L34.6478 266.778C34.3482 266.813 34.0445 266.78 33.7596 266.681C33.4746 266.583 33.2157 266.42 33.0024 266.207C32.7891 265.994 32.6269 265.735 32.528 265.45C32.4291 265.165 32.396 264.861 32.4312 264.562L33.4896 255.236L24.1641 256.294C23.8651 256.327 23.5626 256.293 23.2791 256.192C22.9955 256.092 22.7383 255.929 22.5266 255.715C22.313 255.504 22.15 255.246 22.0497 254.963C21.9494 254.679 21.9145 254.377 21.9475 254.078L23.0258 244.752L13.7003 245.831C13.4007 245.866 13.097 245.833 12.8121 245.734C12.5271 245.635 12.2682 245.473 12.0549 245.259C11.8416 245.046 11.6794 244.787 11.5805 244.502C11.4815 244.217 11.4485 243.914 11.4837 243.614L12.562 234.289L3.23651 235.367C2.95643 235.398 2.67296 235.369 2.40473 235.283C2.1365 235.197 1.88957 235.054 1.68021 234.866C1.47085 234.677 1.3038 234.446 1.19 234.189C1.0762 233.931 1.01824 233.652 1.01995 233.37L0.999989 233.33Z" fill="white"/>
<path d="M332.546 198.444L332.546 198.225L333.904 186.383C333.964 185.859 334.229 185.381 334.64 185.052C335.052 184.723 335.577 184.569 336.101 184.626C336.362 184.655 336.614 184.736 336.844 184.864C337.074 184.992 337.276 185.163 337.439 185.369C337.603 185.575 337.724 185.811 337.795 186.064C337.867 186.317 337.888 186.581 337.858 186.842L336.799 196.168L346.125 195.109C346.423 195.077 346.724 195.113 347.007 195.213C347.289 195.314 347.546 195.476 347.757 195.689C347.968 195.902 348.128 196.16 348.226 196.443C348.324 196.726 348.356 197.028 348.322 197.326L347.263 206.632L356.589 205.573C356.885 205.542 357.184 205.577 357.465 205.676C357.746 205.775 358.001 205.936 358.212 206.147C358.422 206.357 358.583 206.613 358.682 206.893C358.782 207.174 358.817 207.474 358.785 207.77L357.727 217.095L367.053 216.037C367.352 216.002 367.656 216.035 367.941 216.134C368.226 216.233 368.485 216.395 368.698 216.608C368.911 216.821 369.073 217.08 369.172 217.365C369.271 217.65 369.304 217.954 369.269 218.253L368.211 227.579L377.596 226.521C378.126 226.46 378.658 226.612 379.076 226.943C379.493 227.275 379.762 227.758 379.823 228.288C379.884 228.818 379.732 229.35 379.4 229.767C379.069 230.185 378.585 230.454 378.056 230.514L366.214 231.852C365.918 231.884 365.618 231.849 365.337 231.749C365.057 231.65 364.802 231.489 364.591 231.279C364.38 231.068 364.22 230.813 364.12 230.532C364.021 230.251 363.986 229.952 364.017 229.656L365.076 220.31L355.75 221.389C355.448 221.418 355.144 221.381 354.858 221.281C354.572 221.181 354.311 221.02 354.093 220.81C353.883 220.596 353.723 220.338 353.627 220.055C353.53 219.771 353.498 219.469 353.534 219.172L354.592 209.847L345.266 210.905C344.968 210.937 344.667 210.901 344.384 210.801C344.102 210.701 343.846 210.538 343.635 210.325C343.424 210.112 343.264 209.854 343.166 209.571C343.068 209.288 343.035 208.986 343.07 208.688L344.128 199.383L334.803 200.441C334.522 200.472 334.239 200.443 333.971 200.357C333.703 200.271 333.456 200.129 333.246 199.94C333.037 199.751 332.87 199.521 332.756 199.263C332.642 199.005 332.584 198.726 332.586 198.444L332.546 198.444Z" fill="white"/>
<path d="M324.081 206.891L324.081 206.671L325.439 194.909C325.469 194.647 325.551 194.393 325.679 194.163C325.807 193.932 325.98 193.729 326.186 193.565C326.393 193.4 326.63 193.279 326.884 193.206C327.138 193.134 327.403 193.112 327.666 193.142C327.928 193.172 328.182 193.254 328.412 193.382C328.643 193.51 328.846 193.683 329.01 193.889C329.174 194.096 329.296 194.333 329.369 194.587C329.441 194.841 329.463 195.106 329.433 195.369L328.355 204.694L337.66 203.576C337.962 203.54 338.269 203.573 338.556 203.674C338.843 203.774 339.104 203.939 339.318 204.155C339.528 204.369 339.687 204.627 339.784 204.91C339.88 205.193 339.912 205.495 339.877 205.792L338.798 215.098L348.124 214.04C348.423 214.004 348.727 214.038 349.012 214.136C349.297 214.235 349.556 214.398 349.769 214.611C349.983 214.824 350.145 215.083 350.244 215.368C350.343 215.653 350.376 215.957 350.34 216.256L349.282 225.582L358.608 224.503C358.906 224.471 359.207 224.507 359.489 224.607C359.772 224.708 360.028 224.87 360.239 225.083C360.45 225.296 360.61 225.554 360.708 225.837C360.806 226.121 360.839 226.422 360.804 226.72L359.746 236.066L369.091 235.007C369.354 234.977 369.619 234.999 369.873 235.071C370.127 235.144 370.364 235.266 370.571 235.43C370.777 235.594 370.95 235.797 371.078 236.028C371.206 236.258 371.288 236.512 371.318 236.774C371.348 237.037 371.326 237.302 371.254 237.556C371.181 237.81 371.06 238.047 370.895 238.254C370.731 238.46 370.528 238.633 370.297 238.761C370.067 238.889 369.813 238.971 369.551 239.001L357.709 240.359C357.409 240.394 357.106 240.361 356.821 240.262C356.536 240.163 356.277 240.001 356.064 239.788C355.85 239.574 355.688 239.315 355.589 239.031C355.49 238.746 355.457 238.442 355.492 238.142L356.571 228.857L347.225 229.935C346.926 229.968 346.624 229.933 346.34 229.833C346.057 229.733 345.8 229.57 345.588 229.356C345.378 229.142 345.218 228.884 345.122 228.601C345.025 228.317 344.993 228.016 345.029 227.718L346.087 218.393L336.761 219.471C336.463 219.504 336.16 219.469 335.876 219.369C335.593 219.269 335.336 219.106 335.124 218.892C334.91 218.68 334.747 218.423 334.647 218.14C334.547 217.856 334.512 217.554 334.545 217.255L335.663 207.829L326.338 208.908C326.039 208.941 325.736 208.906 325.453 208.805C325.169 208.705 324.912 208.542 324.7 208.329C324.505 208.143 324.35 207.92 324.244 207.673C324.138 207.426 324.082 207.16 324.081 206.891Z" fill="white"/>
<path d="M315.692 215.378L315.692 215.158L317.05 203.337C317.081 203.074 317.162 202.821 317.29 202.59C317.418 202.359 317.591 202.156 317.798 201.992C318.004 201.828 318.241 201.706 318.495 201.633C318.749 201.561 319.015 201.539 319.277 201.569C319.539 201.599 319.793 201.681 320.024 201.809C320.254 201.937 320.458 202.11 320.622 202.317C320.786 202.523 320.908 202.76 320.98 203.014C321.053 203.268 321.074 203.534 321.044 203.796L319.966 213.121L329.291 212.043C329.59 212.01 329.893 212.045 330.176 212.145C330.46 212.246 330.717 212.409 330.929 212.622C331.142 212.834 331.305 213.091 331.406 213.375C331.506 213.658 331.541 213.961 331.508 214.26L330.43 223.585L339.655 222.507C339.954 222.474 340.257 222.509 340.54 222.609C340.824 222.709 341.081 222.872 341.293 223.086C341.506 223.298 341.669 223.555 341.77 223.838C341.87 224.122 341.905 224.424 341.872 224.723L340.794 234.049L350.119 232.971C350.418 232.938 350.721 232.973 351.004 233.073C351.288 233.173 351.545 233.336 351.757 233.55C351.97 233.761 352.133 234.019 352.233 234.302C352.334 234.586 352.369 234.888 352.336 235.187L351.277 244.533L360.623 243.474C361.147 243.418 361.672 243.571 362.083 243.901C362.495 244.23 362.759 244.708 362.819 245.232C362.85 245.493 362.829 245.757 362.757 246.01C362.685 246.263 362.564 246.499 362.401 246.705C362.238 246.911 362.035 247.082 361.806 247.21C361.576 247.337 361.323 247.418 361.062 247.448L349.24 248.826C348.941 248.861 348.637 248.828 348.352 248.729C348.067 248.63 347.808 248.468 347.595 248.255C347.382 248.042 347.22 247.783 347.121 247.498C347.022 247.213 346.989 246.909 347.024 246.609L348.082 237.284L338.757 238.342C338.458 238.375 338.155 238.34 337.872 238.24C337.588 238.14 337.331 237.977 337.119 237.763C336.906 237.551 336.743 237.294 336.642 237.011C336.542 236.727 336.507 236.425 336.54 236.126L337.658 226.86L328.333 227.938C328.034 227.971 327.731 227.936 327.448 227.836C327.164 227.736 326.907 227.573 326.695 227.359C326.482 227.148 326.319 226.89 326.219 226.607C326.118 226.323 326.083 226.021 326.116 225.722L327.195 216.396L317.869 217.475C317.589 217.506 317.306 217.477 317.037 217.391C316.769 217.304 316.522 217.162 316.313 216.973C316.103 216.785 315.936 216.554 315.823 216.296C315.709 216.038 315.651 215.76 315.653 215.478L315.692 215.378Z" fill="white"/>
<path d="M336.76 444.363L336.76 444.144L338.118 432.322C338.176 431.792 338.442 431.308 338.858 430.974C339.274 430.641 339.805 430.487 340.334 430.545C340.864 430.603 341.349 430.869 341.682 431.285C342.015 431.701 342.17 432.232 342.112 432.761L341.033 442.087L350.359 441.029C350.658 440.993 350.962 441.026 351.247 441.125C351.532 441.224 351.791 441.386 352.004 441.6C352.217 441.813 352.38 442.072 352.479 442.357C352.578 442.642 352.611 442.945 352.575 443.245L351.497 452.551L360.823 451.492C361.12 451.457 361.422 451.488 361.705 451.585C361.988 451.682 362.247 451.841 362.46 452.051C362.676 452.265 362.841 452.526 362.942 452.813C363.042 453.1 363.075 453.407 363.039 453.709L361.961 463.034L371.306 461.956C371.605 461.923 371.908 461.958 372.191 462.058C372.475 462.159 372.732 462.322 372.944 462.535C373.154 462.749 373.313 463.007 373.41 463.29C373.507 463.574 373.538 463.875 373.503 464.173L372.445 473.518L381.77 472.48C382.031 472.449 382.296 472.47 382.548 472.542C382.801 472.614 383.037 472.735 383.243 472.898C383.449 473.062 383.621 473.264 383.748 473.494C383.876 473.723 383.957 473.976 383.987 474.237C384.017 474.5 383.995 474.765 383.922 475.019C383.849 475.273 383.726 475.51 383.561 475.717C383.396 475.923 383.191 476.094 382.959 476.221C382.727 476.347 382.472 476.426 382.209 476.454L370.388 477.792C370.09 477.827 369.789 477.795 369.505 477.699C369.222 477.602 368.964 477.442 368.75 477.232C368.537 477.021 368.374 476.763 368.273 476.48C368.173 476.196 368.138 475.894 368.171 475.595L369.23 466.249L359.904 467.328C359.596 467.374 359.281 467.349 358.985 467.252C358.689 467.155 358.42 466.991 358.199 466.772C357.977 466.552 357.811 466.284 357.711 465.989C357.612 465.694 357.584 465.38 357.628 465.071L358.706 455.746L349.38 456.804C349.083 456.84 348.781 456.808 348.498 456.711C348.214 456.614 347.956 456.455 347.743 456.245C347.529 456.033 347.366 455.776 347.266 455.492C347.166 455.209 347.131 454.906 347.164 454.607L348.242 445.282L338.917 446.34C338.619 446.376 338.318 446.344 338.034 446.247C337.751 446.15 337.493 445.991 337.279 445.781C336.927 445.395 336.741 444.886 336.76 444.363V444.363Z" fill="white"/>
<path d="M328.273 452.83L328.273 452.61L329.671 440.788C329.701 440.526 329.783 440.272 329.911 440.042C330.039 439.811 330.212 439.608 330.419 439.443C330.625 439.279 330.862 439.158 331.116 439.085C331.37 439.013 331.636 438.991 331.898 439.021C332.16 439.051 332.414 439.133 332.645 439.261C332.875 439.389 333.078 439.561 333.243 439.768C333.407 439.975 333.528 440.212 333.601 440.466C333.673 440.72 333.695 440.985 333.665 441.248L332.587 450.573L341.912 449.495C342.212 449.459 342.516 449.493 342.801 449.591C343.085 449.69 343.344 449.853 343.558 450.066C343.771 450.279 343.933 450.538 344.032 450.823C344.131 451.108 344.164 451.412 344.129 451.711L343.051 461.037L352.376 459.959C352.675 459.926 352.978 459.96 353.261 460.061C353.545 460.161 353.802 460.324 354.014 460.538C354.227 460.749 354.39 461.007 354.49 461.29C354.591 461.574 354.626 461.876 354.593 462.175L353.514 471.501L362.8 470.482C363.099 470.449 363.401 470.484 363.685 470.584C363.968 470.685 364.226 470.848 364.437 471.061C364.651 471.273 364.814 471.53 364.914 471.814C365.015 472.097 365.049 472.4 365.016 472.699L363.958 482.044L373.304 480.986C373.833 480.928 374.364 481.082 374.78 481.415C375.196 481.749 375.462 482.234 375.52 482.763C375.578 483.293 375.424 483.824 375.091 484.239C374.757 484.655 374.273 484.921 373.743 484.98L361.921 486.338C361.606 486.39 361.283 486.367 360.979 486.269C360.674 486.171 360.398 486.001 360.173 485.774C359.948 485.547 359.781 485.269 359.686 484.964C359.59 484.659 359.569 484.336 359.625 484.021L360.683 474.676L351.358 475.754C351.058 475.789 350.754 475.756 350.469 475.657C350.184 475.558 349.926 475.396 349.712 475.183C349.499 474.969 349.337 474.711 349.238 474.426C349.139 474.141 349.106 473.837 349.141 473.537L350.219 464.212L340.894 465.29C340.594 465.325 340.291 465.292 340.006 465.193C339.721 465.095 339.462 464.932 339.248 464.719C339.035 464.506 338.873 464.247 338.774 463.962C338.675 463.677 338.642 463.373 338.677 463.074L339.756 453.748L330.43 454.826C330.131 454.859 329.829 454.825 329.545 454.724C329.262 454.624 329.004 454.461 328.793 454.247C328.441 453.861 328.254 453.352 328.273 452.83Z" fill="white"/>
<path d="M319.806 461.317L319.806 461.077L321.163 449.256C321.194 448.993 321.275 448.74 321.403 448.509C321.532 448.278 321.704 448.075 321.911 447.911C322.328 447.579 322.86 447.427 323.39 447.488C323.92 447.549 324.403 447.818 324.735 448.236C325.066 448.653 325.218 449.185 325.157 449.715L324.099 459.04L333.424 457.962C333.723 457.929 334.026 457.964 334.309 458.064C334.593 458.165 334.85 458.328 335.062 458.541C335.275 458.753 335.439 459.01 335.539 459.294C335.639 459.577 335.674 459.88 335.641 460.179L334.563 469.504L343.868 468.486C344.166 468.454 344.468 468.489 344.75 468.59C345.033 468.69 345.289 468.853 345.5 469.066C345.711 469.278 345.871 469.536 345.969 469.82C346.067 470.103 346.1 470.405 346.065 470.702L345.006 480.028L354.332 478.969C354.63 478.935 354.931 478.968 355.215 479.065C355.498 479.163 355.756 479.324 355.969 479.535C356.182 479.746 356.344 480.002 356.445 480.284C356.545 480.567 356.581 480.868 356.549 481.166L355.49 490.512L364.816 489.453C365.077 489.423 365.341 489.444 365.594 489.516C365.847 489.588 366.083 489.709 366.289 489.872C366.495 490.035 366.666 490.237 366.794 490.467C366.922 490.697 367.003 490.949 367.032 491.211C367.063 491.472 367.042 491.736 366.97 491.989C366.898 492.242 366.777 492.478 366.614 492.684C366.451 492.889 366.248 493.061 366.019 493.189C365.789 493.316 365.536 493.397 365.275 493.427L353.433 494.765C353.126 494.8 352.814 494.764 352.523 494.658C352.232 494.552 351.97 494.38 351.757 494.155C351.544 493.93 351.386 493.659 351.296 493.363C351.205 493.067 351.185 492.754 351.237 492.449L352.295 483.123L342.97 484.181C342.671 484.214 342.368 484.179 342.085 484.079C341.801 483.979 341.544 483.816 341.332 483.602C341.119 483.391 340.956 483.133 340.855 482.85C340.755 482.566 340.72 482.264 340.753 481.965L341.811 472.639L332.486 473.718C332.187 473.751 331.884 473.716 331.601 473.615C331.317 473.515 331.06 473.352 330.848 473.138C330.638 472.925 330.479 472.667 330.382 472.384C330.286 472.1 330.254 471.798 330.289 471.501L331.348 462.176L322.022 463.254C321.723 463.287 321.421 463.252 321.137 463.152C320.854 463.051 320.596 462.888 320.385 462.675C320.025 462.313 319.818 461.827 319.806 461.317V461.317Z" fill="white"/>
<path d="M220.359 13.8306L220.359 13.611L221.717 1.78929C221.776 1.25968 222.042 0.774903 222.458 0.441605C222.873 0.108307 223.404 -0.0462074 223.934 0.01205C224.464 0.0703073 224.948 0.336564 225.282 0.752251C225.615 1.16794 225.769 1.699 225.711 2.22861L224.653 11.5542L233.978 10.4958C234.276 10.4638 234.578 10.4993 234.86 10.5997C235.143 10.7001 235.399 10.8628 235.61 11.0757C235.821 11.2886 235.981 11.5463 236.079 11.8296C236.177 12.1129 236.21 12.4146 236.175 12.7124L235.117 22.0179L244.422 20.9596C244.72 20.9276 245.022 20.9631 245.304 21.0635C245.586 21.1639 245.843 21.3265 246.054 21.5394C246.265 21.7524 246.425 22.01 246.523 22.2934C246.621 22.5767 246.653 22.8784 246.619 23.1761L245.56 32.5216L254.886 31.4433C255.185 31.4103 255.487 31.4452 255.771 31.5455C256.054 31.6458 256.312 31.8088 256.523 32.0224C256.737 32.2341 256.9 32.4914 257 32.7749C257.101 33.0584 257.135 33.361 257.102 33.6599L256.024 42.9854L265.37 41.9271C265.632 41.8969 265.898 41.9187 266.151 41.9912C266.405 42.0637 266.642 42.1855 266.849 42.3496C267.056 42.5137 267.228 42.7169 267.356 42.9476C267.485 43.1784 267.566 43.4321 267.596 43.6943C267.626 43.9566 267.605 44.2222 267.532 44.476C267.46 44.7298 267.338 44.9669 267.174 45.1736C267.01 45.3804 266.806 45.5528 266.576 45.681C266.345 45.8092 266.091 45.8907 265.829 45.9209L253.987 47.139C253.691 47.1704 253.392 47.1352 253.111 47.036C252.83 46.9367 252.575 46.7759 252.364 46.5653C252.154 46.3547 251.993 46.0996 251.894 45.8188C251.794 45.538 251.759 45.2386 251.791 44.9424L252.849 35.5969L243.504 36.6752C243.206 36.7072 242.904 36.6717 242.622 36.5713C242.339 36.4709 242.083 36.3082 241.872 36.0953C241.661 35.8824 241.501 35.6247 241.403 35.3414C241.305 35.0581 241.272 34.7564 241.307 34.4586L242.365 25.173L233.04 26.2314C232.742 26.2661 232.44 26.2333 232.157 26.1355C231.874 26.0376 231.616 25.8773 231.403 25.6663C231.19 25.4553 231.028 25.1991 230.927 24.9167C230.827 24.6342 230.791 24.3328 230.823 24.0348L231.822 14.7492L222.496 15.8076C222.216 15.8386 221.933 15.8099 221.664 15.7236C221.396 15.6372 221.149 15.495 220.94 15.3064C220.73 15.1178 220.563 14.887 220.45 14.6292C220.336 14.3714 220.278 14.0924 220.28 13.8107L220.359 13.8306Z" fill="white"/>
<path d="M211.854 22.2978L211.854 22.0782L213.211 10.2565C213.272 9.72689 213.541 9.24316 213.959 8.91173C214.376 8.58031 214.908 8.42834 215.438 8.48924C215.968 8.55015 216.451 8.81894 216.783 9.2365C217.114 9.65406 217.266 10.1862 217.205 10.7158L216.127 20.0413L225.452 18.963C225.751 18.93 226.054 18.9649 226.337 19.0652C226.621 19.1655 226.878 19.3285 227.09 19.5421C227.303 19.7538 227.467 20.011 227.567 20.2946C227.667 20.5781 227.702 20.8806 227.669 21.1796L226.591 30.5051L235.916 29.4268C236.215 29.3938 236.518 29.4287 236.801 29.529C237.085 29.6293 237.342 29.7923 237.554 30.0059C237.767 30.2176 237.93 30.4748 238.031 30.7584C238.131 31.0419 238.166 31.3444 238.133 31.6433L237.054 40.9689L246.4 39.8906C246.699 39.8575 247.001 39.8925 247.285 39.9928C247.568 40.093 247.826 40.2561 248.037 40.4697C248.247 40.6832 248.407 40.9412 248.504 41.2247C248.6 41.5081 248.632 41.8097 248.597 42.1071L247.538 51.4526L256.884 50.3943C257.146 50.3654 257.411 50.3885 257.665 50.4622C257.918 50.5359 258.154 50.6588 258.36 50.8238C258.566 50.9889 258.737 51.1928 258.864 51.4241C258.991 51.6553 259.071 51.9093 259.1 52.1715C259.129 52.4338 259.106 52.6991 259.032 52.9524C258.959 53.2057 258.836 53.4421 258.671 53.6479C258.506 53.8537 258.302 54.025 258.07 54.152C257.839 54.279 257.585 54.3592 257.323 54.3881L245.501 55.746C245.19 55.7835 244.874 55.747 244.579 55.6394C244.284 55.5318 244.018 55.3563 243.804 55.1269C243.59 54.9152 243.427 54.658 243.327 54.3745C243.227 54.0909 243.192 53.7884 243.225 53.4895L244.283 44.144L235.038 45.1424C234.738 45.1777 234.434 45.1446 234.149 45.0456C233.864 44.9467 233.605 44.7845 233.392 44.5712C233.179 44.3579 233.017 44.0991 232.918 43.8141C232.819 43.5291 232.786 43.2254 232.821 42.9258L233.819 33.6802L224.494 34.7585C224.195 34.7915 223.892 34.7566 223.609 34.6563C223.325 34.556 223.068 34.393 222.856 34.1794C222.643 33.9677 222.48 33.7105 222.38 33.4269C222.279 33.1434 222.244 32.8409 222.277 32.5419L223.436 23.1765L214.11 24.2548C213.83 24.2858 213.546 24.2572 213.278 24.1708C213.01 24.0844 212.763 23.9423 212.554 23.7536C212.344 23.565 212.177 23.3342 212.063 23.0764C211.95 22.8186 211.892 22.5397 211.893 22.2579L211.854 22.2978Z" fill="white"/>
<path d="M203.406 30.7841L203.406 30.5445L204.764 18.7228C204.825 18.1932 205.094 17.7095 205.511 17.3781C205.929 17.0466 206.461 16.8946 206.991 16.9555C207.52 17.0165 208.004 17.2853 208.335 17.7028C208.667 18.1204 208.819 18.6525 208.758 19.1821L207.68 28.5076L217.005 27.4293C217.304 27.3963 217.606 27.4312 217.89 27.5315C218.174 27.6318 218.431 27.7948 218.643 28.0084C218.856 28.2201 219.019 28.4774 219.119 28.7609C219.22 29.0444 219.255 29.347 219.222 29.6459L218.143 38.9714L227.469 37.8931C227.768 37.8601 228.07 37.895 228.354 37.9953C228.637 38.0956 228.895 38.2586 229.106 38.4722C229.32 38.6839 229.483 38.9411 229.583 39.2247C229.683 39.5082 229.718 39.8107 229.685 40.1097L228.607 49.4352L237.933 48.3768C238.23 48.3422 238.532 48.3749 238.815 48.4728C239.099 48.5706 239.356 48.7309 239.569 48.9419C239.782 49.1529 239.945 49.4091 240.045 49.6916C240.146 49.974 240.181 50.2754 240.149 50.5734L239.091 59.9189L248.436 58.8606C248.96 58.8044 249.485 58.9576 249.897 59.2868C250.308 59.616 250.573 60.0944 250.633 60.6179C250.663 60.8789 250.642 61.1433 250.57 61.3961C250.499 61.6489 250.378 61.885 250.214 62.0909C250.051 62.2968 249.849 62.4685 249.619 62.5961C249.389 62.7237 249.137 62.8047 248.876 62.8344L237.054 64.1723C236.754 64.2076 236.451 64.1745 236.166 64.0756C235.881 63.9767 235.622 63.8145 235.409 63.6011C235.195 63.3878 235.033 63.129 234.934 62.844C234.835 62.5591 234.802 62.2554 234.837 61.9558L235.816 52.6302L226.49 53.6886C226.191 53.7216 225.889 53.6867 225.605 53.5864C225.322 53.4861 225.065 53.3231 224.853 53.1095C224.639 52.8978 224.476 52.6406 224.376 52.357C224.276 52.0735 224.241 51.771 224.274 51.472L225.432 42.1465L216.106 43.1449C215.808 43.178 215.505 43.143 215.221 43.0427C214.938 42.9425 214.681 42.7794 214.469 42.5658C214.255 42.3541 214.092 42.0969 213.992 41.8134C213.892 41.5298 213.857 41.2273 213.89 40.9284L214.968 31.6028L205.643 32.6812C205.361 32.7152 205.075 32.6889 204.805 32.6039C204.534 32.5189 204.285 32.3772 204.073 32.1883C203.861 31.9993 203.692 31.7675 203.577 31.5081C203.462 31.2488 203.404 30.9679 203.406 30.6843L203.406 30.7841Z" fill="white"/>
</g>
</g>
</svg>
