<svg width="176" height="226" viewBox="0 0 176 226" fill="none" xmlns="http://www.w3.org/2000/svg">
<g clip-path="url(#clip0)">
<path d="M6.06934 6.15479L6.06934 145.015C6.06934 161.613 12.9983 176.384 26.6585 188.916C41.2192 202.228 61.6508 212.58 87.2987 219.662L88.0052 219.846L88.623 219.688C114.363 212.578 134.792 202.225 149.338 188.925C163.004 176.39 169.932 161.616 169.932 145.015L169.932 6.15479H6.06934Z" fill="white"/>
<path d="M169.93 67.0474H6.06836L6.06836 145.016C6.06836 161.614 12.9974 176.385 26.6576 188.918C41.2182 202.229 61.6498 212.581 87.2977 219.664L88.0042 219.847L88.622 219.689C114.362 212.579 134.791 202.226 149.337 188.926C163.003 176.391 169.931 161.617 169.931 145.016V67.0474H169.93Z" fill="#86B8E4"/>
<path d="M127.651 168.565C124.515 168.178 121.328 168.156 118.175 168.47C107.035 169.582 97.6069 175.564 86.8791 178.339C82.8174 179.396 78.1593 180.072 73.8968 180.5C69.6145 180.936 65.3996 180.647 61.1677 180.208C56.9663 179.785 52.765 178.917 48.7174 177.424C44.6586 175.97 40.7138 174.001 37.1094 171.317C39.6853 175.055 43.3566 177.992 47.3014 180.385C51.3073 182.727 55.7259 184.451 60.3147 185.454C64.8865 186.439 69.6926 186.798 74.2901 186.536C78.9089 186.317 83.5317 185.744 88.1093 184.626C93.9579 183.247 99.405 180.778 104.755 178.098C112.67 174.121 120.685 171.513 129.622 171.307C131.178 171.265 132.739 171.265 134.289 171.413C135.039 171.482 137.066 171.832 138.892 172.01C136.706 170.865 130.383 168.901 127.651 168.565Z" fill="#005EC5"/>
<path d="M96.6459 134.844C105.949 144.106 115.556 152.529 113.747 165.251C113.242 165.334 112.726 165.429 112.213 165.535C118.07 164.339 123.264 164.523 127.944 165.52C129.238 163.24 130.347 160.922 131.231 158.516C133.043 153.578 133.779 148.817 133.333 144.124C132.907 139.81 131.484 135.557 128.964 131.291C125.921 126.144 122.154 121.347 118.468 116.534C114.647 111.539 110.63 106.556 108.023 100.964C105.048 94.5798 105.235 88.7292 106.671 82.0945C106.916 80.9457 106.916 80.9457 107.306 79.6001C102.921 82.495 98.8989 85.829 95.4947 89.6192C93.8077 91.521 92.2943 93.5457 91.0092 95.6754C89.7266 97.8055 88.7063 100.063 87.9707 102.388C86.5989 106.729 86.1726 111.428 87.0954 115.867C88.1574 120.95 93.4459 131.411 93.4542 131.594C93.9032 132.064 94.3518 132.531 94.8061 132.993C95.3134 133.487 95.9379 134.104 96.6459 134.844Z" fill="#ED7004"/>
<path d="M82.0541 176.057C81.9475 176.084 81.8463 176.104 81.7422 176.132C81.8463 176.104 81.9475 176.082 82.0541 176.057Z" fill="#C51633"/>
<path d="M51.8169 170.513C53.3507 171.944 54.9922 173.285 56.6647 174.567C57.4624 175.176 58.2596 175.765 59.0568 176.358C63.9351 177.622 68.9816 178.126 75.045 177.375C74.6518 176.157 74.4011 174.903 74.3565 173.586C74.1669 167.929 76.7263 164.297 72.3242 156.448C72.1287 156.203 71.9396 155.952 71.7442 155.709C61.446 147.466 51.4712 138.76 50.978 126.886C48.5583 130.062 46.5759 134.516 44.9922 138.081C43.4259 141.643 42.344 145.414 42.1573 149.285C41.9255 153.153 42.7009 157.084 44.3986 160.724C46.1133 164.364 48.7614 167.642 51.8169 170.513Z" fill="#C51633"/>
<path d="M83.8942 175.576L83.8913 175.573C83.7352 175.614 83.5819 175.656 83.4258 175.698C83.5848 175.656 83.7357 175.62 83.8942 175.576Z" fill="#C51633"/>
<path d="M90.8522 173.353C90.8299 173.365 90.8071 173.37 90.7853 173.379V173.381C92.6415 172.717 94.5933 171.957 96.6285 171.12C104.353 155.282 101.426 148.925 93.4533 131.593C84.0274 121.688 76.4059 110.231 83.7854 91.4277C79.2607 95.557 74.8086 99.9256 70.7804 104.408C66.3114 109.377 62.032 115.487 60.0418 121.541C57.2788 129.955 60.3231 139.373 65.1796 146.809C67.1813 149.868 69.4619 152.787 71.7449 155.707C73.5958 157.186 75.4555 158.651 77.2706 160.117C82.6139 164.417 87.5872 168.69 90.8522 173.353Z" fill="#E30613"/>
<path d="M96.6289 171.126C96.9465 170.995 97.2782 170.853 97.6017 170.717C97.2758 170.854 96.949 170.99 96.6289 171.12V171.126Z" fill="#FBCA28"/>
<path d="M94.8056 132.992C94.3507 132.53 93.9022 132.062 93.4531 131.593C93.4725 131.629 93.4977 131.662 93.5142 131.699C93.6704 131.896 94.1364 132.339 94.8056 132.992Z" fill="#FBCA28"/>
<path d="M96.6289 171.121C96.9489 170.99 97.2758 170.854 97.6016 170.718C98.0448 170.528 98.4827 170.35 98.9347 170.158C99.7542 169.808 100.582 169.449 101.43 169.068C104.329 167.772 107.083 166.81 109.71 166.121C110.521 165.909 111.323 165.721 112.113 165.556C112.146 165.55 112.18 165.542 112.213 165.534C112.726 165.428 113.242 165.334 113.747 165.25C115.556 152.529 105.95 144.106 96.6463 134.844C96.0305 134.229 95.4171 133.615 94.8065 132.992C94.1374 132.339 93.6713 131.897 93.5152 131.7C93.4987 131.663 93.4735 131.63 93.4541 131.594C101.427 148.925 104.354 155.282 96.6289 171.121Z" fill="#FBCA28"/>
<path d="M75.0512 177.381C77.1422 177.128 79.367 176.708 81.7421 176.132C79.367 176.708 77.1422 177.116 75.0459 177.375C75.0512 177.378 75.0512 177.381 75.0512 177.381Z" fill="#ED7004"/>
<path d="M83.425 175.698C82.9648 175.82 82.5022 175.942 82.0508 176.057C82.5022 175.943 82.9653 175.821 83.425 175.698Z" fill="#ED7004"/>
<path d="M77.271 160.118C75.5592 158.736 73.8028 157.354 72.0547 155.956C72.1551 156.122 72.2331 156.281 72.3253 156.447C76.7269 164.297 74.168 167.929 74.3576 173.585C74.4017 174.903 74.6529 176.157 75.0462 177.375C77.1425 177.116 79.3678 176.708 81.7424 176.132C81.8457 176.104 81.9456 176.085 82.0518 176.057C82.5032 175.943 82.9663 175.821 83.426 175.698C83.5822 175.657 83.7354 175.614 83.8916 175.573C86.0548 174.978 88.3407 174.255 90.7857 173.379C87.5323 168.693 82.5871 164.403 77.271 160.118Z" fill="#ED7004"/>
<path d="M77.2705 160.118C82.5872 164.403 87.5319 168.693 90.7857 173.379C90.808 173.37 90.8303 173.365 90.8526 173.354C87.5881 168.691 82.6148 164.417 77.2705 160.118Z" fill="#ED7004"/>
<path d="M108.737 44.4151L120.114 41.3727L118.695 36.0957L108.737 38.7535V30.3616H124.217V24.8916H108.737H102.489V30.3616V50.0848V55.5631H108.737H124.621V50.0848H108.737V44.4151Z" fill="#0464A9"/>
<path d="M83.8111 24.8916H74.3047V30.3616H83.8111V55.5626H90.0612V30.3616H99.5704V24.8916H90.0612H83.8111Z" fill="#0464A9"/>
<path d="M152.137 24.7329H144.877L137.197 35.9834L133.93 36.8565V24.7329H127.683V55.401H133.93V42.5175L136.405 41.8563L145.309 55.401H152.831L141.942 39.2203L152.137 24.7329Z" fill="#0464A9"/>
<path d="M62.4169 40.3584V40.3749L57.4523 41.704V30.3616H62.4169C65.1659 30.3616 67.4712 31.9075 67.4712 35.2913C67.4712 38.6732 64.8643 39.8215 62.4169 40.3584ZM62.9687 24.9119V24.8921H57.4518H51.207V30.3621L51.207 55.563H57.4518V47.3714L62.4164 46.0422C63.122 45.8753 63.7965 45.692 64.4487 45.4918L64.8638 45.3858L64.8614 45.3699C70.1441 43.6818 73.6733 40.6815 73.6733 35.2923C73.6738 28.7214 69.2999 25.1117 62.9687 24.9119Z" fill="#0464A9"/>
<path d="M41.2133 38.5535L29.4157 41.7043V35.428C29.4157 32.2134 32.089 29.5357 35.3176 29.5357C38.5375 29.5357 41.2138 32.2134 41.2138 35.428V38.5535H41.2133ZM35.3172 24.2495C28.6292 24.2495 23.1709 28.7652 23.1709 35.428L23.1709 55.5628H29.4157V47.3711L41.2133 44.2122V55.5628H47.4605V35.428C47.461 28.7652 42.0027 24.2495 35.3172 24.2495Z" fill="#0464A9"/>
<path d="M163.862 144.913C163.862 159.959 157.768 172.864 145.228 184.368C131.587 196.84 112.333 206.633 88.0036 213.471C63.6748 206.633 44.4191 196.84 30.7589 184.351C18.2334 172.861 12.1366 159.956 12.1366 144.913L12.1366 12.1071H163.862V144.913ZM0 0L0 144.913C0 163.29 7.59771 179.555 22.557 193.277C37.204 206.666 58.1292 217.786 85.7643 225.419L88.0031 226L90.2415 225.419C117.871 217.786 138.802 206.667 153.443 193.277C168.405 179.555 176 163.29 176 144.913V0H0Z" fill="#005AA7"/>
</g>
<defs>
<clipPath id="clip0">
<rect width="176" height="226" fill="white"/>
</clipPath>
</defs>
</svg>
