<svg width="24" height="24" viewBox="0 0 24 24" fill="none" xmlns="http://www.w3.org/2000/svg">
<path d="M9.59999 17.9907C11.6465 17.9907 13.507 17.2652 14.9581 16.0373L21.4698 22.5489C21.6186 22.6977 21.8046 22.7721 22.0093 22.7721C22.2139 22.7721 22.4 22.6977 22.5488 22.5489C22.8465 22.2512 22.8465 21.7675 22.5488 21.4698L16.0372 14.9582C17.2465 13.507 17.9907 11.628 17.9907 9.60005C17.9907 4.96749 14.2325 1.20935 9.59999 1.20935C4.98603 1.20935 1.20929 4.98609 1.20929 9.60005C1.20929 14.2326 4.98603 17.9907 9.59999 17.9907ZM9.59999 2.73493C13.3953 2.73493 16.4651 5.8233 16.4651 9.60005C16.4651 13.3954 13.3953 16.4652 9.59999 16.4652C5.80464 16.4652 2.73487 13.3768 2.73487 9.60005C2.73487 5.8233 5.82324 2.73493 9.59999 2.73493Z" fill="#424FB4"/>
</svg>
