<svg width="120" height="120" viewBox="0 0 120 120" fill="none" xmlns="http://www.w3.org/2000/svg">
<path fill-rule="evenodd" clip-rule="evenodd" d="M0 60C0 26.8629 26.8629 0 60 0C93.1371 0 120 26.8629 120 60C120 93.1371 93.1371 120 60 120C26.8629 120 0 93.1371 0 60Z" fill="#4C6C91"/>
<path fill-rule="evenodd" clip-rule="evenodd" d="M63.1387 79.6902C63.1387 79.6902 64.2937 79.5642 64.8853 78.9405C65.4269 78.369 65.4081 77.2905 65.4081 77.2905C65.4081 77.2905 65.3361 72.2544 67.7182 71.5108C70.0659 70.7796 73.0803 76.381 76.2794 78.5349C78.696 80.1634 80.5303 79.807 80.5303 79.807L89.079 79.6902C89.079 79.6902 93.549 79.4198 91.4298 75.9692C91.2545 75.6866 90.1933 73.4159 85.0754 68.7516C79.7133 63.8692 80.4332 64.6589 86.8878 56.2122C90.8194 51.0686 92.3908 47.9284 91.8993 46.5856C91.4329 45.3013 88.5406 45.6423 88.5406 45.6423L78.9182 45.7007C78.9182 45.7007 78.2045 45.6055 77.6755 45.9158C77.159 46.22 76.8241 46.9298 76.8241 46.9298C76.8241 46.9298 75.3028 50.9088 73.2713 54.2949C68.986 61.4357 67.2737 61.8136 66.5725 61.3711C64.9417 60.3357 65.3486 57.2169 65.3486 55.0016C65.3486 48.0789 66.4191 45.1937 63.267 44.4471C62.2215 44.1982 61.4515 44.0353 58.7751 44.0077C55.3412 43.9739 52.4364 44.02 50.7899 44.8096C49.6943 45.3351 48.8491 46.5088 49.3656 46.5764C50.001 46.6594 51.4409 46.9574 52.2047 47.9775C53.1907 49.2957 53.1563 52.2516 53.1563 52.2516C53.1563 52.2516 53.7229 60.4002 51.8322 61.4111C50.5363 62.1055 48.7583 60.689 44.9363 54.2088C42.9799 50.8904 41.5024 47.2217 41.5024 47.2217C41.5024 47.2217 41.2176 46.5365 40.7073 46.1678C40.0907 45.7222 39.2299 45.5839 39.2299 45.5839L30.0864 45.6423C30.0864 45.6423 28.7123 45.6792 28.2083 46.2661C27.7607 46.7854 28.1738 47.8638 28.1738 47.8638C28.1738 47.8638 35.3327 64.3055 43.44 72.5924C50.8744 80.188 59.3135 79.6902 59.3135 79.6902H63.1387Z" fill="white"/>
</svg>
