<svg width="173" height="230" viewBox="0 0 173 230" fill="none" xmlns="http://www.w3.org/2000/svg">
<g opacity="0.18">
<path opacity="0.18" d="M49.2494 229.147C49.0573 229.136 48.8661 229.112 48.6772 229.076C48.2834 229.01 47.7289 228.896 46.984 228.729C45.6094 228.421 43.7667 227.968 41.9852 227.531L41.5477 227.424C41.7883 227.529 41.8189 227.589 41.8626 227.675C41.8871 227.722 41.9003 227.774 41.9012 227.827C41.9022 227.88 41.8909 227.932 41.8682 227.98C41.8174 228.074 41.7337 228.146 41.6331 228.182C41.5324 228.218 41.422 228.216 41.323 228.175C41.2675 228.155 41.2168 228.124 41.1744 228.083C40.8242 227.923 39.1941 227.435 37.9895 227.07C34.513 226.026 34.4907 225.98 34.3792 225.764C34.355 225.717 34.3418 225.665 34.3409 225.612C34.3399 225.559 34.3511 225.506 34.3736 225.458C34.538 225.112 35.0099 225.191 35.5105 225.273C35.9052 225.339 36.4588 225.453 37.2046 225.62C38.5783 225.928 40.4211 226.381 42.2025 226.818C42.6734 226.933 43.162 227.054 43.6543 227.173L42.158 226.726C35.6377 224.783 34.9356 224.505 34.7684 224.177C34.7422 224.128 34.7279 224.074 34.7268 224.018C34.7256 223.963 34.7377 223.908 34.7619 223.858C34.9281 223.506 35.3925 223.565 36.1384 223.704C36.6641 223.802 37.4043 223.968 38.4009 224.212C40.2409 224.663 42.7097 225.318 45.0976 225.953C46.5039 226.323 48.0317 226.732 49.4482 227.098C48.1423 226.699 46.7407 226.279 45.4469 225.895C37.2929 223.454 36.1588 223.033 35.9628 222.656C35.9363 222.607 35.9218 222.551 35.9205 222.495C35.9192 222.439 35.9311 222.383 35.9554 222.332C36.1337 221.955 36.652 222.04 37.4842 222.226C38.0201 222.346 38.7502 222.535 39.7133 222.803C38.8365 222.467 38.778 222.352 38.713 222.225C38.6865 222.175 38.6719 222.12 38.6706 222.063C38.6694 222.007 38.6813 221.951 38.7056 221.9C38.8848 221.522 39.4003 221.61 40.2279 221.8C40.6849 221.906 41.284 222.063 42.0474 222.279C41.9922 222.235 41.9482 222.18 41.9192 222.116C41.8927 222.066 41.8782 222.01 41.8769 221.954C41.8756 221.897 41.8876 221.841 41.9118 221.79C42.0892 221.414 42.6233 221.493 43.4806 221.666C44.1112 221.793 45.0001 222.007 46.1983 222.319C48.4125 222.896 51.3829 223.733 54.2557 224.54C55.9414 225.015 57.7703 225.531 59.4681 225.998C58.5393 225.72 57.5957 225.436 56.7031 225.17C54.4981 224.512 52.2179 223.831 50.5116 223.287C47.5088 222.33 47.4224 222.161 47.3231 221.966C47.2961 221.916 47.2813 221.861 47.2799 221.804C47.2784 221.747 47.2904 221.691 47.3147 221.64C47.4921 221.27 48.0252 221.342 48.8816 221.511C49.5132 221.635 50.402 221.843 51.6011 222.148C53.8154 222.714 56.7876 223.536 59.6622 224.328C61.5877 224.86 63.6998 225.438 65.5908 225.948C64.5227 225.623 63.4137 225.29 62.3762 224.979C54.3615 222.573 53.4411 222.22 53.2563 221.859C53.2297 221.809 53.2152 221.754 53.2139 221.698C53.2126 221.642 53.2246 221.586 53.2489 221.536C53.429 221.156 53.9761 221.238 54.8566 221.418C55.5068 221.551 56.4291 221.775 57.6681 222.101C59.9595 222.704 63.0338 223.582 66.0069 224.427L67.6277 224.889C64.4372 223.911 63.9942 223.693 63.8642 223.439C63.8381 223.39 63.8238 223.336 63.8226 223.28C63.8213 223.225 63.833 223.17 63.8567 223.12C64.0314 222.75 64.5441 222.825 65.367 222.991C65.9642 223.113 66.8057 223.316 67.9398 223.613C70.0342 224.162 72.8448 224.958 75.5625 225.728L75.6294 225.747C72.6154 224.816 72.1844 224.6 72.0581 224.353C72.032 224.304 72.0178 224.25 72.0165 224.195C72.0152 224.139 72.0269 224.084 72.0507 224.034C72.2244 223.664 72.7241 223.74 73.5256 223.902C74.1033 224.018 74.9188 224.215 76.013 224.5C78.0368 225.028 80.7499 225.795 83.3793 226.536L84.5691 226.871C78.3294 224.992 77.5687 224.683 77.4025 224.358C77.3764 224.309 77.3621 224.254 77.3608 224.199C77.3595 224.143 77.3712 224.088 77.395 224.038C77.5678 223.672 78.0591 223.744 78.8477 223.906C79.4115 224.023 80.2047 224.216 81.2737 224.5C83.0087 224.962 85.2676 225.599 87.5246 226.245C82.0446 224.585 81.3257 224.278 81.1632 223.961C81.137 223.911 81.1228 223.856 81.1216 223.8C81.1205 223.744 81.1325 223.689 81.1567 223.638C81.3332 223.268 81.871 223.337 82.7357 223.501C83.3756 223.623 84.2775 223.829 85.4924 224.13C87.7392 224.686 90.7541 225.498 93.6659 226.283C96.0204 226.917 98.6498 227.624 100.829 228.18C99.4588 227.761 97.9495 227.31 96.5628 226.897C94.4266 226.259 92.2104 225.602 90.5553 225.072C87.6361 224.141 87.5506 223.975 87.4522 223.782C87.4256 223.733 87.4111 223.677 87.4098 223.621C87.4085 223.565 87.4205 223.509 87.4447 223.458C87.6212 223.087 88.1506 223.16 89.0005 223.327C89.6265 223.45 90.507 223.658 91.694 223.961C93.8879 224.522 96.8312 225.336 99.6771 226.124C101.628 226.663 103.764 227.256 105.67 227.764C104.412 227.38 103.078 226.981 101.84 226.61C99.5907 225.936 97.265 225.238 95.5244 224.683C92.4659 223.706 92.3804 223.539 92.282 223.346C92.2554 223.296 92.2409 223.241 92.2396 223.185C92.2383 223.128 92.2503 223.073 92.2745 223.022C92.4603 222.625 93.0436 222.758 93.717 222.913C94.1498 223.012 94.7191 223.161 95.4492 223.367C95.4228 223.339 95.4006 223.308 95.3832 223.274C95.3569 223.225 95.3425 223.17 95.3412 223.114C95.3399 223.058 95.3518 223.002 95.3758 222.951C95.5532 222.581 96.0919 222.68 96.7151 222.8C97.2176 222.897 97.9226 223.06 98.8783 223.299C100.533 223.714 102.717 224.307 104.87 224.892C102.064 224.029 101.692 223.838 101.57 223.596C101.545 223.548 101.531 223.494 101.53 223.439C101.528 223.384 101.54 223.33 101.564 223.28C101.721 222.947 102.165 223.018 102.595 223.087C102.931 223.141 103.403 223.235 104.037 223.373C105.204 223.628 106.769 224.002 108.282 224.363L108.795 224.486C108.783 224.466 108.772 224.446 108.762 224.426C108.738 224.379 108.725 224.327 108.724 224.274C108.723 224.222 108.734 224.17 108.756 224.122C108.807 224.028 108.891 223.956 108.991 223.92C109.092 223.884 109.202 223.887 109.301 223.927C109.352 223.945 109.398 223.973 109.438 224.009C109.731 224.138 110.98 224.514 111.904 224.791C114.662 225.624 114.678 225.652 114.783 225.857C114.807 225.904 114.82 225.956 114.821 226.008C114.822 226.061 114.811 226.113 114.789 226.161C114.632 226.494 114.187 226.422 113.758 226.353C113.422 226.299 112.95 226.205 112.315 226.066C111.157 225.814 109.608 225.444 108.106 225.085L108.385 225.168C114.196 226.903 114.778 227.132 114.936 227.441C114.961 227.489 114.975 227.543 114.976 227.598C114.978 227.653 114.966 227.707 114.943 227.757C114.766 228.133 114.227 228.029 113.604 227.909C113.101 227.816 112.396 227.649 111.44 227.409C109.682 226.969 107.323 226.326 105.041 225.705L102.855 225.112L104.679 225.659C112.613 228.035 113.524 228.386 113.71 228.749C113.736 228.799 113.751 228.854 113.752 228.91C113.753 228.966 113.741 229.021 113.717 229.072C113.531 229.47 112.948 229.336 112.275 229.181C112.056 229.131 111.805 229.069 111.514 228.996C111.577 229.04 111.628 229.101 111.66 229.171C111.686 229.221 111.701 229.276 111.702 229.332C111.703 229.388 111.691 229.444 111.667 229.495C111.491 229.865 110.961 229.793 110.11 229.625C109.485 229.502 108.605 229.295 107.417 228.992C105.224 228.431 102.281 227.616 99.4338 226.828C97.5576 226.309 95.5012 225.74 93.6519 225.244C94.7071 225.563 95.8003 225.891 96.8247 226.194C98.961 226.832 101.177 227.49 102.832 228.019C105.751 228.95 105.837 229.117 105.935 229.308C105.962 229.358 105.976 229.414 105.978 229.47C105.979 229.527 105.967 229.583 105.943 229.634C105.766 230.004 105.229 229.935 104.364 229.771C103.724 229.649 102.822 229.443 101.606 229.142C99.3604 228.586 96.3455 227.774 93.4327 226.989C91.1507 226.375 88.6085 225.693 86.4667 225.138C87.7261 225.524 89.0887 225.931 90.3435 226.307C98.178 228.653 99.079 229 99.2601 229.361C99.2864 229.41 99.3008 229.465 99.3021 229.521C99.3034 229.577 99.2915 229.633 99.2675 229.684C99.0947 230.048 98.6034 229.976 97.8148 229.814C97.252 229.699 96.4579 229.504 95.3888 229.222C93.8256 228.808 91.838 228.247 89.8067 227.667C93.7411 228.875 94.3067 229.139 94.4507 229.413C94.4769 229.462 94.4911 229.517 94.4922 229.572C94.4934 229.628 94.4814 229.683 94.4572 229.734C94.2845 230.104 93.7847 230.028 92.9823 229.866C92.4045 229.75 91.589 229.553 90.4958 229.268C88.537 228.757 85.9298 228.024 83.3831 227.305C86.4481 228.25 86.8828 228.468 87.01 228.716C87.036 228.765 87.0501 228.819 87.0512 228.875C87.0523 228.93 87.0405 228.985 87.0165 229.035C86.8419 229.405 86.3292 229.33 85.5063 229.163C84.9091 229.042 84.0676 228.838 82.9344 228.542C80.8716 228.001 78.1139 227.22 75.4343 226.462C77.9978 227.26 78.3842 227.464 78.504 227.698C78.5303 227.747 78.5447 227.801 78.546 227.857C78.5473 227.912 78.5355 227.967 78.5115 228.017C78.3313 228.397 77.7842 228.316 76.9037 228.136C76.2535 228.002 75.3312 227.778 74.0922 227.452C71.8008 226.848 68.7265 225.971 65.7543 225.127C64.1939 224.683 62.5155 224.202 60.9245 223.759L62.6381 224.275C70.6528 226.681 71.5733 227.032 71.759 227.395C71.7852 227.445 71.7994 227.5 71.8006 227.555C71.8017 227.611 71.7897 227.667 71.7655 227.717C71.5891 228.087 71.0559 228.016 70.1996 227.848C69.568 227.724 68.6782 227.515 67.48 227.209C65.2658 226.645 62.2936 225.821 59.4189 225.03C57.3755 224.466 55.1269 223.844 53.1523 223.32C54.4015 223.7 55.7325 224.097 56.9604 224.465C59.1663 225.123 61.4465 225.804 63.1518 226.348C66.1555 227.305 66.2419 227.474 66.3413 227.669C66.3679 227.719 66.3824 227.775 66.3837 227.831C66.385 227.888 66.373 227.944 66.3487 227.995C66.1713 228.371 65.6373 228.292 64.78 228.119C64.1493 227.991 63.2604 227.778 62.0623 227.466C59.848 226.889 56.8777 226.051 54.0049 225.245C52.1854 224.732 50.1968 224.171 48.3884 223.671C49.5884 224.036 50.8432 224.412 52.0107 224.762C54.3272 225.455 56.7217 226.172 58.5124 226.744C61.6583 227.748 61.7456 227.919 61.8468 228.117C61.8736 228.167 61.8882 228.222 61.8895 228.279C61.8908 228.336 61.8787 228.392 61.8542 228.443C61.675 228.821 61.1595 228.733 60.3319 228.543C59.9966 228.465 59.5833 228.358 59.0845 228.224C59.1797 228.272 59.2559 228.351 59.3009 228.447C59.3275 228.497 59.342 228.553 59.3433 228.609C59.3446 228.665 59.3326 228.721 59.3084 228.772C59.1301 229.15 58.6118 229.064 57.7796 228.878C57.1777 228.744 56.3288 228.521 55.1854 228.197L54.6421 228.041C55.0006 228.205 55.1343 228.319 55.19 228.426C55.2168 228.476 55.2314 228.531 55.2327 228.587C55.234 228.644 55.222 228.699 55.1975 228.75C55.0312 229.103 54.5668 229.043 53.821 228.905C53.2953 228.806 52.555 228.64 51.5584 228.397C49.7184 227.946 47.2497 227.286 44.8617 226.656C43.9654 226.418 43.019 226.167 42.0846 225.921L42.4171 226.02C48.9373 227.968 49.6386 228.241 49.8058 228.57C49.8318 228.618 49.8461 228.673 49.8474 228.728C49.8487 228.783 49.8369 228.838 49.8132 228.888C49.7166 229.1 49.5085 229.154 49.2494 229.147ZM109.548 224.339C109.542 224.364 109.534 224.39 109.523 224.414C109.535 224.389 109.544 224.364 109.549 224.338L109.548 224.339Z" fill="#EFD5B9"/>
</g>
<path d="M152.542 143.919C152.169 143.628 151.823 143.304 151.51 142.951C151.182 142.592 150.866 142.206 150.545 141.822C148.688 139.168 147.44 136.214 146.712 133.03C146.613 132.543 146.526 132.054 146.449 131.562L146.441 131.568C145.977 131.908 145.523 132.267 145.08 132.646C136.936 141.034 140.033 152.681 138.444 163.024C137.353 170.119 133.397 175.574 125.563 174.987C124.836 174.933 124.112 174.833 123.396 174.69C121.96 174.4 120.556 173.972 119.203 173.411C117.986 173.05 116.808 172.571 115.686 171.979C114.237 171.44 112.802 170.86 111.384 170.28C109.966 169.7 108.565 169.118 107.182 168.575C106.703 169.136 106.292 169.752 105.959 170.41C106.446 171.764 107.142 173.155 108.439 173.867C109.925 174.716 111.45 175.562 113.014 176.365C114.056 176.912 115.127 177.455 116.223 177.961C117.319 178.467 118.438 178.938 119.579 179.349C125.419 182.246 131.123 181.554 135.926 178.794C136.732 178.329 137.508 177.813 138.248 177.25C142.563 173.978 145.535 169.264 146.933 164.073C148.63 157.803 147.18 148.635 152.542 143.919Z" fill="#F47160"/>
<path d="M143.709 134.096C143.753 134.016 143.796 133.938 143.84 133.858C144.633 133.015 145.504 132.248 146.441 131.568C146.905 131.227 147.379 130.908 147.865 130.612C148.35 130.315 148.846 130.041 149.351 129.791C153.531 127.507 159.301 127.04 162.735 130.927C165.544 134.192 164.139 139.479 159.816 140.594C159.273 140.821 158.714 141.02 158.165 141.205C157.616 141.39 157.077 141.558 156.57 141.726C156.034 141.944 155.507 142.176 154.999 142.431C153.787 142.951 152.869 143.611 152.181 144.374C147.966 142.809 143.483 138.784 143.709 134.096Z" fill="#FFE1DC"/>
<path d="M60.1205 216.718C60.1669 216.378 60.206 216.053 60.2357 215.755C60.3351 214.772 60.4326 213.763 60.5208 212.737C61.0957 208.167 61.4153 203.439 60.4205 198.999C60.092 197.508 59.5979 196.057 58.9474 194.675C58.07 192.893 57.3062 191.059 56.6607 189.182C56.02 187.735 55.4721 186.25 55.0204 184.734C51.6275 173.994 51.1594 159.224 39.1443 154.248C33.3699 167.153 35.3984 181.924 38.5081 195.344C38.9855 197.216 39.5084 199.054 40.0768 200.858C40.662 202.801 41.2843 204.732 41.9233 206.636C42.5558 208.559 43.1958 210.439 43.8459 212.314C44.4961 214.189 45.137 216.032 45.7825 217.884C46.921 217.364 48.0926 216.92 49.2897 216.553C52.8201 215.488 56.4257 215.304 60.1205 216.718Z" fill="#F47160"/>
<path d="M45.7822 217.885L45.7943 217.925C46.0061 218.546 46.2339 219.156 46.4779 219.756C46.7219 220.356 46.9857 220.945 47.2692 221.525C48.6625 224.68 51.9393 228.101 55.6843 226.546C57.8688 225.613 58.962 223.281 59.2564 221.17C59.4218 220.485 59.5667 219.787 59.7208 219.089C59.8917 218.245 60.0236 217.441 60.1202 216.719C55.1929 214.834 50.4263 215.79 45.7822 217.885Z" fill="#FFE1DC"/>
<path d="M89.7773 216.409C89.8767 217.207 90.0225 218.122 90.2167 219.093C90.3718 219.791 90.5167 220.488 90.6811 221.166C91.1065 223.44 92.3529 225.617 94.6954 226.394C98.2843 227.483 101.25 224.529 102.668 221.529C102.952 220.949 103.215 220.36 103.459 219.76C103.702 219.16 103.93 218.55 104.143 217.929C104.29 217.404 104.44 216.877 104.591 216.351C99.7221 215.203 94.4056 214.669 89.7773 216.409Z" fill="#FFE1DC"/>
<path d="M113.115 177.301C113.126 175.495 113.089 173.722 113.006 171.982C112.978 171.413 112.944 170.845 112.904 170.279C112.768 168.403 112.616 166.485 112.264 164.639C111.934 162.855 111.504 161.092 110.975 159.356C109.857 159.375 108.747 159.563 107.685 159.912C106.496 160.627 105.407 161.493 104.443 162.488C103.344 163.733 102.357 165.071 101.493 166.489C99.187 170.162 97.8384 174.214 96.6375 178.339C96.2372 179.715 95.8536 181.098 95.456 182.478C94.7105 185.253 93.7797 187.976 92.6696 190.627C92.1625 191.83 91.6554 193.047 91.1835 194.275C89.7699 197.961 88.6757 201.771 88.8801 205.817C88.894 206.971 88.9563 208.13 89.0519 209.284C89.1476 210.438 89.2748 211.591 89.4188 212.734C89.507 213.761 89.6045 214.77 89.7039 215.752C89.7244 215.959 89.7504 216.179 89.7782 216.406C90.3555 216.19 90.9447 216.007 91.543 215.858L92.5099 215.708C92.8362 215.658 93.1653 215.61 93.4972 215.563C97.0146 215.074 100.939 215.023 104.034 216.985C104.152 217.06 104.27 217.136 104.389 217.209C105.517 213.201 106.687 209.21 107.844 205.21C109.002 201.209 110.091 197.213 110.987 193.158C111.851 189.257 112.487 185.31 112.889 181.335C113.029 179.829 113.11 178.466 113.115 177.301Z" fill="#F47160"/>
<path d="M116.089 179.19C115.138 179.282 114.202 179.592 113.582 180.525C112.08 183.11 112.489 186.17 113.912 188.639C114.116 188.991 114.339 189.331 114.582 189.657C116.39 191.407 119.04 192.341 121.362 191.118C121.59 190.996 121.811 190.862 122.024 190.717C122.237 190.573 122.441 190.419 122.638 190.254C122.982 189.966 123.317 189.654 123.648 189.329C124.553 188.324 125.268 187.164 125.757 185.905C126.023 185.208 126.238 184.494 126.401 183.767C126.571 183.011 126.699 182.247 126.785 181.478C126.02 180.938 125.212 180.462 124.37 180.053C122.944 179.405 121.421 178.996 119.861 178.842C119.557 178.814 119.253 178.799 118.952 178.797C118.608 178.727 118.241 178.809 117.876 178.895C117.511 178.981 117.147 179.071 116.81 179.019C116.568 179.071 116.328 179.128 116.089 179.19Z" fill="#FFE1DC"/>
<path d="M126.776 181.479C127.229 177.507 126.74 173.139 126.194 169.686C125.991 168.404 125.744 167.127 125.451 165.856C122.943 156.269 118.572 146.941 110.77 140.256C109.054 138.857 104.529 137.768 104.685 139.479C105.373 146.142 108.662 152.244 111.118 158.627C111.47 159.539 111.804 160.457 112.11 161.382C113.504 165.762 113.652 170.375 113.568 174.937C113.56 175.352 113.55 175.77 113.54 176.18C113.423 177.726 113.423 179.281 113.423 180.835C115.295 179.281 117.788 178.659 120.079 178.79C120.452 178.808 120.824 178.846 121.193 178.905C122.315 179.076 123.392 179.466 124.361 180.054C125.204 180.462 126.012 180.939 126.776 181.479V181.479Z" fill="#F47160"/>
<path d="M50.1943 124.15C49.8228 125.611 49.4076 127.072 48.9191 128.517C38.2072 146.787 28.6887 171.041 41.3335 190.99C42.6964 193.035 44.3018 194.909 46.115 196.57C48.0667 198.352 50.2236 199.896 52.5405 201.171C54.7303 202.382 57.0598 203.324 59.4778 203.975C63.0137 205.047 66.6585 205.725 70.3448 205.994C77.7752 206.56 85.3915 205.609 92.1318 203.382C94.28 202.676 96.3565 201.77 98.3335 200.675C102.269 198.481 105.764 195.492 108.55 191.568C116.074 181.033 114.66 167.806 111.235 156.142C109.605 150.63 107.251 145.314 104.441 140.107C101.632 134.9 98.3688 129.802 94.922 124.729C93.4535 122.563 91.3981 121.305 89.0993 120.648C87.938 120.311 86.7328 120.147 85.5234 120.164C82.2725 120.125 79.0617 120.424 75.8638 120.842C74.2653 121.051 72.6696 121.29 71.0739 121.529C66.2562 122.154 61.4394 123.09 56.6338 123.01C54.5885 123.273 52.4458 123.641 50.1943 124.15Z" fill="#F47160"/>
<path d="M60.1756 141.225C57.6019 146.786 55.1052 152.383 53.7817 158.279C53.4801 159.749 53.2716 161.237 53.1575 162.734C53.0462 164.241 53.0478 165.754 53.1622 167.261C53.297 168.693 53.5546 170.111 53.9321 171.499C55.3727 176.948 58.8056 182.079 64.1119 184.256C74.0984 188.298 87.2066 186.277 92.9801 176.326C98.9096 166.065 94.6965 154.404 92.4228 143.829C92.107 142.457 91.8052 141.084 91.494 139.716C89.9503 132.875 88.2386 126.159 83.8174 120.2C80.8518 116.313 75.3904 116.468 70.8652 117.09C67.4286 117.712 63.9995 119.111 62.5988 122.376C61.0385 126.263 63.0633 130.15 62.5988 134.192C62.4428 134.814 62.2868 135.591 62.1224 136.195C61.5827 137.811 60.9242 139.483 60.1756 141.225Z" fill="#FFE1DC"/>
<path d="M107.891 148.722C107.916 148.582 107.983 148.51 108.127 148.552C108.283 148.599 108.436 148.779 108.544 148.983C109.561 150.881 110.269 153.313 110.882 155.41C111.475 157.428 111.925 159.501 112.421 161.542C112.911 163.553 113.149 165.676 113.398 167.733C113.433 168.024 113.483 168.313 113.534 168.603C113.585 168.893 113.634 169.184 113.689 169.475C113.744 169.765 113.8 170.057 113.843 170.348C113.887 170.64 113.921 170.934 113.945 171.228C113.965 171.468 113.984 171.709 114.003 171.949C114.021 172.31 114.038 172.672 114.055 173.036C114.071 173.398 114.088 173.759 114.087 174.125L114.135 175.155L114.15 175.477L114.144 175.797L114.13 176.439L114.101 177.72C114.062 178.57 114.015 179.417 113.965 180.264C113.956 180.414 113.946 180.566 113.937 180.719C113.812 181.946 113.901 183.223 113.507 184.352C113.422 184.616 113.136 184.75 113.055 184.475C112.683 183.174 112.934 181.533 113.02 180.136C113.071 179.279 113.13 178.42 113.172 177.564L113.216 176.283L113.238 175.643C113.244 175.536 113.244 175.43 113.238 175.323L113.226 175.005L113.185 173.977C113.172 173.635 113.14 173.289 113.118 172.944C113.096 172.6 113.071 172.256 113.038 171.912L112.935 170.881L112.882 170.335L112.823 169.79C112.785 169.426 112.749 169.061 112.712 168.697C112.675 168.332 112.631 167.968 112.579 167.606C112.534 167.243 112.486 166.879 112.422 166.518C112.329 166.003 112.251 165.486 112.144 164.975C112.036 164.463 111.932 163.951 111.814 163.442C111.698 162.962 111.593 162.488 111.492 162.012C111.39 161.537 111.276 161.065 111.167 160.583C110.685 158.535 110.108 156.511 109.496 154.495L109.207 153.542L108.909 152.592C108.711 151.961 108.513 151.328 108.312 150.69C108.223 150.372 107.804 149.183 107.891 148.722Z" fill="#FFE1DC"/>
<path d="M47.8123 198.482C47.7194 198.333 47.7287 198.226 47.8893 198.195C48.0667 198.16 48.3472 198.254 48.6082 198.39C49.2138 198.705 49.8389 199.043 50.4779 199.386C51.117 199.728 51.7783 200.057 52.4284 200.404C53.7548 201.073 55.1062 201.711 56.3926 202.232C58.8651 203.231 61.4267 204.106 64.0478 204.629C65.3351 204.89 66.6485 205.133 67.9618 205.353C69.2751 205.572 70.6098 205.729 71.9287 205.827C73.4204 205.932 74.9325 205.768 76.4232 205.735C76.7297 205.726 77.0362 205.723 77.3428 205.71L78.7211 205.646C79.1799 205.614 79.6397 205.591 80.0985 205.554C80.5304 205.503 80.9614 205.461 81.3914 205.402C83.5393 205.11 85.6698 204.703 87.7733 204.181C87.959 204.139 88.1448 204.089 88.3361 204.038C89.877 203.696 91.3687 203.066 92.864 202.875C93.2123 202.828 93.4975 203.025 93.2012 203.228C92.8294 203.476 92.4373 203.693 92.029 203.876C91.5905 204.067 91.1426 204.236 90.6869 204.383C90.2225 204.525 89.7488 204.667 89.2779 204.784C88.807 204.9 88.3491 205.02 87.9014 205.121C85.7247 205.65 83.5183 206.05 81.2939 206.317C79.5004 206.531 77.6948 206.67 75.8855 206.72C73.9693 206.773 72.0495 206.645 70.1398 206.482C68.7754 206.371 67.4166 206.204 66.0615 206.013C64.7788 205.828 63.5537 205.551 62.2933 205.247C60.9567 204.904 59.6304 204.519 58.3217 204.077C57.013 203.636 55.7285 203.126 54.4662 202.565C52.8732 201.854 51.3311 201.035 49.851 200.113C49.6652 199.996 49.2259 199.719 48.7986 199.399C48.3714 199.08 47.9599 198.729 47.8123 198.482Z" fill="#FFE1DC"/>
<path d="M156.508 108.224C161.64 91.9021 161.796 72.4675 151.66 58.0588C149.709 55.6842 147.18 53.8445 145.19 51.6226C136.645 41.5356 127.171 33.1856 115.848 27.3619C111.976 25.3643 107.966 23.6464 103.847 22.2213C99.1489 20.5953 94.1473 19.4857 88.9859 18.8731C83.7257 18.2635 78.4197 18.1473 73.1376 18.5261C54.2903 19.8466 35.2776 27.4859 21.5285 40.5352C5.88925 55.3788 0.192861 76.3802 6.11679 97.1853C6.36447 98.0528 6.63136 98.9143 6.91743 99.77C8.92598 105.107 11.6337 110.155 14.9702 114.785C27.8899 132.718 50.4097 142.588 73.5723 145.18C76.8845 145.55 80.2068 145.778 83.5394 145.864C86.7289 146.037 89.9816 146.078 93.2714 145.965C96.1024 145.872 98.9752 145.664 101.855 145.327C104.736 144.99 107.627 144.524 110.505 143.91C124.771 140.865 139.069 133.879 148.395 122.459C150.279 120.161 151.935 117.686 153.342 115.071C154.576 112.875 155.635 110.585 156.508 108.224V108.224Z" fill="#F47160"/>
<path d="M61.9069 39.0751C65.7234 39.387 67.1342 33.6753 67.9442 30.1773C68.8055 26.3751 69.529 22.55 70.1148 18.7021C66.1918 19.0081 62.3076 19.6898 58.5158 20.7381C57.94 25.6205 58.8075 30.4984 59.7781 35.3041C60.0827 36.7857 60.706 38.9835 61.9069 39.0751Z" fill="#FFE1DC"/>
<path d="M109.031 40.8129C108.975 41.7864 109.416 43.0617 110.424 43.5595C112.746 44.7154 114.283 42.1335 115.44 40.4724C117.762 37.1113 119.155 33.3263 120.188 29.4165C118.914 28.6243 117.606 27.8818 116.263 27.189C114.681 26.3721 113.06 25.6213 111.4 24.9365C110.496 30.1734 109.17 35.3493 109.031 40.8129Z" fill="#FFE1DC"/>
<path d="M82.7935 33.6217C82.67 37.254 82.7192 40.8937 82.9059 44.5231C82.9765 45.8872 83.074 47.2809 83.6081 48.5385C84.2508 50.0488 85.8178 51.3342 87.5388 51.1454C89.794 50.8983 90.629 48.4885 91.5439 46.7524C94.204 41.7025 96.0263 36.3878 97.674 30.9492C97.9406 30.0682 100.966 21.397 99.9496 21.0074C99.8465 20.9676 99.5874 20.9149 99.4852 20.8797C96.5724 19.785 93.4331 19.3408 90.212 18.9845C88.4175 18.7864 86.5961 18.4598 84.7478 18.4848C83.4948 18.5023 83.0276 29.1918 82.9552 30.3486C82.8839 31.4399 82.8301 32.531 82.7935 33.6217Z" fill="#FFE1DC"/>
<path d="M151.124 67.4441C152.165 67.4098 152.993 66.9888 153.799 66.3641C164.837 57.8855 175.074 44.4864 172.637 30.7644C170.946 21.2761 156.863 21.364 148.018 21.7878C140.454 22.2506 132.992 25.7986 127.805 31.5972C124.447 35.484 123.664 41.7092 127.594 45.5441C134.29 51.6019 141.005 57.0193 146.953 63.6258C148.315 64.9214 149.706 66.1941 151.124 67.4441Z" fill="#F47160"/>
<path d="M151.331 57.4864C153.668 57.4059 155.632 55.7235 157.276 53.6718C159.18 51.3009 160.746 48.5635 162.084 45.8456C163.338 43.2998 165.985 38.0721 163.849 35.3884C163.092 34.4325 161.793 34.1188 160.586 33.9309C153.363 32.8037 139.164 33.2674 137.746 42.7575C136.876 48.5783 143.876 54.5436 148.536 56.8414C149.528 57.3217 150.456 57.5169 151.331 57.4864Z" fill="#FFE1DC"/>
<path d="M20.9472 46.4453C19.9589 46.115 19.2865 45.4755 18.6939 44.6473C10.5548 33.3739 4.5974 17.6159 10.8771 5.16354C15.2239 -3.44281 28.6916 0.657697 37.0443 3.59033C44.1581 6.19075 50.2882 11.7201 53.592 18.7514C55.6911 23.4377 54.6527 29.6213 49.7839 32.1754C41.6271 36.0687 33.6356 39.3456 26.0389 43.9754C24.3621 44.8293 22.6649 45.6526 20.9472 46.4453Z" fill="#F47160"/>
<path d="M23.6091 36.8456C21.3929 36.1053 19.9951 33.9296 19.0059 31.4939C17.8625 28.6788 17.1483 25.6092 16.6477 22.6229C16.1833 19.8263 15.1458 14.0665 17.961 12.0945C18.9604 11.3949 20.2951 11.4652 21.5053 11.6318C28.75 12.6136 42.2177 17.1093 40.8524 26.6059C40.0165 32.4314 31.5922 36.1497 26.4661 37.0214C25.3859 37.2028 24.445 37.1251 23.6091 36.8456Z" fill="#FFE1DC"/>
<path d="M77.1852 98.309C77.136 98.2803 77.0859 98.2507 77.0366 98.2165C75.7378 97.4035 74.5967 96.364 73.6678 95.1478C73.3682 94.7531 73.0999 94.3357 72.8654 93.8994C72.1762 92.7121 71.8168 90.7845 73.0781 89.8202C73.5954 89.425 74.2642 89.2946 74.9106 89.2131C78.2608 88.7893 82.029 89.0179 85.2881 89.9053C86.0191 90.1043 86.7649 90.368 87.3074 90.8918C88.9365 92.4743 87.0445 94.9063 85.9374 96.1787C83.8364 98.5996 80.1453 100.04 77.1852 98.309Z" fill="#020010"/>
<path d="M13.9632 67.6322C13.5731 66.8446 12.6907 67.3832 12.4148 67.9015C12.1492 68.3993 12.2932 69.1971 12.3731 69.7292C12.4362 70.1512 12.5124 70.7971 12.7678 71.1617C13.1393 71.6966 13.4393 71.5957 13.6557 71.1885C14.1099 70.3353 14.2158 68.1402 13.9632 67.6322Z" fill="#FFE1DC"/>
<path d="M23.2308 79.8643C22.837 79.0777 21.9574 79.621 21.6834 80.142C21.4206 80.6408 21.5683 81.4375 21.65 81.9697C21.715 82.3916 21.7949 83.0367 22.0512 83.4013C22.4283 83.9343 22.7246 83.8316 22.9392 83.4235C23.3897 82.5675 23.4863 80.3733 23.2308 79.8643Z" fill="#FFE1DC"/>
<path d="M25.2806 64.809C24.8858 64.0233 24.0063 64.5666 23.7323 65.0866C23.4694 65.5864 23.6171 66.3822 23.6988 66.9153C23.7638 67.3363 23.8437 67.9822 24.101 68.3459C24.4772 68.8799 24.7735 68.7772 24.9889 68.3681C25.4394 67.5158 25.536 65.3217 25.2806 64.809Z" fill="#FFE1DC"/>
<path d="M19.9964 52.408C19.8794 51.5371 18.8697 51.7676 18.4425 52.1701C18.0319 52.557 17.9112 53.3621 17.8165 53.8886C17.7412 54.3088 17.6066 54.9445 17.7319 55.3693C17.9177 55.9958 18.2279 55.9939 18.5679 55.6774C19.2682 55.0139 20.0725 52.9688 19.9964 52.408Z" fill="#FFE1DC"/>
<path d="M20.307 100.061C19.9132 99.274 19.0327 99.8172 18.7596 100.338C18.4968 100.837 18.6444 101.634 18.7262 102.166C18.7912 102.588 18.8701 103.233 19.1274 103.598C19.5045 104.131 19.8008 104.028 20.0154 103.62C20.4658 102.763 20.5624 100.569 20.307 100.061Z" fill="#FFE1DC"/>
<path d="M11.3829 85.1897C10.8192 84.5142 10.0826 85.2425 9.93864 85.8097C9.79746 86.3557 10.1244 87.1053 10.3241 87.5976C10.4848 87.9937 10.7095 88.6036 11.043 88.8997C11.5325 89.3337 11.7972 89.1662 11.9133 88.7202C12.1557 87.7855 11.747 85.6302 11.3829 85.1897Z" fill="#FFE1DC"/>
<path d="M78.7795 94.7111C78.6272 98.2897 79.2263 103.569 75.1136 105.218C73.6135 105.82 71.8627 105.785 70.5197 104.826C69.1525 103.85 68.2822 102.284 67.9125 100.669C67.8113 100.225 67.4593 99.8675 66.9698 99.9286C66.5509 99.9795 66.1227 100.418 66.2267 100.868C66.9271 103.929 69.1227 107.075 72.5361 107.289C74.1621 107.402 75.7788 106.965 77.1253 106.05C78.604 105.032 79.4631 103.429 79.9322 101.733C80.5424 99.5325 80.365 97.2236 80.4607 94.9674C80.4802 94.5112 80.2387 94.0781 79.7492 94.0032C79.334 93.9402 78.8009 94.253 78.7814 94.712L78.7795 94.7111Z" fill="#020010"/>
<path d="M78.8212 95.255C79.0227 98.655 77.6091 102.459 79.3246 105.651C80.2005 107.28 81.9959 108.535 83.8117 108.89C85.4984 109.224 87.2186 108.754 88.6712 107.898C90.3275 106.917 91.6016 105.406 92.2861 103.611C92.6632 102.594 91.114 101.898 90.735 102.92C89.8174 105.399 87.161 107.652 84.3727 107.27C82.8866 107.065 81.3076 105.992 80.7002 104.611C80.1085 103.271 80.1429 101.733 80.2358 100.3C80.3537 98.5541 80.6073 96.8078 80.5061 95.0542C80.441 93.9677 78.7534 94.1667 78.8184 95.2531L78.8212 95.255Z" fill="#020010"/>
<path d="M120.821 105.965C122.168 107.668 122.717 110.09 121.733 112.009C120.854 113.725 118.963 114.716 117.073 115.123C112.996 116 108.488 114.475 105.796 111.298C104.902 110.246 104.189 108.997 104.002 107.632C103.229 101.961 110.653 101.489 114.46 102.429C116.709 102.984 118.959 103.91 120.52 105.612C120.624 105.725 120.725 105.844 120.821 105.965Z" fill="#FFC3BB"/>
<path d="M40.0389 92.2648C38.3782 93.1338 37.1902 94.5349 37.1865 96.6938C37.1745 104.282 46.939 105.398 52.2927 102.709C54.7076 101.497 56.0692 98.652 55.2398 96.0461C54.232 92.8821 50.3793 91.3413 47.3356 91.0923C45.1492 90.9054 42.1956 91.1367 40.0389 92.2648Z" fill="#FFC3BB"/>
<path d="M40.8003 86.2848C41.926 83.404 42.5651 79.8069 45.0979 77.7516C46.2561 76.8104 47.9912 76.2339 49.3203 77.2037C50.5156 78.0745 51.1119 79.6015 51.3739 80.9979C51.6971 82.7238 51.6859 84.4895 51.9386 86.2237C52.1466 87.6581 54.399 87.4027 54.1891 85.96C53.6643 82.3509 54.0033 78.3633 51.0311 75.6796C49.3955 74.1989 46.9156 74.1313 45.0115 75.1104C43.2245 76.0303 41.9344 77.6535 41.0279 79.4071C40.048 81.3024 39.5046 83.3799 38.731 85.3594C38.2034 86.7105 40.27 87.6368 40.7994 86.2848H40.8003Z" fill="#020010"/>
<path d="M109.719 96.2348C110.475 94.5866 111.112 92.8876 111.907 91.2551C112.65 89.7245 113.574 88.0967 114.812 87.113C115.987 86.1792 117.448 85.9016 118.796 86.5244C118.78 86.517 119.088 86.6873 118.955 86.6049C118.822 86.5226 119.101 86.7141 119.09 86.7049C119.147 86.7511 119.471 87.075 119.334 86.9159C119.456 87.057 119.565 87.2081 119.662 87.3675C119.763 87.5313 119.558 87.1352 119.695 87.4322C119.746 87.5442 119.797 87.6562 119.842 87.7709C119.973 88.0756 120.06 88.3976 120.098 88.7269C120.169 89.1651 120.215 89.6069 120.235 90.0502C120.337 92.0288 120.037 94.0193 120.302 96.0802C120.488 97.5183 122.737 97.2611 122.552 95.8156C122.296 93.8157 122.578 92.0334 122.494 89.9734C122.419 88.1152 122.006 85.9488 120.345 84.829C118.567 83.626 116.135 83.7037 114.308 84.7365C112.543 85.7322 111.361 87.485 110.415 89.2174C109.342 91.1792 108.583 93.2892 107.653 95.3121C107.046 96.6364 109.116 97.5553 109.722 96.2375L109.719 96.2348Z" fill="#020010"/>
<path d="M41.4974 58.8299C39.7095 58.0525 38.3711 56.7939 39.4736 54.8867C40.3309 53.406 41.5634 53.208 43.2037 52.8998C46.5762 52.265 49.9747 51.9337 53.362 52.6795C54.3512 52.897 55.3636 53.2135 56.0992 53.9076C57.6986 55.4169 56.8014 57.4362 55.1425 58.3644C52.3766 59.9107 48.6678 60.1662 45.5758 59.8552C44.582 59.7553 42.9018 59.4406 41.4974 58.8299Z" fill="#FFE1DC"/>
<path d="M125.34 70.9265C127.285 70.7701 128.963 70.0132 128.541 67.8514C128.214 66.1727 127.111 65.5878 125.662 64.7651C122.678 63.0735 119.572 61.6594 116.126 61.2689C115.119 61.1542 114.059 61.1255 113.137 61.5465C111.131 62.4562 111.322 64.6569 112.589 66.0709C114.7 68.4289 118.123 69.8706 121.148 70.5777C122.122 70.8025 123.813 71.0496 125.34 70.9265Z" fill="#FFE1DC"/>
<path d="M0.00434902 124.82C-0.053237 123.102 0.455737 121.433 1.84895 120.044C7.57226 114.342 14.8588 123.119 19.2669 126.27C29.0584 133.269 40.0935 134.03 51.4723 136.529C52.5646 136.684 53.5008 138.239 52.2525 139.016C43.5143 145.079 32.9027 147.101 23.0044 144.351C21.6502 143.975 20.3152 143.538 18.9994 143.038C12.9881 140.761 7.00567 137.285 3.02388 132.131C1.45698 130.097 0.0907281 127.402 0.00434902 124.82Z" fill="#F47160"/>
<path d="M13.1889 121.307C9.50988 118.522 5.38226 116.525 1.84907 120.044C0.455863 121.432 -0.0540391 123.098 0.00447574 124.82C0.0667058 126.671 0.785602 128.574 1.76921 130.254C6.87115 129.147 11.5338 126.176 13.1889 121.307Z" fill="#FFC3BB"/>
<path d="M51.4726 136.528C40.0947 134.034 29.0595 133.271 19.2681 126.273C17.5804 125.07 15.472 123.034 13.19 121.31C11.533 126.178 6.87406 129.15 1.76562 130.256C2.14482 130.908 2.56581 131.533 3.026 132.13C7.00594 137.284 12.9884 140.76 19.0015 143.037C20.3148 143.535 21.6498 143.973 23.0065 144.351C32.9048 147.1 43.5164 145.079 52.2546 139.015C53.5002 138.235 52.5639 136.681 51.4726 136.528Z" fill="#F47160"/>
<path d="M30.2277 130.513C30.2151 130.463 30.2196 130.411 30.2405 130.364C30.2614 130.317 30.2974 130.279 30.3429 130.255C30.403 130.219 30.4703 130.197 30.54 130.191C30.6096 130.185 30.6797 130.195 30.7451 130.219C31.9367 130.624 33.16 131.379 34.295 131.93C35.3826 132.46 36.4674 133.04 37.6006 133.508C38.1632 133.745 38.712 134.014 39.2446 134.312C39.7685 134.612 40.3072 134.886 40.8588 135.132C41.1718 135.266 41.4944 135.377 41.8239 135.463C42.1518 135.555 42.4805 135.648 42.7954 135.777L43.1809 135.934L44.3363 136.414C44.522 136.477 44.7078 136.542 44.8936 136.599C45.8224 136.904 46.767 137.171 47.7097 137.425L47.9633 137.49C48.6394 137.72 49.3788 137.716 49.9714 138.157C50.1107 138.249 50.1506 138.546 49.9788 138.609C49.1568 138.912 48.2141 138.546 47.4199 138.332C46.4373 138.064 45.4694 137.758 44.5072 137.423C43.7344 137.153 42.9641 136.875 42.1963 136.59C41.3873 136.276 40.6118 135.875 39.8074 135.547C39.6653 135.487 39.5186 135.434 39.3783 135.37L38.9548 135.179C38.6761 135.055 38.3975 134.937 38.1077 134.824C37.5699 134.611 37.0628 134.371 36.5334 134.129C35.4077 133.617 34.2652 133.121 33.1516 132.549C32.4451 132.191 31.7587 131.795 31.0952 131.362C31.0135 131.307 30.8166 131.177 30.6243 131.024C30.4321 130.87 30.2639 130.678 30.2277 130.513Z" fill="#FFE1DC"/>
<path d="M41.795 140.508C41.844 140.498 41.8947 140.501 41.9419 140.517C41.9892 140.533 42.0311 140.562 42.0634 140.6C42.1072 140.644 42.1403 140.696 42.1602 140.755C42.18 140.813 42.186 140.875 42.1776 140.936C42.0915 141.457 41.9353 141.963 41.7132 142.443C41.6055 142.689 41.4894 142.931 41.3733 143.169L41.0111 143.855C40.5866 144.705 40.1129 145.539 39.7971 146.438C39.4897 147.32 39.0244 148.173 38.6826 149.055C38.4912 149.552 38.4968 150.119 38.3259 150.628C38.2915 150.732 38.2572 150.835 38.2219 150.94C38.1154 151.248 38.0051 151.558 37.8912 151.87C37.8494 152.019 37.8085 152.169 37.7667 152.319C37.5661 153.067 37.3757 153.82 37.1677 154.569C37.1491 154.635 37.1296 154.703 37.111 154.769C36.9095 155.3 36.915 155.904 36.4608 156.329C36.3615 156.43 36.0717 156.422 36.0132 156.282C35.7345 155.6 36.0847 154.903 36.2612 154.282C36.4757 153.52 36.6977 152.756 36.9206 151.994C37.1064 151.38 37.2773 150.761 37.4565 150.143C37.6479 149.489 37.9209 148.859 38.1401 148.214C38.2943 147.751 38.4485 147.288 38.5878 146.82C38.7299 146.385 38.8945 145.957 39.081 145.539C39.1739 145.311 39.2714 145.085 39.3727 144.859C39.4739 144.633 39.5677 144.405 39.6745 144.183L39.9912 143.512L40.3247 142.865C40.6033 142.318 40.868 141.766 41.1671 141.23C41.2424 141.093 41.5052 140.575 41.795 140.508Z" fill="#FFE1DC"/>
<path d="M125.9 184.883C125.854 184.896 125.805 184.899 125.757 184.892C125.708 184.885 125.663 184.868 125.622 184.842C125.573 184.819 125.53 184.784 125.496 184.742C125.462 184.699 125.439 184.65 125.427 184.597C125.303 183.807 125.553 182.977 125.663 182.225C125.769 181.506 125.942 180.786 125.954 180.054C125.965 179.339 126.149 178.605 126.206 177.886C126.236 177.479 126.063 177.065 126.068 176.657L126.074 176.405C126.082 176.153 126.092 175.901 126.11 175.647C126.105 175.529 126.1 175.409 126.094 175.29C126.065 174.694 126.025 174.096 126.013 173.496V173.334C126.056 172.897 125.883 172.448 126.208 172.038C126.277 171.946 126.557 171.886 126.652 171.98C127.1 172.425 126.958 173.008 126.967 173.503C126.979 174.114 126.991 174.723 127.003 175.332C127.012 175.824 127.032 176.318 127.048 176.812C127.065 177.338 126.995 177.865 126.981 178.393C126.97 178.77 126.972 179.142 126.981 179.521C126.982 179.874 126.962 180.226 126.921 180.576C126.849 181.332 126.774 182.089 126.642 182.84C126.563 183.314 126.454 183.783 126.316 184.243C126.283 184.358 126.164 184.8 125.9 184.883Z" fill="#FFE1DC"/>
<path d="M64.2715 19.6568C64.3119 19.6863 64.3436 19.7261 64.3632 19.772C64.3828 19.8179 64.3896 19.8683 64.3829 19.9177C64.3791 19.9788 64.3601 20.038 64.3277 20.0901C64.2953 20.1421 64.2504 20.1852 64.1972 20.2157C63.9631 20.3512 63.718 20.4667 63.4643 20.5609C63.3343 20.609 63.2015 20.6581 63.0677 20.6951C62.934 20.7321 62.8021 20.7552 62.6674 20.7821C62.1334 20.8876 61.6049 20.9672 61.1117 21.0717C60.1689 21.2726 59.1992 21.4188 58.2769 21.7195C57.3714 22.0157 56.3896 22.1572 55.4608 22.408C54.9397 22.5496 54.4614 22.8855 53.9515 23.0401C53.8465 23.0725 53.7397 23.1002 53.6357 23.1326C53.3218 23.24 53.0069 23.3427 52.6874 23.438L52.2508 23.6102L50.07 24.5161L49.875 24.5957C49.3251 24.7651 48.8533 25.1445 48.2282 25.0584C48.0851 25.0445 47.9068 24.8169 47.9848 24.6809C48.3563 24.0331 49.1328 23.8711 49.7421 23.6259C50.4908 23.3242 51.2425 23.0296 51.9973 22.7421C52.3069 22.628 52.6131 22.5111 52.9159 22.3914L53.3738 22.2063L53.8382 22.0453C54.4883 21.8195 55.1682 21.6751 55.8277 21.4641C56.2986 21.3151 56.7648 21.1541 57.2311 20.9866C57.6704 20.8265 58.1107 20.7155 58.563 20.5961C59.5271 20.3425 60.4968 20.0954 61.4813 19.9076C61.7897 19.8474 62.1055 19.7965 62.4101 19.7521L62.8745 19.6929C63.0259 19.6697 63.1708 19.6373 63.3194 19.6124C63.4681 19.5874 64.0272 19.4763 64.2715 19.6568Z" fill="#FFE1DC"/>
<path d="M117.427 28.6578C117.418 28.6093 117.421 28.5593 117.438 28.5127C117.454 28.4661 117.482 28.4245 117.52 28.3922C117.564 28.3497 117.618 28.3184 117.677 28.3007C117.736 28.283 117.798 28.2795 117.859 28.2904C118.88 28.4755 119.85 29.1871 120.666 29.7479C121.069 30.0191 121.456 30.2902 121.847 30.5632C122.238 30.8362 122.646 31.1027 123.063 31.3415C123.899 31.8449 124.592 32.5584 125.299 33.2016C125.699 33.5634 126.228 33.7957 126.617 34.1696C126.698 34.2455 126.778 34.3232 126.856 34.4019C127.092 34.6357 127.321 34.8763 127.543 35.1237L127.883 35.4466C128.451 35.9825 129.012 36.521 129.555 37.0744L129.7 37.2234C130.057 37.6621 130.579 37.9554 130.722 38.5551C130.759 38.6911 130.611 38.9392 130.458 38.9188C129.728 38.8262 129.299 38.172 128.852 37.7158C128.303 37.1503 127.754 36.5886 127.197 36.0371C126.747 35.5929 126.284 35.1625 125.804 34.7507C125.301 34.3139 124.841 33.8253 124.318 33.4163C123.946 33.1229 123.557 32.8513 123.154 32.6028C122.968 32.4825 122.782 32.3706 122.601 32.2475C122.42 32.1244 122.23 32.0069 122.039 31.8838L120.806 31.1055C120.387 30.8455 119.995 30.5799 119.594 30.3097C119.091 29.97 118.591 29.6461 118.09 29.3167C117.975 29.2297 117.484 28.9465 117.427 28.6578Z" fill="#FFE1DC"/>
</svg>
