<svg width="56" height="63" viewBox="0 0 56 63" fill="none" xmlns="http://www.w3.org/2000/svg">
<g clip-path="url(#clip0)">
<path d="M39.7314 32.1855L27.5787 40.7703C27.1597 41.0662 26.9485 41.4817 27.1057 41.7006L42.2688 62.8689C42.4261 63.0884 42.8898 63.027 43.3089 62.7304L46.5824 54.2599L55.4623 54.1456C55.9767 54.1384 56.0925 53.4342 55.9353 53.2153L40.7722 32.047C40.615 31.8275 40.1505 31.8889 39.7314 32.1855Z" fill="#F85060"/>
<path d="M16.269 32.1854L28.4224 40.7702C28.8415 41.0661 29.0526 41.4816 28.8954 41.7005L13.7316 62.8688C13.5744 63.0883 13.1106 63.0269 12.6916 62.7303L9.41803 54.2598L0.53818 54.1455C0.0237302 54.1383 -0.0920538 53.4341 0.0651756 53.2152L15.2283 32.0475C15.3855 31.8274 15.85 31.8888 16.269 32.1854Z" fill="#F85060"/>
<path d="M51.622 37.7042L47.3893 39.3792L46.6196 43.8386L42.0731 44.1325L39.9535 48.1372L35.5379 47.022L32.2755 50.18L28.4238 47.7641L24.3384 49.7671L21.4261 46.2871L16.9177 46.9384L15.231 42.7352L10.7404 41.9708L10.4443 37.456L6.41163 35.3511L7.53461 30.9669L4.35449 27.7273L6.78727 23.9017L4.77026 19.8448L8.27404 16.9533L7.61881 12.4757L11.8508 10.8007L12.6212 6.34207L17.167 6.04744L19.2873 2.04282L23.7023 3.15797L26.9646 0L30.8171 2.41584L34.9024 0.412875L37.8141 3.89291L42.3231 3.24159L44.0092 7.44481L48.4998 8.20915L48.7958 12.724L52.8292 14.8289L51.7056 19.2137L54.8863 22.4527L52.4535 26.2783L54.4699 30.3352L50.9661 33.2266L51.622 37.7042Z" fill="#FCE864"/>
<path d="M50.4051 37.007L46.4066 38.5892L45.6797 42.8016L41.3845 43.0799L39.382 46.8631L35.2105 45.8093L32.1284 48.7935L28.4891 46.5109L24.6294 48.4029L21.8788 45.1155L17.6192 45.7309L16.0258 41.7603L11.7833 41.0377L11.5037 36.7725L7.69399 34.7839L8.75512 30.6414L5.75 27.5814L8.04858 23.9675L6.1434 20.1346L9.45377 17.4026L8.83407 13.1726L12.8326 11.5903L13.5602 7.37798L17.8554 7.09968L19.8579 3.31652L24.0287 4.37026L27.1108 1.38672L30.7501 3.66864L34.6098 1.77673L37.361 5.06405L41.62 4.44931L43.214 8.41931L47.4559 9.14184L47.7362 13.4071L51.5459 15.3957L50.4847 19.5382L53.4892 22.5982L51.1913 26.2121L53.0965 30.0449L49.7861 32.777L50.4051 37.007Z" fill="#FFCE33"/>
<path d="M47.0466 25.0901C47.0466 34.6477 39.2444 42.395 29.6205 42.395C19.9959 42.395 12.1943 34.647 12.1943 25.0901C12.1943 20.5008 14.0304 16.099 17.2987 12.8535C20.567 9.60798 24.999 7.78467 29.6212 7.78467C34.2433 7.78467 38.6753 9.60798 41.9436 12.8535C45.2119 16.099 47.0466 20.5008 47.0466 25.0901Z" fill="#E6A203"/>
<path d="M45.2167 25.0901C45.2167 29.1979 43.5734 33.1372 40.6485 36.0417C37.7237 38.9462 33.7567 40.5781 29.6201 40.5781C25.4834 40.5781 21.5165 38.9462 18.5916 36.0417C15.6668 33.1372 14.0234 29.1979 14.0234 25.0901C14.0234 16.536 21.006 9.60205 29.6201 9.60205C38.2342 9.60205 45.2167 16.536 45.2167 25.0901Z" fill="#EEAD09"/>
<path d="M35.7489 27.042L36.8909 34.8266L29.9741 30.9911L22.8712 34.4744L24.4073 26.7572L18.876 21.1259L26.742 20.1917L30.4261 13.2271L33.7516 20.3674L41.5598 21.6949L35.7489 27.042Z" fill="#E6A203"/>
<path d="M35.0018 26.6713L36.1439 34.4558L29.2271 30.6203L22.1241 34.1043L23.6602 26.3871L18.1289 20.7551L25.995 19.8209L29.679 12.8569L33.0045 19.9967L40.8127 21.3241L35.0018 26.6713Z" fill="#FFE264"/>
<path d="M34.2206 26.2451L35.2008 32.9295L29.2616 29.6363L23.1632 32.6271L24.4815 26.0008L19.7324 21.1652L26.4861 20.363L29.6497 14.3828L32.5055 20.5139L39.2098 21.6539L34.2206 26.2451Z" fill="#FDCE33"/>
</g>
<defs>
<clipPath id="clip0">
<rect width="56" height="63" fill="white"/>
</clipPath>
</defs>
</svg>
